<svg width="88" height="88" viewBox="0 0 88 88" fill="none" xmlns="http://www.w3.org/2000/svg">
<circle cx="44" cy="44" r="44" fill="#1765AB" class="cor"/>
<path d="M60.5722 61.1191H27.4307V18.3334H53.519L60.5722 25.7873V61.1191Z" fill="#F7F8F9"/>
<path d="M53.5195 18.3335V25.7874H60.5727L53.5195 18.3335Z" fill="#DEE8F5"/>
<path d="M50.7918 36.5276V38.4157C50.7918 38.737 50.6642 39.0451 50.437 39.2723C50.2098 39.4994 49.9017 39.6271 49.5805 39.6271H25.2798C24.9585 39.6271 24.6504 39.7547 24.4232 39.9819C24.196 40.2091 24.0684 40.5172 24.0684 40.8385V68.4555C24.0684 68.7768 24.196 69.0849 24.4232 69.3121C24.6504 69.5393 24.9585 69.6669 25.2798 69.6669H62.7214C62.8805 69.6669 63.0381 69.6356 63.185 69.5747C63.332 69.5138 63.4655 69.4246 63.578 69.3121C63.6905 69.1996 63.7797 69.066 63.8406 68.9191C63.9015 68.7721 63.9328 68.6146 63.9328 68.4555V36.5276C63.9328 36.3685 63.9014 36.211 63.8406 36.064C63.7797 35.9171 63.6905 35.7835 63.578 35.671C63.4655 35.5586 63.332 35.4693 63.185 35.4085C63.038 35.3476 62.8805 35.3163 62.7214 35.3163H52.0032C51.8441 35.3162 51.6866 35.3476 51.5396 35.4084C51.3926 35.4693 51.2591 35.5585 51.1466 35.671C51.0341 35.7835 50.9449 35.917 50.884 36.064C50.8231 36.211 50.7918 36.3685 50.7918 36.5276Z" fill="#DEE8F5"/>
<path d="M44.0008 63.7068C49.0209 63.7068 53.0905 59.6372 53.0905 54.6171C53.0905 49.597 49.0209 45.5274 44.0008 45.5274C38.9807 45.5274 34.9111 49.597 34.9111 54.6171C34.9111 59.6372 38.9807 63.7068 44.0008 63.7068Z" fill="#F7F8F9"/>
<path d="M47.5183 53.0075H47.0171V51.8882C47.0126 51.091 46.6928 50.328 46.1276 49.7659C45.5623 49.2038 44.7975 48.8883 44.0004 48.8883C43.2032 48.8883 42.4384 49.2038 41.8732 49.7659C41.3079 50.328 40.9881 51.091 40.9836 51.8882V53.0075H40.4826C40.2536 53.0075 40.034 53.0985 39.872 53.2604C39.7101 53.4223 39.6191 53.6419 39.6191 53.871V59.4994C39.6191 59.7284 39.7101 59.948 39.872 60.1099C40.034 60.2718 40.2536 60.3628 40.4826 60.3628H47.5181C47.6315 60.3628 47.7438 60.3405 47.8486 60.2971C47.9533 60.2537 48.0485 60.1901 48.1287 60.1099C48.2088 60.0297 48.2724 59.9345 48.3158 59.8298C48.3592 59.725 48.3815 59.6127 48.3815 59.4994V53.871C48.3815 53.642 48.2906 53.4224 48.1287 53.2605C47.9669 53.0985 47.7473 53.0075 47.5183 53.0075ZM41.9645 51.8882C41.9645 51.3482 42.179 50.8303 42.5608 50.4485C42.9426 50.0666 43.4605 49.8521 44.0005 49.8521C44.5405 49.8521 45.0584 50.0666 45.4402 50.4485C45.822 50.8303 46.0366 51.3482 46.0366 51.8882V53.0075H41.9645V51.8882Z" fill="#1765AB" class="cor"/>
<path d="M43.9994 57.9924C44.6894 57.9924 45.2488 57.433 45.2488 56.743C45.2488 56.0529 44.6894 55.4936 43.9994 55.4936C43.3094 55.4936 42.75 56.0529 42.75 56.743C42.75 57.433 43.3094 57.9924 43.9994 57.9924Z" fill="white"/>
</svg>
