<svg width="1683" height="1013" viewBox="0 0 1683 1013" fill="none" xmlns="http://www.w3.org/2000/svg">
<g clip-path="url(#clip0_11_18784)">
<path d="M1682.53 0H0V1012.6H1682.53V0Z" fill="white"/>
<path d="M1432.65 223.7H1430.65V927.92H1432.65V223.7Z" fill="#CFEAFF"/>
<path d="M1315.67 223.7H1313.67V927.92H1315.67V223.7Z" fill="#CFEAFF"/>
<path d="M1201.61 223.7H1199.61V927.92H1201.61V223.7Z" fill="#CFEAFF"/>
<path d="M1086.5 223.7H1084.5V927.92H1086.5V223.7Z" fill="#CFEAFF"/>
<path d="M969.52 223.7H967.52V927.92H969.52V223.7Z" fill="#CFEAFF"/>
<path d="M853.17 223.7H851.17V927.92H853.17V223.7Z" fill="#CFEAFF"/>
<path d="M735.96 225.65H733.96V929.86H735.96V225.65Z" fill="#CFEAFF"/>
<path d="M620.04 223.7H618.04V927.92H620.04V223.7Z" fill="#CFEAFF"/>
<path d="M500.54 225.65H498.54V929.86H500.54V225.65Z" fill="#CFEAFF"/>
<path d="M558.51 286.88H501.83V394.37H558.51V286.88Z" fill="#05427B"/>
<path d="M669.82 448.39H501.83V555.75H669.82V448.39Z" fill="#05427B"/>
<path d="M558.51 609.76H501.83V717.25H558.51V609.76Z" fill="#05427B"/>
<path d="M1381.44 771.27H501.83V878.63H1381.44V771.27Z" fill="#05427B"/>
<path d="M338.61 95.27H331.4V119.05H325.34V95.27H317.76V90.53H339.27L338.61 95.27Z" fill="#1765AB"/>
<path d="M358.31 109.9H344.67C345.08 114.1 347.06 115.34 349.86 115.34C351.71 115.34 353.28 114.76 355.18 113.44L357.61 116.74C355.47 118.47 352.75 119.71 349.33 119.71C342.32 119.71 338.66 115.09 338.66 108.25C338.66 101.41 342.2 96.54 348.59 96.54C354.98 96.54 358.44 100.66 358.44 107.63C358.44 108.37 358.36 109.28 358.32 109.9H358.31ZM352.62 105.98C352.62 102.68 351.51 100.54 348.7 100.54C346.39 100.54 344.95 102.11 344.66 106.23H352.61V105.98H352.62Z" fill="#1765AB"/>
<path d="M392.06 103.14V119.05H386.21V104.13C386.21 101.62 385.22 100.92 384.07 100.92C382.46 100.92 381.39 102.03 380.28 103.97V119.05H374.43V104.13C374.43 101.62 373.48 100.92 372.29 100.92C370.68 100.92 369.61 102.03 368.54 103.97V119.05H362.69V97.21H367.76L368.21 99.93C369.82 97.79 371.8 96.55 374.56 96.55C377.03 96.55 378.93 97.83 379.75 100.09C381.48 97.82 383.5 96.55 386.3 96.55C389.72 96.55 392.07 99.02 392.07 103.14H392.06Z" fill="#1765AB"/>
<path d="M417.52 108.08C417.52 114.76 414.35 119.7 408.86 119.7C406.68 119.7 404.82 118.92 403.46 117.35V127.45L397.61 128.11V97.2H402.76L403.05 99.76C404.78 97.53 407.13 96.55 409.4 96.55C415.09 96.55 417.52 101.04 417.52 108.09V108.08ZM411.42 108.12C411.42 102.64 410.02 100.87 407.59 100.87C405.9 100.87 404.46 102.02 403.47 103.67V113.19C404.42 114.63 405.61 115.33 407.14 115.33C409.82 115.33 411.43 113.23 411.43 108.12H411.42Z" fill="#1765AB"/>
<path d="M441.79 108.13C441.79 115.05 437.87 119.71 431.32 119.71C424.77 119.71 420.85 115.38 420.85 108.13C420.85 100.88 424.77 96.55 431.36 96.55C437.95 96.55 441.79 100.88 441.79 108.13ZM426.95 108.13C426.95 113.16 428.43 115.34 431.32 115.34C434.21 115.34 435.69 113.11 435.69 108.13C435.69 103.15 434.21 100.92 431.36 100.92C428.51 100.92 426.95 103.15 426.95 108.13Z" fill="#1765AB"/>
<path d="M475.21 88.51V119.05H470.06L469.73 116.37C468.41 118.27 466.39 119.71 463.47 119.71C457.99 119.71 455.19 115.09 455.19 108.13C455.19 101.17 458.65 96.55 464.05 96.55C466.28 96.55 468.05 97.46 469.37 98.73V87.85L475.22 88.51H475.21ZM469.36 112.7V102.93C468.29 101.65 467.18 100.87 465.57 100.87C463.01 100.87 461.28 103.01 461.28 108.12C461.28 113.6 462.85 115.33 465.2 115.33C466.97 115.33 468.21 114.42 469.36 112.69V112.7Z" fill="#1765AB"/>
<path d="M499.32 109.9H485.68C486.09 114.1 488.07 115.34 490.87 115.34C492.72 115.34 494.29 114.76 496.19 113.44L498.62 116.74C496.48 118.47 493.76 119.71 490.34 119.71C483.33 119.71 479.67 115.09 479.67 108.25C479.67 101.41 483.21 96.54 489.6 96.54C495.99 96.54 499.45 100.66 499.45 107.63C499.45 108.37 499.37 109.28 499.33 109.9H499.32ZM493.63 105.98C493.63 102.68 492.52 100.54 489.71 100.54C487.4 100.54 485.96 102.11 485.67 106.23H493.62V105.98H493.63Z" fill="#1765AB"/>
<path d="M543.12 103.14V119.05H537.27V104.13C537.27 101.62 536.28 100.92 535.13 100.92C533.52 100.92 532.45 102.03 531.34 103.97V119.05H525.49V104.13C525.49 101.62 524.54 100.92 523.35 100.92C521.74 100.92 520.67 102.03 519.6 103.97V119.05H513.75V97.21H518.82L519.27 99.93C520.88 97.79 522.86 96.55 525.62 96.55C528.09 96.55 529.99 97.83 530.81 100.09C532.54 97.82 534.56 96.55 537.36 96.55C540.78 96.55 543.13 99.02 543.13 103.14H543.12Z" fill="#1765AB"/>
<path d="M555.15 89.37C555.15 91.31 553.67 92.79 551.56 92.79C549.45 92.79 548.02 91.31 548.02 89.37C548.02 87.43 549.46 85.95 551.56 85.95C553.66 85.95 555.15 87.43 555.15 89.37ZM554.53 119.04H548.68V97.2H554.53V119.04Z" fill="#1765AB"/>
<path d="M579.84 98.4C578.23 99.02 576.17 99.22 573.53 99.22C576.21 100.41 577.57 102.06 577.57 104.82C577.57 109.07 574.15 112.16 568.59 112.16C567.64 112.16 566.82 112.08 566.03 111.87C565.54 112.2 565.21 112.74 565.21 113.31C565.21 114.05 565.58 114.75 567.72 114.75H571.06C576.01 114.75 579.18 117.39 579.18 121.01C579.18 125.42 575.35 128.1 568.05 128.1C560.05 128.1 557.87 125.5 557.87 121.14H563.1C563.1 123.2 564.01 124.11 568.17 124.11C572.33 124.11 573.28 123 573.28 121.43C573.28 119.95 572.17 119.04 569.86 119.04H566.65C562.08 119.04 560.18 117.06 560.18 114.75C560.18 113.18 561.17 111.66 562.74 110.67C560.02 109.19 558.87 107.25 558.87 104.45C558.87 99.63 562.7 96.54 568.18 96.54C573.21 96.66 575.76 95.39 578.4 93.9L579.84 98.39V98.4ZM564.71 104.38C564.71 106.89 566.11 108.38 568.34 108.38C570.69 108.38 571.93 106.98 571.93 104.3C571.93 101.62 570.73 100.47 568.3 100.47C566.07 100.47 564.71 101.99 564.71 104.39V104.38Z" fill="#1765AB"/>
<path d="M596.2 96.92L595.21 102.57C594.55 102.41 594.01 102.28 593.27 102.28C590.59 102.28 589.35 104.26 588.57 107.76V119.05H582.72V97.21H587.79L588.33 101.46C589.36 98.41 591.46 96.6 594.02 96.6C594.8 96.6 595.46 96.72 596.2 96.93V96.92Z" fill="#1765AB"/>
<path d="M615.94 115.75L614.7 119.62C612.23 119.41 610.58 118.59 609.67 116.41C608.1 118.8 605.71 119.71 603.12 119.71C598.75 119.71 596.03 116.91 596.03 112.95C596.03 108.17 599.62 105.57 606.09 105.57H608.6V104.5C608.6 101.78 607.45 100.91 604.68 100.91C603.24 100.91 601.14 101.32 598.91 102.06L597.59 98.14C600.31 97.07 603.19 96.53 605.67 96.53C611.73 96.53 614.32 99.21 614.32 104.15V112.97C614.32 114.74 614.86 115.36 615.93 115.73L615.94 115.75ZM608.6 113.07V108.91H606.66C603.49 108.91 601.92 110.06 601.92 112.45C601.92 114.39 602.91 115.5 604.72 115.5C606.41 115.5 607.69 114.63 608.59 113.07H608.6Z" fill="#1765AB"/>
<path d="M630.48 119.67V121.11C633.36 121.4 634.64 122.96 634.64 125.07C634.64 127.83 632.25 129.64 628.75 129.64C626.9 129.64 625.33 129.15 624.34 128.45L625.7 125.65C626.52 126.1 627.31 126.35 628.34 126.35C629.49 126.35 630.32 126.02 630.32 125.03C630.32 124.04 629.21 123.55 626.53 123.55L627.07 119.51C621.92 118.56 618.87 114.4 618.87 108.3C618.87 101.38 622.91 96.55 629.3 96.55C632.23 96.55 634.49 97.42 636.55 99.19L633.99 102.65C632.59 101.58 631.31 101.08 629.7 101.08C626.77 101.08 625.04 103.18 625.04 108.25C625.04 113.32 626.89 115.01 629.66 115.01C631.27 115.01 632.38 114.52 633.99 113.49L636.55 117.16C634.82 118.56 632.88 119.47 630.49 119.67H630.48Z" fill="#1765AB"/>
<path d="M657.76 115.75L656.52 119.62C654.05 119.41 652.4 118.59 651.49 116.41C649.92 118.8 647.53 119.71 644.94 119.71C640.57 119.71 637.85 116.91 637.85 112.95C637.85 108.17 641.44 105.57 647.91 105.57H650.42V104.5C650.42 101.78 649.27 100.91 646.5 100.91C645.06 100.91 642.96 101.32 640.73 102.06L639.41 98.14C642.13 97.07 645.01 96.53 647.49 96.53C653.55 96.53 656.14 99.21 656.14 104.15V112.97C656.14 114.74 656.68 115.36 657.75 115.73L657.76 115.75ZM643.13 92.63L640.12 91.15C641.11 88.68 642.88 86.58 645.23 86.58C647.7 86.58 648.61 88.48 650.01 88.48C650.92 88.48 651.49 87.86 652.19 86.67L655.2 88.15C654.13 90.83 652.36 92.68 650.05 92.68C647.74 92.68 646.71 90.78 645.31 90.78C644.36 90.78 643.79 91.44 643.13 92.63ZM650.42 113.07V108.91H648.48C645.31 108.91 643.74 110.06 643.74 112.45C643.74 114.39 644.73 115.5 646.54 115.5C648.23 115.5 649.51 114.63 650.41 113.07H650.42Z" fill="#1765AB"/>
<path d="M681.62 108.13C681.62 115.05 677.7 119.71 671.15 119.71C664.6 119.71 660.68 115.38 660.68 108.13C660.68 100.88 664.6 96.55 671.19 96.55C677.78 96.55 681.62 100.88 681.62 108.13ZM666.78 108.13C666.78 113.16 668.26 115.34 671.15 115.34C674.04 115.34 675.52 113.11 675.52 108.13C675.52 103.15 674.04 100.92 671.19 100.92C668.34 100.92 666.78 103.15 666.78 108.13Z" fill="#1765AB"/>
<path d="M715.04 88.51V119.05H709.89L709.56 116.37C708.24 118.27 706.22 119.71 703.3 119.71C697.82 119.71 695.02 115.09 695.02 108.13C695.02 101.17 698.48 96.55 703.88 96.55C706.11 96.55 707.88 97.46 709.2 98.73V87.85L715.05 88.51H715.04ZM709.19 112.7V102.93C708.12 101.65 707.01 100.87 705.4 100.87C702.84 100.87 701.11 103.01 701.11 108.12C701.11 113.6 702.68 115.33 705.03 115.33C706.8 115.33 708.04 114.42 709.19 112.69V112.7Z" fill="#1765AB"/>
<path d="M739.1 115.75L737.86 119.62C735.39 119.41 733.74 118.59 732.83 116.41C731.26 118.8 728.87 119.71 726.28 119.71C721.91 119.71 719.19 116.91 719.19 112.95C719.19 108.17 722.78 105.57 729.25 105.57H731.76V104.5C731.76 101.78 730.61 100.91 727.84 100.91C726.4 100.91 724.3 101.32 722.07 102.06L720.75 98.14C723.47 97.07 726.35 96.53 728.83 96.53C734.89 96.53 737.48 99.21 737.48 104.15V112.97C737.48 114.74 738.02 115.36 739.09 115.73L739.1 115.75ZM731.76 113.07V108.91H729.82C726.65 108.91 725.08 110.06 725.08 112.45C725.08 114.39 726.07 115.5 727.88 115.5C729.57 115.5 730.85 114.63 731.75 113.07H731.76Z" fill="#1765AB"/>
<path d="M758.1 99.18L755.87 102.52C754.1 101.41 752.33 100.79 750.43 100.79C748.53 100.79 747.42 101.57 747.42 102.77C747.42 104.05 748.16 104.62 751.99 105.74C756.36 106.94 758.83 108.75 758.83 112.62C758.83 117.15 754.58 119.71 749.39 119.71C745.6 119.71 742.55 118.43 740.49 116.54L743.38 113.33C745.03 114.61 747.05 115.47 749.23 115.47C751.41 115.47 752.82 114.56 752.82 113.08C752.82 111.43 752.04 110.9 748 109.78C743.59 108.54 741.53 106.36 741.53 103.06C741.53 99.35 744.91 96.55 750.18 96.55C753.35 96.55 756.03 97.54 758.09 99.19L758.1 99.18Z" fill="#1765AB"/>
<path d="M791.03 115.75L789.79 119.62C787.32 119.41 785.67 118.59 784.76 116.41C783.19 118.8 780.8 119.71 778.21 119.71C773.84 119.71 771.12 116.91 771.12 112.95C771.12 108.17 774.71 105.57 781.18 105.57H783.69V104.5C783.69 101.78 782.54 100.91 779.77 100.91C778.33 100.91 776.23 101.32 774 102.06L772.68 98.14C775.4 97.07 778.28 96.53 780.76 96.53C786.82 96.53 789.41 99.21 789.41 104.15V112.97C789.41 114.74 789.95 115.36 791.02 115.73L791.03 115.75ZM783.69 113.07V108.91H781.75C778.58 108.91 777.01 110.06 777.01 112.45C777.01 114.39 778 115.5 779.81 115.5C781.5 115.5 782.78 114.63 783.68 113.07H783.69Z" fill="#1765AB"/>
<path d="M813.15 119.05H808.08L807.79 116.12C806.22 118.55 804.08 119.71 801.15 119.71C797.11 119.71 795.05 117.11 795.05 112.91V97.21H800.9V112.17C800.9 114.56 801.68 115.34 803.29 115.34C804.9 115.34 806.26 114.27 807.29 112.5V97.21H813.14V119.05H813.15Z" fill="#1765AB"/>
<path d="M818.71 113.77V88.51L824.56 87.85V113.61C824.56 114.56 824.93 115.05 825.76 115.05C826.21 115.05 826.58 114.97 826.91 114.8L828.11 118.96C827.16 119.37 825.84 119.7 824.36 119.7C820.82 119.7 818.71 117.56 818.71 113.76V113.77Z" fill="#1765AB"/>
<path d="M849.21 115.75L847.97 119.62C845.5 119.41 843.85 118.59 842.94 116.41C841.37 118.8 838.98 119.71 836.39 119.71C832.02 119.71 829.3 116.91 829.3 112.95C829.3 108.17 832.89 105.57 839.36 105.57H841.87V104.5C841.87 101.78 840.72 100.91 837.95 100.91C836.51 100.91 834.41 101.32 832.18 102.06L830.86 98.14C833.58 97.07 836.46 96.53 838.94 96.53C845 96.53 847.59 99.21 847.59 104.15V112.97C847.59 114.74 848.13 115.36 849.2 115.73L849.21 115.75ZM841.87 113.07V108.91H839.93C836.76 108.91 835.19 110.06 835.19 112.45C835.19 114.39 836.18 115.5 837.99 115.5C839.68 115.5 840.96 114.63 841.86 113.07H841.87Z" fill="#1765AB"/>
<path d="M868.21 99.18L865.98 102.52C864.21 101.41 862.44 100.79 860.54 100.79C858.64 100.79 857.53 101.57 857.53 102.77C857.53 104.05 858.27 104.62 862.1 105.74C866.47 106.94 868.94 108.75 868.94 112.62C868.94 117.15 864.69 119.71 859.5 119.71C855.71 119.71 852.66 118.43 850.6 116.54L853.49 113.33C855.14 114.61 857.16 115.47 859.34 115.47C861.52 115.47 862.93 114.56 862.93 113.08C862.93 111.43 862.15 110.9 858.11 109.78C853.7 108.54 851.64 106.36 851.64 103.06C851.64 99.35 855.02 96.55 860.29 96.55C863.46 96.55 866.14 97.54 868.2 99.19L868.21 99.18Z" fill="#1765AB"/>
<path d="M902.74 108.08C902.74 114.76 899.57 119.7 894.09 119.7C891.91 119.7 890.05 118.92 888.69 117.35V127.45L882.84 128.11V97.2H887.99L888.28 99.76C890.01 97.53 892.36 96.55 894.63 96.55C900.32 96.55 902.75 101.04 902.75 108.09L902.74 108.08ZM896.64 108.12C896.64 102.64 895.24 100.87 892.81 100.87C891.12 100.87 889.68 102.02 888.69 103.67V113.19C889.64 114.63 890.83 115.33 892.36 115.33C895.04 115.33 896.65 113.23 896.65 108.12H896.64Z" fill="#1765AB"/>
<path d="M920.87 96.92L919.88 102.57C919.22 102.41 918.68 102.28 917.94 102.28C915.26 102.28 914.02 104.26 913.24 107.76V119.05H907.39V97.21H912.46L913 101.46C914.03 98.41 916.13 96.6 918.69 96.6C919.47 96.6 920.13 96.72 920.87 96.93V96.92Z" fill="#1765AB"/>
<path d="M940.86 109.9H927.22C927.63 114.1 929.61 115.34 932.41 115.34C934.26 115.34 935.83 114.76 937.73 113.44L940.16 116.74C938.02 118.47 935.3 119.71 931.88 119.71C924.87 119.71 921.21 115.09 921.21 108.25C921.21 101.41 924.75 96.54 931.14 96.54C937.53 96.54 940.99 100.66 940.99 107.63C940.99 108.37 940.91 109.28 940.87 109.9H940.86ZM935.17 105.98C935.17 102.68 934.06 100.54 931.25 100.54C928.94 100.54 927.5 102.11 927.21 106.23H935.17V105.98Z" fill="#1765AB"/>
<path d="M960.39 99.18L958.16 102.52C956.39 101.41 954.62 100.79 952.72 100.79C950.82 100.79 949.71 101.57 949.71 102.77C949.71 104.05 950.45 104.62 954.29 105.74C958.66 106.94 961.13 108.75 961.13 112.62C961.13 117.15 956.88 119.71 951.69 119.71C947.9 119.71 944.85 118.43 942.79 116.54L945.67 113.33C947.32 114.61 949.34 115.47 951.52 115.47C953.7 115.47 955.11 114.56 955.11 113.08C955.11 111.43 954.33 110.9 950.29 109.78C945.88 108.54 943.82 106.36 943.82 103.06C943.82 99.35 947.2 96.55 952.48 96.55C955.65 96.55 958.33 97.54 960.39 99.19V99.18Z" fill="#1765AB"/>
<path d="M983.3 109.9H969.66C970.07 114.1 972.05 115.34 974.85 115.34C976.7 115.34 978.27 114.76 980.17 113.44L982.6 116.74C980.46 118.47 977.74 119.71 974.32 119.71C967.31 119.71 963.65 115.09 963.65 108.25C963.65 101.41 967.19 96.54 973.58 96.54C979.97 96.54 983.43 100.66 983.43 107.63C983.43 108.37 983.35 109.28 983.31 109.9H983.3ZM977.61 105.98C977.61 102.68 976.5 100.54 973.69 100.54C971.38 100.54 969.94 102.11 969.65 106.23H977.61V105.98Z" fill="#1765AB"/>
<path d="M1005.96 103.14V119.05H1000.11V104.13C1000.11 101.62 999.2 100.92 997.72 100.92C996.03 100.92 994.71 102.03 993.52 103.97V119.05H987.67V97.21H992.74L993.19 99.97C994.96 97.79 997.07 96.55 999.87 96.55C1003.7 96.55 1005.97 99.02 1005.97 103.14H1005.96Z" fill="#1765AB"/>
<path d="M1027.89 99.18L1025.33 102.64C1023.93 101.57 1022.65 101.07 1021.04 101.07C1018.11 101.07 1016.38 103.17 1016.38 108.24C1016.38 113.31 1018.23 115 1021 115C1022.61 115 1023.72 114.51 1025.33 113.48L1027.89 117.15C1025.91 118.76 1023.6 119.71 1020.72 119.71C1014.21 119.71 1010.21 115.26 1010.21 108.29C1010.21 101.32 1014.25 96.54 1020.64 96.54C1023.57 96.54 1025.83 97.41 1027.89 99.18Z" fill="#1765AB"/>
<path d="M1037.69 89.37C1037.69 91.31 1036.21 92.79 1034.1 92.79C1031.99 92.79 1030.56 91.31 1030.56 89.37C1030.56 87.43 1032 85.95 1034.1 85.95C1036.2 85.95 1037.69 87.43 1037.69 89.37ZM1037.07 119.04H1031.22V97.2H1037.07V119.04Z" fill="#1765AB"/>
<path d="M1061.14 115.75L1059.9 119.62C1057.43 119.41 1055.78 118.59 1054.87 116.41C1053.3 118.8 1050.91 119.71 1048.32 119.71C1043.95 119.71 1041.23 116.91 1041.23 112.95C1041.23 108.17 1044.82 105.57 1051.29 105.57H1053.8V104.5C1053.8 101.78 1052.65 100.91 1049.88 100.91C1048.44 100.91 1046.34 101.32 1044.11 102.06L1042.79 98.14C1045.51 97.07 1048.4 96.53 1050.87 96.53C1056.93 96.53 1059.52 99.21 1059.52 104.15V112.97C1059.52 114.74 1060.06 115.36 1061.13 115.73L1061.14 115.75ZM1053.8 113.07V108.91H1051.86C1048.69 108.91 1047.12 110.06 1047.12 112.45C1047.12 114.39 1048.11 115.5 1049.92 115.5C1051.61 115.5 1052.89 114.63 1053.79 113.07H1053.8Z" fill="#1765AB"/>
<path d="M1071.85 89.37C1071.85 91.31 1070.37 92.79 1068.26 92.79C1066.15 92.79 1064.72 91.31 1064.72 89.37C1064.72 87.43 1066.16 85.95 1068.26 85.95C1070.36 85.95 1071.85 87.43 1071.85 89.37ZM1071.23 119.04H1065.38V97.2H1071.23V119.04Z" fill="#1765AB"/>
<path d="M1092.17 99.18L1089.94 102.52C1088.17 101.41 1086.4 100.79 1084.5 100.79C1082.6 100.79 1081.49 101.57 1081.49 102.77C1081.49 104.05 1082.23 104.62 1086.07 105.74C1090.44 106.94 1092.91 108.75 1092.91 112.62C1092.91 117.15 1088.66 119.71 1083.47 119.71C1079.68 119.71 1076.63 118.43 1074.57 116.54L1077.45 113.33C1079.1 114.61 1081.12 115.47 1083.3 115.47C1085.48 115.47 1086.89 114.56 1086.89 113.08C1086.89 111.43 1086.11 110.9 1082.07 109.78C1077.66 108.54 1075.6 106.36 1075.6 103.06C1075.6 99.35 1078.98 96.55 1084.26 96.55C1087.43 96.55 1090.11 97.54 1092.17 99.19V99.18Z" fill="#1765AB"/>
<path d="M1126.7 108.08C1126.7 114.76 1123.53 119.7 1118.05 119.7C1115.87 119.7 1114.01 118.92 1112.65 117.35V127.45L1106.8 128.11V97.2H1111.95L1112.24 99.76C1113.97 97.53 1116.32 96.55 1118.59 96.55C1124.28 96.55 1126.71 101.04 1126.71 108.09L1126.7 108.08ZM1120.6 108.12C1120.6 102.64 1119.2 100.87 1116.77 100.87C1115.08 100.87 1113.64 102.02 1112.65 103.67V113.19C1113.6 114.63 1114.79 115.33 1116.32 115.33C1119 115.33 1120.61 113.23 1120.61 108.12H1120.6Z" fill="#1765AB"/>
<path d="M1149.24 115.75L1148 119.62C1145.53 119.41 1143.88 118.59 1142.97 116.41C1141.4 118.8 1139.01 119.71 1136.42 119.71C1132.05 119.71 1129.33 116.91 1129.33 112.95C1129.33 108.17 1132.92 105.57 1139.39 105.57H1141.9V104.5C1141.9 101.78 1140.75 100.91 1137.98 100.91C1136.54 100.91 1134.44 101.32 1132.21 102.06L1130.89 98.14C1133.61 97.07 1136.5 96.53 1138.97 96.53C1145.03 96.53 1147.62 99.21 1147.62 104.15V112.97C1147.62 114.74 1148.16 115.36 1149.23 115.73L1149.24 115.75ZM1141.9 113.07V108.91H1139.96C1136.79 108.91 1135.22 110.06 1135.22 112.45C1135.22 114.39 1136.21 115.5 1138.02 115.5C1139.71 115.5 1140.99 114.63 1141.89 113.07H1141.9Z" fill="#1765AB"/>
<path d="M1166.96 96.92L1165.97 102.57C1165.31 102.41 1164.77 102.28 1164.03 102.28C1161.35 102.28 1160.11 104.26 1159.33 107.76V119.05H1153.48V97.21H1158.55L1159.09 101.46C1160.12 98.41 1162.22 96.6 1164.78 96.6C1165.56 96.6 1166.22 96.72 1166.96 96.93V96.92Z" fill="#1765AB"/>
<path d="M1186.7 115.75L1185.46 119.62C1182.99 119.41 1181.34 118.59 1180.43 116.41C1178.86 118.8 1176.47 119.71 1173.88 119.71C1169.51 119.71 1166.79 116.91 1166.79 112.95C1166.79 108.17 1170.38 105.57 1176.85 105.57H1179.36V104.5C1179.36 101.78 1178.21 100.91 1175.44 100.91C1174 100.91 1171.9 101.32 1169.67 102.06L1168.35 98.14C1171.07 97.07 1173.96 96.53 1176.43 96.53C1182.49 96.53 1185.08 99.21 1185.08 104.15V112.97C1185.08 114.74 1185.62 115.36 1186.69 115.73L1186.7 115.75ZM1179.36 113.07V108.91H1177.42C1174.25 108.91 1172.68 110.06 1172.68 112.45C1172.68 114.39 1173.67 115.5 1175.48 115.5C1177.17 115.5 1178.45 114.63 1179.35 113.07H1179.36Z" fill="#1765AB"/>
<path d="M1219.3 115.75L1218.06 119.62C1215.59 119.41 1213.94 118.59 1213.03 116.41C1211.46 118.8 1209.07 119.71 1206.48 119.71C1202.11 119.71 1199.39 116.91 1199.39 112.95C1199.39 108.17 1202.98 105.57 1209.45 105.57H1211.96V104.5C1211.96 101.78 1210.81 100.91 1208.04 100.91C1206.6 100.91 1204.5 101.32 1202.27 102.06L1200.95 98.14C1203.67 97.07 1206.56 96.53 1209.03 96.53C1215.09 96.53 1217.68 99.21 1217.68 104.15V112.97C1217.68 114.74 1218.22 115.36 1219.29 115.73L1219.3 115.75ZM1211.96 113.07V108.91H1210.02C1206.85 108.91 1205.28 110.06 1205.28 112.45C1205.28 114.39 1206.27 115.5 1208.08 115.5C1209.77 115.5 1211.05 114.63 1211.95 113.07H1211.96Z" fill="#1765AB"/>
<path d="M1238.29 99.18L1236.06 102.52C1234.29 101.41 1232.52 100.79 1230.62 100.79C1228.72 100.79 1227.61 101.57 1227.61 102.77C1227.61 104.05 1228.35 104.62 1232.19 105.74C1236.56 106.94 1239.03 108.75 1239.03 112.62C1239.03 117.15 1234.78 119.71 1229.59 119.71C1225.8 119.71 1222.75 118.43 1220.69 116.54L1223.57 113.33C1225.22 114.61 1227.24 115.47 1229.42 115.47C1231.6 115.47 1233.01 114.56 1233.01 113.08C1233.01 111.43 1232.23 110.9 1228.19 109.78C1223.78 108.54 1221.72 106.36 1221.72 103.06C1221.72 99.35 1225.1 96.55 1230.38 96.55C1233.55 96.55 1236.23 97.54 1238.29 99.19V99.18Z" fill="#1765AB"/>
<path d="M1266.4 96.92L1265.41 102.57C1264.75 102.41 1264.21 102.28 1263.47 102.28C1260.79 102.28 1259.55 104.26 1258.77 107.76V119.05H1252.92V97.21H1257.99L1258.53 101.46C1259.56 98.41 1261.66 96.6 1264.22 96.6C1265 96.6 1265.66 96.72 1266.4 96.93V96.92Z" fill="#1765AB"/>
<path d="M1286.38 109.9H1272.74C1273.15 114.1 1275.13 115.34 1277.93 115.34C1279.78 115.34 1281.35 114.76 1283.25 113.44L1285.68 116.74C1283.54 118.47 1280.82 119.71 1277.4 119.71C1270.39 119.71 1266.73 115.09 1266.73 108.25C1266.73 101.41 1270.27 96.54 1276.66 96.54C1283.05 96.54 1286.51 100.66 1286.51 107.63C1286.51 108.37 1286.43 109.28 1286.39 109.9H1286.38ZM1280.69 105.98C1280.69 102.68 1279.58 100.54 1276.77 100.54C1274.46 100.54 1273.02 102.11 1272.73 106.23H1280.69V105.98Z" fill="#1765AB"/>
<path d="M1320.13 103.14V119.05H1314.28V104.13C1314.28 101.62 1313.29 100.92 1312.14 100.92C1310.53 100.92 1309.46 102.03 1308.35 103.97V119.05H1302.5V104.13C1302.5 101.62 1301.55 100.92 1300.36 100.92C1298.75 100.92 1297.68 102.03 1296.61 103.97V119.05H1290.76V97.21H1295.83L1296.28 99.93C1297.89 97.79 1299.87 96.55 1302.63 96.55C1305.1 96.55 1307 97.83 1307.82 100.09C1309.55 97.82 1311.57 96.55 1314.37 96.55C1317.79 96.55 1320.14 99.02 1320.14 103.14H1320.13Z" fill="#1765AB"/>
<path d="M1345.31 108.13C1345.31 115.05 1341.39 119.71 1334.84 119.71C1328.29 119.71 1324.37 115.38 1324.37 108.13C1324.37 100.88 1328.29 96.55 1334.88 96.55C1341.47 96.55 1345.31 100.88 1345.31 108.13ZM1330.47 108.13C1330.47 113.16 1331.95 115.34 1334.84 115.34C1337.73 115.34 1339.21 113.11 1339.21 108.13C1339.21 103.15 1337.73 100.92 1334.88 100.92C1332.03 100.92 1330.47 103.15 1330.47 108.13Z" fill="#1765AB"/>
<path d="M1362.82 118.02C1361.21 119.13 1359.07 119.71 1357.13 119.71C1352.6 119.67 1350.29 117.07 1350.29 112.21V101.33H1347.03V97.21H1350.29V92.43L1356.14 91.73V97.21H1361.17L1360.59 101.33H1356.14V112.09C1356.14 114.23 1356.84 115.06 1358.32 115.06C1359.1 115.06 1359.89 114.81 1360.79 114.32L1362.81 118.03L1362.82 118.02Z" fill="#1765AB"/>
<path d="M1383.26 115.75L1382.02 119.62C1379.55 119.41 1377.9 118.59 1376.99 116.41C1375.42 118.8 1373.03 119.71 1370.44 119.71C1366.07 119.71 1363.35 116.91 1363.35 112.95C1363.35 108.17 1366.94 105.57 1373.41 105.57H1375.92V104.5C1375.92 101.78 1374.77 100.91 1372 100.91C1370.56 100.91 1368.46 101.32 1366.23 102.06L1364.91 98.14C1367.63 97.07 1370.52 96.53 1372.99 96.53C1379.05 96.53 1381.64 99.21 1381.64 104.15V112.97C1381.64 114.74 1382.18 115.36 1383.25 115.73L1383.26 115.75ZM1375.92 113.07V108.91H1373.98C1370.81 108.91 1369.24 110.06 1369.24 112.45C1369.24 114.39 1370.23 115.5 1372.04 115.5C1373.73 115.5 1375.01 114.63 1375.91 113.07H1375.92Z" fill="#1765AB"/>
<path d="M1402.26 99.18L1400.03 102.52C1398.26 101.41 1396.49 100.79 1394.59 100.79C1392.69 100.79 1391.58 101.57 1391.58 102.77C1391.58 104.05 1392.32 104.62 1396.16 105.74C1400.53 106.94 1403 108.75 1403 112.62C1403 117.15 1398.75 119.71 1393.56 119.71C1389.77 119.71 1386.72 118.43 1384.66 116.54L1387.54 113.33C1389.19 114.61 1391.21 115.47 1393.39 115.47C1395.57 115.47 1396.98 114.56 1396.98 113.08C1396.98 111.43 1396.2 110.9 1392.16 109.78C1387.75 108.54 1385.69 106.36 1385.69 103.06C1385.69 99.35 1389.07 96.55 1394.35 96.55C1397.52 96.55 1400.2 97.54 1402.26 99.19V99.18Z" fill="#1765AB"/>
<path d="M222.54 354.21H216.55L208.25 334.64C208.5 336.78 208.88 339.86 208.88 344.34V354.21H204.68V330.02H210.53L218.97 349.62C218.76 348.29 218.34 344.79 218.34 341.36V330.02H222.54V354.21Z" fill="#1765AB"/>
<path d="M243.16 351.69L242.22 354.67C240.19 354.5 238.86 353.76 238.12 351.97C236.83 353.93 234.79 354.74 232.59 354.74C228.88 354.74 226.6 352.39 226.6 349.03C226.6 345 229.65 342.83 235.04 342.83H237.35V341.78C237.35 339.36 236.27 338.56 233.88 338.56C232.62 338.56 230.83 338.91 228.98 339.54L227.93 336.49C230.21 335.61 232.55 335.16 234.65 335.16C239.59 335.16 241.76 337.44 241.76 341.53V349.3C241.76 350.8 242.25 351.33 243.16 351.68V351.69ZM230.84 331.6L228.42 330.41C229.26 328.41 230.66 326.77 232.62 326.77C234.69 326.77 235.46 328.38 236.68 328.38C237.42 328.38 237.91 327.89 238.54 326.87L240.92 328.06C240.01 330.23 238.54 331.67 236.72 331.67C234.76 331.67 233.88 330.02 232.69 330.02C231.85 330.02 231.39 330.58 230.83 331.6H230.84ZM237.35 349.21V345.46H235.5C232.59 345.46 231.16 346.51 231.16 348.68C231.16 350.47 232.07 351.48 233.79 351.48C235.37 351.48 236.52 350.68 237.36 349.21H237.35Z" fill="#1765AB"/>
<path d="M263.42 344.94C263.42 350.79 260.16 354.74 254.7 354.74C249.24 354.74 245.98 351.03 245.98 344.94C245.98 338.85 249.24 335.17 254.73 335.17C260.22 335.17 263.41 338.88 263.41 344.94H263.42ZM250.71 344.94C250.71 349.39 252.08 351.35 254.7 351.35C257.32 351.35 258.69 349.35 258.69 344.94C258.69 340.53 257.32 338.57 254.73 338.57C252.14 338.57 250.7 340.57 250.7 344.94H250.71Z" fill="#1765AB"/>
<path d="M287.36 335.45L286.59 339.79C286.03 339.65 285.57 339.58 284.94 339.58C282.7 339.58 281.54 341.23 280.84 344.34V354.21H276.36V335.69H280.25L280.67 339.33C281.55 336.67 283.33 335.2 285.5 335.2C286.17 335.2 286.76 335.27 287.36 335.45Z" fill="#1765AB"/>
<path d="M304.2 346.34H292.58C292.89 350.12 294.68 351.35 297.13 351.35C298.78 351.35 300.14 350.82 301.75 349.7L303.61 352.26C301.79 353.73 299.55 354.74 296.75 354.74C291.01 354.74 287.93 350.92 287.93 345.08C287.93 339.24 290.91 335.17 296.16 335.17C301.41 335.17 304.32 338.67 304.32 344.52C304.32 345.11 304.25 345.85 304.22 346.34H304.2ZM299.86 343.22C299.86 340.17 298.78 338.35 296.25 338.35C294.15 338.35 292.82 339.75 292.57 343.43H299.85V343.22H299.86Z" fill="#1765AB"/>
<path d="M320.75 337.38L319 340.01C317.46 339.03 315.99 338.5 314.34 338.5C312.55 338.5 311.54 339.24 311.54 340.36C311.54 341.59 312.28 342.15 315.43 343.02C319.21 344.04 321.35 345.58 321.35 348.87C321.35 352.72 317.78 354.75 313.54 354.75C310.35 354.75 307.87 353.67 306.15 352.13L308.39 349.61C309.83 350.7 311.54 351.43 313.43 351.43C315.43 351.43 316.72 350.59 316.72 349.19C316.72 347.65 315.98 347.16 312.52 346.18C308.71 345.13 307.02 343.31 307.02 340.58C307.02 337.5 309.86 335.19 314.16 335.19C316.82 335.19 318.99 336.03 320.74 337.4L320.75 337.38Z" fill="#1765AB"/>
<path d="M341.44 344.9C341.44 350.57 338.82 354.74 334.12 354.74C332.23 354.74 330.62 354.07 329.46 352.71V361.36L324.98 361.85V335.7H328.9L329.15 337.98C330.62 336.05 332.58 335.18 334.58 335.18C339.41 335.18 341.44 339 341.44 344.91V344.9ZM336.75 344.94C336.75 340.25 335.49 338.53 333.25 338.53C331.67 338.53 330.34 339.61 329.47 341.05V349.38C330.35 350.68 331.47 351.31 332.87 351.31C335.32 351.31 336.76 349.42 336.76 344.94H336.75Z" fill="#1765AB"/>
<path d="M362.09 344.94C362.09 350.79 358.83 354.74 353.37 354.74C347.91 354.74 344.65 351.03 344.65 344.94C344.65 338.85 347.91 335.17 353.4 335.17C358.89 335.17 362.08 338.88 362.08 344.94H362.09ZM349.38 344.94C349.38 349.39 350.75 351.35 353.37 351.35C355.99 351.35 357.36 349.35 357.36 344.94C357.36 340.53 355.99 338.57 353.4 338.57C350.81 338.57 349.37 340.57 349.37 344.94H349.38Z" fill="#1765AB"/>
<path d="M381.41 340.81V354.22H376.93V341.51C376.93 339.2 376.05 338.53 374.65 338.53C373.04 338.53 371.85 339.61 370.76 341.33V354.21H366.28V335.69H370.17L370.52 338.11C371.96 336.25 373.81 335.17 376.16 335.17C379.49 335.17 381.41 337.27 381.41 340.81Z" fill="#1765AB"/>
<path d="M402.2 328.28V354.22H398.24L397.93 351.87C396.81 353.55 395.02 354.74 392.64 354.74C388.02 354.74 385.6 350.85 385.6 344.97C385.6 339.09 388.47 335.17 393.06 335.17C395.02 335.17 396.56 336.01 397.72 337.17V327.79L402.2 328.28ZM397.72 348.97V340.5C396.74 339.31 395.69 338.54 394.18 338.54C391.87 338.54 390.33 340.5 390.33 344.95C390.33 349.71 391.7 351.36 393.9 351.36C395.55 351.36 396.67 350.55 397.72 348.98V348.97Z" fill="#1765AB"/>
<path d="M422.67 346.34H411.05C411.36 350.12 413.15 351.35 415.6 351.35C417.25 351.35 418.61 350.82 420.22 349.7L422.08 352.26C420.26 353.73 418.02 354.74 415.22 354.74C409.48 354.74 406.4 350.92 406.4 345.08C406.4 339.24 409.38 335.17 414.63 335.17C419.88 335.17 422.79 338.67 422.79 344.52C422.79 345.11 422.72 345.85 422.69 346.34H422.67ZM418.33 343.22C418.33 340.17 417.25 338.35 414.72 338.35C412.62 338.35 411.29 339.75 411.04 343.43H418.32V343.22H418.33Z" fill="#1765AB"/>
<path d="M441.61 354.21H437.72L437.48 351.62C436.11 353.72 434.33 354.74 431.81 354.74C428.45 354.74 426.63 352.57 426.63 349V335.7H431.11V348.44C431.11 350.61 431.85 351.35 433.39 351.35C434.93 351.35 436.16 350.33 437.14 348.72V335.7H441.62V354.22L441.61 354.21Z" fill="#1765AB"/>
<path d="M174.21 511.16H166.19L164.69 516.76H159.89L167.42 492.57H173.13L180.62 516.76H175.72L174.22 511.16H174.21ZM173.26 507.66L170.18 496.11L167.1 507.66H173.26Z" fill="#1765AB"/>
<path d="M193.77 515.88C192.44 516.82 190.76 517.28 189.11 517.28C185.47 517.25 183.54 515.18 183.54 511.22V501.45H180.63V498.23H183.54V494.14L188.02 493.61V498.23H192.33L191.87 501.45H188.02V511.11C188.02 512.93 188.61 513.66 189.98 513.66C190.68 513.66 191.38 513.45 192.19 512.99L193.77 515.86V515.88Z" fill="#1765AB"/>
<path d="M210.78 508.88H199.16C199.47 512.66 201.26 513.89 203.71 513.89C205.36 513.89 206.72 513.36 208.33 512.24L210.19 514.79C208.37 516.26 206.13 517.28 203.33 517.28C197.59 517.28 194.51 513.46 194.51 507.62C194.51 501.78 197.49 497.71 202.74 497.71C207.99 497.71 210.9 501.21 210.9 507.06C210.9 507.65 210.83 508.39 210.8 508.88H210.78ZM199.4 494.7L198.14 492.42L205.49 488.04L207.31 491.54L199.4 494.69V494.7ZM206.44 505.76C206.44 502.71 205.36 500.89 202.83 500.89C200.73 500.89 199.4 502.29 199.15 505.97H206.43V505.76H206.44Z" fill="#1765AB"/>
<path d="M239.1 508.74C239.1 513.67 235.81 517.28 231.05 517.28C225.03 517.28 222.54 512.62 222.54 505.87C222.54 497.99 226.22 492.78 232.2 492.78C234.26 492.78 235.98 493.37 237.35 494.28L235.67 497.05C234.65 496.45 233.53 496.1 232.27 496.1C229.29 496.1 227.4 498.93 227.16 503.66C228.66 501.84 230.45 501.07 232.45 501.07C236.13 501.07 239.1 503.73 239.1 508.74ZM234.58 508.81C234.58 505.45 233.35 504.33 231.36 504.33C229.75 504.33 228.28 505.28 227.19 506.75C227.26 511.79 228.35 513.96 231.04 513.96C233.42 513.96 234.58 511.89 234.58 508.81Z" fill="#1765AB"/>
<path d="M259.47 488.86C256.25 493.48 254.53 497.54 254.53 504.51C254.53 511.48 256.25 515.54 259.47 520.16L256.6 522.09C253.13 517.26 249.95 512.85 249.95 504.52C249.95 496.19 253.14 491.78 256.6 486.95L259.47 488.87V488.86Z" fill="#1765AB"/>
<path d="M275.43 499.92L273.68 502.54C272.14 501.56 270.67 501.04 269.02 501.04C267.23 501.04 266.22 501.78 266.22 502.9C266.22 504.12 266.96 504.69 270.11 505.56C273.89 506.57 276.03 508.11 276.03 511.41C276.03 515.26 272.46 517.29 268.22 517.29C265.03 517.29 262.55 516.21 260.83 514.67L263.07 512.15C264.51 513.24 266.22 513.97 268.11 513.97C270.11 513.97 271.4 513.13 271.4 511.73C271.4 510.19 270.67 509.7 267.2 508.72C263.38 507.67 261.7 505.85 261.7 503.12C261.7 500.04 264.53 497.73 268.84 497.73C271.5 497.73 273.67 498.57 275.42 499.94L275.43 499.92Z" fill="#1765AB"/>
<path d="M294.75 508.88H283.13C283.44 512.66 285.23 513.89 287.68 513.89C289.33 513.89 290.69 513.36 292.3 512.24L294.16 514.79C292.34 516.26 290.1 517.28 287.3 517.28C281.56 517.28 278.48 513.46 278.48 507.62C278.48 501.78 281.46 497.71 286.71 497.71C291.96 497.71 294.87 501.21 294.87 507.06C294.87 507.65 294.8 508.39 294.77 508.88H294.75ZM290.41 505.76C290.41 502.71 289.33 500.89 286.8 500.89C284.7 500.89 283.37 502.29 283.12 505.97H290.4V505.76H290.41Z" fill="#1765AB"/>
<path d="M303.92 491.59C303.92 493.09 302.76 494.29 301.08 494.29C299.4 494.29 298.28 493.1 298.28 491.59C298.28 490.08 299.44 488.86 301.08 488.86C302.72 488.86 303.92 490.05 303.92 491.59ZM303.36 516.76H298.88V498.24H303.36V516.76Z" fill="#1765AB"/>
<path d="M321.17 499.92L319.42 502.54C317.88 501.56 316.41 501.04 314.76 501.04C312.97 501.04 311.96 501.78 311.96 502.9C311.96 504.12 312.7 504.69 315.85 505.56C319.63 506.57 321.77 508.11 321.77 511.41C321.77 515.26 318.2 517.29 313.96 517.29C310.77 517.29 308.29 516.21 306.57 514.67L308.81 512.15C310.25 513.24 311.96 513.97 313.85 513.97C315.85 513.97 317.14 513.13 317.14 511.73C317.14 510.19 316.41 509.7 312.94 508.72C309.12 507.67 307.44 505.85 307.44 503.12C307.44 500.04 310.27 497.73 314.58 497.73C317.24 497.73 319.41 498.57 321.16 499.94L321.17 499.92Z" fill="#1765AB"/>
<path d="M333.07 504.51C333.07 512.84 329.92 517.25 326.42 522.08L323.58 520.15C326.77 515.53 328.52 511.43 328.52 504.5C328.52 497.57 326.77 493.47 323.58 488.85L326.42 486.93C329.92 491.76 333.07 496.17 333.07 504.5V504.51Z" fill="#1765AB"/>
<path d="M370.03 503.35V516.76H365.55V504.05C365.55 501.74 364.64 501.08 363.52 501.08C361.98 501.08 361.03 502.16 360.02 503.88V516.76H355.54V504.05C355.54 501.74 354.6 501.08 353.51 501.08C351.93 501.08 350.99 502.16 349.97 503.88V516.76H345.49V498.24H349.38L349.73 500.66C351.06 498.8 352.74 497.72 355.09 497.72C357.26 497.72 358.87 498.88 359.57 500.84C360.97 498.91 362.69 497.72 365.14 497.72C368.08 497.72 370.04 499.85 370.04 503.36L370.03 503.35Z" fill="#1765AB"/>
<path d="M390.33 508.88H378.71C379.02 512.66 380.81 513.89 383.26 513.89C384.91 513.89 386.27 513.36 387.88 512.24L389.74 514.79C387.92 516.26 385.68 517.28 382.88 517.28C377.14 517.28 374.06 513.46 374.06 507.62C374.06 501.78 377.04 497.71 382.29 497.71C387.54 497.71 390.45 501.21 390.45 507.06C390.45 507.65 390.38 508.39 390.35 508.88H390.33ZM385.99 505.76C385.99 502.71 384.91 500.89 382.38 500.89C380.28 500.89 378.95 502.29 378.7 505.97H385.98V505.76H385.99Z" fill="#1765AB"/>
<path d="M406.89 499.92L405.14 502.54C403.6 501.56 402.13 501.04 400.48 501.04C398.69 501.04 397.68 501.78 397.68 502.9C397.68 504.12 398.42 504.69 401.57 505.56C405.35 506.57 407.49 508.11 407.49 511.41C407.49 515.26 403.92 517.29 399.68 517.29C396.49 517.29 394.01 516.21 392.29 514.67L394.53 512.15C395.97 513.24 397.68 513.97 399.57 513.97C401.57 513.97 402.86 513.13 402.86 511.73C402.86 510.19 402.12 509.7 398.66 508.72C394.85 507.67 393.16 505.85 393.16 503.12C393.16 500.04 396 497.73 400.3 497.73C402.96 497.73 405.13 498.57 406.88 499.94L406.89 499.92Z" fill="#1765AB"/>
<path d="M426.21 508.88H414.59C414.9 512.66 416.69 513.89 419.14 513.89C420.79 513.89 422.15 513.36 423.76 512.24L425.62 514.79C423.8 516.26 421.56 517.28 418.76 517.28C413.02 517.28 409.94 513.46 409.94 507.62C409.94 501.78 412.92 497.71 418.17 497.71C423.42 497.71 426.33 501.21 426.33 507.06C426.33 507.65 426.26 508.39 426.23 508.88H426.21ZM421.87 505.76C421.87 502.71 420.79 500.89 418.26 500.89C416.16 500.89 414.83 502.29 414.58 505.97H421.86V505.76H421.87Z" fill="#1765AB"/>
<path d="M442.76 499.92L441.01 502.54C439.47 501.56 438 501.04 436.35 501.04C434.56 501.04 433.55 501.78 433.55 502.9C433.55 504.12 434.29 504.69 437.44 505.56C441.22 506.57 443.36 508.11 443.36 511.41C443.36 515.26 439.79 517.29 435.55 517.29C432.36 517.29 429.88 516.21 428.16 514.67L430.4 512.15C431.84 513.24 433.55 513.97 435.44 513.97C437.44 513.97 438.73 513.13 438.73 511.73C438.73 510.19 437.99 509.7 434.53 508.72C430.72 507.67 429.03 505.85 429.03 503.12C429.03 500.04 431.87 497.73 436.17 497.73C438.83 497.73 441 498.57 442.75 499.94L442.76 499.92Z" fill="#1765AB"/>
<path d="M176.27 673.7H168.25L166.75 679.3H161.95L169.48 655.11H175.19L182.68 679.3H177.78L176.28 673.7H176.27ZM175.32 670.2L172.24 658.65L169.16 670.2H175.32Z" fill="#1765AB"/>
<path d="M195.84 678.42C194.51 679.37 192.83 679.82 191.18 679.82C187.54 679.78 185.61 677.72 185.61 673.76V663.99H182.7V660.77H185.61V656.67L190.09 656.14V660.76H194.4L193.94 663.98H190.09V673.64C190.09 675.46 190.68 676.2 192.05 676.2C192.75 676.2 193.45 675.99 194.26 675.53L195.84 678.4V678.42Z" fill="#1765AB"/>
<path d="M212.85 671.42H201.23C201.54 675.2 203.33 676.43 205.78 676.43C207.43 676.43 208.79 675.9 210.4 674.78L212.26 677.34C210.44 678.81 208.2 679.83 205.4 679.83C199.66 679.83 196.58 676.01 196.58 670.17C196.58 664.33 199.56 660.26 204.81 660.26C210.06 660.26 212.97 663.76 212.97 669.61C212.97 670.21 212.9 670.94 212.87 671.43L212.85 671.42ZM201.47 657.24L200.21 654.97L207.56 650.59L209.38 654.09L201.47 657.24ZM208.51 668.3C208.51 665.26 207.43 663.43 204.9 663.43C202.8 663.43 201.47 664.83 201.22 668.51H208.5V668.3H208.51Z" fill="#1765AB"/>
<path d="M238.61 661.31C238.61 664.25 236.79 666.11 234.02 666.84C236.96 667.12 239.38 668.94 239.38 672.58C239.38 676.61 236.23 679.83 230.84 679.83C227.62 679.83 225.03 678.64 223.21 676.43L225.7 674.05C227.28 675.63 228.75 676.33 230.6 676.33C233.12 676.33 234.77 674.83 234.77 672.37C234.77 669.57 233.19 668.59 230.53 668.59H228.68L229.2 665.4H230.46C232.67 665.4 234.24 664.14 234.24 661.83C234.24 659.91 232.87 658.75 230.77 658.75C228.95 658.75 227.51 659.42 226.04 660.81L223.76 658.33C225.86 656.33 228.31 655.32 231.15 655.32C236.02 655.32 238.61 658.05 238.61 661.31Z" fill="#1765AB"/>
<path d="M260.13 651.4C256.91 656.02 255.19 660.08 255.19 667.05C255.19 674.02 256.91 678.08 260.13 682.7L257.26 684.62C253.79 679.79 250.61 675.38 250.61 667.05C250.61 658.72 253.8 654.31 257.26 649.48L260.13 651.41V651.4Z" fill="#1765AB"/>
<path d="M274.27 678.42C272.94 679.37 271.26 679.82 269.61 679.82C265.97 679.78 264.04 677.72 264.04 673.76V663.99H261.13V660.77H264.04V656.67L268.52 656.14V660.76H272.83L272.37 663.98H268.52V673.64C268.52 675.46 269.11 676.2 270.48 676.2C271.18 676.2 271.88 675.99 272.69 675.53L274.27 678.4V678.42Z" fill="#1765AB"/>
<path d="M287.78 660.54L287.01 664.88C286.45 664.74 285.99 664.67 285.36 664.67C283.12 664.67 281.96 666.32 281.26 669.43V679.3H276.78V660.78H280.67L281.09 664.42C281.97 661.76 283.75 660.29 285.92 660.29C286.59 660.29 287.18 660.36 287.78 660.54Z" fill="#1765AB"/>
<path d="M304.62 671.42H293C293.31 675.2 295.1 676.43 297.55 676.43C299.2 676.43 300.56 675.9 302.17 674.78L304.03 677.34C302.21 678.81 299.97 679.83 297.17 679.83C291.43 679.83 288.35 676.01 288.35 670.17C288.35 664.33 291.33 660.26 296.58 660.26C301.83 660.26 304.74 663.76 304.74 669.61C304.74 670.21 304.67 670.94 304.64 671.43L304.62 671.42ZM292.12 657.35L290.4 655.43L295.23 651.02H298.07L302.94 655.43L301.23 657.35L296.68 654.27L292.13 657.35H292.12ZM300.28 668.31C300.28 665.27 299.2 663.44 296.67 663.44C294.57 663.44 293.24 664.84 292.99 668.52H300.27V668.31H300.28Z" fill="#1765AB"/>
<path d="M321.17 662.46L319.42 665.08C317.88 664.1 316.41 663.58 314.76 663.58C312.97 663.58 311.96 664.32 311.96 665.44C311.96 666.66 312.7 667.23 315.85 668.1C319.63 669.11 321.77 670.66 321.77 673.95C321.77 677.8 318.2 679.83 313.96 679.83C310.77 679.83 308.29 678.74 306.57 677.2L308.81 674.68C310.25 675.76 311.96 676.5 313.85 676.5C315.85 676.5 317.14 675.66 317.14 674.26C317.14 672.72 316.41 672.23 312.94 671.25C309.12 670.2 307.44 668.38 307.44 665.65C307.44 662.57 310.27 660.26 314.58 660.26C317.24 660.26 319.41 661.1 321.16 662.47L321.17 662.46Z" fill="#1765AB"/>
<path d="M333.07 667.05C333.07 675.38 329.92 679.79 326.42 684.62L323.58 682.7C326.77 678.08 328.52 673.98 328.52 667.05C328.52 660.12 326.77 656.02 323.58 651.4L326.42 649.47C329.92 654.3 333.07 658.71 333.07 667.04V667.05Z" fill="#1765AB"/>
<path d="M370.03 665.89V679.3H365.55V666.59C365.55 664.28 364.64 663.61 363.52 663.61C361.98 663.61 361.03 664.69 360.02 666.41V679.29H355.54V666.58C355.54 664.27 354.6 663.6 353.51 663.6C351.93 663.6 350.99 664.68 349.97 666.4V679.28H345.49V660.76H349.38L349.73 663.18C351.06 661.32 352.74 660.24 355.09 660.24C357.26 660.24 358.87 661.4 359.57 663.36C360.97 661.44 362.69 660.24 365.14 660.24C368.08 660.24 370.04 662.37 370.04 665.88L370.03 665.89Z" fill="#1765AB"/>
<path d="M390.33 671.42H378.71C379.02 675.2 380.81 676.43 383.26 676.43C384.91 676.43 386.27 675.9 387.88 674.78L389.74 677.34C387.92 678.81 385.68 679.83 382.88 679.83C377.14 679.83 374.06 676.01 374.06 670.17C374.06 664.33 377.04 660.26 382.29 660.26C387.54 660.26 390.45 663.76 390.45 669.61C390.45 670.21 390.38 670.94 390.35 671.43L390.33 671.42ZM385.99 668.3C385.99 665.26 384.91 663.43 382.38 663.43C380.28 663.43 378.95 664.83 378.7 668.51H385.98V668.3H385.99Z" fill="#1765AB"/>
<path d="M406.88 662.46L405.13 665.08C403.59 664.1 402.12 663.58 400.47 663.58C398.68 663.58 397.67 664.32 397.67 665.44C397.67 666.66 398.41 667.23 401.56 668.1C405.34 669.11 407.48 670.66 407.48 673.95C407.48 677.8 403.91 679.83 399.67 679.83C396.48 679.83 394 678.74 392.28 677.2L394.52 674.68C395.96 675.76 397.67 676.5 399.56 676.5C401.56 676.5 402.85 675.66 402.85 674.26C402.85 672.72 402.11 672.23 398.65 671.25C394.84 670.2 393.15 668.38 393.15 665.65C393.15 662.57 395.99 660.26 400.29 660.26C402.95 660.26 405.12 661.1 406.87 662.47L406.88 662.46Z" fill="#1765AB"/>
<path d="M426.21 671.42H414.59C414.9 675.2 416.69 676.43 419.14 676.43C420.79 676.43 422.15 675.9 423.76 674.78L425.62 677.34C423.8 678.81 421.56 679.83 418.76 679.83C413.02 679.83 409.94 676.01 409.94 670.17C409.94 664.33 412.92 660.26 418.17 660.26C423.42 660.26 426.33 663.76 426.33 669.61C426.33 670.21 426.26 670.94 426.23 671.43L426.21 671.42ZM421.87 668.3C421.87 665.26 420.79 663.43 418.26 663.43C416.16 663.43 414.83 664.83 414.58 668.51H421.86V668.3H421.87Z" fill="#1765AB"/>
<path d="M442.76 662.46L441.01 665.08C439.47 664.1 438 663.58 436.35 663.58C434.56 663.58 433.55 664.32 433.55 665.44C433.55 666.66 434.29 667.23 437.44 668.1C441.22 669.11 443.36 670.66 443.36 673.95C443.36 677.8 439.79 679.83 435.55 679.83C432.36 679.83 429.88 678.74 428.16 677.2L430.4 674.68C431.84 675.76 433.55 676.5 435.44 676.5C437.44 676.5 438.73 675.66 438.73 674.26C438.73 672.72 437.99 672.23 434.53 671.25C430.72 670.2 429.03 668.38 429.03 665.65C429.03 662.57 431.87 660.26 436.17 660.26C438.83 660.26 441 661.1 442.75 662.47L442.76 662.46Z" fill="#1765AB"/>
<path d="M226.04 836.24H218.02L216.52 841.84H211.72L219.25 817.65H224.96L232.45 841.84H227.55L226.05 836.24H226.04ZM225.09 832.74L222.01 821.19L218.93 832.74H225.09Z" fill="#1765AB"/>
<path d="M245.61 840.97C244.28 841.92 242.6 842.37 240.95 842.37C237.31 842.33 235.38 840.27 235.38 836.31V826.54H232.47V823.32H235.38V819.22L239.86 818.69V823.31H244.17L243.71 826.53H239.86V836.19C239.86 838.01 240.46 838.75 241.82 838.75C242.52 838.75 243.22 838.54 244.03 838.08L245.61 840.95V840.97Z" fill="#1765AB"/>
<path d="M262.62 833.97H251C251.31 837.75 253.1 838.98 255.55 838.98C257.2 838.98 258.56 838.45 260.17 837.33L262.03 839.89C260.21 841.36 257.97 842.38 255.17 842.38C249.43 842.38 246.35 838.56 246.35 832.72C246.35 826.88 249.33 822.81 254.58 822.81C259.83 822.81 262.74 826.31 262.74 832.16C262.74 832.76 262.67 833.49 262.64 833.98L262.62 833.97ZM251.24 819.79L249.98 817.52L257.33 813.14L259.15 816.64L251.24 819.79ZM258.28 830.85C258.28 827.81 257.2 825.98 254.67 825.98C252.57 825.98 251.24 827.38 250.99 831.06H258.27V830.85H258.28Z" fill="#1765AB"/>
<path d="M285.23 841.84H280.82V822.8L275.57 825.99L273.61 822.98L281.28 818.29H285.24V841.85L285.23 841.84Z" fill="#1765AB"/>
<path d="M307.8 813.94C304.58 818.56 302.86 822.62 302.86 829.59C302.86 836.56 304.58 840.62 307.8 845.24L304.93 847.16C301.46 842.33 298.28 837.92 298.28 829.59C298.28 821.26 301.47 816.85 304.93 812.02L307.8 813.95V813.94Z" fill="#1765AB"/>
<path d="M326.14 841.84H322.25L322.01 839.25C320.64 841.35 318.86 842.37 316.34 842.37C312.98 842.37 311.16 840.2 311.16 836.63V823.33H315.64V836.07C315.64 838.24 316.37 838.98 317.91 838.98C319.45 838.98 320.68 837.96 321.66 836.36V823.34H326.14V841.86V841.84Z" fill="#1765AB"/>
<path d="M356.07 828.44V841.85H351.59V829.14C351.59 826.83 350.68 826.16 349.56 826.16C348.02 826.16 347.07 827.24 346.06 828.96V841.84H341.58V829.13C341.58 826.82 340.64 826.15 339.55 826.15C337.97 826.15 337.03 827.23 336.01 828.95V841.83H331.53V823.31H335.42L335.77 825.73C337.1 823.87 338.78 822.79 341.13 822.79C343.3 822.79 344.91 823.95 345.61 825.91C347.01 823.99 348.73 822.79 351.18 822.79C354.12 822.79 356.08 824.92 356.08 828.43L356.07 828.44Z" fill="#1765AB"/>
<path d="M368.95 829.59C368.95 837.92 365.8 842.33 362.3 847.16L359.46 845.24C362.65 840.62 364.4 836.52 364.4 829.59C364.4 822.66 362.65 818.56 359.46 813.94L362.3 812.01C365.8 816.84 368.95 821.25 368.95 829.58V829.59Z" fill="#1765AB"/>
<path d="M405.91 828.44V841.85H401.43V829.14C401.43 826.83 400.52 826.16 399.4 826.16C397.86 826.16 396.91 827.24 395.9 828.96V841.84H391.42V829.13C391.42 826.82 390.48 826.15 389.39 826.15C387.81 826.15 386.87 827.23 385.85 828.95V841.83H381.37V823.31H385.26L385.61 825.73C386.94 823.87 388.62 822.79 390.97 822.79C393.14 822.79 394.75 823.95 395.45 825.91C396.85 823.99 398.57 822.79 401.02 822.79C403.96 822.79 405.92 824.92 405.92 828.43L405.91 828.44Z" fill="#1765AB"/>
<path d="M426.21 833.97H414.59C414.9 837.75 416.69 838.98 419.14 838.98C420.79 838.98 422.15 838.45 423.76 837.33L425.62 839.89C423.8 841.36 421.56 842.38 418.76 842.38C413.02 842.38 409.94 838.56 409.94 832.72C409.94 826.88 412.92 822.81 418.17 822.81C423.42 822.81 426.33 826.31 426.33 832.16C426.33 832.76 426.26 833.49 426.23 833.98L426.21 833.97ZM413.71 819.9L411.99 817.98L416.82 813.57H419.66L424.53 817.98L422.82 819.9L418.27 816.82L413.72 819.9H413.71ZM421.87 830.86C421.87 827.82 420.79 825.99 418.26 825.99C416.16 825.99 414.83 827.39 414.58 831.07H421.86V830.86H421.87Z" fill="#1765AB"/>
<path d="M442.76 825.01L441.01 827.63C439.47 826.65 438 826.13 436.35 826.13C434.56 826.13 433.55 826.87 433.55 827.99C433.55 829.21 434.29 829.78 437.44 830.65C441.22 831.66 443.36 833.21 443.36 836.5C443.36 840.35 439.79 842.38 435.55 842.38C432.36 842.38 429.88 841.29 428.16 839.75L430.4 837.23C431.84 838.31 433.55 839.05 435.44 839.05C437.44 839.05 438.73 838.21 438.73 836.81C438.73 835.27 437.99 834.78 434.53 833.8C430.72 832.75 429.03 830.93 429.03 828.2C429.03 825.12 431.87 822.81 436.17 822.81C438.83 822.81 441 823.65 442.75 825.02L442.76 825.01Z" fill="#1765AB"/>
<path d="M639.33 347.75H636.07V353.93H630.38L630.34 347.75H618.59V343.79L626.59 325.53L631.54 327.38L624.66 343.29H630.43L631.05 336.49H636.08V343.29H639.34V347.74L639.33 347.75Z" fill="#1765AB"/>
<path d="M648.72 351.05C648.72 352.2 648.35 353.28 647.57 355.09L644.89 361.11H641.47L643.2 353.94C642.25 353.32 641.68 352.25 641.68 351.06C641.68 349.08 643.2 347.56 645.18 347.56C647.16 347.56 648.72 349.08 648.72 351.06V351.05Z" fill="#1765AB"/>
<path d="M672.42 346.43C672.42 350.96 668.46 354.59 661.87 354.59C655.28 354.59 651.53 351 651.53 346.55C651.53 343.17 653.51 340.99 656.76 339.54C653.79 337.85 652.64 335.62 652.64 332.99C652.64 328.46 656.76 325.61 662 325.61C667.24 325.61 671.36 328.12 671.36 332.74C671.36 335.21 669.96 337.36 666.83 339C670.62 340.77 672.43 343.16 672.43 346.42L672.42 346.43ZM666.53 346.39C666.53 343.96 665.25 342.85 661.83 341.61L660.51 341.16C658.45 342.23 657.42 344 657.42 346.31C657.42 348.78 659.19 350.31 662.04 350.31C664.89 350.31 666.53 348.66 666.53 346.39ZM658.33 333.08C658.33 335.22 659.65 336.25 662.12 337.24L662.94 337.53C665 336.21 665.66 334.89 665.66 333.04C665.66 331.02 664.42 329.62 662.03 329.62C659.76 329.62 658.32 330.82 658.32 333.08H658.33Z" fill="#1765AB"/>
<path d="M689.52 332.92C689.52 337.41 686.43 340.21 682.35 340.21C678.27 340.21 675.18 337.41 675.18 332.92C675.18 328.43 678.31 325.63 682.35 325.63C686.39 325.63 689.52 328.43 689.52 332.92ZM679.5 332.92C679.5 334.73 680.08 336.63 682.34 336.63C684.6 336.63 685.14 334.82 685.14 332.92C685.14 331.02 684.6 329.21 682.34 329.21C680.08 329.21 679.5 331.02 679.5 332.92ZM702.79 326.7L683.67 355.51L680 353.16L699.08 324.35L702.79 326.7ZM707.53 347.31C707.53 351.76 704.44 354.6 700.36 354.6C696.28 354.6 693.15 351.76 693.15 347.31C693.15 342.86 696.32 340.02 700.36 340.02C704.4 340.02 707.53 342.82 707.53 347.31ZM697.52 347.31C697.52 349.12 698.1 351.02 700.36 351.02C702.62 351.02 703.16 349.17 703.16 347.31C703.16 345.45 702.62 343.6 700.36 343.6C698.1 343.6 697.52 345.41 697.52 347.31Z" fill="#1765AB"/>
<path d="M639.33 670.63H636.07V676.81H630.38L630.34 670.63H618.59V666.67L626.59 648.41L631.54 650.26L624.66 666.17H630.43L631.05 659.37H636.08V666.17H639.34V670.62L639.33 670.63Z" fill="#1765AB"/>
<path d="M648.72 673.93C648.72 675.08 648.35 676.16 647.57 677.97L644.89 683.99H641.47L643.2 676.82C642.25 676.2 641.68 675.13 641.68 673.94C641.68 671.96 643.2 670.44 645.18 670.44C647.16 670.44 648.72 671.96 648.72 673.94V673.93Z" fill="#1765AB"/>
<path d="M672.42 669.31C672.42 673.84 668.46 677.47 661.87 677.47C655.28 677.47 651.53 673.89 651.53 669.43C651.53 666.05 653.51 663.87 656.76 662.42C653.79 660.73 652.64 658.5 652.64 655.87C652.64 651.34 656.76 648.49 662 648.49C667.24 648.49 671.36 651 671.36 655.62C671.36 658.09 669.96 660.24 666.83 661.88C670.62 663.65 672.43 666.04 672.43 669.3L672.42 669.31ZM666.53 669.27C666.53 666.84 665.25 665.73 661.83 664.49L660.51 664.04C658.45 665.11 657.42 666.88 657.42 669.19C657.42 671.66 659.19 673.19 662.04 673.19C664.89 673.19 666.53 671.54 666.53 669.27ZM658.33 655.96C658.33 658.1 659.65 659.13 662.12 660.12L662.94 660.41C665 659.09 665.66 657.77 665.66 655.92C665.66 653.9 664.42 652.5 662.03 652.5C659.76 652.5 658.32 653.7 658.32 655.96H658.33Z" fill="#1765AB"/>
<path d="M689.52 655.79C689.52 660.28 686.43 663.08 682.35 663.08C678.27 663.08 675.18 660.28 675.18 655.79C675.18 651.3 678.31 648.5 682.35 648.5C686.39 648.5 689.52 651.3 689.52 655.79ZM679.5 655.79C679.5 657.6 680.08 659.5 682.34 659.5C684.6 659.5 685.14 657.69 685.14 655.79C685.14 653.89 684.6 652.08 682.34 652.08C680.08 652.08 679.5 653.89 679.5 655.79ZM702.79 649.57L683.67 678.38L680 676.03L699.08 647.22L702.79 649.57ZM707.53 670.18C707.53 674.63 704.44 677.47 700.36 677.47C696.28 677.47 693.15 674.63 693.15 670.18C693.15 665.73 696.32 662.89 700.36 662.89C704.4 662.89 707.53 665.69 707.53 670.18ZM697.52 670.18C697.52 671.99 698.1 673.89 700.36 673.89C702.62 673.89 703.16 672.03 703.16 670.18C703.16 668.33 702.62 666.47 700.36 666.47C698.1 666.47 697.52 668.28 697.52 670.18Z" fill="#1765AB"/>
<path d="M741.57 515.37H735.84V493.36L729.74 497.11L727.18 493.15L736.41 487.59H741.56V515.37H741.57Z" fill="#1765AB"/>
<path d="M767.24 509.19H763.98V515.37H758.29L758.25 509.19H746.5V505.23L754.5 486.97L759.45 488.82L752.57 504.73H758.34L758.96 497.93H763.99V504.73H767.25V509.18L767.24 509.19Z" fill="#1765AB"/>
<path d="M776.64 512.49C776.64 513.64 776.27 514.71 775.49 516.53L772.81 522.55H769.39L771.12 515.38C770.17 514.76 769.6 513.69 769.6 512.5C769.6 510.52 771.12 509 773.1 509C775.08 509 776.64 510.53 776.64 512.5V512.49Z" fill="#1765AB"/>
<path d="M797.37 494.11C797.37 497.53 795.27 499.76 791.93 500.66C795.39 501.03 798.28 503.13 798.28 507.5C798.28 512.2 794.57 516.03 787.94 516.03C783.94 516.03 780.85 514.55 778.71 511.91L781.88 508.86C783.73 510.71 785.47 511.5 787.61 511.5C790.41 511.5 792.27 509.89 792.27 507.13C792.27 504.04 790.54 502.93 787.49 502.93H785.22L785.92 498.81H787.44C789.95 498.81 791.68 497.41 791.68 494.89C791.68 492.75 790.16 491.47 787.76 491.47C785.66 491.47 783.97 492.25 782.28 493.86L779.35 490.69C781.86 488.3 784.83 487.06 788.33 487.06C794.22 487.06 797.36 490.23 797.36 494.11H797.37Z" fill="#1765AB"/>
<path d="M815.58 494.35C815.58 498.84 812.49 501.64 808.41 501.64C804.33 501.64 801.24 498.84 801.24 494.35C801.24 489.86 804.37 487.06 808.41 487.06C812.45 487.06 815.58 489.86 815.58 494.35ZM805.56 494.35C805.56 496.16 806.14 498.06 808.4 498.06C810.66 498.06 811.2 496.25 811.2 494.35C811.2 492.45 810.66 490.64 808.4 490.64C806.14 490.64 805.56 492.45 805.56 494.35ZM828.85 488.13L809.73 516.94L806.06 514.59L825.14 485.78L828.85 488.13ZM833.59 508.74C833.59 513.19 830.5 516.03 826.42 516.03C822.34 516.03 819.21 513.19 819.21 508.74C819.21 504.29 822.38 501.45 826.42 501.45C830.46 501.45 833.59 504.25 833.59 508.74ZM823.58 508.74C823.58 510.55 824.16 512.45 826.42 512.45C828.68 512.45 829.22 510.6 829.22 508.74C829.22 506.88 828.68 505.03 826.42 505.03C824.16 505.03 823.58 506.84 823.58 508.74Z" fill="#1765AB"/>
<path d="M1450.5 814.51L1440.28 838.87L1434.96 837.1L1444.44 814.93H1432.98V810.48H1450.5V814.52V814.51Z" fill="#1765AB"/>
<path d="M1472.34 828.77C1472.34 834.54 1468.47 838.91 1462.57 838.91C1455.32 838.91 1452.31 833.47 1452.31 825.47C1452.31 816.11 1456.76 809.93 1464.01 809.93C1466.52 809.93 1468.63 810.63 1470.19 811.7L1468.05 815.29C1466.85 814.59 1465.62 814.18 1464.13 814.18C1460.79 814.18 1458.65 817.23 1458.36 822.51C1460.09 820.53 1462.19 819.67 1464.42 819.67C1468.87 819.67 1472.33 822.88 1472.33 828.78L1472.34 828.77ZM1466.45 828.85C1466.45 825.06 1465.13 823.78 1462.91 823.78C1461.18 823.78 1459.61 824.77 1458.38 826.33C1458.46 832.22 1459.66 834.61 1462.63 834.61C1465.23 834.61 1466.46 832.34 1466.46 828.84L1466.45 828.85Z" fill="#1765AB"/>
<path d="M1481.94 835.37C1481.94 836.52 1481.57 837.6 1480.79 839.41L1478.11 845.43H1474.69L1476.42 838.26C1475.47 837.64 1474.9 836.57 1474.9 835.38C1474.9 833.4 1476.42 831.88 1478.4 831.88C1480.38 831.88 1481.94 833.4 1481.94 835.38V835.37Z" fill="#1765AB"/>
<path d="M1502.38 817.81C1502.38 822.3 1499.95 825.64 1491.33 833.72H1502.99L1502.33 838.25H1484.65V834C1494.09 824.56 1496.36 822.01 1496.36 818.3C1496.36 815.91 1494.83 814.47 1492.57 814.47C1490.47 814.47 1489.03 815.38 1487.34 817.4L1483.84 814.6C1486.07 811.67 1489.12 809.94 1493.11 809.94C1499.04 809.94 1502.38 813.48 1502.38 817.81Z" fill="#1765AB"/>
<path d="M1520.18 817.23C1520.18 821.72 1517.09 824.52 1513.01 824.52C1508.93 824.52 1505.84 821.72 1505.84 817.23C1505.84 812.74 1508.97 809.94 1513.01 809.94C1517.05 809.94 1520.18 812.74 1520.18 817.23ZM1510.17 817.23C1510.17 819.04 1510.75 820.94 1513.01 820.94C1515.27 820.94 1515.81 819.13 1515.81 817.23C1515.81 815.33 1515.27 813.52 1513.01 813.52C1510.75 813.52 1510.17 815.33 1510.17 817.23ZM1533.46 811.01L1514.34 839.82L1510.67 837.47L1529.75 808.66L1533.46 811.01ZM1538.2 831.62C1538.2 836.07 1535.11 838.91 1531.03 838.91C1526.95 838.91 1523.82 836.07 1523.82 831.62C1523.82 827.17 1526.99 824.33 1531.03 824.33C1535.07 824.33 1538.2 827.13 1538.2 831.62ZM1528.19 831.62C1528.19 833.43 1528.77 835.33 1531.03 835.33C1533.29 835.33 1533.83 833.47 1533.83 831.62C1533.83 829.77 1533.29 827.91 1531.03 827.91C1528.77 827.91 1528.19 829.72 1528.19 831.62Z" fill="#1765AB"/>
</g>
<defs>
<clipPath id="clip0_11_18784">
<rect width="1682.53" height="1012.6" fill="white"/>
</clipPath>
</defs>
</svg>
