<svg width="1112" height="1080" viewBox="0 0 1112 1080" fill="none" xmlns="http://www.w3.org/2000/svg">
<g clip-path="url(#clip0_11_12561)">
<path d="M1111.83 0H0V1080H1111.83V0Z" fill="white"/>
<path d="M616.82 202.42L561.38 522.64L345.75 279.81C345.84 279.73 345.92 279.66 346.01 279.58C403.41 228.66 478.96 197.76 561.72 197.76C580.32 197.76 598.54 199.32 616.29 202.32C616.46 202.36 616.65 202.38 616.82 202.41V202.42Z" fill="#FFA161"/>
<path d="M561.38 522.64L559.18 848.29C380.71 846.93 236.45 701.83 236.45 523.04C236.45 426.29 278.7 339.38 345.75 279.82L561.38 522.65V522.64Z" fill="#B24800"/>
<path d="M886.98 523.03C886.98 702.67 741.35 848.3 561.71 848.3C560.86 848.3 560.01 848.3 559.17 848.28L561.37 522.63L616.81 202.41C770.2 228.57 886.98 362.17 886.98 523.02V523.03Z" fill="#F06C00"/>
<path d="M442.95 890.43H416.05V917.33H442.95V890.43Z" fill="#B24800"/>
<path d="M442.95 940.78H416.05V967.68H442.95V940.78Z" fill="#F06C00"/>
<path d="M442.95 991.12H416.05V1018.02H442.95V991.12Z" fill="#FFA161"/>
<path d="M487.33 899.88L485.62 901.86C484.3 900.78 483.03 900.3 481.53 900.3C479.89 900.3 478.71 901.04 478.71 902.46C478.71 903.78 479.42 904.36 482.46 905.31C485.65 906.31 487.87 907.63 487.87 911.06C487.87 914.49 485.31 916.65 480.96 916.65C478.06 916.65 475.89 915.62 474.39 914.14L476.18 912.14C477.53 913.27 478.98 913.96 480.88 913.96C482.78 913.96 484.23 913.01 484.23 911.24C484.23 909.71 483.46 909.02 480.62 908.15C476.79 906.96 475.13 905.43 475.13 902.66C475.13 899.63 477.74 897.62 481.33 897.62C483.99 897.62 485.76 898.41 487.35 899.86L487.33 899.88Z" fill="#1765AB"/>
<path d="M494.53 897.29C494.53 898.42 493.66 899.32 492.39 899.32C491.12 899.32 490.28 898.42 490.28 897.29C490.28 896.16 491.15 895.23 492.39 895.23C493.63 895.23 494.53 896.13 494.53 897.29ZM494.11 916.26H490.73V902.3H494.11V916.26Z" fill="#1765AB"/>
<path d="M516.67 906.16V916.26H513.29V906.68C513.29 904.94 512.6 904.44 511.76 904.44C510.6 904.44 509.89 905.26 509.12 906.55V916.26H505.74V906.68C505.74 904.94 505.03 904.44 504.21 904.44C503.02 904.44 502.31 905.26 501.54 906.55V916.26H498.16V902.3H501.09L501.35 904.12C502.35 902.72 503.62 901.9 505.39 901.9C507.03 901.9 508.24 902.77 508.77 904.25C509.83 902.8 511.12 901.9 512.96 901.9C515.18 901.9 516.65 903.51 516.65 906.15L516.67 906.16Z" fill="#1765AB"/>
<path d="M489.52 966.2H485.01L478.76 951.45C478.94 953.06 479.23 955.38 479.23 958.76V966.2H476.06V947.97H480.47L486.83 962.74C486.67 961.74 486.36 959.1 486.36 956.51V947.96H489.53V966.19L489.52 966.2Z" fill="#1765AB"/>
<path d="M505.06 964.3L504.35 966.54C502.82 966.41 501.82 965.85 501.26 964.51C500.28 965.99 498.75 966.59 497.09 966.59C494.29 966.59 492.58 964.82 492.58 962.29C492.58 959.26 494.88 957.62 498.94 957.62H500.68V956.83C500.68 955.01 499.86 954.4 498.07 954.4C497.12 954.4 495.77 954.66 494.38 955.14L493.59 952.85C495.3 952.19 497.07 951.85 498.66 951.85C502.38 951.85 504.02 953.57 504.02 956.65V962.51C504.02 963.64 504.39 964.04 505.08 964.3H505.06ZM495.77 949.16L493.95 948.26C494.58 946.76 495.64 945.52 497.12 945.52C498.68 945.52 499.26 946.73 500.18 946.73C500.73 946.73 501.1 946.36 501.58 945.6L503.37 946.5C502.68 948.14 501.58 949.22 500.2 949.22C498.72 949.22 498.06 947.98 497.17 947.98C496.54 947.98 496.19 948.4 495.77 949.17V949.16ZM500.68 962.43V959.61H499.28C497.09 959.61 496.01 960.4 496.01 962.04C496.01 963.38 496.7 964.15 497.99 964.15C499.18 964.15 500.05 963.54 500.68 962.44V962.43Z" fill="#1765AB"/>
<path d="M520.33 959.21C520.33 963.62 517.88 966.6 513.76 966.6C509.64 966.6 507.19 963.8 507.19 959.21C507.19 954.62 509.64 951.85 513.79 951.85C517.94 951.85 520.33 954.65 520.33 959.21ZM510.75 959.21C510.75 962.56 511.78 964.04 513.76 964.04C515.74 964.04 516.77 962.54 516.77 959.21C516.77 955.88 515.74 954.41 513.79 954.41C511.84 954.41 510.76 955.91 510.76 959.21H510.75Z" fill="#1765AB"/>
<path d="M489.52 1016.13H485.01L478.76 1001.38C478.94 1002.99 479.23 1005.31 479.23 1008.69V1016.13H476.06V997.9H480.47L486.83 1012.67C486.67 1011.67 486.36 1009.03 486.36 1006.44V997.89H489.53V1016.12L489.52 1016.13Z" fill="#1765AB"/>
<path d="M505.06 1014.23L504.35 1016.47C502.82 1016.34 501.82 1015.78 501.26 1014.44C500.28 1015.92 498.75 1016.52 497.09 1016.52C494.29 1016.52 492.58 1014.75 492.58 1012.22C492.58 1009.19 494.88 1007.55 498.94 1007.55H500.68V1006.76C500.68 1004.94 499.86 1004.33 498.07 1004.33C497.12 1004.33 495.77 1004.59 494.38 1005.07L493.59 1002.78C495.3 1002.12 497.07 1001.78 498.66 1001.78C502.38 1001.78 504.02 1003.49 504.02 1006.58V1012.44C504.02 1013.57 504.39 1013.97 505.08 1014.23H505.06ZM495.77 999.09L493.95 998.19C494.58 996.69 495.64 995.45 497.12 995.45C498.68 995.45 499.26 996.66 500.18 996.66C500.73 996.66 501.1 996.29 501.58 995.53L503.37 996.43C502.68 998.07 501.58 999.15 500.2 999.15C498.72 999.15 498.06 997.91 497.17 997.91C496.54 997.91 496.19 998.33 495.77 999.1V999.09ZM500.68 1012.36V1009.54H499.28C497.09 1009.54 496.01 1010.33 496.01 1011.97C496.01 1013.31 496.7 1014.08 497.99 1014.08C499.18 1014.08 500.05 1013.47 500.68 1012.37V1012.36Z" fill="#1765AB"/>
<path d="M520.33 1009.14C520.33 1013.55 517.88 1016.53 513.76 1016.53C509.64 1016.53 507.19 1013.73 507.19 1009.14C507.19 1004.55 509.64 1001.78 513.79 1001.78C517.94 1001.78 520.33 1004.58 520.33 1009.14ZM510.75 1009.14C510.75 1012.49 511.78 1013.97 513.76 1013.97C515.74 1013.97 516.77 1012.47 516.77 1009.14C516.77 1005.81 515.74 1004.34 513.79 1004.34C511.84 1004.34 510.76 1005.84 510.76 1009.14H510.75Z" fill="#1765AB"/>
<path d="M538.38 1001.99L537.8 1005.26C537.38 1005.15 537.03 1005.1 536.56 1005.1C534.87 1005.1 534 1006.34 533.47 1008.69V1016.13H530.09V1002.17H533.02L533.34 1004.91C534 1002.91 535.35 1001.8 536.98 1001.8C537.48 1001.8 537.93 1001.85 538.38 1001.98V1001.99Z" fill="#1765AB"/>
<path d="M551.07 1010.2H542.31C542.55 1013.05 543.89 1013.97 545.74 1013.97C546.98 1013.97 548.01 1013.57 549.22 1012.73L550.62 1014.66C549.25 1015.77 547.56 1016.53 545.45 1016.53C541.12 1016.53 538.8 1013.65 538.8 1009.25C538.8 1004.85 541.04 1001.78 545 1001.78C548.96 1001.78 551.15 1004.42 551.15 1008.82C551.15 1009.27 551.1 1009.82 551.07 1010.19V1010.2ZM547.8 1007.85C547.8 1005.56 546.98 1004.18 545.08 1004.18C543.5 1004.18 542.49 1005.24 542.31 1008.01H547.8V1007.85Z" fill="#1765AB"/>
<path d="M563.55 1003.44L562.23 1005.42C561.07 1004.68 559.96 1004.29 558.72 1004.29C557.37 1004.29 556.61 1004.84 556.61 1005.69C556.61 1006.61 557.16 1007.04 559.54 1007.69C562.39 1008.45 564 1009.62 564 1012.1C564 1015 561.31 1016.53 558.12 1016.53C555.72 1016.53 553.85 1015.71 552.55 1014.55L554.24 1012.65C555.32 1013.47 556.61 1014.02 558.04 1014.02C559.54 1014.02 560.52 1013.39 560.52 1012.33C560.52 1011.17 559.97 1010.8 557.35 1010.06C554.47 1009.27 553.21 1007.9 553.21 1005.84C553.21 1003.52 555.35 1001.78 558.59 1001.78C560.59 1001.78 562.23 1002.41 563.55 1003.44Z" fill="#1765AB"/>
<path d="M579.14 1009.12C579.14 1013.39 577.16 1016.53 573.63 1016.53C572.21 1016.53 570.99 1016.03 570.12 1015V1021.52L566.74 1021.89V1002.18H569.69L569.88 1003.89C570.99 1002.44 572.46 1001.78 573.97 1001.78C577.61 1001.78 579.14 1004.66 579.14 1009.11V1009.12ZM575.6 1009.15C575.6 1005.61 574.65 1004.32 572.96 1004.32C571.77 1004.32 570.77 1005.14 570.11 1006.22V1012.5C570.77 1013.48 571.61 1013.95 572.67 1013.95C574.52 1013.95 575.6 1012.53 575.6 1009.15Z" fill="#1765AB"/>
<path d="M594.7 1009.14C594.7 1013.55 592.25 1016.53 588.13 1016.53C584.01 1016.53 581.56 1013.73 581.56 1009.14C581.56 1004.55 584.01 1001.78 588.16 1001.78C592.31 1001.78 594.7 1004.58 594.7 1009.14ZM585.12 1009.14C585.12 1012.49 586.15 1013.97 588.13 1013.97C590.11 1013.97 591.14 1012.47 591.14 1009.14C591.14 1005.81 590.11 1004.34 588.16 1004.34C586.21 1004.34 585.13 1005.84 585.13 1009.14H585.12Z" fill="#1765AB"/>
<path d="M609.27 1006.03V1016.13H605.89V1006.55C605.89 1004.81 605.23 1004.31 604.18 1004.31C602.97 1004.31 602.07 1005.13 601.25 1006.42V1016.13H597.87V1002.17H600.8L601.06 1003.99C602.14 1002.59 603.54 1001.77 605.31 1001.77C607.82 1001.77 609.27 1003.35 609.27 1006.02V1006.03Z" fill="#1765AB"/>
<path d="M624.94 996.58V1016.13H621.96L621.72 1014.36C620.88 1015.63 619.53 1016.52 617.74 1016.52C614.26 1016.52 612.44 1013.59 612.44 1009.16C612.44 1004.73 614.6 1001.77 618.06 1001.77C619.54 1001.77 620.7 1002.4 621.57 1003.27V996.2L624.95 996.57L624.94 996.58ZM621.56 1012.17V1005.79C620.82 1004.89 620.03 1004.31 618.9 1004.31C617.16 1004.31 616 1005.79 616 1009.14C616 1012.73 617.03 1013.97 618.69 1013.97C619.93 1013.97 620.77 1013.36 621.57 1012.18L621.56 1012.17Z" fill="#1765AB"/>
<path d="M640.37 1010.2H631.61C631.85 1013.05 633.19 1013.97 635.04 1013.97C636.28 1013.97 637.31 1013.57 638.52 1012.73L639.92 1014.66C638.55 1015.77 636.86 1016.53 634.75 1016.53C630.42 1016.53 628.1 1013.65 628.1 1009.25C628.1 1004.85 630.34 1001.78 634.3 1001.78C638.26 1001.78 640.45 1004.42 640.45 1008.82C640.45 1009.27 640.4 1009.82 640.37 1010.19V1010.2ZM637.1 1007.85C637.1 1005.56 636.28 1004.18 634.38 1004.18C632.8 1004.18 631.8 1005.24 631.61 1008.01H637.1V1007.85Z" fill="#1765AB"/>
<path d="M654.64 1016.13H651.71L651.53 1014.18C650.5 1015.76 649.16 1016.53 647.26 1016.53C644.73 1016.53 643.36 1014.89 643.36 1012.2V1002.17H646.74V1011.77C646.74 1013.41 647.29 1013.96 648.45 1013.96C649.61 1013.96 650.53 1013.19 651.27 1011.98V1002.17H654.65V1016.13H654.64Z" fill="#1765AB"/>
<path d="M681.83 543.13H678.85V548.78H673.65L673.61 543.13H662.87V539.51L670.18 522.81L674.7 524.51L668.41 539.06H673.69L674.26 532.84H678.86V539.06H681.84V543.13H681.83Z" fill="white"/>
<path d="M698.3 527.08L688.95 549.35L684.09 547.73L692.76 527.45H682.28V523.38H698.3V527.07V527.08Z" fill="white"/>
<path d="M706.81 546.15C706.81 547.21 706.47 548.19 705.75 549.84L703.3 555.34H700.17L701.75 548.78C700.88 548.22 700.36 547.24 700.36 546.14C700.36 544.33 701.75 542.94 703.56 542.94C705.37 542.94 706.8 544.33 706.8 546.14L706.81 546.15Z" fill="white"/>
<path d="M727.66 540.12C727.66 545.4 724.12 549.39 718.73 549.39C712.1 549.39 709.35 544.42 709.35 537.1C709.35 528.54 713.42 522.89 720.05 522.89C722.35 522.89 724.27 523.53 725.7 524.51L723.74 527.79C722.65 527.15 721.52 526.77 720.16 526.77C717.11 526.77 715.15 529.56 714.88 534.38C716.46 532.57 718.38 531.78 720.42 531.78C724.49 531.78 727.66 534.72 727.66 540.11V540.12ZM722.27 540.2C722.27 536.73 721.06 535.56 719.03 535.56C717.45 535.56 716.01 536.46 714.88 537.9C714.96 543.29 716.05 545.48 718.76 545.48C721.14 545.48 722.27 543.41 722.27 540.2Z" fill="white"/>
<path d="M743.07 529.56C743.07 533.67 740.24 536.23 736.51 536.23C732.78 536.23 729.95 533.67 729.95 529.56C729.95 525.45 732.81 522.89 736.51 522.89C740.21 522.89 743.07 525.45 743.07 529.56ZM733.91 529.56C733.91 531.22 734.44 532.95 736.51 532.95C738.58 532.95 739.07 531.29 739.07 529.56C739.07 527.83 738.58 526.17 736.51 526.17C734.44 526.17 733.91 527.83 733.91 529.56ZM755.2 523.87L737.71 550.21L734.36 548.06L751.81 521.72L755.2 523.87ZM759.53 542.71C759.53 546.78 756.7 549.38 752.97 549.38C749.24 549.38 746.37 546.78 746.37 542.71C746.37 538.64 749.27 536.04 752.97 536.04C756.67 536.04 759.53 538.6 759.53 542.71ZM750.37 542.71C750.37 544.37 750.9 546.1 752.97 546.1C755.04 546.1 755.53 544.4 755.53 542.71C755.53 541.02 755.04 539.32 752.97 539.32C750.9 539.32 750.37 540.98 750.37 542.71Z" fill="white"/>
<path d="M358.05 566.94C358.05 570.07 356.13 572.1 353.07 572.93C356.24 573.27 358.87 575.19 358.87 579.19C358.87 583.49 355.48 586.99 349.41 586.99C345.75 586.99 342.93 585.63 340.97 583.22L343.87 580.43C345.57 582.13 347.15 582.84 349.11 582.84C351.67 582.84 353.37 581.37 353.37 578.84C353.37 576.01 351.79 575 349 575H346.93L347.57 571.23H348.96C351.26 571.23 352.84 569.95 352.84 567.65C352.84 565.69 351.45 564.52 349.26 564.52C347.34 564.52 345.79 565.24 344.25 566.71L341.57 563.81C343.87 561.62 346.58 560.49 349.79 560.49C355.18 560.49 358.04 563.39 358.04 566.94H358.05Z" fill="white"/>
<path d="M380.71 579.53C380.71 583.68 377.09 586.99 371.06 586.99C365.03 586.99 361.6 583.71 361.6 579.64C361.6 576.55 363.41 574.55 366.39 573.23C363.68 571.68 362.62 569.65 362.62 567.24C362.62 563.09 366.39 560.49 371.18 560.49C375.97 560.49 379.74 562.79 379.74 567.01C379.74 569.27 378.46 571.23 375.59 572.74C379.06 574.36 380.72 576.55 380.72 579.52L380.71 579.53ZM375.32 579.49C375.32 577.27 374.15 576.25 371.02 575.12L369.81 574.71C367.93 575.69 366.98 577.31 366.98 579.42C366.98 581.68 368.6 583.08 371.2 583.08C373.8 583.08 375.31 581.57 375.31 579.5L375.32 579.49ZM367.82 567.32C367.82 569.28 369.03 570.22 371.29 571.13L372.04 571.39C373.92 570.18 374.53 568.98 374.53 567.28C374.53 565.43 373.4 564.15 371.21 564.15C369.14 564.15 367.82 565.24 367.82 567.32Z" fill="white"/>
<path d="M389.71 583.75C389.71 584.81 389.37 585.79 388.65 587.44L386.2 592.94H383.07L384.65 586.38C383.78 585.81 383.26 584.84 383.26 583.74C383.26 581.93 384.65 580.54 386.46 580.54C388.27 580.54 389.7 581.93 389.7 583.74L389.71 583.75Z" fill="white"/>
<path d="M401.09 586.39H395.85V566.26L390.27 569.69L387.93 566.07L396.37 560.98H401.08V586.38L401.09 586.39Z" fill="white"/>
<path d="M418.81 567.17C418.81 571.28 415.98 573.84 412.25 573.84C408.52 573.84 405.69 571.28 405.69 567.17C405.69 563.06 408.55 560.5 412.25 560.5C415.95 560.5 418.81 563.06 418.81 567.17ZM409.65 567.17C409.65 568.83 410.18 570.56 412.25 570.56C414.32 570.56 414.81 568.9 414.81 567.17C414.81 565.44 414.32 563.78 412.25 563.78C410.18 563.78 409.65 565.44 409.65 567.17ZM430.94 561.48L413.45 587.82L410.1 585.67L427.55 559.33L430.94 561.48ZM435.27 580.32C435.27 584.39 432.44 586.99 428.71 586.99C424.98 586.99 422.11 584.39 422.11 580.32C422.11 576.25 425.01 573.65 428.71 573.65C432.41 573.65 435.27 576.21 435.27 580.32ZM426.11 580.32C426.11 581.98 426.64 583.71 428.71 583.71C430.78 583.71 431.27 582.01 431.27 580.32C431.27 578.63 430.78 576.93 428.71 576.93C426.64 576.93 426.11 578.59 426.11 580.32Z" fill="white"/>
<path d="M459 332.01H453.76V311.88L448.18 315.31L445.84 311.69L454.28 306.6H458.99V332L459 332.01Z" fill="white"/>
<path d="M482.48 326.36H479.5V332.01H474.3L474.26 326.36H463.52V322.74L470.83 306.04L475.35 307.74L469.06 322.29H474.34L474.9 316.07H479.5V322.29H482.48V326.36Z" fill="white"/>
<path d="M491.07 329.38C491.07 330.44 490.73 331.42 490.01 333.07L487.56 338.57H484.43L486.01 332.01C485.14 331.44 484.62 330.46 484.62 329.37C484.62 327.56 486.01 326.17 487.82 326.17C489.63 326.17 491.06 327.56 491.06 329.37L491.07 329.38Z" fill="white"/>
<path d="M510.03 312.57C510.03 315.7 508.11 317.73 505.05 318.56C508.22 318.9 510.85 320.82 510.85 324.82C510.85 329.12 507.46 332.62 501.39 332.62C497.73 332.62 494.91 331.26 492.95 328.85L495.85 326.06C497.55 327.76 499.13 328.47 501.09 328.47C503.65 328.47 505.35 327 505.35 324.48C505.35 321.65 503.77 320.64 500.98 320.64H498.91L499.55 316.87H500.94C503.24 316.87 504.82 315.59 504.82 313.29C504.82 311.33 503.43 310.16 501.24 310.16C499.32 310.16 497.77 310.88 496.23 312.35L493.55 309.45C495.85 307.26 498.56 306.13 501.77 306.13C507.16 306.13 510.02 309.03 510.02 312.57H510.03Z" fill="white"/>
<path d="M526.68 312.79C526.68 316.9 523.85 319.46 520.12 319.46C516.39 319.46 513.56 316.9 513.56 312.79C513.56 308.68 516.42 306.12 520.12 306.12C523.82 306.12 526.68 308.68 526.68 312.79ZM517.52 312.79C517.52 314.45 518.05 316.18 520.12 316.18C522.19 316.18 522.68 314.52 522.68 312.79C522.68 311.06 522.19 309.4 520.12 309.4C518.05 309.4 517.52 311.06 517.52 312.79ZM538.81 307.1L521.32 333.44L517.97 331.29L535.42 304.95L538.81 307.1ZM543.14 325.94C543.14 330.01 540.31 332.61 536.58 332.61C532.85 332.61 529.98 330.01 529.98 325.94C529.98 321.87 532.88 319.27 536.58 319.27C540.28 319.27 543.14 321.83 543.14 325.94ZM533.98 325.94C533.98 327.6 534.51 329.33 536.58 329.33C538.65 329.33 539.14 327.63 539.14 325.94C539.14 324.25 538.65 322.55 536.58 322.55C534.51 322.55 533.98 324.21 533.98 325.94Z" fill="white"/>
<path d="M358.47 80.17H355.93V89.36H350.94V65.89H358.27C364.55 65.89 367.73 68.16 367.73 72.91C367.73 76.03 366.2 77.9 363.08 79.25L369.15 89.36H363.49L358.47 80.17ZM355.93 76.64H358.54C361.15 76.64 362.58 75.55 362.58 72.91C362.58 70.5 361.19 69.45 358.17 69.45H355.93V76.64Z" fill="#1765AB"/>
<path d="M386.25 81.84H375.02C375.36 85.3 376.99 86.32 379.29 86.32C380.82 86.32 382.11 85.84 383.67 84.76L385.67 87.47C383.91 88.89 381.67 89.91 378.85 89.91C373.08 89.91 370.06 86.11 370.06 80.48C370.06 74.85 372.98 70.85 378.23 70.85C383.48 70.85 386.34 74.24 386.34 79.97C386.34 80.58 386.27 81.33 386.24 81.84H386.25ZM381.57 78.62C381.57 75.91 380.65 74.14 378.35 74.14C376.45 74.14 375.26 75.43 375.03 78.82H381.58V78.62H381.57Z" fill="#1765AB"/>
<path d="M402.33 73.02L400.5 75.77C399.04 74.85 397.58 74.35 396.02 74.35C394.46 74.35 393.54 74.99 393.54 75.98C393.54 77.03 394.15 77.51 397.31 78.42C400.91 79.4 402.94 80.9 402.94 84.08C402.94 87.81 399.45 89.91 395.17 89.91C392.05 89.91 389.54 88.86 387.84 87.3L390.21 84.65C391.57 85.7 393.23 86.41 395.03 86.41C396.83 86.41 397.98 85.66 397.98 84.44C397.98 83.08 397.34 82.64 394.01 81.73C390.38 80.71 388.68 78.91 388.68 76.2C388.68 73.15 391.46 70.84 395.8 70.84C398.41 70.84 400.62 71.65 402.31 73.01L402.33 73.02Z" fill="#1765AB"/>
<path d="M422.48 80.34C422.48 85.84 419.87 89.91 415.36 89.91C413.56 89.91 412.04 89.27 410.92 87.98V96.29L406.1 96.83V71.39H410.34L410.58 73.49C412 71.66 413.94 70.84 415.8 70.84C420.48 70.84 422.48 74.54 422.48 80.34ZM417.46 80.37C417.46 75.86 416.31 74.4 414.31 74.4C412.92 74.4 411.73 75.35 410.92 76.71V84.55C411.7 85.74 412.68 86.31 413.94 86.31C416.15 86.31 417.47 84.58 417.47 80.37H417.46Z" fill="#1765AB"/>
<path d="M442.46 80.38C442.46 86.08 439.24 89.91 433.84 89.91C428.44 89.91 425.22 86.35 425.22 80.38C425.22 74.41 428.44 70.85 433.87 70.85C439.3 70.85 442.45 74.41 442.45 80.38H442.46ZM430.25 80.38C430.25 84.52 431.47 86.32 433.85 86.32C436.23 86.32 437.45 84.49 437.45 80.38C437.45 76.27 436.23 74.44 433.89 74.44C431.55 74.44 430.26 76.27 430.26 80.38H430.25Z" fill="#1765AB"/>
<path d="M458.6 73.02L456.77 75.77C455.31 74.85 453.85 74.35 452.29 74.35C450.73 74.35 449.81 74.99 449.81 75.98C449.81 77.03 450.42 77.51 453.58 78.42C457.18 79.4 459.21 80.9 459.21 84.08C459.21 87.81 455.72 89.91 451.44 89.91C448.32 89.91 445.81 88.86 444.11 87.3L446.48 84.65C447.84 85.7 449.5 86.41 451.3 86.41C453.1 86.41 454.25 85.66 454.25 84.44C454.25 83.08 453.61 82.64 450.28 81.73C446.65 80.71 444.95 78.91 444.95 76.2C444.95 73.15 447.73 70.84 452.07 70.84C454.68 70.84 456.89 71.65 458.58 73.01L458.6 73.02Z" fill="#1765AB"/>
<path d="M473.12 88.52C471.8 89.44 470.03 89.91 468.44 89.91C464.71 89.88 462.81 87.74 462.81 83.74V74.78H460.13V71.39H462.81V67.45L467.63 66.87V71.38H471.77L471.29 74.77H467.63V83.62C467.63 85.38 468.21 86.06 469.43 86.06C470.07 86.06 470.72 85.86 471.47 85.45L473.13 88.5L473.12 88.52Z" fill="#1765AB"/>
<path d="M489.94 86.65L488.92 89.84C486.88 89.67 485.53 88.99 484.78 87.19C483.49 89.16 481.52 89.9 479.39 89.9C475.79 89.9 473.56 87.59 473.56 84.34C473.56 80.4 476.51 78.27 481.84 78.27H483.91V77.39C483.91 75.15 482.96 74.44 480.69 74.44C479.5 74.44 477.77 74.78 475.94 75.39L474.85 72.17C477.09 71.29 479.46 70.85 481.5 70.85C486.49 70.85 488.62 73.06 488.62 77.13V84.39C488.62 85.85 489.06 86.36 489.94 86.66V86.65ZM483.9 84.44V81.01H482.31C479.7 81.01 478.41 81.96 478.41 83.93C478.41 85.52 479.22 86.44 480.72 86.44C482.11 86.44 483.16 85.73 483.91 84.44H483.9Z" fill="#1765AB"/>
<path d="M505.58 73.02L503.75 75.77C502.29 74.85 500.83 74.35 499.27 74.35C497.71 74.35 496.79 74.99 496.79 75.98C496.79 77.03 497.4 77.51 500.56 78.42C504.16 79.4 506.19 80.9 506.19 84.08C506.19 87.81 502.7 89.91 498.42 89.91C495.3 89.91 492.79 88.86 491.09 87.3L493.46 84.65C494.82 85.7 496.48 86.41 498.28 86.41C500.08 86.41 501.23 85.66 501.23 84.44C501.23 83.08 500.59 82.64 497.26 81.73C493.63 80.71 491.93 78.91 491.93 76.2C491.93 73.15 494.71 70.84 499.05 70.84C501.66 70.84 503.87 71.65 505.56 73.01L505.58 73.02Z" fill="#1765AB"/>
<path d="M532.68 86.65L531.66 89.84C529.62 89.67 528.27 88.99 527.52 87.19C526.23 89.16 524.26 89.9 522.13 89.9C518.53 89.9 516.3 87.59 516.3 84.34C516.3 80.4 519.25 78.27 524.58 78.27H526.65V77.39C526.65 75.15 525.7 74.44 523.43 74.44C522.24 74.44 520.51 74.78 518.68 75.39L517.59 72.17C519.83 71.29 522.2 70.85 524.24 70.85C529.23 70.85 531.36 73.06 531.36 77.13V84.39C531.36 85.85 531.8 86.36 532.68 86.66V86.65ZM527.93 68.13L520.13 65.01L522.06 61.31L529.29 65.65L527.93 68.13ZM526.64 84.45V81.02H525.05C522.44 81.02 521.15 81.97 521.15 83.94C521.15 85.53 521.96 86.45 523.46 86.45C524.85 86.45 525.9 85.74 526.65 84.45H526.64Z" fill="#1765AB"/>
<path d="M560.02 71.39V96.83L555.2 96.29V87.54C554.11 88.93 552.52 89.91 550.35 89.91C545.84 89.91 543.53 86.11 543.53 80.38C543.53 74.65 546.35 70.85 550.82 70.85C552.79 70.85 554.31 71.66 555.57 73.06L555.84 71.4H560.01L560.02 71.39ZM555.2 84.14V76.1C554.32 75.05 553.44 74.4 552.11 74.4C549.97 74.4 548.55 76.16 548.55 80.37C548.55 84.88 549.84 86.31 551.77 86.31C553.23 86.31 554.25 85.56 555.2 84.14Z" fill="#1765AB"/>
<path d="M579.49 89.37H575.32L575.08 86.96C573.79 88.96 572.03 89.91 569.62 89.91C566.3 89.91 564.6 87.77 564.6 84.31V71.39H569.42V83.7C569.42 85.67 570.06 86.31 571.39 86.31C572.72 86.31 573.83 85.43 574.68 83.97V71.39H579.5V89.37H579.49Z" fill="#1765AB"/>
<path d="M599.33 81.84H588.1C588.44 85.3 590.07 86.32 592.37 86.32C593.9 86.32 595.19 85.84 596.75 84.76L598.75 87.47C596.99 88.89 594.75 89.91 591.93 89.91C586.16 89.91 583.14 86.11 583.14 80.48C583.14 74.85 586.06 70.85 591.31 70.85C596.56 70.85 599.42 74.24 599.42 79.97C599.42 80.58 599.35 81.33 599.32 81.84H599.33ZM594.65 78.62C594.65 75.91 593.73 74.14 591.43 74.14C589.53 74.14 588.34 75.43 588.11 78.82H594.66V78.62H594.65Z" fill="#1765AB"/>
<path d="M615.41 73.02L613.58 75.77C612.12 74.85 610.66 74.35 609.1 74.35C607.54 74.35 606.62 74.99 606.62 75.98C606.62 77.03 607.23 77.51 610.39 78.42C613.99 79.4 616.02 80.9 616.02 84.08C616.02 87.81 612.53 89.91 608.25 89.91C605.13 89.91 602.62 88.86 600.92 87.3L603.29 84.65C604.65 85.7 606.31 86.41 608.11 86.41C609.91 86.41 611.06 85.66 611.06 84.44C611.06 83.08 610.42 82.64 607.09 81.73C603.46 80.71 601.76 78.91 601.76 76.2C601.76 73.15 604.54 70.84 608.88 70.84C611.49 70.84 613.7 71.65 615.39 73.01L615.41 73.02Z" fill="#1765AB"/>
<path d="M629.93 88.52C628.61 89.44 626.84 89.91 625.25 89.91C621.52 89.88 619.62 87.74 619.62 83.74V74.78H616.94V71.39H619.62V67.45L624.44 66.87V71.38H628.58L628.11 74.77H624.45V83.62C624.45 85.38 625.03 86.06 626.25 86.06C626.89 86.06 627.54 85.86 628.29 85.45L629.95 88.5L629.93 88.52Z" fill="#1765AB"/>
<path d="M646.75 86.65L645.73 89.84C643.69 89.67 642.34 88.99 641.59 87.19C640.3 89.16 638.33 89.9 636.2 89.9C632.6 89.9 630.37 87.59 630.37 84.34C630.37 80.4 633.32 78.27 638.65 78.27H640.72V77.39C640.72 75.15 639.77 74.44 637.5 74.44C636.31 74.44 634.58 74.78 632.75 75.39L631.67 72.17C633.91 71.29 636.28 70.85 638.32 70.85C643.31 70.85 645.44 73.06 645.44 77.13V84.39C645.44 85.85 645.88 86.36 646.76 86.66L646.75 86.65ZM634.71 67.62L632.23 66.4C633.04 64.36 634.5 62.63 636.44 62.63C638.48 62.63 639.22 64.19 640.37 64.19C641.12 64.19 641.59 63.68 642.17 62.7L644.65 63.92C643.77 66.13 642.31 67.65 640.41 67.65C638.51 67.65 637.66 66.09 636.51 66.09C635.73 66.09 635.26 66.63 634.71 67.62ZM640.71 84.44V81.01H639.12C636.51 81.01 635.22 81.96 635.22 83.93C635.22 85.52 636.03 86.44 637.53 86.44C638.92 86.44 639.97 85.73 640.72 84.44H640.71Z" fill="#1765AB"/>
<path d="M666.39 80.38C666.39 86.08 663.17 89.91 657.77 89.91C652.37 89.91 649.15 86.35 649.15 80.38C649.15 74.41 652.37 70.85 657.8 70.85C663.23 70.85 666.38 74.41 666.38 80.38H666.39ZM654.18 80.38C654.18 84.52 655.4 86.32 657.77 86.32C660.14 86.32 661.37 84.49 661.37 80.38C661.37 76.27 660.15 74.44 657.81 74.44C655.47 74.44 654.18 76.27 654.18 80.38Z" fill="#1765AB"/>
<path d="M690.81 73.02L688.98 75.77C687.52 74.85 686.06 74.35 684.5 74.35C682.94 74.35 682.02 74.99 682.02 75.98C682.02 77.03 682.63 77.51 685.79 78.42C689.39 79.4 691.42 80.9 691.42 84.08C691.42 87.81 687.93 89.91 683.65 89.91C680.53 89.91 678.02 88.86 676.32 87.3L678.69 84.65C680.05 85.7 681.71 86.41 683.51 86.41C685.31 86.41 686.46 85.66 686.46 84.44C686.46 83.08 685.82 82.64 682.49 81.73C678.86 80.71 677.16 78.91 677.16 76.2C677.16 73.15 679.94 70.84 684.28 70.84C686.89 70.84 689.1 71.65 690.79 73.01L690.81 73.02Z" fill="#1765AB"/>
<path d="M710.72 80.38C710.72 86.08 707.5 89.91 702.1 89.91C696.7 89.91 693.48 86.35 693.48 80.38C693.48 74.41 696.7 70.85 702.13 70.85C707.56 70.85 710.71 74.41 710.71 80.38H710.72ZM698.51 80.38C698.51 84.52 699.73 86.32 702.1 86.32C704.47 86.32 705.7 84.49 705.7 80.38C705.7 76.27 704.48 74.44 702.14 74.44C699.8 74.44 698.51 76.27 698.51 80.38Z" fill="#1765AB"/>
<path d="M730.77 80.38C730.77 85.94 728.09 89.91 723.65 89.91C721.65 89.91 720.05 89.06 718.94 87.6L718.67 89.36H714.4V64.23L719.22 63.69V73.32C720.34 71.79 722.1 70.84 724.14 70.84C728.35 70.84 730.79 74.37 730.79 80.37L730.77 80.38ZM725.75 80.38C725.75 75.7 724.43 74.41 722.53 74.41C721.14 74.41 720.02 75.36 719.21 76.72V84.42C719.96 85.64 721.01 86.35 722.3 86.35C724.34 86.35 725.76 84.76 725.76 80.38H725.75Z" fill="#1765AB"/>
<path d="M745.69 71.15L744.88 75.8C744.34 75.66 743.9 75.56 743.29 75.56C741.09 75.56 740.07 77.19 739.42 80.07V89.36H734.6V71.38H738.77L739.21 74.87C740.06 72.36 741.79 70.87 743.89 70.87C744.53 70.87 745.08 70.97 745.69 71.14V71.15Z" fill="#1765AB"/>
<path d="M762.14 81.84H750.91C751.25 85.3 752.88 86.32 755.18 86.32C756.71 86.32 758 85.84 759.56 84.76L761.56 87.47C759.8 88.89 757.56 89.91 754.74 89.91C748.97 89.91 745.95 86.11 745.95 80.48C745.95 74.85 748.87 70.85 754.12 70.85C759.37 70.85 762.23 74.24 762.23 79.97C762.23 80.58 762.16 81.33 762.13 81.84H762.14ZM757.46 78.62C757.46 75.91 756.54 74.14 754.24 74.14C752.34 74.14 751.15 75.43 750.92 78.82H757.47V78.62H757.46Z" fill="#1765AB"/>
<path d="M231.43 128.09C230.11 129.01 228.34 129.48 226.75 129.48C223.02 129.45 221.12 127.31 221.12 123.31V114.35H218.44V110.96H221.12V107.02L225.94 106.44V110.95H230.08L229.6 114.34H225.94V123.19C225.94 124.95 226.52 125.63 227.74 125.63C228.38 125.63 229.03 125.43 229.78 125.02L231.44 128.07L231.43 128.09Z" fill="#1765AB"/>
<path d="M244.66 110.72L243.85 115.37C243.31 115.23 242.87 115.13 242.26 115.13C240.05 115.13 239.04 116.76 238.39 119.64V128.93H233.57V110.95H237.74L238.18 114.44C239.03 111.93 240.76 110.44 242.86 110.44C243.5 110.44 244.05 110.54 244.66 110.71V110.72Z" fill="#1765AB"/>
<path d="M260.91 126.22L259.89 129.41C257.85 129.24 256.5 128.56 255.75 126.76C254.46 128.73 252.49 129.47 250.36 129.47C246.76 129.47 244.53 127.16 244.53 123.91C244.53 119.97 247.48 117.84 252.81 117.84H254.88V116.96C254.88 114.72 253.93 114.01 251.66 114.01C250.47 114.01 248.74 114.35 246.91 114.96L245.82 111.74C248.06 110.86 250.43 110.42 252.47 110.42C257.46 110.42 259.59 112.63 259.59 116.7V123.96C259.59 125.42 260.03 125.93 260.91 126.23V126.22ZM254.87 124.02V120.59H253.28C250.67 120.59 249.38 121.54 249.38 123.51C249.38 125.1 250.19 126.02 251.69 126.02C253.08 126.02 254.13 125.31 254.88 124.02H254.87Z" fill="#1765AB"/>
<path d="M279.46 115.85V128.94H274.64V116.66C274.64 114.59 273.89 114.01 272.67 114.01C271.28 114.01 270.19 114.93 269.21 116.52V128.94H264.39V110.96H268.56L268.93 113.23C270.39 111.43 272.12 110.41 274.43 110.41C277.58 110.41 279.45 112.45 279.45 115.84L279.46 115.85Z" fill="#1765AB"/>
<path d="M296.52 112.59L294.69 115.34C293.23 114.42 291.77 113.92 290.21 113.92C288.65 113.92 287.73 114.56 287.73 115.55C287.73 116.6 288.34 117.08 291.5 117.99C295.1 118.97 297.13 120.47 297.13 123.65C297.13 127.38 293.64 129.48 289.36 129.48C286.24 129.48 283.73 128.43 282.03 126.87L284.4 124.22C285.76 125.27 287.42 125.98 289.22 125.98C291.02 125.98 292.17 125.23 292.17 124.01C292.17 122.65 291.53 122.21 288.2 121.3C284.57 120.28 282.87 118.48 282.87 115.77C282.87 112.72 285.65 110.41 289.99 110.41C292.6 110.41 294.81 111.22 296.5 112.58L296.52 112.59Z" fill="#1765AB"/>
<path d="M305.71 109.3V110.96H309.98L309.44 114.35H305.71V128.94H300.89V114.35H298.04V110.96H300.89V109.16C300.89 105.84 303.1 103.26 307.47 103.26C309.3 103.26 310.9 103.7 312.22 104.35L310.9 107.54C309.81 107.03 308.83 106.86 307.98 106.86C306.35 106.86 305.71 107.61 305.71 109.3Z" fill="#1765AB"/>
<path d="M328 119.95C328 125.65 324.78 129.48 319.38 129.48C313.98 129.48 310.76 125.92 310.76 119.95C310.76 113.98 313.98 110.42 319.41 110.42C324.84 110.42 327.99 113.98 327.99 119.95H328ZM315.79 119.95C315.79 124.09 317.01 125.89 319.39 125.89C321.77 125.89 322.99 124.06 322.99 119.95C322.99 115.84 321.77 114.01 319.43 114.01C317.09 114.01 315.8 115.84 315.8 119.95H315.79Z" fill="#1765AB"/>
<path d="M342.75 110.72L341.94 115.37C341.4 115.23 340.96 115.13 340.35 115.13C338.14 115.13 337.13 116.76 336.48 119.64V128.93H331.66V110.95H335.83L336.27 114.44C337.12 111.93 338.85 110.44 340.95 110.44C341.59 110.44 342.14 110.54 342.75 110.71V110.72Z" fill="#1765AB"/>
<path d="M369.31 115.85V128.94H364.49V116.66C364.49 114.59 363.68 114.01 362.73 114.01C361.41 114.01 360.53 114.93 359.61 116.52V128.94H354.79V116.66C354.79 114.59 354.01 114.01 353.03 114.01C351.71 114.01 350.83 114.93 349.94 116.52V128.94H345.12V110.96H349.29L349.66 113.2C350.98 111.44 352.61 110.42 354.88 110.42C356.92 110.42 358.48 111.47 359.15 113.34C360.57 111.47 362.24 110.42 364.54 110.42C367.36 110.42 369.29 112.46 369.29 115.85H369.31Z" fill="#1765AB"/>
<path d="M388.95 126.22L387.93 129.41C385.89 129.24 384.54 128.56 383.79 126.76C382.5 128.73 380.53 129.47 378.4 129.47C374.8 129.47 372.57 127.16 372.57 123.91C372.57 119.97 375.52 117.84 380.85 117.84H382.92V116.96C382.92 114.72 381.97 114.01 379.7 114.01C378.51 114.01 376.78 114.35 374.95 114.96L373.86 111.74C376.1 110.86 378.47 110.42 380.51 110.42C385.5 110.42 387.63 112.63 387.63 116.7V123.96C387.63 125.42 388.07 125.93 388.95 126.23V126.22ZM382.91 124.02V120.59H381.32C378.71 120.59 377.42 121.54 377.42 123.51C377.42 125.1 378.23 126.02 379.73 126.02C381.12 126.02 382.17 125.31 382.92 124.02H382.91Z" fill="#1765AB"/>
<path d="M400.92 129.45V130.64C403.29 130.88 404.35 132.17 404.35 133.9C404.35 136.17 402.38 137.67 399.5 137.67C397.97 137.67 396.68 137.26 395.87 136.69L396.99 134.38C397.67 134.75 398.31 134.96 399.16 134.96C400.11 134.96 400.79 134.69 400.79 133.87C400.79 133.05 399.87 132.65 397.67 132.65L398.11 129.33C393.87 128.55 391.36 125.12 391.36 120.1C391.36 114.4 394.68 110.43 399.94 110.43C402.35 110.43 404.21 111.14 405.91 112.6L403.81 115.45C402.66 114.57 401.6 114.16 400.28 114.16C397.87 114.16 396.45 115.89 396.45 120.06C396.45 124.23 397.98 125.62 400.25 125.62C401.57 125.62 402.49 125.21 403.81 124.37L405.91 127.39C404.49 128.54 402.89 129.29 400.92 129.46V129.45Z" fill="#1765AB"/>
<path d="M424.13 119.95C424.13 125.65 420.91 129.48 415.51 129.48C410.11 129.48 406.89 125.92 406.89 119.95C406.89 113.98 410.11 110.42 415.54 110.42C420.97 110.42 424.12 113.98 424.12 119.95H424.13ZM413.58 105.67C412.8 105.67 412.33 106.21 411.78 107.2L409.3 105.98C410.11 103.94 411.57 102.21 413.51 102.21C415.55 102.21 416.29 103.77 417.45 103.77C418.2 103.77 418.67 103.26 419.25 102.28L421.73 103.5C420.85 105.71 419.39 107.23 417.49 107.23C415.59 107.23 414.74 105.67 413.59 105.67H413.58ZM411.92 119.95C411.92 124.09 413.14 125.89 415.52 125.89C417.9 125.89 419.12 124.06 419.12 119.95C419.12 115.84 417.9 114.01 415.56 114.01C413.22 114.01 411.93 115.84 411.93 119.95H411.92Z" fill="#1765AB"/>
<path d="M442.88 121.41H431.65C431.99 124.87 433.62 125.89 435.92 125.89C437.45 125.89 438.74 125.41 440.3 124.33L442.3 127.04C440.54 128.46 438.3 129.48 435.48 129.48C429.71 129.48 426.69 125.68 426.69 120.05C426.69 114.42 429.61 110.42 434.86 110.42C440.11 110.42 442.97 113.81 442.97 119.54C442.97 120.15 442.9 120.9 442.87 121.41H442.88ZM438.2 118.19C438.2 115.48 437.28 113.71 434.98 113.71C433.08 113.71 431.89 115 431.66 118.39H438.21V118.19H438.2Z" fill="#1765AB"/>
<path d="M458.96 112.59L457.13 115.34C455.67 114.42 454.21 113.92 452.65 113.92C451.09 113.92 450.17 114.56 450.17 115.55C450.17 116.6 450.78 117.08 453.94 117.99C457.54 118.97 459.57 120.47 459.57 123.65C459.57 127.38 456.08 129.48 451.8 129.48C448.68 129.48 446.17 128.43 444.47 126.87L446.84 124.22C448.2 125.27 449.86 125.98 451.66 125.98C453.46 125.98 454.61 125.23 454.61 124.01C454.61 122.65 453.97 122.21 450.64 121.3C447.01 120.28 445.31 118.48 445.31 115.77C445.31 112.72 448.09 110.41 452.43 110.41C455.04 110.41 457.25 111.22 458.94 112.58L458.96 112.59Z" fill="#1765AB"/>
<path d="M486.06 115.85V128.94H481.24V116.66C481.24 114.59 480.49 114.01 479.27 114.01C477.88 114.01 476.79 114.93 475.81 116.52V128.94H470.99V110.96H475.16L475.53 113.23C476.99 111.43 478.72 110.41 481.03 110.41C484.18 110.41 486.05 112.45 486.05 115.84L486.06 115.85Z" fill="#1765AB"/>
<path d="M505.7 126.22L504.68 129.41C502.64 129.24 501.29 128.56 500.54 126.76C499.25 128.73 497.28 129.47 495.15 129.47C491.55 129.47 489.32 127.16 489.32 123.91C489.32 119.97 492.27 117.84 497.6 117.84H499.67V116.96C499.67 114.72 498.72 114.01 496.45 114.01C495.26 114.01 493.53 114.35 491.7 114.96L490.61 111.74C492.85 110.86 495.22 110.42 497.26 110.42C502.25 110.42 504.38 112.63 504.38 116.7V123.96C504.38 125.42 504.82 125.93 505.7 126.23V126.22ZM499.66 124.02V120.59H498.07C495.46 120.59 494.17 121.54 494.17 123.51C494.17 125.1 494.98 126.02 496.48 126.02C497.87 126.02 498.92 125.31 499.67 124.02H499.66Z" fill="#1765AB"/>
<path d="M531.04 109.1H522.56V115.21H529.95V118.81H522.56V125.29H531.65V128.95H517.57V105.48H531.58L531.04 109.11V109.1Z" fill="#1765AB"/>
<path d="M546.57 123.68H539.21L537.89 128.94H532.7L539.93 105.47H546L553.19 128.94H547.9L546.58 123.68H546.57ZM545.62 119.98L542.87 109.16L540.16 119.98H545.62Z" fill="#1765AB"/>
<path d="M573.61 117.1C573.61 126.56 567.84 128.94 562.08 128.94H555.36V105.47H561.5C567.71 105.47 573.61 107.4 573.61 117.1ZM560.35 109.13V125.28H562.39C565.82 125.28 568.43 123.69 568.43 117.11C568.43 110.53 565.68 109.14 562.29 109.14H560.36L560.35 109.13Z" fill="#1765AB"/>
<path d="M601.15 103.8V128.93H596.91L596.64 126.73C595.55 128.29 593.89 129.48 591.48 129.48C586.97 129.48 584.66 125.68 584.66 119.95C584.66 114.22 587.51 110.42 591.95 110.42C593.78 110.42 595.24 111.17 596.33 112.22V103.26L601.15 103.8ZM596.33 123.71V115.67C595.45 114.62 594.53 113.97 593.21 113.97C591.11 113.97 589.68 115.73 589.68 119.94C589.68 124.45 590.97 125.88 592.9 125.88C594.36 125.88 595.38 125.13 596.33 123.71Z" fill="#1765AB"/>
<path d="M620.62 128.94H616.45L616.21 126.53C614.92 128.53 613.16 129.48 610.75 129.48C607.43 129.48 605.73 127.34 605.73 123.88V110.96H610.55V123.27C610.55 125.24 611.19 125.88 612.52 125.88C613.85 125.88 614.96 125 615.81 123.54V110.96H620.63V128.94H620.62Z" fill="#1765AB"/>
<path d="M636.46 110.72L635.65 115.37C635.11 115.23 634.67 115.13 634.06 115.13C631.86 115.13 630.84 116.76 630.19 119.64V128.93H625.37V110.95H629.54L629.98 114.44C630.83 111.93 632.56 110.44 634.66 110.44C635.3 110.44 635.85 110.54 636.46 110.71V110.72Z" fill="#1765AB"/>
<path d="M652.71 126.22L651.69 129.41C649.65 129.24 648.3 128.56 647.55 126.76C646.26 128.73 644.29 129.47 642.16 129.47C638.56 129.47 636.33 127.16 636.33 123.91C636.33 119.97 639.28 117.84 644.61 117.84H646.68V116.96C646.68 114.72 645.73 114.01 643.46 114.01C642.27 114.01 640.54 114.35 638.71 114.96L637.63 111.74C639.87 110.86 642.24 110.42 644.28 110.42C649.27 110.42 651.4 112.63 651.4 116.7V123.96C651.4 125.42 651.84 125.93 652.72 126.23L652.71 126.22ZM646.67 124.02V120.59H645.08C642.47 120.59 641.18 121.54 641.18 123.51C641.18 125.1 641.99 126.02 643.49 126.02C644.88 126.02 645.93 125.31 646.68 124.02H646.67Z" fill="#1765AB"/>
<path d="M671.26 115.85V128.94H666.44V116.66C666.44 114.59 665.69 114.01 664.47 114.01C663.08 114.01 661.99 114.93 661.01 116.52V128.94H656.19V110.96H660.36L660.73 113.23C662.19 111.43 663.92 110.41 666.23 110.41C669.38 110.41 671.25 112.45 671.25 115.84L671.26 115.85Z" fill="#1765AB"/>
<path d="M686.59 128.09C685.27 129.01 683.5 129.48 681.91 129.48C678.18 129.45 676.28 127.31 676.28 123.31V114.35H673.6V110.96H676.28V107.02L681.1 106.44V110.95H685.24L684.77 114.34H681.11V123.19C681.11 124.95 681.69 125.63 682.91 125.63C683.55 125.63 684.2 125.43 684.95 125.02L686.61 128.07L686.59 128.09Z" fill="#1765AB"/>
<path d="M703.25 121.41H692.02C692.36 124.87 693.99 125.89 696.29 125.89C697.82 125.89 699.11 125.41 700.67 124.33L702.67 127.04C700.91 128.46 698.67 129.48 695.85 129.48C690.08 129.48 687.06 125.68 687.06 120.05C687.06 114.42 689.98 110.42 695.23 110.42C700.48 110.42 703.34 113.81 703.34 119.54C703.34 120.15 703.27 120.9 703.24 121.41H703.25ZM698.57 118.19C698.57 115.48 697.65 113.71 695.35 113.71C693.45 113.71 692.26 115 692.03 118.39H698.58V118.19H698.57Z" fill="#1765AB"/>
<path d="M730.18 126.22L729.16 129.41C727.12 129.24 725.77 128.56 725.02 126.76C723.73 128.73 721.76 129.47 719.63 129.47C716.03 129.47 713.8 127.16 713.8 123.91C713.8 119.97 716.75 117.84 722.08 117.84H724.15V116.96C724.15 114.72 723.2 114.01 720.93 114.01C719.74 114.01 718.01 114.35 716.18 114.96L715.1 111.74C717.34 110.86 719.71 110.42 721.75 110.42C726.74 110.42 728.87 112.63 728.87 116.7V123.96C728.87 125.42 729.31 125.93 730.19 126.23L730.18 126.22ZM724.14 124.02V120.59H722.55C719.94 120.59 718.65 121.54 718.65 123.51C718.65 125.1 719.46 126.02 720.96 126.02C722.35 126.02 723.4 125.31 724.15 124.02H724.14Z" fill="#1765AB"/>
<path d="M758.33 119.92C758.33 125.42 755.72 129.49 751.21 129.49C749.41 129.49 747.89 128.85 746.77 127.56V135.87L741.95 136.41V110.97H746.19L746.43 113.07C747.85 111.24 749.79 110.42 751.65 110.42C756.33 110.42 758.33 114.12 758.33 119.92ZM753.31 119.95C753.31 115.44 752.16 113.98 750.16 113.98C748.77 113.98 747.58 114.93 746.77 116.29V124.13C747.55 125.32 748.53 125.89 749.79 125.89C752 125.89 753.32 124.16 753.32 119.95H753.31Z" fill="#1765AB"/>
<path d="M776.88 126.22L775.86 129.41C773.82 129.24 772.47 128.56 771.72 126.76C770.43 128.73 768.46 129.47 766.33 129.47C762.73 129.47 760.5 127.16 760.5 123.91C760.5 119.97 763.45 117.84 768.78 117.84H770.85V116.96C770.85 114.72 769.9 114.01 767.63 114.01C766.44 114.01 764.71 114.35 762.88 114.96L761.8 111.74C764.04 110.86 766.41 110.42 768.45 110.42C773.44 110.42 775.57 112.63 775.57 116.7V123.96C775.57 125.42 776.01 125.93 776.89 126.23L776.88 126.22ZM770.84 124.02V120.59H769.25C766.64 120.59 765.35 121.54 765.35 123.51C765.35 125.1 766.16 126.02 767.66 126.02C769.05 126.02 770.1 125.31 770.85 124.02H770.84Z" fill="#1765AB"/>
<path d="M795.44 115.85V128.94H790.62V116.66C790.62 114.59 789.87 114.01 788.65 114.01C787.26 114.01 786.17 114.93 785.19 116.52V128.94H780.37V110.96H784.54L784.91 113.23C786.37 111.43 788.1 110.41 790.41 110.41C793.56 110.41 795.43 112.45 795.43 115.84L795.44 115.85Z" fill="#1765AB"/>
<path d="M815.59 103.8V128.93H811.35L811.08 126.73C809.99 128.29 808.33 129.48 805.92 129.48C801.41 129.48 799.1 125.68 799.1 119.95C799.1 114.22 801.95 110.42 806.39 110.42C808.22 110.42 809.68 111.17 810.77 112.22V103.26L815.59 103.8ZM810.77 123.71V115.67C809.89 114.62 808.97 113.97 807.65 113.97C805.55 113.97 804.12 115.73 804.12 119.94C804.12 124.45 805.41 125.88 807.34 125.88C808.8 125.88 809.82 125.13 810.77 123.71Z" fill="#1765AB"/>
<path d="M835.43 121.41H824.2C824.54 124.87 826.17 125.89 828.47 125.89C830 125.89 831.29 125.41 832.85 124.33L834.85 127.04C833.09 128.46 830.85 129.48 828.03 129.48C822.26 129.48 819.24 125.68 819.24 120.05C819.24 114.42 822.16 110.42 827.41 110.42C832.66 110.42 835.52 113.81 835.52 119.54C835.52 120.15 835.45 120.9 835.42 121.41H835.43ZM830.75 118.19C830.75 115.48 829.83 113.71 827.53 113.71C825.63 113.71 824.44 115 824.21 118.39H830.76V118.19H830.75Z" fill="#1765AB"/>
<path d="M863.21 115.85V128.94H858.39V116.66C858.39 114.59 857.58 114.01 856.63 114.01C855.31 114.01 854.42 114.93 853.51 116.52V128.94H848.69V116.66C848.69 114.59 847.91 114.01 846.93 114.01C845.61 114.01 844.72 114.93 843.84 116.52V128.94H839.02V110.96H843.19L843.56 113.2C844.88 111.44 846.51 110.42 848.78 110.42C850.82 110.42 852.38 111.47 853.05 113.34C854.47 111.47 856.14 110.42 858.44 110.42C861.26 110.42 863.19 112.46 863.19 115.85H863.21Z" fill="#1765AB"/>
<path d="M873.11 104.52C873.11 106.11 871.89 107.34 870.16 107.34C868.43 107.34 867.24 106.12 867.24 104.52C867.24 102.92 868.43 101.71 870.16 101.71C871.89 101.71 873.11 102.93 873.11 104.52ZM872.6 128.94H867.78V110.96H872.6V128.94Z" fill="#1765AB"/>
<path d="M892.41 126.22L891.39 129.41C889.35 129.24 888 128.56 887.25 126.76C885.96 128.73 883.99 129.47 881.86 129.47C878.26 129.47 876.03 127.16 876.03 123.91C876.03 119.97 878.98 117.84 884.31 117.84H886.38V116.96C886.38 114.72 885.43 114.01 883.16 114.01C881.97 114.01 880.24 114.35 878.41 114.96L877.33 111.74C879.57 110.86 881.94 110.42 883.98 110.42C888.97 110.42 891.1 112.63 891.1 116.7V123.96C891.1 125.42 891.54 125.93 892.42 126.23L892.41 126.22ZM886.37 124.02V120.59H884.78C882.17 120.59 880.88 121.54 880.88 123.51C880.88 125.1 881.69 126.02 883.19 126.02C884.58 126.02 885.63 125.31 886.38 124.02H886.37Z" fill="#1765AB"/>
</g>
<defs>
<clipPath id="clip0_11_12561">
<rect width="1111.83" height="1080" fill="white"/>
</clipPath>
</defs>
</svg>
