<svg width="1920" height="1080" viewBox="0 0 1920 1080" fill="none" xmlns="http://www.w3.org/2000/svg">
<g clip-path="url(#clip0_9_2245)">
<path d="M1920 0H0V1080H1920V0Z" fill="white"/>
<path d="M664.75 635.02C664.75 744.52 575.97 833.3 466.47 833.3C356.97 833.3 268.19 744.52 268.19 635.02C268.19 563.28 306.28 500.45 363.34 465.63L466.47 637.27V436.74C575.97 436.74 664.75 525.51 664.75 635.02Z" fill="#00407E"/>
<path d="M466.47 436.74V637.27L363.34 465.63C393.39 447.3 428.7 436.74 466.47 436.74Z" fill="#FF6C00"/>
<path d="M1670.83 674.6C1645.64 761.57 1565.41 825.15 1470.32 825.15C1355.04 825.15 1261.59 731.7 1261.59 616.42C1261.59 501.14 1355.04 407.69 1470.32 407.69V616.42L1670.83 674.6Z" fill="#FF6C00"/>
<path d="M1679.05 616.41C1679.05 636.6 1676.18 656.13 1670.83 674.59L1470.32 616.41V407.68C1585.6 407.68 1679.05 501.13 1679.05 616.41Z" fill="#00407E"/>
<path d="M961 293.05H959V909.33H961V293.05Z" fill="#E9F9FF"/>
<path d="M819.01 55.84H810.96V61.32H817.99V65.12H810.96V70.96H819.57V74.85H805.54V51.98H819.57L819.01 55.84Z" fill="#05427B"/>
<path d="M837.86 50.36V74.85H833.24L832.98 72.8C831.96 74.25 830.37 75.41 828 75.41C823.54 75.41 821.33 71.71 821.33 66.04C821.33 60.37 824.17 56.77 828.49 56.77C830.21 56.77 831.63 57.4 832.65 58.42V49.81L837.86 50.37V50.36ZM832.65 69.6V62.04C831.86 61.12 831.07 60.55 829.91 60.55C828.06 60.55 826.74 62.13 826.74 66.06C826.74 70.42 827.93 71.57 829.61 71.57C830.86 71.57 831.82 70.91 832.65 69.59V69.6Z" fill="#05427B"/>
<path d="M856.73 74.85H852.21L851.98 72.64C850.69 74.49 848.98 75.41 846.67 75.41C843.4 75.41 841.79 73.3 841.79 69.9V57.33H847V69.24C847 71.02 847.59 71.55 848.68 71.55C849.77 71.55 850.76 70.82 851.52 69.5V57.32H856.73V74.85Z" fill="#05427B"/>
<path d="M874.42 58.91L872.18 62.01C871.06 61.15 870.03 60.76 868.85 60.76C866.61 60.76 865.32 62.28 865.32 66.21C865.32 70.14 866.71 71.29 868.78 71.29C870.03 71.29 870.89 70.89 872.15 70.1L874.43 73.33C872.81 74.62 870.93 75.41 868.52 75.41C863.14 75.41 859.84 71.78 859.84 66.23C859.84 60.68 863.17 56.76 868.42 56.76C870.86 56.76 872.74 57.49 874.43 58.91H874.42Z" fill="#05427B"/>
<path d="M891.41 71.92L890.32 75.32C888.24 75.15 886.89 74.53 886.1 72.78C884.85 74.73 882.9 75.42 880.82 75.42C877.32 75.42 875.11 73.14 875.11 69.94C875.11 66.11 878.01 64.03 883.33 64.03H885.11V63.27C885.11 61.19 884.28 60.56 882.14 60.56C881.02 60.56 879.3 60.89 877.55 61.48L876.36 58.05C878.57 57.22 880.98 56.76 882.96 56.76C888.04 56.76 890.22 58.91 890.22 62.96V69.76C890.22 71.11 890.58 71.61 891.41 71.91V71.92ZM885.11 70.01V66.91H883.82C881.44 66.91 880.29 67.74 880.29 69.48C880.29 70.87 881.05 71.69 882.34 71.69C883.63 71.69 884.49 71.06 885.11 70.01Z" fill="#05427B"/>
<path d="M903 75.38V76.44C905.38 76.7 906.43 77.93 906.43 79.71C906.43 81.95 904.52 83.51 901.51 83.51C899.96 83.51 898.64 83.08 897.81 82.52L899 80.11C899.66 80.44 900.29 80.67 901.11 80.67C902.03 80.67 902.66 80.41 902.66 79.68C902.66 78.89 901.74 78.56 899.62 78.56L900.02 75.23C895.86 74.4 893.39 71.04 893.39 66.25C893.39 60.67 896.72 56.78 901.97 56.78C904.41 56.78 906.29 57.51 907.98 58.93L905.74 62.03C904.62 61.17 903.59 60.78 902.41 60.78C900.17 60.78 898.88 62.3 898.88 66.23C898.88 70.16 900.27 71.31 902.34 71.31C903.59 71.31 904.45 70.91 905.71 70.12L907.99 73.35C906.57 74.47 904.99 75.2 903.01 75.4L903 75.38Z" fill="#05427B"/>
<path d="M924.97 71.92L923.88 75.32C921.8 75.15 920.45 74.53 919.66 72.78C918.41 74.73 916.46 75.42 914.38 75.42C910.88 75.42 908.67 73.14 908.67 69.94C908.67 66.11 911.57 64.03 916.89 64.03H918.67V63.27C918.67 61.19 917.84 60.56 915.7 60.56C914.58 60.56 912.86 60.89 911.11 61.48L909.92 58.05C912.13 57.22 914.54 56.76 916.52 56.76C921.6 56.76 923.78 58.91 923.78 62.96V69.76C923.78 71.11 924.14 71.61 924.97 71.91V71.92ZM913.15 53.87L910.54 52.62C911.37 50.51 912.82 48.73 914.8 48.73C916.78 48.73 917.54 50.21 918.63 50.21C919.36 50.21 919.82 49.72 920.35 48.76L922.96 50.05C922.1 52.26 920.62 53.91 918.67 53.91C916.72 53.91 916 52.42 914.91 52.42C914.12 52.42 913.69 52.95 913.16 53.87H913.15ZM918.66 70.01V66.91H917.37C914.99 66.91 913.84 67.74 913.84 69.48C913.84 70.87 914.6 71.69 915.89 71.69C917.18 71.69 918.04 71.06 918.66 70.01Z" fill="#05427B"/>
<path d="M944.11 66.11C944.11 71.72 940.88 75.42 935.53 75.42C930.18 75.42 926.95 71.99 926.95 66.08C926.95 60.17 930.18 56.77 935.53 56.77C940.88 56.77 944.11 60.2 944.11 66.11ZM932.36 66.08C932.36 69.97 933.42 71.59 935.53 71.59C937.64 71.59 938.7 69.91 938.7 66.11C938.7 62.31 937.64 60.6 935.53 60.6C933.42 60.6 932.36 62.28 932.36 66.08Z" fill="#05427B"/>
<path d="M970.15 71.92L969.06 75.32C966.98 75.15 965.63 74.53 964.84 72.78C963.59 74.73 961.64 75.42 959.56 75.42C956.06 75.42 953.85 73.14 953.85 69.94C953.85 66.11 956.75 64.03 962.07 64.03H963.85V63.27C963.85 61.19 963.02 60.56 960.88 60.56C959.76 60.56 958.04 60.89 956.29 61.48L955.1 58.05C957.31 57.22 959.72 56.76 961.7 56.76C966.78 56.76 968.96 58.91 968.96 62.96V69.76C968.96 71.11 969.32 71.61 970.15 71.91V71.92ZM963.85 70.01V66.91H962.56C960.18 66.91 959.03 67.74 959.03 69.48C959.03 70.87 959.79 71.69 961.08 71.69C962.37 71.69 963.23 71.06 963.85 70.01Z" fill="#05427B"/>
<path d="M996.65 50.36V74.85H992.03L991.77 72.8C990.75 74.25 989.16 75.41 986.79 75.41C982.33 75.41 980.12 71.71 980.12 66.04C980.12 60.37 982.96 56.77 987.28 56.77C989 56.77 990.42 57.4 991.44 58.42V49.81L996.65 50.37V50.36ZM991.44 69.6V62.04C990.65 61.12 989.86 60.55 988.7 60.55C986.85 60.55 985.53 62.13 985.53 66.06C985.53 70.42 986.72 71.57 988.4 71.57C989.65 71.57 990.61 70.91 991.44 69.59V69.6Z" fill="#05427B"/>
<path d="M1006.42 51.06C1006.42 52.74 1005.13 54.03 1003.32 54.03C1001.51 54.03 1000.25 52.74 1000.25 51.06C1000.25 49.38 1001.5 48.09 1003.32 48.09C1005.14 48.09 1006.42 49.38 1006.42 51.06ZM1005.96 74.86H1000.75V57.33H1005.96V74.86Z" fill="#05427B"/>
<path d="M1022.65 58.91L1020.74 61.85C1019.39 60.99 1017.93 60.5 1016.42 60.5C1015 60.5 1014.31 61.03 1014.31 61.82C1014.31 62.74 1014.77 63.14 1017.91 64.06C1021.38 65.05 1023.32 66.5 1023.32 69.64C1023.32 73.27 1019.89 75.42 1015.53 75.42C1012.49 75.42 1009.92 74.36 1008.2 72.81L1010.74 69.97C1012.06 70.99 1013.68 71.69 1015.39 71.69C1016.97 71.69 1017.93 71.1 1017.93 70.04C1017.93 68.85 1017.4 68.49 1014.23 67.6C1010.76 66.61 1009.05 64.83 1009.05 62.12C1009.05 59.12 1011.79 56.77 1016.21 56.77C1018.75 56.77 1021.03 57.59 1022.65 58.92V58.91Z" fill="#05427B"/>
<path d="M1036.98 74.03C1035.66 74.95 1033.81 75.42 1032.23 75.42C1028.37 75.39 1026.49 73.21 1026.49 69.08V60.96H1024.02V57.33H1026.49V53.53L1031.7 52.94V57.33H1035.73L1035.17 60.96H1031.7V69.01C1031.7 70.69 1032.26 71.29 1033.35 71.29C1033.94 71.29 1034.54 71.12 1035.23 70.73L1036.98 74.03Z" fill="#05427B"/>
<path d="M1053.44 71.92L1052.35 75.32C1050.27 75.15 1048.92 74.53 1048.13 72.78C1046.88 74.73 1044.93 75.42 1042.85 75.42C1039.35 75.42 1037.14 73.14 1037.14 69.94C1037.14 66.11 1040.04 64.03 1045.36 64.03H1047.14V63.27C1047.14 61.19 1046.31 60.56 1044.17 60.56C1043.05 60.56 1041.33 60.89 1039.58 61.48L1038.39 58.05C1040.6 57.22 1043.01 56.76 1044.99 56.76C1050.07 56.76 1052.25 58.91 1052.25 62.96V69.76C1052.25 71.11 1052.61 71.61 1053.44 71.91V71.92ZM1040.8 54.39L1038.95 52.24L1043.6 47.72H1046.8L1051.45 52.24L1049.6 54.39L1045.21 51.35L1040.79 54.39H1040.8ZM1047.14 70V66.9H1045.85C1043.47 66.9 1042.32 67.73 1042.32 69.47C1042.32 70.86 1043.08 71.68 1044.37 71.68C1045.66 71.68 1046.52 71.05 1047.14 70Z" fill="#05427B"/>
<path d="M1071.53 62.05V74.86H1066.32V62.95C1066.32 61.1 1065.69 60.61 1064.67 60.61C1063.51 60.61 1062.56 61.43 1061.63 62.89V74.87H1056.42V57.34H1060.97L1061.33 59.42C1062.82 57.67 1064.5 56.78 1066.68 56.78C1069.72 56.78 1071.53 58.73 1071.53 62.06V62.05Z" fill="#05427B"/>
<path d="M1089.05 58.91L1086.81 62.01C1085.69 61.15 1084.66 60.76 1083.48 60.76C1081.24 60.76 1079.95 62.28 1079.95 66.21C1079.95 70.14 1081.34 71.29 1083.41 71.29C1084.66 71.29 1085.52 70.89 1086.78 70.1L1089.06 73.33C1087.44 74.62 1085.56 75.41 1083.15 75.41C1077.77 75.41 1074.47 71.78 1074.47 66.23C1074.47 60.68 1077.8 56.76 1083.05 56.76C1085.49 56.76 1087.37 57.49 1089.06 58.91H1089.05Z" fill="#05427B"/>
<path d="M1096.93 51.06C1096.93 52.74 1095.64 54.03 1093.83 54.03C1092.02 54.03 1090.76 52.74 1090.76 51.06C1090.76 49.38 1092.01 48.09 1093.83 48.09C1095.65 48.09 1096.93 49.38 1096.93 51.06ZM1096.47 74.86H1091.26V57.33H1096.47V74.86Z" fill="#05427B"/>
<path d="M1115.68 71.92L1114.59 75.32C1112.51 75.15 1111.16 74.53 1110.37 72.78C1109.12 74.73 1107.17 75.42 1105.09 75.42C1101.59 75.42 1099.38 73.14 1099.38 69.94C1099.38 66.11 1102.28 64.03 1107.6 64.03H1109.38V63.27C1109.38 61.19 1108.55 60.56 1106.41 60.56C1105.29 60.56 1103.57 60.89 1101.82 61.48L1100.63 58.05C1102.84 57.22 1105.25 56.76 1107.23 56.76C1112.31 56.76 1114.49 58.91 1114.49 62.96V69.76C1114.49 71.11 1114.85 71.61 1115.68 71.91V71.92ZM1109.38 70.01V66.91H1108.09C1105.71 66.91 1104.56 67.74 1104.56 69.48C1104.56 70.87 1105.32 71.69 1106.61 71.69C1107.9 71.69 1108.76 71.06 1109.38 70.01Z" fill="#05427B"/>
<path d="M323.08 139.93H317.41L310.81 123.46C311.05 125.32 311.41 128.02 311.41 131.86V139.93H307.42V119.17H312.97L319.69 135.67C319.48 134.26 319.09 131.38 319.09 128.29V119.17H323.08V139.93Z" fill="#1765AB"/>
<path d="M340.39 139.93H336.7L336.49 137.8C335.35 139.57 333.79 140.41 331.66 140.41C328.72 140.41 327.22 138.52 327.22 135.46V124.03H331.48V134.92C331.48 136.66 332.05 137.23 333.22 137.23C334.39 137.23 335.38 136.45 336.13 135.16V124.03H340.39V139.93ZM337.72 118.39L330.82 121.15L329.62 118.96L336.04 115.12L337.72 118.39Z" fill="#1765AB"/>
<path d="M365.98 128.35V139.93H361.72V129.07C361.72 127.24 361 126.73 360.16 126.73C358.99 126.73 358.21 127.54 357.4 128.95V139.93H353.14V129.07C353.14 127.24 352.45 126.73 351.58 126.73C350.41 126.73 349.63 127.54 348.85 128.95V139.93H344.59V124.03H348.28L348.61 126.01C349.78 124.45 351.22 123.55 353.23 123.55C355.03 123.55 356.41 124.48 357.01 126.13C358.27 124.48 359.74 123.55 361.78 123.55C364.27 123.55 365.98 125.35 365.98 128.35Z" fill="#1765AB"/>
<path d="M383.38 133.27H373.45C373.75 136.33 375.19 137.23 377.23 137.23C378.58 137.23 379.72 136.81 381.1 135.85L382.87 138.25C381.31 139.51 379.33 140.41 376.84 140.41C371.74 140.41 369.07 137.05 369.07 132.07C369.07 127.09 371.65 123.55 376.3 123.55C380.95 123.55 383.47 126.55 383.47 131.62C383.47 132.16 383.41 132.82 383.38 133.27ZM379.24 130.42C379.24 128.02 378.43 126.46 376.39 126.46C374.71 126.46 373.66 127.6 373.45 130.6H379.24V130.42Z" fill="#1765AB"/>
<path d="M396.37 123.82L395.65 127.93C395.17 127.81 394.78 127.72 394.24 127.72C392.29 127.72 391.39 129.16 390.82 131.71V139.93H386.56V124.03H390.25L390.64 127.12C391.39 124.9 392.92 123.58 394.78 123.58C395.35 123.58 395.83 123.67 396.37 123.82Z" fill="#1765AB"/>
<path d="M411.85 131.98C411.85 137.02 409 140.41 404.23 140.41C399.46 140.41 396.61 137.26 396.61 131.98C396.61 126.7 399.46 123.55 404.26 123.55C409.06 123.55 411.85 126.7 411.85 131.98ZM401.05 131.98C401.05 135.64 402.13 137.23 404.23 137.23C406.33 137.23 407.41 135.61 407.41 131.98C407.41 128.35 406.33 126.73 404.26 126.73C402.19 126.73 401.05 128.35 401.05 131.98Z" fill="#1765AB"/>
<path d="M436.17 117.7V139.93H432.42L432.18 137.98C431.22 139.36 429.75 140.41 427.62 140.41C423.63 140.41 421.59 137.05 421.59 131.98C421.59 126.91 424.11 123.55 428.04 123.55C429.66 123.55 430.95 124.21 431.91 125.14V117.22L436.17 117.7ZM431.91 135.31V128.2C431.13 127.27 430.32 126.7 429.15 126.7C427.29 126.7 426.03 128.26 426.03 131.98C426.03 135.97 427.17 137.23 428.88 137.23C430.17 137.23 431.07 136.57 431.91 135.31Z" fill="#1765AB"/>
<path d="M453.72 133.27H443.79C444.09 136.33 445.53 137.23 447.57 137.23C448.92 137.23 450.06 136.81 451.44 135.85L453.21 138.25C451.65 139.51 449.67 140.41 447.18 140.41C442.08 140.41 439.41 137.05 439.41 132.07C439.41 127.09 441.99 123.55 446.64 123.55C451.29 123.55 453.81 126.55 453.81 131.62C453.81 132.16 453.75 132.82 453.72 133.27ZM449.58 130.42C449.58 128.02 448.77 126.46 446.73 126.46C445.05 126.46 444 127.6 443.79 130.6H449.58V130.42Z" fill="#1765AB"/>
<path d="M468.93 118.33C468.93 119.74 467.85 120.82 466.32 120.82C464.79 120.82 463.74 119.74 463.74 118.33C463.74 116.92 464.79 115.84 466.32 115.84C467.85 115.84 468.93 116.92 468.93 118.33ZM468.48 139.93H464.22V124.03H468.48V139.93Z" fill="#1765AB"/>
<path d="M486 128.35V139.93H481.74V129.07C481.74 127.24 481.08 126.73 480 126.73C478.77 126.73 477.81 127.54 476.94 128.95V139.93H472.68V124.03H476.37L476.7 126.04C477.99 124.45 479.52 123.55 481.56 123.55C484.35 123.55 486 125.35 486 128.35Z" fill="#1765AB"/>
<path d="M504.27 124.9C503.1 125.35 501.6 125.5 499.68 125.5C501.63 126.37 502.62 127.57 502.62 129.58C502.62 132.67 500.13 134.92 496.08 134.92C495.39 134.92 494.79 134.86 494.22 134.71C493.86 134.95 493.62 135.34 493.62 135.76C493.62 136.3 493.89 136.81 495.45 136.81H497.88C501.48 136.81 503.79 138.73 503.79 141.37C503.79 144.58 501 146.53 495.69 146.53C489.87 146.53 488.28 144.64 488.28 141.46H492.09C492.09 142.96 492.75 143.62 495.78 143.62C498.81 143.62 499.5 142.81 499.5 141.67C499.5 140.59 498.69 139.93 497.01 139.93H494.67C491.34 139.93 489.96 138.49 489.96 136.81C489.96 135.67 490.68 134.56 491.82 133.84C489.84 132.76 489 131.35 489 129.31C489 125.8 491.79 123.55 495.78 123.55C499.44 123.64 501.3 122.71 503.22 121.63L504.27 124.9ZM493.26 129.25C493.26 131.08 494.28 132.16 495.9 132.16C497.61 132.16 498.51 131.14 498.51 129.19C498.51 127.24 497.64 126.4 495.87 126.4C494.25 126.4 493.26 127.51 493.26 129.25Z" fill="#1765AB"/>
<path d="M516.18 123.82L515.46 127.93C514.98 127.81 514.59 127.72 514.05 127.72C512.1 127.72 511.2 129.16 510.63 131.71V139.93H506.37V124.03H510.06L510.45 127.12C511.2 124.9 512.73 123.58 514.59 123.58C515.16 123.58 515.64 123.67 516.18 123.82Z" fill="#1765AB"/>
<path d="M530.73 133.27H520.8C521.1 136.33 522.54 137.23 524.58 137.23C525.93 137.23 527.07 136.81 528.45 135.85L530.22 138.25C528.66 139.51 526.68 140.41 524.19 140.41C519.09 140.41 516.42 137.05 516.42 132.07C516.42 127.09 519 123.55 523.65 123.55C528.3 123.55 530.82 126.55 530.82 131.62C530.82 132.16 530.76 132.82 530.73 133.27ZM526.59 130.42C526.59 128.02 525.78 126.46 523.74 126.46C522.06 126.46 521.01 127.6 520.8 130.6H526.59V130.42Z" fill="#1765AB"/>
<path d="M544.95 125.47L543.33 127.9C542.04 127.09 540.75 126.64 539.37 126.64C537.99 126.64 537.18 127.21 537.18 128.08C537.18 129.01 537.72 129.43 540.51 130.24C543.69 131.11 545.49 132.43 545.49 135.25C545.49 138.55 542.4 140.41 538.62 140.41C535.86 140.41 533.64 139.48 532.14 138.1L534.24 135.76C535.44 136.69 536.91 137.32 538.5 137.32C540.09 137.32 541.11 136.66 541.11 135.58C541.11 134.38 540.54 133.99 537.6 133.18C534.39 132.28 532.89 130.69 532.89 128.29C532.89 125.59 535.35 123.55 539.19 123.55C541.5 123.55 543.45 124.27 544.95 125.47Z" fill="#1765AB"/>
<path d="M559.08 125.47L557.46 127.9C556.17 127.09 554.88 126.64 553.5 126.64C552.12 126.64 551.31 127.21 551.31 128.08C551.31 129.01 551.85 129.43 554.64 130.24C557.82 131.11 559.62 132.43 559.62 135.25C559.62 138.55 556.53 140.41 552.75 140.41C549.99 140.41 547.77 139.48 546.27 138.1L548.37 135.76C549.57 136.69 551.04 137.32 552.63 137.32C554.22 137.32 555.24 136.66 555.24 135.58C555.24 134.38 554.67 133.99 551.73 133.18C548.52 132.28 547.02 130.69 547.02 128.29C547.02 125.59 549.48 123.55 553.32 123.55C555.63 123.55 557.58 124.27 559.08 125.47Z" fill="#1765AB"/>
<path d="M575.43 137.53L574.53 140.35C572.73 140.2 571.53 139.6 570.87 138.01C569.73 139.75 567.99 140.41 566.1 140.41C562.92 140.41 560.94 138.37 560.94 135.49C560.94 132.01 563.55 130.12 568.26 130.12H570.09V129.34C570.09 127.36 569.25 126.73 567.24 126.73C566.19 126.73 564.66 127.03 563.04 127.57L562.08 124.72C564.06 123.94 566.16 123.55 567.96 123.55C572.37 123.55 574.26 125.5 574.26 129.1V135.52C574.26 136.81 574.65 137.26 575.43 137.53ZM570.09 135.58V132.55H568.68C566.37 132.55 565.23 133.39 565.23 135.13C565.23 136.54 565.95 137.35 567.27 137.35C568.5 137.35 569.43 136.72 570.09 135.58Z" fill="#1765AB"/>
<path d="M591.84 128.35V139.93H587.58V129.07C587.58 127.24 586.92 126.73 585.84 126.73C584.61 126.73 583.65 127.54 582.78 128.95V139.93H578.52V124.03H582.21L582.54 126.04C583.83 124.45 585.36 123.55 587.4 123.55C590.19 123.55 591.84 125.35 591.84 128.35Z" fill="#1765AB"/>
<path d="M605.4 139.18C604.23 139.99 602.67 140.41 601.26 140.41C597.96 140.38 596.28 138.49 596.28 134.95V127.03H593.91V124.03H596.28V120.55L600.54 120.04V124.03H604.2L603.78 127.03H600.54V134.86C600.54 136.42 601.05 137.02 602.13 137.02C602.7 137.02 603.27 136.84 603.93 136.48L605.4 139.18Z" fill="#1765AB"/>
<path d="M620.13 133.27H610.2C610.5 136.33 611.94 137.23 613.98 137.23C615.33 137.23 616.47 136.81 617.85 135.85L619.62 138.25C618.06 139.51 616.08 140.41 613.59 140.41C608.49 140.41 605.82 137.05 605.82 132.07C605.82 127.09 608.4 123.55 613.05 123.55C617.7 123.55 620.22 126.55 620.22 131.62C620.22 132.16 620.16 132.82 620.13 133.27ZM615.99 130.42C615.99 128.02 615.18 126.46 613.14 126.46C611.46 126.46 610.41 127.6 610.2 130.6H615.99V130.42Z" fill="#1765AB"/>
<path d="M634.35 125.47L632.73 127.9C631.44 127.09 630.15 126.64 628.77 126.64C627.39 126.64 626.58 127.21 626.58 128.08C626.58 129.01 627.12 129.43 629.91 130.24C633.09 131.11 634.89 132.43 634.89 135.25C634.89 138.55 631.8 140.41 628.02 140.41C625.26 140.41 623.04 139.48 621.54 138.1L623.64 135.76C624.84 136.69 626.31 137.32 627.9 137.32C629.49 137.32 630.51 136.66 630.51 135.58C630.51 134.38 629.94 133.99 627 133.18C623.79 132.28 622.29 130.69 622.29 128.29C622.29 125.59 624.75 123.55 628.59 123.55C630.9 123.55 632.85 124.27 634.35 125.47Z" fill="#1765AB"/>
<path d="M658.77 117.7V139.93H655.02L654.78 137.98C653.82 139.36 652.35 140.41 650.22 140.41C646.23 140.41 644.19 137.05 644.19 131.98C644.19 126.91 646.71 123.55 650.64 123.55C652.26 123.55 653.55 124.21 654.51 125.14V117.22L658.77 117.7ZM654.51 135.31V128.2C653.73 127.27 652.92 126.7 651.75 126.7C649.89 126.7 648.63 128.26 648.63 131.98C648.63 135.97 649.77 137.23 651.48 137.23C652.77 137.23 653.67 136.57 654.51 135.31Z" fill="#1765AB"/>
<path d="M676.32 133.27H666.39C666.69 136.33 668.13 137.23 670.17 137.23C671.52 137.23 672.66 136.81 674.04 135.85L675.81 138.25C674.25 139.51 672.27 140.41 669.78 140.41C664.68 140.41 662.01 137.05 662.01 132.07C662.01 127.09 664.59 123.55 669.24 123.55C673.89 123.55 676.41 126.55 676.41 131.62C676.41 132.16 676.35 132.82 676.32 133.27ZM672.18 130.42C672.18 128.02 671.37 126.46 669.33 126.46C667.65 126.46 666.6 127.6 666.39 130.6H672.18V130.42Z" fill="#1765AB"/>
<path d="M698.73 125.47L696.87 127.99C695.85 127.21 694.92 126.85 693.75 126.85C691.62 126.85 690.36 128.38 690.36 132.07C690.36 135.76 691.71 136.99 693.72 136.99C694.89 136.99 695.7 136.63 696.87 135.88L698.73 138.55C697.29 139.72 695.61 140.41 693.51 140.41C688.77 140.41 685.86 137.17 685.86 132.1C685.86 127.03 688.8 123.55 693.45 123.55C695.58 123.55 697.23 124.18 698.73 125.47Z" fill="#1765AB"/>
<path d="M713.88 139.93H710.19L709.98 137.8C708.84 139.57 707.28 140.41 705.15 140.41C702.21 140.41 700.71 138.52 700.71 135.46V124.03H704.97V134.92C704.97 136.66 705.54 137.23 706.71 137.23C707.88 137.23 708.87 136.45 709.62 135.16V124.03H713.88V139.93Z" fill="#1765AB"/>
<path d="M727.89 123.82L727.17 127.93C726.69 127.81 726.3 127.72 725.76 127.72C723.81 127.72 722.91 129.16 722.34 131.71V139.93H718.08V124.03H721.77L722.16 127.12C722.91 124.9 724.44 123.58 726.3 123.58C726.87 123.58 727.35 123.67 727.89 123.82Z" fill="#1765AB"/>
<path d="M740.64 125.47L739.02 127.9C737.73 127.09 736.44 126.64 735.06 126.64C733.68 126.64 732.87 127.21 732.87 128.08C732.87 129.01 733.41 129.43 736.2 130.24C739.38 131.11 741.18 132.43 741.18 135.25C741.18 138.55 738.09 140.41 734.31 140.41C731.55 140.41 729.33 139.48 727.83 138.1L729.93 135.76C731.13 136.69 732.6 137.32 734.19 137.32C735.78 137.32 736.8 136.66 736.8 135.58C736.8 134.38 736.23 133.99 733.29 133.18C730.08 132.28 728.58 130.69 728.58 128.29C728.58 125.59 731.04 123.55 734.88 123.55C737.19 123.55 739.14 124.27 740.64 125.47Z" fill="#1765AB"/>
<path d="M758.25 131.98C758.25 137.02 755.4 140.41 750.63 140.41C745.86 140.41 743.01 137.26 743.01 131.98C743.01 126.7 745.86 123.55 750.66 123.55C755.46 123.55 758.25 126.7 758.25 131.98ZM747.45 131.98C747.45 135.64 748.53 137.23 750.63 137.23C752.73 137.23 753.81 135.61 753.81 131.98C753.81 128.35 752.73 126.73 750.66 126.73C748.59 126.73 747.45 128.35 747.45 131.98Z" fill="#1765AB"/>
<path d="M772.53 125.47L770.91 127.9C769.62 127.09 768.33 126.64 766.95 126.64C765.57 126.64 764.76 127.21 764.76 128.08C764.76 129.01 765.3 129.43 768.09 130.24C771.27 131.11 773.07 132.43 773.07 135.25C773.07 138.55 769.98 140.41 766.2 140.41C763.44 140.41 761.22 139.48 759.72 138.1L761.82 135.76C763.02 136.69 764.49 137.32 766.08 137.32C767.67 137.32 768.69 136.66 768.69 135.58C768.69 134.38 768.12 133.99 765.18 133.18C761.97 132.28 760.47 130.69 760.47 128.29C760.47 125.59 762.93 123.55 766.77 123.55C769.08 123.55 771.03 124.27 772.53 125.47Z" fill="#1765AB"/>
<path d="M796.95 117.7V139.93H793.2L792.96 137.98C792 139.36 790.53 140.41 788.4 140.41C784.41 140.41 782.37 137.05 782.37 131.98C782.37 126.91 784.89 123.55 788.82 123.55C790.44 123.55 791.73 124.21 792.69 125.14V117.22L796.95 117.7ZM792.69 135.31V128.2C791.91 127.27 791.1 126.7 789.93 126.7C788.07 126.7 786.81 128.26 786.81 131.98C786.81 135.97 787.95 137.23 789.66 137.23C790.95 137.23 791.85 136.57 792.69 135.31Z" fill="#1765AB"/>
<path d="M814.5 133.27H804.57C804.87 136.33 806.31 137.23 808.35 137.23C809.7 137.23 810.84 136.81 812.22 135.85L813.99 138.25C812.43 139.51 810.45 140.41 807.96 140.41C802.86 140.41 800.19 137.05 800.19 132.07C800.19 127.09 802.77 123.55 807.42 123.55C812.07 123.55 814.59 126.55 814.59 131.62C814.59 132.16 814.53 132.82 814.5 133.27ZM810.36 130.42C810.36 128.02 809.55 126.46 807.51 126.46C805.83 126.46 804.78 127.6 804.57 130.6H810.36V130.42Z" fill="#1765AB"/>
<path d="M839.22 124.9C838.05 125.35 836.55 125.5 834.63 125.5C836.58 126.37 837.57 127.57 837.57 129.58C837.57 132.67 835.08 134.92 831.03 134.92C830.34 134.92 829.74 134.86 829.17 134.71C828.81 134.95 828.57 135.34 828.57 135.76C828.57 136.3 828.84 136.81 830.4 136.81H832.83C836.43 136.81 838.74 138.73 838.74 141.37C838.74 144.58 835.95 146.53 830.64 146.53C824.82 146.53 823.23 144.64 823.23 141.46H827.04C827.04 142.96 827.7 143.62 830.73 143.62C833.76 143.62 834.45 142.81 834.45 141.67C834.45 140.59 833.64 139.93 831.96 139.93H829.62C826.29 139.93 824.91 138.49 824.91 136.81C824.91 135.67 825.63 134.56 826.77 133.84C824.79 132.76 823.95 131.35 823.95 129.31C823.95 125.8 826.74 123.55 830.73 123.55C834.39 123.64 836.25 122.71 838.17 121.63L839.22 124.9ZM828.21 129.25C828.21 131.08 829.23 132.16 830.85 132.16C832.56 132.16 833.46 131.14 833.46 129.19C833.46 127.24 832.59 126.4 830.82 126.4C829.2 126.4 828.21 127.51 828.21 129.25Z" fill="#1765AB"/>
<path d="M851.13 123.82L850.41 127.93C849.93 127.81 849.54 127.72 849 127.72C847.05 127.72 846.15 129.16 845.58 131.71V139.93H841.32V124.03H845.01L845.4 127.12C846.15 124.9 847.68 123.58 849.54 123.58C850.11 123.58 850.59 123.67 851.13 123.82Z" fill="#1765AB"/>
<path d="M865.5 137.53L864.6 140.35C862.8 140.2 861.6 139.6 860.94 138.01C859.8 139.75 858.06 140.41 856.17 140.41C852.99 140.41 851.01 138.37 851.01 135.49C851.01 132.01 853.62 130.12 858.33 130.12H860.16V129.34C860.16 127.36 859.32 126.73 857.31 126.73C856.26 126.73 854.73 127.03 853.11 127.57L852.15 124.72C854.13 123.94 856.23 123.55 858.03 123.55C862.44 123.55 864.33 125.5 864.33 129.1V135.52C864.33 136.81 864.72 137.26 865.5 137.53ZM860.16 135.58V132.55H858.75C856.44 132.55 855.3 133.39 855.3 135.13C855.3 136.54 856.02 137.35 857.34 137.35C858.57 137.35 859.5 136.72 860.16 135.58Z" fill="#1765AB"/>
<path d="M882.36 117.7V139.93H878.61L878.37 137.98C877.41 139.36 875.94 140.41 873.81 140.41C869.82 140.41 867.78 137.05 867.78 131.98C867.78 126.91 870.3 123.55 874.23 123.55C875.85 123.55 877.14 124.21 878.1 125.14V117.22L882.36 117.7ZM878.1 135.31V128.2C877.32 127.27 876.51 126.7 875.34 126.7C873.48 126.7 872.22 128.26 872.22 131.98C872.22 135.97 873.36 137.23 875.07 137.23C876.36 137.23 877.26 136.57 878.1 135.31Z" fill="#1765AB"/>
<path d="M899.58 139.93H895.89L895.68 137.8C894.54 139.57 892.98 140.41 890.85 140.41C887.91 140.41 886.41 138.52 886.41 135.46V124.03H890.67V134.92C890.67 136.66 891.24 137.23 892.41 137.23C893.58 137.23 894.57 136.45 895.32 135.16V124.03H899.58V139.93Z" fill="#1765AB"/>
<path d="M917.1 137.53L916.2 140.35C914.4 140.2 913.2 139.6 912.54 138.01C911.4 139.75 909.66 140.41 907.77 140.41C904.59 140.41 902.61 138.37 902.61 135.49C902.61 132.01 905.22 130.12 909.93 130.12H911.76V129.34C911.76 127.36 910.92 126.73 908.91 126.73C907.86 126.73 906.33 127.03 904.71 127.57L903.75 124.72C905.73 123.94 907.83 123.55 909.63 123.55C914.04 123.55 915.93 125.5 915.93 129.1V135.52C915.93 136.81 916.32 137.26 917.1 137.53ZM911.76 135.58V132.55H910.35C908.04 132.55 906.9 133.39 906.9 135.13C906.9 136.54 907.62 137.35 908.94 137.35C910.17 137.35 911.1 136.72 911.76 135.58Z" fill="#1765AB"/>
<path d="M927.69 140.38V141.43C929.79 141.64 930.72 142.78 930.72 144.31C930.72 146.32 928.98 147.64 926.43 147.64C925.08 147.64 923.94 147.28 923.22 146.77L924.21 144.73C924.81 145.06 925.38 145.24 926.13 145.24C926.97 145.24 927.57 145 927.57 144.28C927.57 143.56 926.76 143.2 924.81 143.2L925.2 140.26C921.45 139.57 919.23 136.54 919.23 132.1C919.23 127.06 922.17 123.55 926.82 123.55C928.95 123.55 930.6 124.18 932.1 125.47L930.24 127.99C929.22 127.21 928.29 126.85 927.12 126.85C924.99 126.85 923.73 128.38 923.73 132.07C923.73 135.76 925.08 136.99 927.09 136.99C928.26 136.99 929.07 136.63 930.24 135.88L932.1 138.55C930.84 139.57 929.43 140.23 927.69 140.38Z" fill="#1765AB"/>
<path d="M947.55 137.53L946.65 140.35C944.85 140.2 943.65 139.6 942.99 138.01C941.85 139.75 940.11 140.41 938.22 140.41C935.04 140.41 933.06 138.37 933.06 135.49C933.06 132.01 935.67 130.12 940.38 130.12H942.21V129.34C942.21 127.36 941.37 126.73 939.36 126.73C938.31 126.73 936.78 127.03 935.16 127.57L934.2 124.72C936.18 123.94 938.28 123.55 940.08 123.55C944.49 123.55 946.38 125.5 946.38 129.1V135.52C946.38 136.81 946.77 137.26 947.55 137.53ZM936.9 120.7L934.71 119.62C935.43 117.82 936.72 116.29 938.43 116.29C940.23 116.29 940.89 117.67 941.91 117.67C942.57 117.67 942.99 117.22 943.5 116.35L945.69 117.43C944.91 119.38 943.62 120.73 941.94 120.73C940.26 120.73 939.51 119.35 938.49 119.35C937.8 119.35 937.38 119.83 936.9 120.7ZM942.21 135.58V132.55H940.8C938.49 132.55 937.35 133.39 937.35 135.13C937.35 136.54 938.07 137.35 939.39 137.35C940.62 137.35 941.55 136.72 942.21 135.58Z" fill="#1765AB"/>
<path d="M964.92 131.98C964.92 137.02 962.07 140.41 957.3 140.41C952.53 140.41 949.68 137.26 949.68 131.98C949.68 126.7 952.53 123.55 957.33 123.55C962.13 123.55 964.92 126.7 964.92 131.98ZM954.12 131.98C954.12 135.64 955.2 137.23 957.3 137.23C959.4 137.23 960.48 135.61 960.48 131.98C960.48 128.35 959.4 126.73 957.33 126.73C955.26 126.73 954.12 128.35 954.12 131.98Z" fill="#1765AB"/>
<path d="M971.91 137.83C971.91 138.67 971.64 139.45 971.07 140.77L969.12 145.15H966.63L967.89 139.93C967.2 139.48 966.78 138.7 966.78 137.83C966.78 136.39 967.89 135.28 969.33 135.28C970.77 135.28 971.91 136.39 971.91 137.83Z" fill="#1765AB"/>
<path d="M996.87 131.95C996.87 136.81 994.56 140.41 990.57 140.41C988.98 140.41 987.63 139.84 986.64 138.7V146.05L982.38 146.53V124.03H986.13L986.34 125.89C987.6 124.27 989.31 123.55 990.96 123.55C995.1 123.55 996.87 126.82 996.87 131.95ZM992.43 131.98C992.43 127.99 991.41 126.7 989.64 126.7C988.41 126.7 987.36 127.54 986.64 128.74V135.67C987.33 136.72 988.2 137.23 989.31 137.23C991.26 137.23 992.43 135.7 992.43 131.98Z" fill="#1765AB"/>
<path d="M1014.54 131.98C1014.54 137.02 1011.69 140.41 1006.92 140.41C1002.15 140.41 999.3 137.26 999.3 131.98C999.3 126.7 1002.15 123.55 1006.95 123.55C1011.75 123.55 1014.54 126.7 1014.54 131.98ZM1003.74 131.98C1003.74 135.64 1004.82 137.23 1006.92 137.23C1009.02 137.23 1010.1 135.61 1010.1 131.98C1010.1 128.35 1009.02 126.73 1006.95 126.73C1004.88 126.73 1003.74 128.35 1003.74 131.98Z" fill="#1765AB"/>
<path d="M1027.59 123.82L1026.87 127.93C1026.39 127.81 1026 127.72 1025.46 127.72C1023.51 127.72 1022.61 129.16 1022.04 131.71V139.93H1017.78V124.03H1021.47L1021.86 127.12C1022.61 124.9 1024.14 123.58 1026 123.58C1026.57 123.58 1027.05 123.67 1027.59 123.82Z" fill="#1765AB"/>
<path d="M1046.82 123.82L1046.1 127.93C1045.62 127.81 1045.23 127.72 1044.69 127.72C1042.74 127.72 1041.84 129.16 1041.27 131.71V139.93H1037.01V124.03H1040.7L1041.09 127.12C1041.84 124.9 1043.37 123.58 1045.23 123.58C1045.8 123.58 1046.28 123.67 1046.82 123.82Z" fill="#1765AB"/>
<path d="M1061.37 133.27H1051.44C1051.74 136.33 1053.18 137.23 1055.22 137.23C1056.57 137.23 1057.71 136.81 1059.09 135.85L1060.86 138.25C1059.3 139.51 1057.32 140.41 1054.83 140.41C1049.73 140.41 1047.06 137.05 1047.06 132.07C1047.06 127.09 1049.64 123.55 1054.29 123.55C1058.94 123.55 1061.46 126.55 1061.46 131.62C1061.46 132.16 1061.4 132.82 1061.37 133.27ZM1057.23 130.42C1057.23 128.02 1056.42 126.46 1054.38 126.46C1052.7 126.46 1051.65 127.6 1051.44 130.6H1057.23V130.42Z" fill="#1765AB"/>
<path d="M1078.32 117.7V139.93H1074.57L1074.33 137.98C1073.37 139.36 1071.9 140.41 1069.77 140.41C1065.78 140.41 1063.74 137.05 1063.74 131.98C1063.74 126.91 1066.26 123.55 1070.19 123.55C1071.81 123.55 1073.1 124.21 1074.06 125.14V117.22L1078.32 117.7ZM1074.06 135.31V128.2C1073.28 127.27 1072.47 126.7 1071.3 126.7C1069.44 126.7 1068.18 128.26 1068.18 131.98C1068.18 135.97 1069.32 137.23 1071.03 137.23C1072.32 137.23 1073.22 136.57 1074.06 135.31Z" fill="#1765AB"/>
<path d="M1095.87 133.27H1085.94C1086.24 136.33 1087.68 137.23 1089.72 137.23C1091.07 137.23 1092.21 136.81 1093.59 135.85L1095.36 138.25C1093.8 139.51 1091.82 140.41 1089.33 140.41C1084.23 140.41 1081.56 137.05 1081.56 132.07C1081.56 127.09 1084.14 123.55 1088.79 123.55C1093.44 123.55 1095.96 126.55 1095.96 131.62C1095.96 132.16 1095.9 132.82 1095.87 133.27ZM1091.73 130.42C1091.73 128.02 1090.92 126.46 1088.88 126.46C1087.2 126.46 1086.15 127.6 1085.94 130.6H1091.73V130.42Z" fill="#1765AB"/>
<path d="M1119.72 133.27H1109.79C1110.09 136.33 1111.53 137.23 1113.57 137.23C1114.92 137.23 1116.06 136.81 1117.44 135.85L1119.21 138.25C1117.65 139.51 1115.67 140.41 1113.18 140.41C1108.08 140.41 1105.41 137.05 1105.41 132.07C1105.41 127.09 1107.99 123.55 1112.64 123.55C1117.29 123.55 1119.81 126.55 1119.81 131.62C1119.81 132.16 1119.75 132.82 1119.72 133.27ZM1115.58 130.42C1115.58 128.02 1114.77 126.46 1112.73 126.46C1111.05 126.46 1110 127.6 1109.79 130.6H1115.58V130.42Z" fill="#1765AB"/>
<path d="M1151.61 128.35V139.93H1147.35V129.07C1147.35 127.24 1146.63 126.73 1145.79 126.73C1144.62 126.73 1143.84 127.54 1143.03 128.95V139.93H1138.77V129.07C1138.77 127.24 1138.08 126.73 1137.21 126.73C1136.04 126.73 1135.26 127.54 1134.48 128.95V139.93H1130.22V124.03H1133.91L1134.24 126.01C1135.41 124.45 1136.85 123.55 1138.86 123.55C1140.66 123.55 1142.04 124.48 1142.64 126.13C1143.9 124.48 1145.37 123.55 1147.41 123.55C1149.9 123.55 1151.61 125.35 1151.61 128.35Z" fill="#1765AB"/>
<path d="M1169.93 131.98C1169.93 137.02 1167.08 140.41 1162.31 140.41C1157.54 140.41 1154.69 137.26 1154.69 131.98C1154.69 126.7 1157.54 123.55 1162.34 123.55C1167.14 123.55 1169.93 126.7 1169.93 131.98ZM1159.13 131.98C1159.13 135.64 1160.21 137.23 1162.31 137.23C1164.41 137.23 1165.49 135.61 1165.49 131.98C1165.49 128.35 1164.41 126.73 1162.34 126.73C1160.27 126.73 1159.13 128.35 1159.13 131.98Z" fill="#1765AB"/>
<path d="M1186.94 117.7V139.93H1183.19L1182.95 137.98C1181.99 139.36 1180.52 140.41 1178.39 140.41C1174.4 140.41 1172.36 137.05 1172.36 131.98C1172.36 126.91 1174.88 123.55 1178.81 123.55C1180.43 123.55 1181.72 124.21 1182.68 125.14V117.22L1186.94 117.7ZM1182.68 135.31V128.2C1181.9 127.27 1181.09 126.7 1179.92 126.7C1178.06 126.7 1176.8 128.26 1176.8 131.98C1176.8 135.97 1177.94 137.23 1179.65 137.23C1180.94 137.23 1181.84 136.57 1182.68 135.31Z" fill="#1765AB"/>
<path d="M1204.46 137.53L1203.56 140.35C1201.76 140.2 1200.56 139.6 1199.9 138.01C1198.76 139.75 1197.02 140.41 1195.13 140.41C1191.95 140.41 1189.97 138.37 1189.97 135.49C1189.97 132.01 1192.58 130.12 1197.29 130.12H1199.12V129.34C1199.12 127.36 1198.28 126.73 1196.27 126.73C1195.22 126.73 1193.69 127.03 1192.07 127.57L1191.11 124.72C1193.09 123.94 1195.19 123.55 1196.99 123.55C1201.4 123.55 1203.29 125.5 1203.29 129.1V135.52C1203.29 136.81 1203.68 137.26 1204.46 137.53ZM1199.12 135.58V132.55H1197.71C1195.4 132.55 1194.26 133.39 1194.26 135.13C1194.26 136.54 1194.98 137.35 1196.3 137.35C1197.53 137.35 1198.46 136.72 1199.12 135.58Z" fill="#1765AB"/>
<path d="M1207.11 136.09V117.7L1211.37 117.22V135.97C1211.37 136.66 1211.64 137.02 1212.24 137.02C1212.57 137.02 1212.84 136.96 1213.08 136.84L1213.95 139.87C1213.26 140.17 1212.3 140.41 1211.22 140.41C1208.64 140.41 1207.11 138.85 1207.11 136.09Z" fill="#1765AB"/>
<path d="M1220.84 118.33C1220.84 119.74 1219.76 120.82 1218.23 120.82C1216.7 120.82 1215.65 119.74 1215.65 118.33C1215.65 116.92 1216.7 115.84 1218.23 115.84C1219.76 115.84 1220.84 116.92 1220.84 118.33ZM1220.39 139.93H1216.13V124.03H1220.39V139.93Z" fill="#1765AB"/>
<path d="M1238.36 117.7V139.93H1234.61L1234.37 137.98C1233.41 139.36 1231.94 140.41 1229.81 140.41C1225.82 140.41 1223.78 137.05 1223.78 131.98C1223.78 126.91 1226.3 123.55 1230.23 123.55C1231.85 123.55 1233.14 124.21 1234.1 125.14V117.22L1238.36 117.7ZM1234.1 135.31V128.2C1233.32 127.27 1232.51 126.7 1231.34 126.7C1229.48 126.7 1228.22 128.26 1228.22 131.98C1228.22 135.97 1229.36 137.23 1231.07 137.23C1232.36 137.23 1233.26 136.57 1234.1 135.31Z" fill="#1765AB"/>
<path d="M1255.88 137.53L1254.98 140.35C1253.18 140.2 1251.98 139.6 1251.32 138.01C1250.18 139.75 1248.44 140.41 1246.55 140.41C1243.37 140.41 1241.39 138.37 1241.39 135.49C1241.39 132.01 1244 130.12 1248.71 130.12H1250.54V129.34C1250.54 127.36 1249.7 126.73 1247.69 126.73C1246.64 126.73 1245.11 127.03 1243.49 127.57L1242.53 124.72C1244.51 123.94 1246.61 123.55 1248.41 123.55C1252.82 123.55 1254.71 125.5 1254.71 129.1V135.52C1254.71 136.81 1255.1 137.26 1255.88 137.53ZM1250.54 135.58V132.55H1249.13C1246.82 132.55 1245.68 133.39 1245.68 135.13C1245.68 136.54 1246.4 137.35 1247.72 137.35C1248.95 137.35 1249.88 136.72 1250.54 135.58Z" fill="#1765AB"/>
<path d="M1272.74 117.7V139.93H1268.99L1268.75 137.98C1267.79 139.36 1266.32 140.41 1264.19 140.41C1260.2 140.41 1258.16 137.05 1258.16 131.98C1258.16 126.91 1260.68 123.55 1264.61 123.55C1266.23 123.55 1267.52 124.21 1268.48 125.14V117.22L1272.74 117.7ZM1268.48 135.31V128.2C1267.7 127.27 1266.89 126.7 1265.72 126.7C1263.86 126.7 1262.6 128.26 1262.6 131.98C1262.6 135.97 1263.74 137.23 1265.45 137.23C1266.74 137.23 1267.64 136.57 1268.48 135.31Z" fill="#1765AB"/>
<path d="M1290.29 133.27H1280.36C1280.66 136.33 1282.1 137.23 1284.14 137.23C1285.49 137.23 1286.63 136.81 1288.01 135.85L1289.78 138.25C1288.22 139.51 1286.24 140.41 1283.75 140.41C1278.65 140.41 1275.98 137.05 1275.98 132.07C1275.98 127.09 1278.56 123.55 1283.21 123.55C1287.86 123.55 1290.38 126.55 1290.38 131.62C1290.38 132.16 1290.32 132.82 1290.29 133.27ZM1286.15 130.42C1286.15 128.02 1285.34 126.46 1283.3 126.46C1281.62 126.46 1280.57 127.6 1280.36 130.6H1286.15V130.42Z" fill="#1765AB"/>
<path d="M1314.56 117.7V139.93H1310.81L1310.57 137.98C1309.61 139.36 1308.14 140.41 1306.01 140.41C1302.02 140.41 1299.98 137.05 1299.98 131.98C1299.98 126.91 1302.5 123.55 1306.43 123.55C1308.05 123.55 1309.34 124.21 1310.3 125.14V117.22L1314.56 117.7ZM1310.3 135.31V128.2C1309.52 127.27 1308.71 126.7 1307.54 126.7C1305.68 126.7 1304.42 128.26 1304.42 131.98C1304.42 135.97 1305.56 137.23 1307.27 137.23C1308.56 137.23 1309.46 136.57 1310.3 135.31Z" fill="#1765AB"/>
<path d="M1332.11 133.27H1322.18C1322.48 136.33 1323.92 137.23 1325.96 137.23C1327.31 137.23 1328.45 136.81 1329.83 135.85L1331.6 138.25C1330.04 139.51 1328.06 140.41 1325.57 140.41C1320.47 140.41 1317.8 137.05 1317.8 132.07C1317.8 127.09 1320.38 123.55 1325.03 123.55C1329.68 123.55 1332.2 126.55 1332.2 131.62C1332.2 132.16 1332.14 132.82 1332.11 133.27ZM1327.97 130.42C1327.97 128.02 1327.16 126.46 1325.12 126.46C1323.44 126.46 1322.39 127.6 1322.18 130.6H1327.97V130.42Z" fill="#1765AB"/>
<path d="M1355.96 133.27H1346.03C1346.33 136.33 1347.77 137.23 1349.81 137.23C1351.16 137.23 1352.3 136.81 1353.68 135.85L1355.45 138.25C1353.89 139.51 1351.91 140.41 1349.42 140.41C1344.32 140.41 1341.65 137.05 1341.65 132.07C1341.65 127.09 1344.23 123.55 1348.88 123.55C1353.53 123.55 1356.05 126.55 1356.05 131.62C1356.05 132.16 1355.99 132.82 1355.96 133.27ZM1351.82 130.42C1351.82 128.02 1351.01 126.46 1348.97 126.46C1347.29 126.46 1346.24 127.6 1346.03 130.6H1351.82V130.42Z" fill="#1765AB"/>
<path d="M1372.46 128.35V139.93H1368.2V129.07C1368.2 127.24 1367.54 126.73 1366.46 126.73C1365.23 126.73 1364.27 127.54 1363.4 128.95V139.93H1359.14V124.03H1362.83L1363.16 126.04C1364.45 124.45 1365.98 123.55 1368.02 123.55C1370.81 123.55 1372.46 125.35 1372.46 128.35Z" fill="#1765AB"/>
<path d="M1387.55 125.47L1385.93 127.9C1384.64 127.09 1383.35 126.64 1381.97 126.64C1380.59 126.64 1379.78 127.21 1379.78 128.08C1379.78 129.01 1380.32 129.43 1383.11 130.24C1386.29 131.11 1388.09 132.43 1388.09 135.25C1388.09 138.55 1385 140.41 1381.22 140.41C1378.46 140.41 1376.24 139.48 1374.74 138.1L1376.84 135.76C1378.04 136.69 1379.51 137.32 1381.1 137.32C1382.69 137.32 1383.71 136.66 1383.71 135.58C1383.71 134.38 1383.14 133.99 1380.2 133.18C1376.99 132.28 1375.49 130.69 1375.49 128.29C1375.49 125.59 1377.95 123.55 1381.79 123.55C1384.1 123.55 1386.05 124.27 1387.55 125.47Z" fill="#1765AB"/>
<path d="M1395.59 118.33C1395.59 119.74 1394.51 120.82 1392.98 120.82C1391.45 120.82 1390.4 119.74 1390.4 118.33C1390.4 116.92 1391.45 115.84 1392.98 115.84C1394.51 115.84 1395.59 116.92 1395.59 118.33ZM1395.14 139.93H1390.88V124.03H1395.14V139.93Z" fill="#1765AB"/>
<path d="M1412.66 128.35V139.93H1408.4V129.07C1408.4 127.24 1407.74 126.73 1406.66 126.73C1405.43 126.73 1404.47 127.54 1403.6 128.95V139.93H1399.34V124.03H1403.03L1403.36 126.04C1404.65 124.45 1406.18 123.55 1408.22 123.55C1411.01 123.55 1412.66 125.35 1412.66 128.35Z" fill="#1765AB"/>
<path d="M1430.99 131.98C1430.99 137.02 1428.14 140.41 1423.37 140.41C1418.6 140.41 1415.75 137.26 1415.75 131.98C1415.75 126.7 1418.6 123.55 1423.4 123.55C1428.2 123.55 1430.99 126.7 1430.99 131.98ZM1420.19 131.98C1420.19 135.64 1421.27 137.23 1423.37 137.23C1425.47 137.23 1426.55 135.61 1426.55 131.98C1426.55 128.35 1425.47 126.73 1423.4 126.73C1421.33 126.73 1420.19 128.35 1420.19 131.98Z" fill="#1765AB"/>
<path d="M1440.17 128.86H1454.33V132.22H1440.17V128.86Z" fill="#1765AB"/>
<path d="M1479.89 133.9C1479.89 138.55 1476.14 139.93 1471.04 139.93H1464.56V119.17H1470.23C1475.66 119.17 1478.99 120.64 1478.99 124.48C1478.99 127.09 1477.1 128.5 1475.18 128.95C1477.52 129.4 1479.89 130.51 1479.89 133.9ZM1468.97 122.35V127.6H1471.13C1473.23 127.6 1474.49 126.73 1474.49 124.87C1474.49 123.01 1473.2 122.35 1470.65 122.35H1468.97ZM1475.3 133.72C1475.3 131.41 1473.68 130.6 1471.46 130.6H1468.97V136.66H1471.07C1473.53 136.66 1475.3 136.18 1475.3 133.72Z" fill="#1765AB"/>
<path d="M1492.73 123.82L1492.01 127.93C1491.53 127.81 1491.14 127.72 1490.6 127.72C1488.65 127.72 1487.75 129.16 1487.18 131.71V139.93H1482.92V124.03H1486.61L1487 127.12C1487.75 124.9 1489.28 123.58 1491.14 123.58C1491.71 123.58 1492.19 123.67 1492.73 123.82Z" fill="#1765AB"/>
<path d="M1507.1 137.53L1506.2 140.35C1504.4 140.2 1503.2 139.6 1502.54 138.01C1501.4 139.75 1499.66 140.41 1497.77 140.41C1494.59 140.41 1492.61 138.37 1492.61 135.49C1492.61 132.01 1495.22 130.12 1499.93 130.12H1501.76V129.34C1501.76 127.36 1500.92 126.73 1498.91 126.73C1497.86 126.73 1496.33 127.03 1494.71 127.57L1493.75 124.72C1495.73 123.94 1497.83 123.55 1499.63 123.55C1504.04 123.55 1505.93 125.5 1505.93 129.1V135.52C1505.93 136.81 1506.32 137.26 1507.1 137.53ZM1501.76 135.58V132.55H1500.35C1498.04 132.55 1496.9 133.39 1496.9 135.13C1496.9 136.54 1497.62 137.35 1498.94 137.35C1500.17 137.35 1501.1 136.72 1501.76 135.58Z" fill="#1765AB"/>
<path d="M1520.93 125.47L1519.31 127.9C1518.02 127.09 1516.73 126.64 1515.35 126.64C1513.97 126.64 1513.16 127.21 1513.16 128.08C1513.16 129.01 1513.7 129.43 1516.49 130.24C1519.67 131.11 1521.47 132.43 1521.47 135.25C1521.47 138.55 1518.38 140.41 1514.6 140.41C1511.84 140.41 1509.62 139.48 1508.12 138.1L1510.22 135.76C1511.42 136.69 1512.89 137.32 1514.48 137.32C1516.07 137.32 1517.09 136.66 1517.09 135.58C1517.09 134.38 1516.52 133.99 1513.58 133.18C1510.37 132.28 1508.87 130.69 1508.87 128.29C1508.87 125.59 1511.33 123.55 1515.17 123.55C1517.48 123.55 1519.43 124.27 1520.93 125.47Z" fill="#1765AB"/>
<path d="M1528.97 118.33C1528.97 119.74 1527.89 120.82 1526.36 120.82C1524.83 120.82 1523.78 119.74 1523.78 118.33C1523.78 116.92 1524.83 115.84 1526.36 115.84C1527.89 115.84 1528.97 116.92 1528.97 118.33ZM1528.52 139.93H1524.26V124.03H1528.52V139.93Z" fill="#1765AB"/>
<path d="M1532.57 136.09V117.7L1536.83 117.22V135.97C1536.83 136.66 1537.1 137.02 1537.7 137.02C1538.03 137.02 1538.3 136.96 1538.54 136.84L1539.41 139.87C1538.72 140.17 1537.76 140.41 1536.68 140.41C1534.1 140.41 1532.57 138.85 1532.57 136.09Z" fill="#1765AB"/>
<path d="M1560.65 125.05C1560.65 128.32 1558.88 130.75 1552.61 136.63H1561.1L1560.62 139.93H1547.75V136.84C1554.62 129.97 1556.27 128.11 1556.27 125.41C1556.27 123.67 1555.16 122.62 1553.51 122.62C1551.98 122.62 1550.93 123.28 1549.7 124.75L1547.15 122.71C1548.77 120.58 1550.99 119.32 1553.9 119.32C1558.22 119.32 1560.65 121.9 1560.65 125.05Z" fill="#1765AB"/>
<path d="M1578.29 129.85C1578.29 136.6 1575.74 140.41 1570.85 140.41C1565.96 140.41 1563.44 136.6 1563.44 129.85C1563.44 123.1 1565.99 119.32 1570.85 119.32C1575.71 119.32 1578.29 123.07 1578.29 129.85ZM1567.82 129.85C1567.82 135.34 1568.75 137.2 1570.85 137.2C1572.95 137.2 1573.91 135.43 1573.91 129.85C1573.91 124.27 1572.95 122.5 1570.85 122.5C1568.75 122.5 1567.82 124.36 1567.82 129.85Z" fill="#1765AB"/>
<path d="M1593.05 125.05C1593.05 128.32 1591.28 130.75 1585.01 136.63H1593.5L1593.02 139.93H1580.15V136.84C1587.02 129.97 1588.67 128.11 1588.67 125.41C1588.67 123.67 1587.56 122.62 1585.91 122.62C1584.38 122.62 1583.33 123.28 1582.1 124.75L1579.55 122.71C1581.17 120.58 1583.39 119.32 1586.3 119.32C1590.62 119.32 1593.05 121.9 1593.05 125.05Z" fill="#1765AB"/>
<path d="M1604.9 139.93H1600.73V123.91L1596.29 126.64L1594.43 123.76L1601.15 119.71H1604.9V139.93Z" fill="#1765AB"/>
<path d="M1613.72 137.83C1613.72 139.24 1612.58 140.41 1611.14 140.41C1609.7 140.41 1608.59 139.24 1608.59 137.83C1608.59 136.42 1609.73 135.28 1611.14 135.28C1612.55 135.28 1613.72 136.45 1613.72 137.83Z" fill="#1765AB"/>
<path d="M579.38 293.05H350.43C333.425 293.05 319.64 306.833 319.64 323.835C319.64 340.837 333.425 354.62 350.43 354.62H579.38C596.385 354.62 610.17 340.837 610.17 323.835C610.17 306.833 596.385 293.05 579.38 293.05Z" fill="#1765AB"/>
<path d="M372.4 327.31H369.77V336.8H364.62V312.58H372.18C378.66 312.58 381.95 314.93 381.95 319.83C381.95 323.05 380.38 324.98 377.15 326.38L383.42 336.81H377.57L372.39 327.32L372.4 327.31ZM369.77 323.67H372.47C375.17 323.67 376.64 322.55 376.64 319.82C376.64 317.33 375.2 316.25 372.09 316.25H369.78V323.67H369.77Z" fill="white"/>
<path d="M401.06 329.03H389.47C389.82 332.6 391.5 333.65 393.88 333.65C395.46 333.65 396.79 333.16 398.4 332.04L400.46 334.84C398.64 336.31 396.33 337.36 393.42 337.36C387.47 337.36 384.35 333.44 384.35 327.63C384.35 321.82 387.36 317.69 392.79 317.69C398.22 317.69 401.16 321.19 401.16 327.11C401.16 327.74 401.09 328.51 401.06 329.03ZM396.23 325.7C396.23 322.9 395.29 321.08 392.9 321.08C390.94 321.08 389.71 322.41 389.47 325.91H396.23V325.7Z" fill="white"/>
<path d="M420.84 310.86V336.8H416.46L416.18 334.52C415.06 336.13 413.35 337.36 410.86 337.36C406.2 337.36 403.82 333.44 403.82 327.52C403.82 321.6 406.76 317.68 411.35 317.68C413.24 317.68 414.75 318.45 415.87 319.53V310.29L420.84 310.85V310.86ZM415.87 331.41V323.11C414.96 322.03 414.02 321.36 412.65 321.36C410.48 321.36 409.01 323.18 409.01 327.52C409.01 332.18 410.34 333.65 412.34 333.65C413.84 333.65 414.9 332.88 415.88 331.41H415.87Z" fill="white"/>
<path d="M441.31 329.03H429.72C430.07 332.6 431.75 333.65 434.13 333.65C435.71 333.65 437.04 333.16 438.65 332.04L440.71 334.84C438.89 336.31 436.58 337.36 433.67 337.36C427.72 337.36 424.6 333.44 424.6 327.63C424.6 321.82 427.61 317.69 433.04 317.69C438.47 317.69 441.41 321.19 441.41 327.11C441.41 327.74 441.34 328.51 441.31 329.03ZM436.48 325.7C436.48 322.9 435.54 321.08 433.15 321.08C431.19 321.08 429.96 322.41 429.72 325.91H436.48V325.7Z" fill="white"/>
<path d="M471.1 320.38C471.1 325.98 467.11 328.54 461.58 328.54H458.81V336.8H453.66V312.58H461.15C467.31 312.58 471.09 315.1 471.09 320.39L471.1 320.38ZM465.78 320.38C465.78 317.54 464.1 316.28 461.09 316.28H458.81V324.75H461.16C464 324.75 465.78 323.67 465.78 320.37V320.38Z" fill="white"/>
<path d="M488.67 336.8H484.36L484.11 334.31C482.78 336.38 480.96 337.36 478.47 337.36C475.04 337.36 473.29 335.15 473.29 331.58V318.24H478.26V330.95C478.26 332.98 478.93 333.65 480.29 333.65C481.65 333.65 482.81 332.74 483.69 331.23V318.24H488.66V336.79L488.67 336.8ZM485.55 311.67L477.5 314.89L476.1 312.33L483.59 307.85L485.55 311.67Z" fill="white"/>
<path d="M510.47 327.52C510.47 333.26 507.7 337.36 503.12 337.36C501.05 337.36 499.41 336.48 498.25 334.98L497.97 336.8H493.56V310.86L498.53 310.3V320.24C499.68 318.66 501.51 317.68 503.61 317.68C507.95 317.68 510.47 321.32 510.47 327.52ZM505.29 327.52C505.29 322.69 503.93 321.36 501.96 321.36C500.52 321.36 499.37 322.34 498.53 323.74V331.69C499.3 332.95 500.38 333.69 501.72 333.69C503.82 333.69 505.29 332.04 505.29 327.53V327.52Z" fill="white"/>
<path d="M514.25 332.32V310.86L519.22 310.3V332.18C519.22 332.99 519.53 333.41 520.24 333.41C520.63 333.41 520.94 333.34 521.22 333.2L522.23 336.74C521.43 337.09 520.31 337.37 519.04 337.37C516.03 337.37 514.24 335.55 514.24 332.33L514.25 332.32Z" fill="white"/>
<path d="M530.28 311.6C530.28 313.25 529.02 314.51 527.23 314.51C525.44 314.51 524.22 313.25 524.22 311.6C524.22 309.95 525.45 308.69 527.23 308.69C529.01 308.69 530.28 309.95 530.28 311.6ZM529.76 336.8H524.79V318.25H529.76V336.8Z" fill="white"/>
<path d="M548.55 319.93L546.38 322.87C545.19 321.96 544.11 321.54 542.74 321.54C540.25 321.54 538.78 323.33 538.78 327.63C538.78 331.93 540.36 333.37 542.7 333.37C544.07 333.37 545.01 332.95 546.38 332.07L548.55 335.19C546.87 336.56 544.91 337.36 542.46 337.36C536.93 337.36 533.53 333.58 533.53 327.66C533.53 321.74 536.96 317.68 542.39 317.68C544.88 317.68 546.8 318.41 548.55 319.92V319.93Z" fill="white"/>
<path d="M566.58 334L565.53 337.29C563.43 337.11 562.03 336.41 561.26 334.56C559.93 336.59 557.9 337.36 555.69 337.36C551.98 337.36 549.67 334.98 549.67 331.62C549.67 327.56 552.72 325.35 558.21 325.35H560.35V324.44C560.35 322.13 559.37 321.39 557.02 321.39C555.79 321.39 554.01 321.74 552.12 322.37L551 319.04C553.31 318.13 555.76 317.68 557.86 317.68C563.01 317.68 565.21 319.95 565.21 324.16V331.65C565.21 333.16 565.67 333.68 566.57 334H566.58ZM560.35 331.72V328.18H558.7C556 328.18 554.67 329.16 554.67 331.19C554.67 332.84 555.51 333.78 557.05 333.78C558.49 333.78 559.57 333.04 560.34 331.71L560.35 331.72Z" fill="white"/>
<path d="M1580.68 293.05H1351.73C1334.73 293.05 1320.94 306.833 1320.94 323.835C1320.94 340.837 1334.73 354.62 1351.73 354.62H1580.68C1597.68 354.62 1611.47 340.837 1611.47 323.835C1611.47 306.833 1597.68 293.05 1580.68 293.05Z" fill="#1765AB"/>
<path d="M1371.9 327.31H1369.28V336.8H1364.13V312.58H1371.69C1378.17 312.58 1381.46 314.93 1381.46 319.83C1381.46 323.05 1379.89 324.98 1376.67 326.38L1382.94 336.81H1377.09L1371.91 327.32L1371.9 327.31ZM1369.28 323.67H1371.98C1374.68 323.67 1376.15 322.55 1376.15 319.82C1376.15 317.33 1374.72 316.25 1371.6 316.25H1369.29V323.67H1369.28Z" fill="white"/>
<path d="M1400.57 329.03H1388.98C1389.33 332.6 1391.01 333.65 1393.39 333.65C1394.97 333.65 1396.3 333.16 1397.91 332.04L1399.97 334.84C1398.15 336.31 1395.84 337.36 1392.93 337.36C1386.98 337.36 1383.86 333.44 1383.86 327.63C1383.86 321.82 1386.87 317.69 1392.3 317.69C1397.73 317.69 1400.67 321.19 1400.67 327.11C1400.67 327.74 1400.6 328.51 1400.57 329.03ZM1395.74 325.7C1395.74 322.9 1394.8 321.08 1392.41 321.08C1390.45 321.08 1389.22 322.41 1388.98 325.91H1395.74V325.7Z" fill="white"/>
<path d="M1420.34 310.86V336.8H1415.96L1415.68 334.52C1414.56 336.13 1412.85 337.36 1410.36 337.36C1405.7 337.36 1403.32 333.44 1403.32 327.52C1403.32 321.6 1406.26 317.68 1410.85 317.68C1412.74 317.68 1414.25 318.45 1415.37 319.53V310.29L1420.34 310.85V310.86ZM1415.37 331.41V323.11C1414.46 322.03 1413.52 321.36 1412.15 321.36C1409.98 321.36 1408.51 323.18 1408.51 327.52C1408.51 332.18 1409.84 333.65 1411.84 333.65C1413.34 333.65 1414.4 332.88 1415.38 331.41H1415.37Z" fill="white"/>
<path d="M1440.82 329.03H1429.23C1429.58 332.6 1431.26 333.65 1433.64 333.65C1435.22 333.65 1436.55 333.16 1438.16 332.04L1440.23 334.84C1438.41 336.31 1436.1 337.36 1433.19 337.36C1427.24 337.36 1424.12 333.44 1424.12 327.63C1424.12 321.82 1427.13 317.69 1432.56 317.69C1437.99 317.69 1440.93 321.19 1440.93 327.11C1440.93 327.74 1440.86 328.51 1440.82 329.03ZM1435.99 325.7C1435.99 322.9 1435.04 321.08 1432.66 321.08C1430.7 321.08 1429.47 322.41 1429.23 325.91H1435.99V325.7Z" fill="white"/>
<path d="M1470.6 320.38C1470.6 325.98 1466.61 328.54 1461.08 328.54H1458.31V336.8H1453.16V312.58H1460.65C1466.81 312.58 1470.59 315.1 1470.59 320.39L1470.6 320.38ZM1465.28 320.38C1465.28 317.54 1463.6 316.28 1460.59 316.28H1458.31V324.75H1460.66C1463.49 324.75 1465.28 323.67 1465.28 320.37V320.38Z" fill="white"/>
<path d="M1484.64 318L1483.8 322.8C1483.24 322.66 1482.79 322.55 1482.16 322.55C1479.88 322.55 1478.83 324.23 1478.17 327.21V336.8H1473.2V318.25H1477.51L1477.97 321.85C1478.85 319.26 1480.63 317.72 1482.8 317.72C1483.47 317.72 1484.03 317.82 1484.66 318H1484.64Z" fill="white"/>
<path d="M1492.58 311.6C1492.58 313.25 1491.32 314.51 1489.54 314.51C1487.76 314.51 1486.53 313.25 1486.53 311.6C1486.53 309.95 1487.76 308.69 1489.54 308.69C1491.32 308.69 1492.58 309.95 1492.58 311.6ZM1492.06 336.8H1487.09V318.25H1492.06V336.8Z" fill="white"/>
<path d="M1506.41 336.8H1500.49L1494.43 318.25H1499.82L1503.5 332.92L1507.25 318.25H1512.36L1506.41 336.8Z" fill="white"/>
<path d="M1529.58 334L1528.53 337.29C1526.43 337.11 1525.03 336.41 1524.26 334.56C1522.93 336.59 1520.9 337.36 1518.69 337.36C1514.98 337.36 1512.67 334.98 1512.67 331.62C1512.67 327.56 1515.71 325.35 1521.21 325.35H1523.34V324.44C1523.34 322.13 1522.36 321.39 1520.01 321.39C1518.79 321.39 1517 321.74 1515.11 322.37L1513.99 319.04C1516.3 318.13 1518.75 317.68 1520.85 317.68C1526 317.68 1528.2 319.95 1528.2 324.16V331.65C1528.2 333.16 1528.65 333.68 1529.56 334H1529.58ZM1523.35 331.72V328.18H1521.71C1519.01 328.18 1517.68 329.16 1517.68 331.19C1517.68 332.84 1518.52 333.78 1520.06 333.78C1521.5 333.78 1522.58 333.04 1523.35 331.71V331.72Z" fill="white"/>
<path d="M1549.25 310.86V336.8H1544.87L1544.59 334.52C1543.47 336.13 1541.76 337.36 1539.27 337.36C1534.61 337.36 1532.23 333.44 1532.23 327.52C1532.23 321.6 1535.17 317.68 1539.76 317.68C1541.65 317.68 1543.16 318.45 1544.28 319.53V310.29L1549.25 310.85V310.86ZM1544.28 331.41V323.11C1543.37 322.03 1542.42 321.36 1541.06 321.36C1538.89 321.36 1537.42 323.18 1537.42 327.52C1537.42 332.18 1538.75 333.65 1540.75 333.65C1542.25 333.65 1543.3 332.88 1544.29 331.41H1544.28Z" fill="white"/>
<path d="M1569.69 334L1568.64 337.29C1566.54 337.11 1565.14 336.41 1564.37 334.56C1563.04 336.59 1561.01 337.36 1558.8 337.36C1555.09 337.36 1552.78 334.98 1552.78 331.62C1552.78 327.56 1555.83 325.35 1561.32 325.35H1563.46V324.44C1563.46 322.13 1562.48 321.39 1560.13 321.39C1558.9 321.39 1557.12 321.74 1555.23 322.37L1554.11 319.04C1556.42 318.13 1558.87 317.68 1560.97 317.68C1566.12 317.68 1568.32 319.95 1568.32 324.16V331.65C1568.32 333.16 1568.78 333.68 1569.69 334ZM1563.46 331.72V328.18H1561.81C1559.11 328.18 1557.78 329.16 1557.78 331.19C1557.78 332.84 1558.62 333.78 1560.16 333.78C1561.6 333.78 1562.68 333.04 1563.45 331.71L1563.46 331.72Z" fill="white"/>
<path d="M793.83 1057.99H799.59L799.43 1059.11H795.2V1062.98H798.85V1064.08H795.2V1068.99H793.82V1057.98L793.83 1057.99Z" fill="#1765AB"/>
<path d="M807.8 1064.78C807.8 1067.42 806.44 1069.2 804.09 1069.2C801.74 1069.2 800.39 1067.49 800.39 1064.81C800.39 1062.13 801.75 1060.39 804.1 1060.39C806.45 1060.39 807.8 1062.09 807.8 1064.78ZM801.83 1064.81C801.83 1067.03 802.63 1068.11 804.09 1068.11C805.55 1068.11 806.36 1067.04 806.36 1064.78C806.36 1062.52 805.56 1061.48 804.1 1061.48C802.64 1061.48 801.83 1062.55 801.83 1064.81Z" fill="#1765AB"/>
<path d="M816.63 1062.97V1069H815.29V1063.16C815.29 1061.86 814.76 1061.45 813.9 1061.45C812.91 1061.45 812.23 1062.07 811.66 1063V1069H810.32V1060.58H811.47L811.58 1061.84C812.2 1060.98 813.08 1060.38 814.22 1060.38C815.76 1060.38 816.64 1061.36 816.64 1062.96L816.63 1062.97Z" fill="#1765AB"/>
<path d="M823.81 1068.63C823.27 1069 822.66 1069.19 821.95 1069.19C820.56 1069.19 819.73 1068.37 819.73 1066.84V1061.62H818.27V1060.58H819.73V1058.64L821.07 1058.5V1060.58H823.1L822.96 1061.62H821.07V1066.77C821.07 1067.65 821.37 1068.07 822.13 1068.07C822.53 1068.07 822.88 1067.96 823.3 1067.72L823.81 1068.63Z" fill="#1765AB"/>
<path d="M831.36 1065.26H825.93C826.07 1067.29 827 1068.09 828.28 1068.09C829.13 1068.09 829.75 1067.85 830.49 1067.34L831.08 1068.14C830.26 1068.8 829.33 1069.2 828.18 1069.2C825.86 1069.2 824.5 1067.55 824.5 1064.88C824.5 1062.21 825.81 1060.4 827.96 1060.4C830.22 1060.4 831.39 1061.98 831.39 1064.53C831.39 1064.82 831.37 1065.09 831.36 1065.27V1065.26ZM830.06 1064.14C830.06 1062.44 829.39 1061.47 827.99 1061.47C826.82 1061.47 826.04 1062.3 825.93 1064.27H830.06V1064.14Z" fill="#1765AB"/>
<path d="M835.14 1062.18C835.14 1062.76 834.71 1063.22 834.1 1063.22C833.52 1063.22 833.08 1062.76 833.08 1062.18C833.08 1061.6 833.53 1061.16 834.1 1061.16C834.71 1061.16 835.14 1061.62 835.14 1062.18ZM835.14 1068.15C835.14 1068.73 834.71 1069.19 834.1 1069.19C833.52 1069.19 833.08 1068.73 833.08 1068.15C833.08 1067.57 833.53 1067.13 834.1 1067.13C834.71 1067.13 835.14 1067.59 835.14 1068.15Z" fill="#1765AB"/>
<path d="M855.96 1069H854.62L854.2 1063.96C854.04 1062.22 853.91 1060.33 853.9 1059.4L851.42 1067.74H850.12L847.53 1059.38C847.51 1060.63 847.42 1062.41 847.27 1064.04L846.89 1069H845.58L846.51 1057.99H848.4L850.82 1066.14L853.12 1057.99H855.01L855.97 1069H855.96Z" fill="#1765AB"/>
<path d="M864.32 1059.11H859.98V1062.82H863.74V1063.94H859.98V1067.88H864.59V1069H858.6V1057.99H864.48L864.32 1059.11Z" fill="#1765AB"/>
<path d="M873.72 1058.87L872.97 1059.77C872.27 1059.21 871.61 1058.95 870.81 1058.95C869.08 1058.95 867.66 1060.12 867.66 1063.5C867.66 1066.88 869.04 1068.01 870.8 1068.01C871.86 1068.01 872.53 1067.58 873.17 1067.1L873.86 1067.98C873.24 1068.6 872.21 1069.2 870.75 1069.2C868.11 1069.2 866.19 1067.2 866.19 1063.5C866.19 1059.8 868.24 1057.8 870.74 1057.8C872.1 1057.8 872.87 1058.18 873.73 1058.87H873.72Z" fill="#1765AB"/>
<path d="M880.77 1056.37L877.07 1070.65L875.9 1070.36L879.61 1056.1L880.76 1056.37H880.77Z" fill="#1765AB"/>
<path d="M885.52 1069H884.14V1057.99H885.52V1069Z" fill="#1765AB"/>
<path d="M895.06 1062.97V1069H893.72V1063.16C893.72 1061.86 893.19 1061.45 892.33 1061.45C891.34 1061.45 890.66 1062.07 890.09 1063V1069H888.75V1060.58H889.9L890.01 1061.84C890.63 1060.98 891.51 1060.38 892.65 1060.38C894.19 1060.38 895.07 1061.36 895.07 1062.96L895.06 1062.97Z" fill="#1765AB"/>
<path d="M904.32 1065.26H898.89C899.03 1067.29 899.96 1068.09 901.24 1068.09C902.09 1068.09 902.71 1067.85 903.45 1067.34L904.04 1068.14C903.22 1068.8 902.29 1069.2 901.14 1069.2C898.82 1069.2 897.46 1067.55 897.46 1064.88C897.46 1062.21 898.77 1060.4 900.92 1060.4C903.18 1060.4 904.35 1061.98 904.35 1064.53C904.35 1064.82 904.33 1065.09 904.32 1065.27V1065.26ZM903.02 1064.14C903.02 1062.44 902.35 1061.47 900.95 1061.47C899.78 1061.47 899 1062.3 898.89 1064.27H903.02V1064.14Z" fill="#1765AB"/>
<path d="M913.65 1064.78C913.65 1067.36 912.53 1069.2 910.37 1069.2C909.43 1069.2 908.66 1068.86 908.13 1068.21V1072.23L906.79 1072.39V1060.59H907.94L908.05 1061.76C908.66 1060.9 909.55 1060.4 910.55 1060.4C912.76 1060.4 913.66 1062.11 913.66 1064.79L913.65 1064.78ZM912.21 1064.78C912.21 1062.54 911.54 1061.47 910.22 1061.47C909.29 1061.47 908.59 1062.11 908.12 1062.81V1067.02C908.57 1067.69 909.24 1068.09 910.06 1068.09C911.45 1068.09 912.21 1067.03 912.21 1064.78Z" fill="#1765AB"/>
<path d="M917.55 1068.16C917.55 1068.5 917.47 1068.8 917.28 1069.23L916.24 1071.61H915.28L915.92 1069.02C915.66 1068.83 915.49 1068.51 915.49 1068.16C915.49 1067.6 915.94 1067.14 916.51 1067.14C917.12 1067.14 917.55 1067.6 917.55 1068.16ZM917.55 1062.19C917.55 1062.77 917.12 1063.23 916.51 1063.23C915.93 1063.23 915.49 1062.77 915.49 1062.19C915.49 1061.61 915.94 1061.17 916.51 1061.17C917.12 1061.17 917.55 1061.63 917.55 1062.19Z" fill="#1765AB"/>
<path d="M931.14 1058.87L930.39 1059.77C929.69 1059.21 929.03 1058.95 928.23 1058.95C926.5 1058.95 925.08 1060.12 925.08 1063.5C925.08 1066.88 926.46 1068.01 928.22 1068.01C929.28 1068.01 929.95 1067.58 930.59 1067.1L931.28 1067.98C930.66 1068.6 929.63 1069.2 928.17 1069.2C925.53 1069.2 923.61 1067.2 923.61 1063.5C923.61 1059.8 925.66 1057.8 928.16 1057.8C929.52 1057.8 930.29 1058.18 931.15 1058.87H931.14Z" fill="#1765AB"/>
<path d="M939.07 1065.26H933.64C933.78 1067.29 934.71 1068.09 935.99 1068.09C936.84 1068.09 937.46 1067.85 938.2 1067.34L938.79 1068.14C937.97 1068.8 937.04 1069.2 935.89 1069.2C933.57 1069.2 932.21 1067.55 932.21 1064.88C932.21 1062.21 933.52 1060.4 935.67 1060.4C937.93 1060.4 939.1 1061.98 939.1 1064.53C939.1 1064.82 939.08 1065.09 939.07 1065.27V1065.26ZM937.77 1064.14C937.77 1062.44 937.1 1061.47 935.7 1061.47C934.53 1061.47 933.75 1062.3 933.64 1064.27H937.77V1064.14Z" fill="#1765AB"/>
<path d="M947.86 1062.97V1069H946.52V1063.16C946.52 1061.86 945.99 1061.45 945.13 1061.45C944.14 1061.45 943.46 1062.07 942.89 1063V1069H941.55V1060.58H942.7L942.81 1061.84C943.43 1060.98 944.31 1060.38 945.45 1060.38C946.99 1060.38 947.87 1061.36 947.87 1062.96L947.86 1062.97Z" fill="#1765AB"/>
<path d="M955.94 1061.35L955.36 1062.2C954.61 1061.7 953.97 1061.46 953.17 1061.46C952.18 1061.46 951.54 1061.92 951.54 1062.64C951.54 1063.36 952.02 1063.68 953.41 1064.05C955.19 1064.51 956.18 1065.19 956.18 1066.66C956.18 1068.37 954.63 1069.19 952.93 1069.19C951.51 1069.19 950.51 1068.73 949.78 1068.09L950.5 1067.27C951.19 1067.78 951.96 1068.1 952.9 1068.1C954.02 1068.1 954.77 1067.59 954.77 1066.74C954.77 1065.89 954.34 1065.54 952.67 1065.09C950.86 1064.61 950.14 1063.86 950.14 1062.67C950.14 1061.34 951.4 1060.38 953.12 1060.38C954.27 1060.38 955.14 1060.73 955.94 1061.34V1061.35Z" fill="#1765AB"/>
<path d="M965.14 1064.78C965.14 1067.42 963.78 1069.2 961.43 1069.2C959.08 1069.2 957.73 1067.49 957.73 1064.81C957.73 1062.13 959.09 1060.39 961.44 1060.39C963.79 1060.39 965.14 1062.09 965.14 1064.78ZM959.17 1064.81C959.17 1067.03 959.97 1068.11 961.43 1068.11C962.89 1068.11 963.7 1067.04 963.7 1064.78C963.7 1062.52 962.9 1061.48 961.44 1061.48C959.98 1061.48 959.17 1062.55 959.17 1064.81Z" fill="#1765AB"/>
<path d="M978.32 1057.19V1069H977.15L977.01 1067.82C976.48 1068.65 975.63 1069.2 974.56 1069.2C972.53 1069.2 971.39 1067.47 971.39 1064.83C971.39 1062.19 972.62 1060.4 974.69 1060.4C975.71 1060.4 976.44 1060.88 976.98 1061.46V1057.04L978.32 1057.2V1057.19ZM976.98 1066.79V1062.6C976.47 1061.91 975.86 1061.46 974.98 1061.46C973.67 1061.46 972.84 1062.56 972.84 1064.81C972.84 1067.06 973.58 1068.12 974.84 1068.12C975.82 1068.12 976.42 1067.64 976.98 1066.79Z" fill="#1765AB"/>
<path d="M987.73 1068.25L987.41 1069.19C986.59 1069.08 986.07 1068.74 985.84 1067.89C985.25 1068.79 984.35 1069.19 983.31 1069.19C981.64 1069.19 980.65 1068.15 980.65 1066.65C980.65 1064.86 981.99 1063.9 984.3 1063.9H985.68V1063.23C985.68 1061.98 985.09 1061.5 983.87 1061.5C983.23 1061.5 982.46 1061.66 981.6 1061.96L981.26 1060.97C982.27 1060.59 983.18 1060.39 984.11 1060.39C986.11 1060.39 987.02 1061.41 987.02 1063.16V1067.07C987.02 1067.85 987.28 1068.09 987.72 1068.25H987.73ZM985.68 1066.79V1064.79H984.48C982.91 1064.79 982.08 1065.38 982.08 1066.58C982.08 1067.6 982.61 1068.16 983.62 1068.16C984.53 1068.16 985.2 1067.7 985.68 1066.78V1066.79Z" fill="#1765AB"/>
<path d="M1000.21 1059.11H995.87V1062.82H999.63V1063.94H995.87V1067.88H1000.48V1069H994.49V1057.99H1000.37L1000.21 1059.11Z" fill="#1765AB"/>
<path d="M1008.96 1057.19V1069H1007.79L1007.65 1067.82C1007.12 1068.65 1006.27 1069.2 1005.2 1069.2C1003.17 1069.2 1002.03 1067.47 1002.03 1064.83C1002.03 1062.19 1003.26 1060.4 1005.33 1060.4C1006.35 1060.4 1007.08 1060.88 1007.62 1061.46V1057.04L1008.96 1057.2V1057.19ZM1007.62 1066.79V1062.6C1007.11 1061.91 1006.5 1061.46 1005.62 1061.46C1004.31 1061.46 1003.48 1062.56 1003.48 1064.81C1003.48 1067.06 1004.22 1068.12 1005.48 1068.12C1006.46 1068.12 1007.06 1067.64 1007.62 1066.79Z" fill="#1765AB"/>
<path d="M1018.27 1069H1017.12L1017.01 1067.64C1016.39 1068.66 1015.59 1069.19 1014.37 1069.19C1012.88 1069.19 1012.02 1068.26 1012.02 1066.61V1060.58H1013.36V1066.47C1013.36 1067.67 1013.78 1068.12 1014.74 1068.12C1015.7 1068.12 1016.4 1067.5 1016.93 1066.62V1060.59H1018.27V1069.01V1069Z" fill="#1765AB"/>
<path d="M1026.95 1061.29L1026.29 1062.14C1025.73 1061.72 1025.19 1061.52 1024.46 1061.52C1023.08 1061.52 1022.2 1062.59 1022.2 1064.85C1022.2 1067.11 1023.08 1068.05 1024.46 1068.05C1025.18 1068.05 1025.69 1067.83 1026.32 1067.39L1026.94 1068.27C1026.22 1068.88 1025.37 1069.2 1024.41 1069.2C1022.17 1069.2 1020.76 1067.58 1020.76 1064.86C1020.76 1062.14 1022.15 1060.39 1024.41 1060.39C1025.39 1060.39 1026.17 1060.65 1026.94 1061.29H1026.95Z" fill="#1765AB"/>
<path d="M1035.12 1068.25L1034.8 1069.19C1033.98 1069.08 1033.46 1068.74 1033.23 1067.89C1032.64 1068.79 1031.74 1069.19 1030.7 1069.19C1029.03 1069.19 1028.04 1068.15 1028.04 1066.65C1028.04 1064.86 1029.38 1063.9 1031.69 1063.9H1033.07V1063.23C1033.07 1061.98 1032.48 1061.5 1031.26 1061.5C1030.62 1061.5 1029.85 1061.66 1028.99 1061.96L1028.65 1060.97C1029.66 1060.59 1030.57 1060.39 1031.5 1060.39C1033.5 1060.39 1034.41 1061.41 1034.41 1063.16V1067.07C1034.41 1067.85 1034.67 1068.09 1035.11 1068.25H1035.12ZM1033.07 1066.79V1064.79H1031.87C1030.3 1064.79 1029.47 1065.38 1029.47 1066.58C1029.47 1067.6 1030 1068.16 1031.01 1068.16C1031.92 1068.16 1032.59 1067.7 1033.07 1066.78V1066.79Z" fill="#1765AB"/>
<path d="M1040.85 1069.18V1069.93C1041.94 1070.03 1042.34 1070.6 1042.34 1071.26C1042.34 1072.28 1041.48 1072.81 1040.42 1072.81C1039.83 1072.81 1039.33 1072.67 1039.01 1072.43L1039.38 1071.66C1039.68 1071.82 1039.97 1071.92 1040.39 1071.92C1040.84 1071.92 1041.21 1071.73 1041.21 1071.26C1041.21 1070.79 1040.81 1070.57 1039.79 1070.57L1039.95 1069.15C1038.06 1068.89 1036.91 1067.32 1036.91 1064.86C1036.91 1062.17 1038.3 1060.39 1040.56 1060.39C1041.54 1060.39 1042.32 1060.65 1043.09 1061.29L1042.43 1062.14C1041.87 1061.72 1041.33 1061.52 1040.6 1061.52C1039.22 1061.52 1038.34 1062.59 1038.34 1064.85C1038.34 1067.11 1039.22 1068.05 1040.6 1068.05C1041.32 1068.05 1041.83 1067.83 1042.46 1067.39L1043.08 1068.27C1042.44 1068.81 1041.69 1069.13 1040.86 1069.18H1040.85Z" fill="#1765AB"/>
<path d="M1051.25 1068.25L1050.93 1069.19C1050.11 1069.08 1049.59 1068.74 1049.36 1067.89C1048.77 1068.79 1047.87 1069.19 1046.83 1069.19C1045.16 1069.19 1044.17 1068.15 1044.17 1066.65C1044.17 1064.86 1045.51 1063.9 1047.82 1063.9H1049.2V1063.23C1049.2 1061.98 1048.61 1061.5 1047.39 1061.5C1046.75 1061.5 1045.98 1061.66 1045.12 1061.96L1044.78 1060.97C1045.79 1060.59 1046.7 1060.39 1047.63 1060.39C1049.63 1060.39 1050.54 1061.41 1050.54 1063.16V1067.07C1050.54 1067.85 1050.8 1068.09 1051.24 1068.25H1051.25ZM1045.78 1058.42L1044.96 1058C1045.33 1057.25 1045.87 1056.67 1046.64 1056.67C1047.5 1056.67 1047.9 1057.42 1048.5 1057.42C1048.82 1057.42 1049.06 1057.2 1049.36 1056.72L1050.18 1057.14C1049.78 1058.02 1049.19 1058.47 1048.5 1058.47C1047.67 1058.47 1047.22 1057.7 1046.64 1057.7C1046.27 1057.7 1046.05 1057.94 1045.78 1058.42ZM1049.2 1066.79V1064.79H1048C1046.43 1064.79 1045.6 1065.38 1045.6 1066.58C1045.6 1067.6 1046.13 1068.16 1047.14 1068.16C1048.05 1068.16 1048.72 1067.7 1049.2 1066.78V1066.79Z" fill="#1765AB"/>
<path d="M1060.43 1064.78C1060.43 1067.42 1059.07 1069.2 1056.72 1069.2C1054.37 1069.2 1053.02 1067.49 1053.02 1064.81C1053.02 1062.13 1054.38 1060.39 1056.73 1060.39C1059.08 1060.39 1060.43 1062.09 1060.43 1064.78ZM1054.46 1064.81C1054.46 1067.03 1055.26 1068.11 1056.72 1068.11C1058.18 1068.11 1058.99 1067.04 1058.99 1064.78C1058.99 1062.52 1058.19 1061.48 1056.73 1061.48C1055.27 1061.48 1054.46 1062.55 1054.46 1064.81Z" fill="#1765AB"/>
<path d="M1073.31 1059.06L1072.56 1059.91C1071.73 1059.24 1070.96 1058.95 1070.03 1058.95C1068.86 1058.95 1067.98 1059.51 1067.98 1060.58C1067.98 1061.56 1068.44 1062.02 1070.43 1062.63C1072.24 1063.17 1073.66 1063.88 1073.66 1065.94C1073.66 1067.86 1072.22 1069.19 1069.8 1069.19C1068.23 1069.19 1067.01 1068.66 1066.1 1067.78L1066.87 1066.91C1067.7 1067.6 1068.57 1068.03 1069.78 1068.03C1071.12 1068.03 1072.21 1067.34 1072.21 1065.98C1072.21 1064.84 1071.67 1064.35 1069.78 1063.77C1067.62 1063.11 1066.55 1062.3 1066.55 1060.62C1066.55 1058.94 1067.96 1057.79 1069.96 1057.79C1071.46 1057.79 1072.41 1058.24 1073.31 1059.05V1059.06Z" fill="#1765AB"/>
<path d="M1082.11 1069H1080.96L1080.85 1067.64C1080.23 1068.66 1079.43 1069.19 1078.21 1069.19C1076.72 1069.19 1075.86 1068.26 1075.86 1066.61V1060.58H1077.2V1066.47C1077.2 1067.67 1077.62 1068.12 1078.58 1068.12C1079.54 1068.12 1080.24 1067.5 1080.77 1066.62V1060.59H1082.11V1069.01V1069Z" fill="#1765AB"/>
<path d="M1092.1 1064.78C1092.1 1067.36 1090.98 1069.2 1088.82 1069.2C1087.88 1069.2 1087.11 1068.86 1086.58 1068.21V1072.23L1085.24 1072.39V1060.59H1086.39L1086.5 1061.76C1087.11 1060.9 1088 1060.4 1089 1060.4C1091.21 1060.4 1092.11 1062.11 1092.11 1064.79L1092.1 1064.78ZM1090.66 1064.78C1090.66 1062.54 1089.99 1061.47 1088.67 1061.47C1087.74 1061.47 1087.04 1062.11 1086.57 1062.81V1067.02C1087.02 1067.69 1087.69 1068.09 1088.51 1068.09C1089.9 1068.09 1090.66 1067.03 1090.66 1064.78Z" fill="#1765AB"/>
<path d="M1100.91 1065.26H1095.48C1095.62 1067.29 1096.55 1068.09 1097.83 1068.09C1098.68 1068.09 1099.3 1067.85 1100.04 1067.34L1100.63 1068.14C1099.81 1068.8 1098.88 1069.2 1097.73 1069.2C1095.41 1069.2 1094.05 1067.55 1094.05 1064.88C1094.05 1062.21 1095.36 1060.4 1097.51 1060.4C1099.77 1060.4 1100.94 1061.98 1100.94 1064.53C1100.94 1064.82 1100.92 1065.09 1100.91 1065.27V1065.26ZM1099.61 1064.14C1099.61 1062.44 1098.94 1061.47 1097.54 1061.47C1096.37 1061.47 1095.59 1062.3 1095.48 1064.27H1099.61V1064.14Z" fill="#1765AB"/>
<path d="M1107.76 1060.49L1107.52 1061.8C1107.26 1061.74 1107.09 1061.7 1106.78 1061.7C1105.71 1061.7 1105.1 1062.45 1104.72 1064.07V1069H1103.38V1060.58H1104.53L1104.66 1062.34C1105.11 1061.04 1105.89 1060.39 1106.93 1060.39C1107.22 1060.39 1107.52 1060.42 1107.76 1060.49Z" fill="#1765AB"/>
<path d="M1111.12 1057.54C1111.12 1058.07 1110.74 1058.47 1110.16 1058.47C1109.58 1058.47 1109.22 1058.07 1109.22 1057.54C1109.22 1057.01 1109.6 1056.61 1110.16 1056.61C1110.72 1056.61 1111.12 1057.01 1111.12 1057.54ZM1110.85 1069H1109.51V1060.58H1110.85V1069Z" fill="#1765AB"/>
<path d="M1120.75 1064.78C1120.75 1067.42 1119.39 1069.2 1117.04 1069.2C1114.69 1069.2 1113.34 1067.49 1113.34 1064.81C1113.34 1062.13 1114.7 1060.39 1117.05 1060.39C1119.4 1060.39 1120.75 1062.09 1120.75 1064.78ZM1114.78 1064.81C1114.78 1067.03 1115.58 1068.11 1117.04 1068.11C1118.5 1068.11 1119.31 1067.04 1119.31 1064.78C1119.31 1062.52 1118.51 1061.48 1117.05 1061.48C1115.59 1061.48 1114.78 1062.55 1114.78 1064.81Z" fill="#1765AB"/>
<path d="M1127.65 1060.49L1127.41 1061.8C1127.15 1061.74 1126.98 1061.7 1126.67 1061.7C1125.6 1061.7 1124.99 1062.45 1124.61 1064.07V1069H1123.27V1060.58H1124.42L1124.55 1062.34C1125 1061.04 1125.78 1060.39 1126.82 1060.39C1127.11 1060.39 1127.41 1060.42 1127.65 1060.49Z" fill="#1765AB"/>
<path d="M1366.53 638.85H1359.28V644.07H1365.6V647.15H1359.28V652.69H1367.05V655.82H1355.01V635.75H1366.99L1366.53 638.85Z" fill="white"/>
<path d="M1382.8 653.5L1381.93 656.23C1380.19 656.08 1379.03 655.5 1378.39 653.97C1377.29 655.65 1375.6 656.29 1373.78 656.29C1370.7 656.29 1368.79 654.32 1368.79 651.53C1368.79 648.16 1371.31 646.34 1375.87 646.34H1377.64V645.59C1377.64 643.67 1376.83 643.07 1374.88 643.07C1373.87 643.07 1372.39 643.36 1370.82 643.88L1369.89 641.12C1371.8 640.37 1373.83 639.99 1375.57 639.99C1379.83 639.99 1381.66 641.88 1381.66 645.36V651.57C1381.66 652.82 1382.04 653.25 1382.79 653.51L1382.8 653.5ZM1377.64 651.61V648.68H1376.28C1374.05 648.68 1372.94 649.49 1372.94 651.17C1372.94 652.53 1373.64 653.32 1374.91 653.32C1376.1 653.32 1377 652.71 1377.64 651.61Z" fill="white"/>
<path d="M1401.48 645.7C1401.48 653.79 1396.55 655.82 1391.62 655.82H1385.88V635.75H1391.13C1396.44 635.75 1401.49 637.4 1401.49 645.7H1401.48ZM1390.14 638.88V652.69H1391.88C1394.81 652.69 1397.04 651.33 1397.04 645.7C1397.04 640.07 1394.69 638.88 1391.79 638.88H1390.14Z" fill="white"/>
<path d="M1352.29 676.11L1345.1 693.25L1341.36 692L1348.03 676.39H1339.97V673.26H1352.3V676.1L1352.29 676.11Z" fill="white"/>
<path d="M1368.16 683.08C1368.16 689.61 1365.69 693.29 1360.97 693.29C1356.25 693.29 1353.81 689.61 1353.81 683.08C1353.81 676.55 1356.27 672.9 1360.97 672.9C1365.67 672.9 1368.16 676.53 1368.16 683.08ZM1358.04 683.08C1358.04 688.39 1358.94 690.19 1360.97 690.19C1363 690.19 1363.93 688.48 1363.93 683.08C1363.93 677.68 1363 675.97 1360.97 675.97C1358.94 675.97 1358.04 677.77 1358.04 683.08Z" fill="white"/>
<path d="M1375.32 690.79C1375.32 691.6 1375.06 692.36 1374.51 693.63L1372.63 697.87H1370.22L1371.44 692.82C1370.77 692.38 1370.37 691.63 1370.37 690.79C1370.37 689.4 1371.44 688.32 1372.84 688.32C1374.24 688.32 1375.33 689.39 1375.33 690.79H1375.32Z" fill="white"/>
<path d="M1389.56 676.26H1382.34V680.76C1383.33 680.3 1384.34 680.09 1385.3 680.09C1388.52 680.09 1390.9 682.41 1390.9 686.41C1390.9 690.41 1387.94 693.29 1383.42 693.29C1380.58 693.29 1378.6 692.13 1377.1 690.45L1379.42 688.27C1380.46 689.46 1381.68 690.13 1383.31 690.13C1385.4 690.13 1386.67 688.83 1386.67 686.42C1386.67 683.87 1385.42 682.97 1383.71 682.97C1382.87 682.97 1382.17 683.17 1381.27 683.67H1378.4V673.29H1390.06L1389.57 676.28L1389.56 676.26Z" fill="white"/>
<path d="M1402.38 678.03C1402.38 681.19 1400.2 683.16 1397.33 683.16C1394.46 683.16 1392.28 681.19 1392.28 678.03C1392.28 674.87 1394.49 672.9 1397.33 672.9C1400.17 672.9 1402.38 674.87 1402.38 678.03ZM1395.33 678.03C1395.33 679.31 1395.74 680.64 1397.33 680.64C1398.92 680.64 1399.3 679.36 1399.3 678.03C1399.3 676.7 1398.92 675.42 1397.33 675.42C1395.74 675.42 1395.33 676.7 1395.33 678.03ZM1411.72 673.65L1398.26 693.93L1395.68 692.28L1409.11 672L1411.72 673.65ZM1415.06 688.15C1415.06 691.28 1412.88 693.28 1410.01 693.28C1407.14 693.28 1404.93 691.28 1404.93 688.15C1404.93 685.02 1407.16 683.02 1410.01 683.02C1412.86 683.02 1415.06 684.99 1415.06 688.15ZM1408.01 688.15C1408.01 689.43 1408.42 690.76 1410.01 690.76C1411.6 690.76 1411.98 689.45 1411.98 688.15C1411.98 686.85 1411.6 685.54 1410.01 685.54C1408.42 685.54 1408.01 686.82 1408.01 688.15Z" fill="white"/>
<path d="M414.95 698.88C414.95 703.52 411.64 705.64 407.06 705.64H404.77V712.49H400.51V692.42H406.72C411.83 692.42 414.96 694.51 414.96 698.89L414.95 698.88ZM410.54 698.88C410.54 696.53 409.15 695.49 406.65 695.49H404.77V702.51H406.71C409.06 702.51 410.54 701.61 410.54 698.88Z" fill="white"/>
<path d="M426.58 696.91L425.88 700.88C425.42 700.76 425.04 700.68 424.52 700.68C422.64 700.68 421.76 702.07 421.21 704.54V712.49H417.09V697.12H420.66L421.04 700.11C421.76 697.96 423.24 696.69 425.04 696.69C425.59 696.69 426.05 696.78 426.58 696.92V696.91Z" fill="white"/>
<path d="M440.65 706.05H431.05C431.34 709.01 432.73 709.88 434.71 709.88C436.02 709.88 437.12 709.47 438.45 708.55L440.16 710.87C438.65 712.09 436.74 712.96 434.33 712.96C429.4 712.96 426.82 709.71 426.82 704.9C426.82 700.09 429.31 696.66 433.81 696.66C438.31 696.66 440.74 699.56 440.74 704.46C440.74 704.98 440.68 705.62 440.65 706.06V706.05ZM436.65 703.29C436.65 700.97 435.87 699.46 433.89 699.46C432.27 699.46 431.25 700.56 431.05 703.46H436.65V703.29Z" fill="white"/>
<path d="M454.39 698.51L452.82 700.86C451.57 700.08 450.33 699.64 448.99 699.64C447.65 699.64 446.87 700.19 446.87 701.03C446.87 701.93 447.39 702.34 450.09 703.12C453.16 703.96 454.91 705.24 454.91 707.96C454.91 711.15 451.92 712.95 448.27 712.95C445.6 712.95 443.45 712.05 442 710.72L444.03 708.46C445.19 709.36 446.61 709.97 448.15 709.97C449.69 709.97 450.67 709.33 450.67 708.29C450.67 707.13 450.12 706.75 447.28 705.97C444.18 705.1 442.73 703.56 442.73 701.24C442.73 698.63 445.11 696.66 448.82 696.66C451.05 696.66 452.94 697.36 454.39 698.52V698.51Z" fill="white"/>
<path d="M470.52 706.05H460.92C461.21 709.01 462.6 709.88 464.58 709.88C465.89 709.88 466.99 709.47 468.32 708.55L470.03 710.87C468.52 712.09 466.61 712.96 464.2 712.96C459.27 712.96 456.69 709.71 456.69 704.9C456.69 700.09 459.18 696.66 463.68 696.66C468.18 696.66 470.61 699.56 470.61 704.46C470.61 704.98 470.55 705.62 470.52 706.06V706.05ZM466.52 703.29C466.52 700.97 465.74 699.46 463.76 699.46C462.14 699.46 461.12 700.56 460.92 703.46H466.52V703.29Z" fill="white"/>
<path d="M486.46 701.29V712.49H482.34V701.99C482.34 700.22 481.7 699.73 480.66 699.73C479.47 699.73 478.54 700.51 477.7 701.88V712.5H473.58V697.13H477.15L477.47 699.07C478.72 697.53 480.2 696.66 482.17 696.66C484.87 696.66 486.46 698.4 486.46 701.3V701.29Z" fill="white"/>
<path d="M501.89 698.51L500.09 700.95C499.1 700.2 498.2 699.85 497.07 699.85C495.01 699.85 493.79 701.33 493.79 704.9C493.79 708.47 495.1 709.66 497.04 709.66C498.17 709.66 498.95 709.31 500.09 708.59L501.89 711.17C500.5 712.3 498.87 712.97 496.84 712.97C492.26 712.97 489.44 709.84 489.44 704.93C489.44 700.02 492.28 696.66 496.78 696.66C498.84 696.66 500.43 697.27 501.88 698.52L501.89 698.51Z" fill="white"/>
<path d="M508.79 691.6C508.79 692.96 507.75 694.01 506.27 694.01C504.79 694.01 503.78 692.97 503.78 691.6C503.78 690.23 504.8 689.19 506.27 689.19C507.74 689.19 508.79 690.23 508.79 691.6ZM508.35 712.48H504.23V697.11H508.35V712.48Z" fill="white"/>
<path d="M525.3 710.17L524.43 712.9C522.69 712.75 521.53 712.17 520.89 710.64C519.79 712.32 518.1 712.96 516.28 712.96C513.2 712.96 511.29 710.99 511.29 708.2C511.29 704.83 513.81 703.01 518.37 703.01H520.14V702.26C520.14 700.34 519.33 699.74 517.38 699.74C516.37 699.74 514.89 700.03 513.32 700.55L512.39 697.79C514.3 697.04 516.33 696.66 518.07 696.66C522.33 696.66 524.16 698.55 524.16 702.03V708.24C524.16 709.49 524.54 709.92 525.29 710.18L525.3 710.17ZM520.14 708.28V705.35H518.78C516.55 705.35 515.44 706.16 515.44 707.84C515.44 709.2 516.14 709.99 517.41 709.99C518.6 709.99 519.5 709.38 520.14 708.28Z" fill="white"/>
<path d="M527.85 708.77V690.99L531.97 690.53V708.66C531.97 709.33 532.23 709.68 532.81 709.68C533.13 709.68 533.39 709.62 533.62 709.51L534.46 712.44C533.79 712.73 532.86 712.96 531.82 712.96C529.33 712.96 527.85 711.45 527.85 708.78V708.77Z" fill="white"/>
<path d="M444.15 737.13C444.15 745.14 440.49 748.47 432.4 750.27L431.53 747.34C436.46 746.12 439.1 744.35 439.74 740.64C438.81 741.83 437.51 742.64 435.62 742.64C432.57 742.64 430.08 740.2 430.08 736.23C430.08 732.26 433.18 729.56 437.1 729.56C441.77 729.56 444.15 732.66 444.15 737.13ZM439.94 737.83C440 733.94 439.16 732.55 437.1 732.55C435.33 732.55 434.2 733.77 434.2 736.12C434.2 738.76 435.36 739.69 436.81 739.69C438.06 739.69 439.13 739.02 439.94 737.83Z" fill="white"/>
<path d="M455.26 749.49H451.23V734L446.94 736.64L445.14 733.86L451.64 729.94H455.27V749.49H455.26Z" fill="white"/>
<path d="M463.78 747.46C463.78 748.27 463.52 749.03 462.97 750.3L461.09 754.54H458.68L459.9 749.49C459.23 749.05 458.83 748.3 458.83 747.46C458.83 746.07 459.9 744.99 461.3 744.99C462.7 744.99 463.79 746.06 463.79 747.46H463.78Z" fill="white"/>
<path d="M479.56 745.14H477.27V749.49H473.27L473.24 745.14H464.97V742.36L470.6 729.51L474.08 730.82L469.24 742.02H473.3L473.73 737.23H477.27V742.02H479.56V745.15V745.14Z" fill="white"/>
<path d="M490.12 734.69C490.12 737.85 487.94 739.82 485.07 739.82C482.2 739.82 480.02 737.85 480.02 734.69C480.02 731.53 482.23 729.56 485.07 729.56C487.91 729.56 490.12 731.53 490.12 734.69ZM483.07 734.69C483.07 735.97 483.48 737.3 485.07 737.3C486.66 737.3 487.04 736.02 487.04 734.69C487.04 733.36 486.66 732.08 485.07 732.08C483.48 732.08 483.07 733.36 483.07 734.69ZM499.46 730.31L486 750.59L483.42 748.94L496.85 728.66L499.46 730.31ZM502.8 744.81C502.8 747.94 500.62 749.94 497.75 749.94C494.88 749.94 492.67 747.94 492.67 744.81C492.67 741.68 494.9 739.68 497.75 739.68C500.6 739.68 502.8 741.65 502.8 744.81ZM495.75 744.81C495.75 746.09 496.16 747.42 497.75 747.42C499.34 747.42 499.72 746.11 499.72 744.81C499.72 743.51 499.34 742.2 497.75 742.2C496.16 742.2 495.75 743.48 495.75 744.81Z" fill="white"/>
<path d="M410 909.86H405.66V918.11H398.07L398.02 909.86H382.35V904.58L393.02 880.22L399.62 882.69L390.44 903.92H398.14L398.97 894.85H405.68V903.92H410.02V909.86H410Z" fill="#1765AB"/>
<path d="M438.55 894.69C438.55 909.87 431.62 916.19 416.28 919.6L414.63 914.05C423.98 911.74 428.98 908.38 430.19 901.35C428.43 903.6 425.96 905.14 422.38 905.14C416.61 905.14 411.88 900.52 411.88 892.99C411.88 885.46 417.76 880.34 425.19 880.34C434.04 880.34 438.55 886.22 438.55 894.69ZM430.58 896.01C430.69 888.64 429.1 886 425.19 886C421.84 886 419.69 888.31 419.69 892.76C419.69 897.76 421.89 899.52 424.64 899.52C427.01 899.52 429.04 898.26 430.58 896V896.01Z" fill="#1765AB"/>
<path d="M464.73 890.84C464.73 896.83 461.49 901.29 449.99 912.07H465.55L464.67 918.12H441.08V912.46C453.67 899.87 456.7 896.46 456.7 891.51C456.7 888.32 454.67 886.4 451.64 886.4C448.84 886.4 446.91 887.61 444.66 890.31L439.99 886.57C442.96 882.67 447.03 880.36 452.36 880.36C460.28 880.36 464.73 885.09 464.73 890.86V890.84Z" fill="#1765AB"/>
<path d="M478.81 914.26C478.81 916.84 476.72 918.99 474.08 918.99C471.44 918.99 469.41 916.85 469.41 914.26C469.41 911.67 471.5 909.59 474.08 909.59C476.66 909.59 478.81 911.73 478.81 914.26Z" fill="#1765AB"/>
<path d="M495.42 918.11H487.78V888.74L479.64 893.74L476.23 888.46L488.55 881.04H495.42V918.11Z" fill="#1765AB"/>
<path d="M529.68 909.86H525.34V918.11H517.75L517.7 909.86H502.03V904.58L512.7 880.22L519.3 882.69L510.12 903.92H517.82L518.65 894.85H525.36V903.92H529.7V909.86H529.68Z" fill="#1765AB"/>
<path d="M547.4 918.11H539.76V888.74L531.62 893.74L528.21 888.46L540.53 881.04H547.4V918.11Z" fill="#1765AB"/>
<path d="M1379.11 888.34C1379.11 892.9 1376.31 895.87 1371.85 897.08C1376.47 897.58 1380.32 900.38 1380.32 906.21C1380.32 912.48 1375.37 917.59 1366.52 917.59C1361.19 917.59 1357.06 915.61 1354.2 912.09L1358.43 908.02C1360.9 910.49 1363.22 911.54 1366.07 911.54C1369.81 911.54 1372.28 909.4 1372.28 905.71C1372.28 901.59 1369.97 900.1 1365.9 900.1H1362.88L1363.81 894.6H1365.85C1369.2 894.6 1371.51 892.73 1371.51 889.38C1371.51 886.52 1369.47 884.82 1366.29 884.82C1363.49 884.82 1361.23 885.86 1358.98 888.01L1355.07 883.78C1358.42 880.59 1362.38 878.94 1367.06 878.94C1374.92 878.94 1379.1 883.17 1379.1 888.34H1379.11Z" fill="#1765AB"/>
<path d="M1393.75 912.87C1393.75 915.45 1391.66 917.6 1389.02 917.6C1386.38 917.6 1384.35 915.46 1384.35 912.87C1384.35 910.28 1386.44 908.2 1389.02 908.2C1391.6 908.2 1393.75 910.34 1393.75 912.87Z" fill="#1765AB"/>
<path d="M1423.66 908.47H1419.32V916.72H1411.73L1411.68 908.47H1396.01V903.19L1406.68 878.83L1413.28 881.3L1404.1 902.53H1411.8L1412.63 893.46H1419.34V902.53H1423.68V908.47H1423.66Z" fill="#1765AB"/>
<path d="M1448.91 885.32H1435.22V893.84C1437.09 892.96 1439.01 892.58 1440.83 892.58C1446.93 892.58 1451.44 896.98 1451.44 904.57C1451.44 912.16 1445.83 917.6 1437.25 917.6C1431.86 917.6 1428.12 915.4 1425.26 912.21L1429.66 908.09C1431.64 910.34 1433.95 911.61 1437.03 911.61C1440.99 911.61 1443.41 909.14 1443.41 904.57C1443.41 899.73 1441.05 898.03 1437.8 898.03C1436.21 898.03 1434.89 898.42 1433.18 899.35H1427.74V879.66H1449.85L1448.91 885.32Z" fill="#1765AB"/>
<path d="M1478 889.45C1478 895.44 1474.76 899.9 1463.26 910.68H1478.82L1477.94 916.73H1454.35V911.07C1466.94 898.48 1469.97 895.07 1469.97 890.12C1469.97 886.93 1467.94 885.01 1464.91 885.01C1462.11 885.01 1460.18 886.22 1457.93 888.92L1453.26 885.18C1456.23 881.28 1460.3 878.97 1465.63 878.97C1473.55 878.97 1478 883.7 1478 889.47V889.45Z" fill="#1765AB"/>
<path d="M1492.08 912.87C1492.08 915.45 1489.99 917.6 1487.35 917.6C1484.71 917.6 1482.68 915.46 1482.68 912.87C1482.68 910.28 1484.77 908.2 1487.35 908.2C1489.93 908.2 1492.08 910.34 1492.08 912.87Z" fill="#1765AB"/>
<path d="M1518.26 885.05L1504.62 917.55L1497.53 915.19L1510.18 885.6H1494.89V879.66H1518.26V885.05Z" fill="#1765AB"/>
<path d="M1543.23 885.32H1529.54V893.84C1531.41 892.96 1533.33 892.58 1535.15 892.58C1541.25 892.58 1545.76 896.98 1545.76 904.57C1545.76 912.16 1540.15 917.6 1531.57 917.6C1526.18 917.6 1522.44 915.4 1519.58 912.21L1523.98 908.09C1525.96 910.34 1528.27 911.61 1531.35 911.61C1535.31 911.61 1537.73 909.14 1537.73 904.57C1537.73 899.73 1535.37 898.03 1532.12 898.03C1530.53 898.03 1529.21 898.42 1527.5 899.35H1522.06V879.66H1544.17L1543.23 885.32Z" fill="#1765AB"/>
<path d="M1576.73 904.07C1576.73 911.77 1571.56 917.6 1563.7 917.6C1554.02 917.6 1550.01 910.34 1550.01 899.67C1550.01 887.19 1555.95 878.94 1565.63 878.94C1568.98 878.94 1571.79 879.87 1573.88 881.3L1571.02 886.09C1569.42 885.15 1567.77 884.6 1565.8 884.6C1561.34 884.6 1558.49 888.67 1558.1 895.71C1560.41 893.07 1563.21 891.92 1566.18 891.92C1572.12 891.92 1576.74 896.21 1576.74 904.07H1576.73ZM1568.87 904.18C1568.87 899.12 1567.11 897.42 1564.14 897.42C1561.83 897.42 1559.74 898.74 1558.09 900.83C1558.2 908.69 1559.8 911.88 1563.75 911.88C1567.21 911.88 1568.86 908.86 1568.86 904.18H1568.87Z" fill="#1765AB"/>
<path d="M418.22 465.96H411.97V470.46H417.42V473.11H411.97V477.88H418.67V480.58H408.3V463.28H418.62L418.22 465.95V465.96Z" fill="white"/>
<path d="M432.25 478.59L431.5 480.94C430 480.82 429 480.32 428.45 478.99C427.5 480.44 426.05 480.99 424.48 480.99C421.83 480.99 420.18 479.29 420.18 476.89C420.18 473.99 422.35 472.42 426.28 472.42H427.8V471.77C427.8 470.12 427.1 469.6 425.43 469.6C424.55 469.6 423.28 469.85 421.93 470.3L421.13 467.93C422.78 467.28 424.53 466.96 426.03 466.96C429.7 466.96 431.28 468.58 431.28 471.58V476.93C431.28 478.01 431.61 478.38 432.25 478.6V478.59ZM427.8 476.97V474.45H426.63C424.71 474.45 423.75 475.15 423.75 476.6C423.75 477.77 424.35 478.45 425.45 478.45C426.47 478.45 427.25 477.92 427.8 476.98V476.97Z" fill="white"/>
<path d="M448.35 471.86C448.35 478.83 444.1 480.58 439.85 480.58H434.9V463.28H439.42C443.99 463.28 448.34 464.7 448.34 471.85L448.35 471.86ZM438.58 465.99V477.89H440.08C442.6 477.89 444.53 476.72 444.53 471.87C444.53 467.02 442.51 466 440.01 466H438.59L438.58 465.99Z" fill="white"/>
<path d="M413.76 507.04C413.76 509.79 411.36 511.99 407.36 511.99C403.36 511.99 401.09 509.82 401.09 507.12C401.09 505.07 402.29 503.75 404.26 502.87C402.46 501.84 401.76 500.49 401.76 498.9C401.76 496.15 404.26 494.43 407.43 494.43C410.6 494.43 413.1 495.95 413.1 498.75C413.1 500.25 412.25 501.55 410.35 502.55C412.65 503.62 413.75 505.07 413.75 507.05L413.76 507.04ZM410.19 507.01C410.19 505.54 409.41 504.86 407.34 504.11L406.54 503.84C405.29 504.49 404.66 505.56 404.66 506.96C404.66 508.46 405.74 509.38 407.46 509.38C409.18 509.38 410.18 508.38 410.18 507.01H410.19ZM405.22 498.94C405.22 500.24 406.02 500.86 407.52 501.46L408.02 501.63C409.27 500.83 409.67 500.03 409.67 498.91C409.67 497.69 408.92 496.83 407.47 496.83C406.02 496.83 405.22 497.56 405.22 498.93V498.94Z" fill="white"/>
<path d="M419.74 509.84C419.74 510.54 419.51 511.19 419.04 512.29L417.42 515.94H415.35L416.4 511.59C415.82 511.21 415.48 510.56 415.48 509.84C415.48 508.64 416.4 507.72 417.6 507.72C418.8 507.72 419.75 508.64 419.75 509.84H419.74Z" fill="white"/>
<path d="M433.56 505.84C433.56 509.34 431.21 511.99 427.64 511.99C423.24 511.99 421.42 508.69 421.42 503.84C421.42 498.17 424.12 494.42 428.52 494.42C430.04 494.42 431.32 494.84 432.27 495.49L430.97 497.66C430.25 497.24 429.5 496.99 428.59 496.99C426.57 496.99 425.27 498.84 425.09 502.04C426.14 500.84 427.41 500.32 428.76 500.32C431.46 500.32 433.56 502.27 433.56 505.84ZM429.99 505.89C429.99 503.59 429.19 502.82 427.84 502.82C426.79 502.82 425.84 503.42 425.09 504.37C425.14 507.94 425.87 509.39 427.66 509.39C429.24 509.39 429.99 508.02 429.99 505.89Z" fill="white"/>
<path d="M443.79 498.84C443.79 501.56 441.92 503.26 439.44 503.26C436.96 503.26 435.09 501.56 435.09 498.84C435.09 496.12 436.99 494.42 439.44 494.42C441.89 494.42 443.79 496.12 443.79 498.84ZM437.72 498.84C437.72 499.94 438.07 501.09 439.44 501.09C440.81 501.09 441.14 499.99 441.14 498.84C441.14 497.69 440.82 496.59 439.44 496.59C438.06 496.59 437.72 497.69 437.72 498.84ZM451.84 495.07L440.24 512.54L438.02 511.12L449.59 493.65L451.84 495.07ZM454.72 507.57C454.72 510.27 452.84 511.99 450.37 511.99C447.9 511.99 446 510.27 446 507.57C446 504.87 447.92 503.15 450.37 503.15C452.82 503.15 454.72 504.85 454.72 507.57ZM448.65 507.57C448.65 508.67 449 509.82 450.37 509.82C451.74 509.82 452.07 508.7 452.07 507.57C452.07 506.44 451.74 505.32 450.37 505.32C449 505.32 448.65 506.42 448.65 507.57Z" fill="white"/>
<path d="M1154.33 738.38C1154.33 741.84 1152.61 744.45 1145.65 750.79H1154.79L1154.26 754.78H1139.74V751.08C1147.23 743.69 1148.98 741.67 1148.98 738.9C1148.98 737.09 1147.86 736 1146.11 736C1144.49 736 1143.37 736.73 1142.05 738.31L1138.98 735.87C1140.76 733.53 1143.3 732.01 1146.64 732.01C1151.62 732.01 1154.33 734.91 1154.33 738.38Z" fill="#FF6C00"/>
<path d="M1162.78 752.34C1162.78 753.99 1161.46 755.34 1159.81 755.34C1158.16 755.34 1156.81 753.99 1156.81 752.34C1156.81 750.69 1158.13 749.37 1159.81 749.37C1161.49 749.37 1162.78 750.72 1162.78 752.34Z" fill="#FF6C00"/>
<path d="M1180.99 749.96H1178.48V754.78H1173.4L1173.37 749.96H1163.96V746.5L1170.3 731.91L1174.72 733.56L1169.34 746.07H1173.43L1173.99 740.79H1178.48V746.07H1180.99V749.96Z" fill="#FF6C00"/>
<path d="M1196.47 737.68C1196.47 740.39 1194.85 742.2 1192.11 742.99C1194.88 743.29 1197.19 744.94 1197.19 748.47C1197.19 752.2 1194.19 755.33 1188.68 755.33C1185.31 755.33 1182.77 754.08 1181.02 751.96L1183.83 749.22C1185.31 750.71 1186.63 751.37 1188.38 751.37C1190.43 751.37 1191.84 750.18 1191.84 748.14C1191.84 745.8 1190.55 744.94 1188.21 744.94H1186.36L1186.92 741.34H1188.21C1190.19 741.34 1191.41 740.28 1191.41 738.44C1191.41 736.82 1190.25 735.87 1188.44 735.87C1186.79 735.87 1185.4 736.53 1184.08 737.82L1181.51 735.01C1183.59 733.03 1186.06 732.01 1189.03 732.01C1193.85 732.01 1196.46 734.55 1196.46 737.69L1196.47 737.68Z" fill="#FF6C00"/>
<path d="M1216.2 749.96H1213.69V754.78H1208.61L1208.58 749.96H1199.17V746.5L1205.51 731.91L1209.93 733.56L1204.55 746.07H1208.64L1209.2 740.79H1213.69V746.07H1216.2V749.96Z" fill="#FF6C00"/>
<path d="M1223.82 752.34C1223.82 753.99 1222.5 755.34 1220.85 755.34C1219.2 755.34 1217.85 753.99 1217.85 752.34C1217.85 750.69 1219.17 749.37 1220.85 749.37C1222.53 749.37 1223.82 750.72 1223.82 752.34Z" fill="#FF6C00"/>
<path d="M1241.55 740.65C1241.55 749.76 1237.19 753.75 1227.65 755.7L1226.59 752.07C1232.2 750.72 1235.04 748.87 1235.93 744.91C1234.87 746.2 1233.42 747.06 1231.31 747.06C1227.84 747.06 1224.94 744.29 1224.94 739.7C1224.94 735.11 1228.57 732.01 1233.22 732.01C1238.73 732.01 1241.54 735.57 1241.54 740.66L1241.55 740.65ZM1236.24 741.41C1236.27 737.25 1235.45 735.73 1233.24 735.73C1231.39 735.73 1230.2 737.02 1230.2 739.53C1230.2 742.43 1231.42 743.39 1232.94 743.39C1234.19 743.39 1235.35 742.7 1236.24 741.41Z" fill="#FF6C00"/>
<path d="M1257.55 736.2H1249.46V740.89C1250.58 740.36 1251.7 740.16 1252.76 740.16C1256.42 740.16 1259.16 742.8 1259.16 747.42C1259.16 752.04 1255.73 755.34 1250.41 755.34C1247.01 755.34 1244.67 753.92 1242.98 751.97L1245.88 749.26C1247.04 750.61 1248.39 751.4 1250.2 751.4C1252.44 751.4 1253.8 750.01 1253.8 747.44C1253.8 744.67 1252.51 743.71 1250.66 743.71C1249.77 743.71 1249.01 743.94 1247.99 744.5H1244.46V732.45H1258.12L1257.53 736.18L1257.55 736.2Z" fill="#FF6C00"/>
<path d="M1275.34 738.38C1275.34 741.84 1273.62 744.45 1266.66 750.79H1275.8L1275.27 754.78H1260.75V751.08C1268.24 743.69 1269.99 741.67 1269.99 738.9C1269.99 737.09 1268.87 736 1267.12 736C1265.5 736 1264.38 736.73 1263.06 738.31L1259.99 735.87C1261.77 733.53 1264.31 732.01 1267.65 732.01C1272.63 732.01 1275.34 734.91 1275.34 738.38Z" fill="#FF6C00"/>
<path d="M301.45 424.21H298.94V429.03H293.86L293.83 424.21H284.42V420.74L290.76 406.15L295.18 407.8L289.8 420.31H293.89L294.45 415.03H298.94V420.31H301.45V424.2V424.21Z" fill="#FF6C00"/>
<path d="M317.03 412.62C317.03 416.09 315.31 418.69 308.35 425.03H317.49L316.96 429.02H302.44V425.32C309.93 417.93 311.68 415.91 311.68 413.14C311.68 411.33 310.56 410.24 308.81 410.24C307.19 410.24 306.07 410.97 304.75 412.55L301.68 410.11C303.46 407.77 306 406.25 309.34 406.25C314.32 406.25 317.03 409.15 317.03 412.62Z" fill="#FF6C00"/>
<path d="M325.48 426.59C325.48 428.24 324.16 429.59 322.51 429.59C320.86 429.59 319.51 428.24 319.51 426.59C319.51 424.94 320.83 423.62 322.51 423.62C324.19 423.62 325.48 424.97 325.48 426.59Z" fill="#FF6C00"/>
<path d="M343.69 424.21H341.18V429.03H336.1L336.07 424.21H326.66V420.74L333 406.15L337.42 407.8L332.04 420.31H336.13L336.69 415.03H341.18V420.31H343.69V424.2V424.21Z" fill="#FF6C00"/>
<path d="M359.27 412.62C359.27 416.09 357.55 418.69 350.59 425.03H359.73L359.2 429.02H344.68V425.32C352.17 417.93 353.92 415.91 353.92 413.14C353.92 411.33 352.8 410.24 351.05 410.24C349.43 410.24 348.31 410.97 346.99 412.55L343.92 410.11C345.7 407.77 348.24 406.25 351.58 406.25C356.56 406.25 359.27 409.15 359.27 412.62Z" fill="#FF6C00"/>
<path d="M376.33 412.62C376.33 416.09 374.61 418.69 367.65 425.03H376.79L376.26 429.02H361.74V425.32C369.23 417.93 370.98 415.91 370.98 413.14C370.98 411.33 369.86 410.24 368.11 410.24C366.49 410.24 365.37 410.97 364.05 412.55L360.98 410.11C362.76 407.77 365.3 406.25 368.64 406.25C373.62 406.25 376.33 409.15 376.33 412.62Z" fill="#FF6C00"/>
<path d="M1518.01 537.68C1518.01 542.32 1514.7 544.44 1510.12 544.44H1507.83V551.29H1503.57V531.22H1509.78C1514.89 531.22 1518.02 533.31 1518.02 537.69L1518.01 537.68ZM1513.6 537.68C1513.6 535.33 1512.21 534.29 1509.71 534.29H1507.83V541.31H1509.77C1512.12 541.31 1513.6 540.41 1513.6 537.68Z" fill="white"/>
<path d="M1529.64 535.71L1528.94 539.68C1528.48 539.56 1528.1 539.48 1527.58 539.48C1525.7 539.48 1524.82 540.87 1524.27 543.34V551.29H1520.15V535.92H1523.72L1524.1 538.91C1524.82 536.76 1526.3 535.49 1528.1 535.49C1528.65 535.49 1529.11 535.58 1529.64 535.72V535.71Z" fill="white"/>
<path d="M1543.71 544.85H1534.11C1534.4 547.81 1535.79 548.68 1537.77 548.68C1539.08 548.68 1540.18 548.27 1541.51 547.35L1543.22 549.67C1541.71 550.89 1539.8 551.76 1537.39 551.76C1532.46 551.76 1529.88 548.51 1529.88 543.7C1529.88 538.89 1532.37 535.46 1536.87 535.46C1541.37 535.46 1543.8 538.36 1543.8 543.26C1543.8 543.78 1543.74 544.42 1543.71 544.86V544.85ZM1539.71 542.09C1539.71 539.77 1538.93 538.26 1536.95 538.26C1535.33 538.26 1534.31 539.36 1534.11 542.26H1539.71V542.09Z" fill="white"/>
<path d="M1557.45 537.3L1555.88 539.65C1554.63 538.87 1553.39 538.43 1552.05 538.43C1550.71 538.43 1549.93 538.98 1549.93 539.82C1549.93 540.72 1550.45 541.13 1553.15 541.91C1556.22 542.75 1557.97 544.03 1557.97 546.75C1557.97 549.94 1554.98 551.74 1551.33 551.74C1548.66 551.74 1546.51 550.84 1545.06 549.51L1547.09 547.25C1548.25 548.15 1549.67 548.76 1551.21 548.76C1552.75 548.76 1553.73 548.12 1553.73 547.08C1553.73 545.92 1553.18 545.54 1550.34 544.76C1547.24 543.89 1545.79 542.35 1545.79 540.03C1545.79 537.42 1548.17 535.45 1551.88 535.45C1554.11 535.45 1556 536.15 1557.45 537.31V537.3Z" fill="white"/>
<path d="M1573.57 544.85H1563.97C1564.26 547.81 1565.65 548.68 1567.63 548.68C1568.94 548.68 1570.04 548.27 1571.37 547.35L1573.08 549.67C1571.57 550.89 1569.66 551.76 1567.25 551.76C1562.32 551.76 1559.74 548.51 1559.74 543.7C1559.74 538.89 1562.23 535.46 1566.73 535.46C1571.23 535.46 1573.66 538.36 1573.66 543.26C1573.66 543.78 1573.6 544.42 1573.57 544.86V544.85ZM1569.57 542.09C1569.57 539.77 1568.79 538.26 1566.81 538.26C1565.19 538.26 1564.17 539.36 1563.97 542.26H1569.57V542.09Z" fill="white"/>
<path d="M1589.52 540.09V551.29H1585.4V540.79C1585.4 539.02 1584.76 538.53 1583.72 538.53C1582.53 538.53 1581.6 539.31 1580.76 540.68V551.3H1576.64V535.93H1580.21L1580.53 537.87C1581.78 536.33 1583.26 535.46 1585.23 535.46C1587.93 535.46 1589.52 537.2 1589.52 540.1V540.09Z" fill="white"/>
<path d="M1604.95 537.3L1603.15 539.74C1602.16 538.99 1601.26 538.64 1600.13 538.64C1598.07 538.64 1596.85 540.12 1596.85 543.69C1596.85 547.26 1598.16 548.45 1600.1 548.45C1601.23 548.45 1602.01 548.1 1603.15 547.38L1604.95 549.96C1603.56 551.09 1601.93 551.76 1599.9 551.76C1595.32 551.76 1592.5 548.63 1592.5 543.72C1592.5 538.81 1595.34 535.45 1599.84 535.45C1601.9 535.45 1603.49 536.06 1604.94 537.31L1604.95 537.3Z" fill="white"/>
<path d="M1611.85 530.4C1611.85 531.76 1610.81 532.81 1609.33 532.81C1607.85 532.81 1606.84 531.77 1606.84 530.4C1606.84 529.03 1607.86 527.99 1609.33 527.99C1610.8 527.99 1611.85 529.03 1611.85 530.4ZM1611.41 551.28H1607.29V535.91H1611.41V551.28Z" fill="white"/>
<path d="M1628.35 548.96L1627.48 551.69C1625.74 551.54 1624.58 550.96 1623.94 549.43C1622.84 551.11 1621.15 551.75 1619.33 551.75C1616.25 551.75 1614.34 549.78 1614.34 546.99C1614.34 543.62 1616.86 541.8 1621.42 541.8H1623.19V541.05C1623.19 539.14 1622.38 538.53 1620.43 538.53C1619.42 538.53 1617.94 538.82 1616.37 539.34L1615.44 536.58C1617.35 535.83 1619.38 535.45 1621.12 535.45C1625.38 535.45 1627.21 537.34 1627.21 540.82V547.03C1627.21 548.28 1627.59 548.71 1628.34 548.97L1628.35 548.96ZM1623.19 547.07V544.14H1621.83C1619.6 544.14 1618.49 544.95 1618.49 546.63C1618.49 547.99 1619.19 548.78 1620.46 548.78C1621.65 548.78 1622.55 548.17 1623.19 547.07Z" fill="white"/>
<path d="M1630.9 547.57V529.79L1635.02 529.33V547.46C1635.02 548.13 1635.28 548.48 1635.86 548.48C1636.18 548.48 1636.44 548.42 1636.67 548.31L1637.51 551.24C1636.84 551.53 1635.91 551.76 1634.87 551.76C1632.38 551.76 1630.9 550.25 1630.9 547.58V547.57Z" fill="white"/>
<path d="M1544.3 573.9C1544.3 577.06 1542.59 579.41 1536.53 585.1H1544.74L1544.28 588.29H1531.84V585.3C1538.48 578.66 1540.08 576.86 1540.08 574.25C1540.08 572.57 1539.01 571.55 1537.41 571.55C1535.93 571.55 1534.91 572.19 1533.73 573.61L1531.26 571.64C1532.83 569.58 1534.97 568.36 1537.79 568.36C1541.97 568.36 1544.32 570.85 1544.32 573.9H1544.3Z" fill="white"/>
<path d="M1560.45 575.93C1560.45 583.94 1556.79 587.27 1548.7 589.07L1547.83 586.14C1552.76 584.92 1555.4 583.15 1556.04 579.44C1555.11 580.63 1553.81 581.44 1551.92 581.44C1548.87 581.44 1546.38 579 1546.38 575.03C1546.38 571.06 1549.48 568.36 1553.4 568.36C1558.07 568.36 1560.45 571.46 1560.45 575.93ZM1556.24 576.63C1556.3 572.74 1555.46 571.35 1553.4 571.35C1551.63 571.35 1550.5 572.57 1550.5 574.92C1550.5 577.56 1551.66 578.49 1553.11 578.49C1554.36 578.49 1555.43 577.82 1556.24 576.63Z" fill="white"/>
<path d="M1567.44 586.25C1567.44 587.06 1567.18 587.82 1566.63 589.09L1564.75 593.33H1562.34L1563.56 588.28C1562.89 587.84 1562.49 587.09 1562.49 586.25C1562.49 584.86 1563.56 583.78 1564.96 583.78C1566.36 583.78 1567.45 584.85 1567.45 586.25H1567.44Z" fill="white"/>
<path d="M1581.68 571.72H1574.46V576.22C1575.45 575.76 1576.46 575.55 1577.42 575.55C1580.64 575.55 1583.02 577.87 1583.02 581.87C1583.02 585.87 1580.06 588.75 1575.54 588.75C1572.7 588.75 1570.72 587.59 1569.22 585.91L1571.54 583.73C1572.58 584.92 1573.8 585.59 1575.43 585.59C1577.52 585.59 1578.79 584.29 1578.79 581.88C1578.79 579.33 1577.54 578.43 1575.83 578.43C1574.99 578.43 1574.29 578.63 1573.39 579.13H1570.52V568.75H1582.18L1581.69 571.74L1581.68 571.72Z" fill="white"/>
<path d="M1594.5 573.49C1594.5 576.65 1592.32 578.62 1589.45 578.62C1586.58 578.62 1584.4 576.65 1584.4 573.49C1584.4 570.33 1586.61 568.36 1589.45 568.36C1592.29 568.36 1594.5 570.33 1594.5 573.49ZM1587.45 573.49C1587.45 574.77 1587.86 576.1 1589.45 576.1C1591.04 576.1 1591.42 574.82 1591.42 573.49C1591.42 572.16 1591.04 570.88 1589.45 570.88C1587.86 570.88 1587.45 572.16 1587.45 573.49ZM1603.84 569.11L1590.38 589.39L1587.8 587.74L1601.23 567.46L1603.84 569.11ZM1607.18 583.61C1607.18 586.74 1605 588.74 1602.13 588.74C1599.26 588.74 1597.05 586.74 1597.05 583.61C1597.05 580.48 1599.28 578.48 1602.13 578.48C1604.98 578.48 1607.18 580.45 1607.18 583.61ZM1600.13 583.61C1600.13 584.89 1600.54 586.22 1602.13 586.22C1603.72 586.22 1604.1 584.91 1604.1 583.61C1604.1 582.31 1603.72 581 1602.13 581C1600.54 581 1600.13 582.28 1600.13 583.61Z" fill="white"/>
</g>
<defs>
<clipPath id="clip0_9_2245">
<rect width="1920" height="1080" fill="white"/>
</clipPath>
</defs>
</svg>
