<svg width="1312" height="903" viewBox="0 0 1312 903" fill="none" xmlns="http://www.w3.org/2000/svg">
<g clip-path="url(#clip0_11_13145)">
<path d="M1311.92 0H0V902.09H1311.92V0Z" fill="white"/>
<path d="M954.87 189.82H952.87V850.63H954.87V189.82Z" fill="#CFEAFF"/>
<path d="M1048.69 189.77H1046.69V850.58H1048.69V189.77Z" fill="#CFEAFF"/>
<path d="M860.68 189.82H858.68V850.63H860.68V189.82Z" fill="#CFEAFF"/>
<path d="M766.83 189.82H764.83V850.63H766.83V189.82Z" fill="#CFEAFF"/>
<path d="M673.6 189.77H671.6V850.63H673.6V189.77Z" fill="#CFEAFF"/>
<path d="M579.82 189.77H577.82V850.63H579.82V189.77Z" fill="#CFEAFF"/>
<path d="M1026.95 342.15V240.99L581.04 240.99V342.15H1026.95Z" fill="#05427B"/>
<path d="M851.91 494.8V393.64H581.03V494.8H851.91Z" fill="#05427B"/>
<path d="M669.15 647.17V546.01H581.03V647.17H669.15Z" fill="#05427B"/>
<path d="M719.57 799.42V698.26H581.03V799.42H719.57Z" fill="#05427B"/>
<path d="M1072.48 300.57H1069.75V305.75H1064.99L1064.96 300.57H1055.12V297.26L1061.82 281.97L1065.96 283.52L1060.2 296.84H1065.03L1065.55 291.14H1069.76V296.84H1072.49V300.57H1072.48Z" fill="#1765AB"/>
<path d="M1087.57 285.87L1079.01 306.27L1074.56 304.79L1082.5 286.22H1072.9V282.49H1087.57V285.87Z" fill="#1765AB"/>
<path d="M1095.37 303.33C1095.37 304.3 1095.06 305.19 1094.4 306.71L1092.16 311.75H1089.29L1090.74 305.74C1089.95 305.22 1089.46 304.32 1089.46 303.32C1089.46 301.66 1090.74 300.39 1092.39 300.39C1094.04 300.39 1095.36 301.67 1095.36 303.32L1095.37 303.33Z" fill="#1765AB"/>
<path d="M1114.45 297.81C1114.45 302.64 1111.2 306.3 1106.27 306.3C1100.2 306.3 1097.68 301.74 1097.68 295.05C1097.68 287.22 1101.41 282.04 1107.48 282.04C1109.59 282.04 1111.35 282.63 1112.66 283.52L1110.87 286.52C1109.87 285.93 1108.83 285.59 1107.59 285.59C1104.79 285.59 1103 288.14 1102.76 292.56C1104.21 290.9 1105.97 290.18 1107.83 290.18C1111.56 290.18 1114.46 292.87 1114.46 297.81H1114.45ZM1109.51 297.88C1109.51 294.7 1108.41 293.63 1106.54 293.63C1105.09 293.63 1103.78 294.46 1102.74 295.77C1102.81 300.71 1103.81 302.71 1106.29 302.71C1108.46 302.71 1109.5 300.81 1109.5 297.88H1109.51Z" fill="#1765AB"/>
<path d="M1128.57 288.15C1128.57 291.91 1125.98 294.26 1122.56 294.26C1119.14 294.26 1116.55 291.91 1116.55 288.15C1116.55 284.39 1119.17 282.04 1122.56 282.04C1125.95 282.04 1128.57 284.39 1128.57 288.15ZM1120.18 288.15C1120.18 289.67 1120.66 291.26 1122.56 291.26C1124.46 291.26 1124.91 289.74 1124.91 288.15C1124.91 286.56 1124.46 285.04 1122.56 285.04C1120.66 285.04 1120.18 286.56 1120.18 288.15ZM1139.68 282.94L1123.66 307.07L1120.59 305.1L1136.57 280.97L1139.68 282.94ZM1143.65 300.2C1143.65 303.93 1141.06 306.31 1137.64 306.31C1134.22 306.31 1131.6 303.93 1131.6 300.2C1131.6 296.47 1134.26 294.09 1137.64 294.09C1141.02 294.09 1143.65 296.44 1143.65 300.2ZM1135.26 300.2C1135.26 301.72 1135.74 303.31 1137.64 303.31C1139.54 303.31 1139.99 301.76 1139.99 300.2C1139.99 298.64 1139.54 297.09 1137.64 297.09C1135.74 297.09 1135.26 298.61 1135.26 300.2Z" fill="#1765AB"/>
<path d="M893.48 441.28C893.48 445.04 891.44 447.84 884.23 454.6H894L893.45 458.4H878.64V454.85C886.54 446.95 888.44 444.81 888.44 441.7C888.44 439.7 887.16 438.49 885.27 438.49C883.51 438.49 882.3 439.25 880.89 440.94L877.96 438.59C879.82 436.14 882.38 434.69 885.73 434.69C890.7 434.69 893.5 437.66 893.5 441.28H893.48Z" fill="#1765AB"/>
<path d="M913.88 452.12C913.88 455.92 910.57 458.95 905.04 458.95C899.51 458.95 896.38 455.95 896.38 452.22C896.38 449.39 898.04 447.56 900.76 446.35C898.27 444.93 897.31 443.07 897.31 440.86C897.31 437.06 900.76 434.68 905.14 434.68C909.52 434.68 912.97 436.79 912.97 440.65C912.97 442.72 911.8 444.52 909.17 445.9C912.34 447.38 913.86 449.39 913.86 452.11L913.88 452.12ZM908.94 452.09C908.94 450.05 907.87 449.12 905.01 448.09L903.91 447.71C902.18 448.61 901.32 450.09 901.32 452.02C901.32 454.09 902.8 455.37 905.19 455.37C907.58 455.37 908.95 453.99 908.95 452.09H908.94ZM902.07 440.94C902.07 442.73 903.17 443.6 905.25 444.43L905.94 444.67C907.67 443.57 908.22 442.46 908.22 440.91C908.22 439.22 907.18 438.04 905.18 438.04C903.28 438.04 902.07 439.04 902.07 440.94Z" fill="#1765AB"/>
<path d="M922.13 455.99C922.13 456.96 921.82 457.85 921.16 459.37L918.92 464.41H916.06L917.51 458.4C916.72 457.88 916.23 456.98 916.23 455.98C916.23 454.32 917.51 453.05 919.16 453.05C920.81 453.05 922.13 454.33 922.13 455.98V455.99Z" fill="#1765AB"/>
<path d="M941.22 450.46C941.22 455.29 937.98 458.95 933.04 458.95C926.97 458.95 924.45 454.39 924.45 447.7C924.45 439.87 928.18 434.69 934.25 434.69C936.36 434.69 938.12 435.28 939.43 436.17L937.64 439.17C936.64 438.58 935.6 438.24 934.36 438.24C931.56 438.24 929.77 440.79 929.53 445.21C930.98 443.55 932.74 442.83 934.6 442.83C938.33 442.83 941.23 445.52 941.23 450.46H941.22ZM936.28 450.53C936.28 447.35 935.18 446.28 933.31 446.28C931.86 446.28 930.55 447.11 929.51 448.42C929.58 453.36 930.58 455.36 933.06 455.36C935.23 455.36 936.27 453.46 936.27 450.53H936.28Z" fill="#1765AB"/>
<path d="M955.33 440.8C955.33 444.56 952.74 446.91 949.32 446.91C945.9 446.91 943.31 444.56 943.31 440.8C943.31 437.04 945.93 434.69 949.32 434.69C952.71 434.69 955.33 437.04 955.33 440.8ZM946.94 440.8C946.94 442.32 947.42 443.91 949.32 443.91C951.22 443.91 951.67 442.39 951.67 440.8C951.67 439.21 951.22 437.69 949.32 437.69C947.42 437.69 946.94 439.21 946.94 440.8ZM966.44 435.59L950.42 459.72L947.35 457.75L963.33 433.62L966.44 435.59ZM970.41 452.85C970.41 456.58 967.82 458.96 964.4 458.96C960.98 458.96 958.36 456.58 958.36 452.85C958.36 449.12 961.02 446.74 964.4 446.74C967.78 446.74 970.41 449.09 970.41 452.85ZM962.02 452.85C962.02 454.37 962.5 455.96 964.4 455.96C966.3 455.96 966.75 454.41 966.75 452.85C966.75 451.29 966.3 449.74 964.4 449.74C962.5 449.74 962.02 451.26 962.02 452.85Z" fill="#1765AB"/>
<path d="M720.06 596.07C720.06 605.6 715.71 609.57 706.08 611.7L705.04 608.21C710.91 606.76 714.05 604.65 714.81 600.24C713.71 601.66 712.15 602.62 709.91 602.62C706.29 602.62 703.32 599.72 703.32 594.99C703.32 590.26 707.01 587.05 711.67 587.05C717.23 587.05 720.06 590.74 720.06 596.06V596.07ZM715.06 596.9C715.13 592.28 714.13 590.62 711.68 590.62C709.57 590.62 708.23 592.07 708.23 594.87C708.23 598.01 709.61 599.12 711.34 599.12C712.82 599.12 714.1 598.33 715.07 596.91L715.06 596.9Z" fill="#1765AB"/>
<path d="M728.37 608.36C728.37 609.33 728.06 610.22 727.4 611.74L725.16 616.78H722.3L723.75 610.77C722.96 610.25 722.47 609.35 722.47 608.35C722.47 606.69 723.75 605.42 725.4 605.42C727.05 605.42 728.37 606.7 728.37 608.35V608.36Z" fill="#1765AB"/>
<path d="M745.32 591.06H736.73V596.41C737.9 595.86 739.11 595.62 740.25 595.62C744.08 595.62 746.91 598.38 746.91 603.14C746.91 607.9 743.39 611.32 738 611.32C734.62 611.32 732.27 609.94 730.48 607.94L733.24 605.35C734.48 606.77 735.93 607.56 737.86 607.56C740.35 607.56 741.86 606.01 741.86 603.14C741.86 600.1 740.38 599.03 738.34 599.03C737.34 599.03 736.51 599.27 735.44 599.86H732.02V587.5H745.9L745.31 591.06H745.32Z" fill="#1765AB"/>
<path d="M760.57 593.17C760.57 596.93 757.98 599.28 754.56 599.28C751.14 599.28 748.55 596.93 748.55 593.17C748.55 589.41 751.17 587.06 754.56 587.06C757.95 587.06 760.57 589.41 760.57 593.17ZM752.18 593.17C752.18 594.69 752.66 596.28 754.56 596.28C756.46 596.28 756.91 594.76 756.91 593.17C756.91 591.58 756.46 590.06 754.56 590.06C752.66 590.06 752.18 591.58 752.18 593.17ZM771.68 587.96L755.66 612.09L752.59 610.12L768.57 585.99L771.68 587.96ZM775.65 605.22C775.65 608.95 773.06 611.33 769.64 611.33C766.22 611.33 763.6 608.95 763.6 605.22C763.6 601.49 766.26 599.11 769.64 599.11C773.02 599.11 775.65 601.46 775.65 605.22ZM767.26 605.22C767.26 606.74 767.74 608.33 769.64 608.33C771.54 608.33 771.99 606.78 771.99 605.22C771.99 603.66 771.54 602.11 769.64 602.11C767.74 602.11 767.26 603.63 767.26 605.22Z" fill="#1765AB"/>
<path d="M760.88 763.02H756.08V744.59L750.97 747.73L748.83 744.42L756.56 739.76H760.87V763.02H760.88Z" fill="#1765AB"/>
<path d="M782.39 757.84H779.66V763.02H774.9L774.87 757.84H765.03V754.53L771.73 739.24L775.87 740.79L770.11 754.11H774.94L775.46 748.42H779.67V754.11H782.4V757.84H782.39Z" fill="#1765AB"/>
<path d="M790.25 760.6C790.25 761.57 789.94 762.46 789.28 763.98L787.04 769.02H784.17L785.62 763.01C784.83 762.49 784.34 761.59 784.34 760.59C784.34 758.93 785.62 757.66 787.27 757.66C788.92 757.66 790.24 758.94 790.24 760.59L790.25 760.6Z" fill="#1765AB"/>
<path d="M807.61 745.21C807.61 748.07 805.85 749.94 803.05 750.7C805.95 751.01 808.37 752.77 808.37 756.43C808.37 760.37 805.26 763.57 799.71 763.57C796.36 763.57 793.77 762.33 791.98 760.12L794.64 757.57C796.19 759.12 797.64 759.78 799.44 759.78C801.79 759.78 803.34 758.43 803.34 756.12C803.34 753.53 801.89 752.6 799.34 752.6H797.44L798.03 749.15H799.31C801.42 749.15 802.87 747.98 802.87 745.87C802.87 744.08 801.59 743.01 799.59 743.01C797.83 743.01 796.41 743.67 795 745.01L792.55 742.35C794.66 740.35 797.14 739.31 800.07 739.31C805.01 739.31 807.63 741.97 807.63 745.21H807.61Z" fill="#1765AB"/>
<path d="M822.87 745.42C822.87 749.18 820.28 751.53 816.86 751.53C813.44 751.53 810.85 749.18 810.85 745.42C810.85 741.66 813.47 739.31 816.86 739.31C820.25 739.31 822.87 741.66 822.87 745.42ZM814.48 745.42C814.48 746.94 814.96 748.53 816.86 748.53C818.76 748.53 819.21 747.01 819.21 745.42C819.21 743.83 818.76 742.31 816.86 742.31C814.96 742.31 814.48 743.83 814.48 745.42ZM833.98 740.21L817.96 764.34L814.89 762.37L830.87 738.24L833.98 740.21ZM837.95 757.47C837.95 761.2 835.36 763.58 831.94 763.58C828.52 763.58 825.9 761.2 825.9 757.47C825.9 753.74 828.56 751.36 831.94 751.36C835.32 751.36 837.95 753.71 837.95 757.47ZM829.56 757.47C829.56 758.99 830.04 760.58 831.94 760.58C833.84 760.58 834.29 759.03 834.29 757.47C834.29 755.91 833.84 754.36 831.94 754.36C830.04 754.36 829.56 755.88 829.56 757.47Z" fill="#1765AB"/>
<path d="M193.75 100.21H188.16L187.58 89.3C187.35 85.46 187.23 81.42 187.35 78.35L182.81 97.34H177.41L172.56 78.31C172.79 82.08 172.75 85.65 172.56 89.42L171.98 100.22H166.43L168.53 73.35H175.79L180.22 91.87L184.38 73.35H191.72L193.78 100.22L193.75 100.21Z" fill="#1765AB"/>
<path d="M216.51 89.91C216.51 96.43 212.82 100.82 206.65 100.82C200.48 100.82 196.79 96.74 196.79 89.91C196.79 83.08 200.48 79 206.69 79C212.9 79 216.51 83.08 216.51 89.91ZM202.53 89.91C202.53 94.65 203.93 96.71 206.65 96.71C209.37 96.71 210.77 94.61 210.77 89.91C210.77 85.21 209.37 83.11 206.69 83.11C204.01 83.11 202.53 85.21 202.53 89.91Z" fill="#1765AB"/>
<path d="M238.52 71.43V100.21H233.67L233.36 97.69C232.12 99.48 230.21 100.84 227.46 100.84C222.29 100.84 219.65 96.49 219.65 89.93C219.65 83.37 222.91 79.02 228 79.02C230.1 79.02 231.77 79.87 233.01 81.08V70.83L238.52 71.45V71.43ZM233.01 94.23V85.03C232 83.83 230.95 83.09 229.44 83.09C227.03 83.09 225.4 85.11 225.4 89.92C225.4 95.09 226.88 96.72 229.09 96.72C230.76 96.72 231.92 95.87 233.01 94.23Z" fill="#1765AB"/>
<path d="M261.2 97.1L260.03 100.75C257.7 100.56 256.15 99.78 255.29 97.72C253.81 99.97 251.56 100.83 249.12 100.83C245 100.83 242.44 98.19 242.44 94.46C242.44 89.96 245.82 87.51 251.92 87.51H254.29V86.5C254.29 83.94 253.2 83.12 250.6 83.12C249.24 83.12 247.26 83.51 245.16 84.21L243.92 80.52C246.48 79.51 249.2 79.01 251.53 79.01C257.24 79.01 259.68 81.53 259.68 86.19V94.5C259.68 96.17 260.18 96.75 261.19 97.1H261.2ZM254.29 94.58V90.66H252.46C249.47 90.66 247.99 91.75 247.99 94C247.99 95.83 248.92 96.87 250.63 96.87C252.22 96.87 253.43 96.05 254.28 94.58H254.29Z" fill="#1765AB"/>
<path d="M264.61 95.2401V71.4301L270.12 70.8101V95.0801C270.12 95.9701 270.47 96.4401 271.25 96.4401C271.68 96.4401 272.03 96.3601 272.34 96.2101L273.47 100.13C272.58 100.52 271.33 100.83 269.94 100.83C266.6 100.83 264.62 98.8101 264.62 95.2401H264.61Z" fill="#1765AB"/>
<path d="M282.4 72.25C282.4 74.08 281 75.47 279.02 75.47C277.04 75.47 275.68 74.07 275.68 72.25C275.68 70.43 277.04 69.03 279.02 69.03C281 69.03 282.4 70.43 282.4 72.25ZM281.82 100.21H276.31V79.63H281.82V100.21Z" fill="#1765AB"/>
<path d="M305.07 71.43V100.21H300.22L299.91 97.69C298.67 99.48 296.76 100.84 294.01 100.84C288.84 100.84 286.2 96.49 286.2 89.93C286.2 83.37 289.46 79.02 294.55 79.02C296.65 79.02 298.32 79.87 299.56 81.08V70.83L305.07 71.45V71.43ZM299.56 94.23V85.03C298.55 83.83 297.5 83.09 295.99 83.09C293.58 83.09 291.95 85.11 291.95 89.92C291.95 95.09 293.43 96.72 295.64 96.72C297.31 96.72 298.47 95.87 299.56 94.23Z" fill="#1765AB"/>
<path d="M327.75 97.1L326.58 100.75C324.25 100.56 322.7 99.78 321.84 97.72C320.36 99.97 318.11 100.83 315.67 100.83C311.55 100.83 308.99 98.19 308.99 94.46C308.99 89.96 312.37 87.51 318.47 87.51H320.84V86.5C320.84 83.94 319.75 83.12 317.15 83.12C315.79 83.12 313.81 83.51 311.71 84.21L310.47 80.52C313.03 79.51 315.75 79.01 318.08 79.01C323.79 79.01 326.23 81.53 326.23 86.19V94.5C326.23 96.17 326.73 96.75 327.74 97.1H327.75ZM320.84 94.58V90.66H319.02C316.03 90.66 314.55 91.75 314.55 94C314.55 95.83 315.48 96.87 317.19 96.87C318.78 96.87 319.99 96.05 320.84 94.58Z" fill="#1765AB"/>
<path d="M349.57 71.43V100.21H344.72L344.41 97.69C343.17 99.48 341.26 100.84 338.51 100.84C333.34 100.84 330.7 96.49 330.7 89.93C330.7 83.37 333.96 79.02 339.05 79.02C341.15 79.02 342.82 79.87 344.06 81.08V70.83L349.57 71.45V71.43ZM344.06 94.23V85.03C343.05 83.83 342 83.09 340.49 83.09C338.08 83.09 336.45 85.11 336.45 89.92C336.45 95.09 337.93 96.72 340.14 96.72C341.81 96.72 342.97 95.87 344.06 94.23Z" fill="#1765AB"/>
<path d="M372.28 91.58H359.43C359.82 95.54 361.68 96.71 364.32 96.71C366.07 96.71 367.54 96.17 369.33 94.92L371.62 98.03C369.6 99.66 367.04 100.83 363.81 100.83C357.21 100.83 353.75 96.48 353.75 90.03C353.75 83.58 357.09 79 363.11 79C369.13 79 372.39 82.88 372.39 89.45C372.39 90.15 372.31 91 372.27 91.59L372.28 91.58ZM366.92 87.89C366.92 84.78 365.87 82.76 363.23 82.76C361.06 82.76 359.7 84.24 359.42 88.12H366.91V87.89H366.92Z" fill="#1765AB"/>
<path d="M390.69 81.49L388.59 84.64C386.92 83.59 385.25 83.01 383.46 83.01C381.67 83.01 380.63 83.75 380.63 84.87C380.63 86.07 381.33 86.62 384.94 87.67C389.06 88.8 391.39 90.5 391.39 94.16C391.39 98.43 387.39 100.84 382.5 100.84C378.93 100.84 376.05 99.64 374.11 97.85L376.83 94.82C378.38 96.02 380.29 96.84 382.34 96.84C384.39 96.84 385.72 95.99 385.72 94.59C385.72 93.04 384.98 92.53 381.18 91.48C377.02 90.32 375.08 88.26 375.08 85.15C375.08 81.65 378.26 79.01 383.24 79.01C386.23 79.01 388.75 79.94 390.7 81.5L390.69 81.49Z" fill="#1765AB"/>
<path d="M422.95 89.91C422.95 96.43 419.26 100.82 413.09 100.82C406.92 100.82 403.23 96.74 403.23 89.91C403.23 83.08 406.92 79 413.13 79C419.34 79 422.95 83.08 422.95 89.91ZM408.97 89.91C408.97 94.65 410.37 96.71 413.09 96.71C415.81 96.71 417.21 94.61 417.21 89.91C417.21 85.21 415.81 83.11 413.13 83.11C410.45 83.11 408.97 85.21 408.97 89.91Z" fill="#1765AB"/>
<path d="M433.36 77.72V79.62H438.25L437.63 83.5H433.36V100.2H427.85V83.5H424.59V79.62H427.85V77.56C427.85 73.75 430.37 70.8 435.38 70.8C437.48 70.8 439.3 71.3 440.82 72.04L439.31 75.69C438.07 75.11 436.94 74.91 435.97 74.91C434.11 74.91 433.37 75.76 433.37 77.71L433.36 77.72Z" fill="#1765AB"/>
<path d="M457.67 91.58H444.82C445.21 95.54 447.07 96.71 449.71 96.71C451.46 96.71 452.93 96.17 454.72 94.92L457.01 98.03C454.99 99.66 452.43 100.83 449.2 100.83C442.6 100.83 439.14 96.48 439.14 90.03C439.14 83.58 442.48 79 448.5 79C454.52 79 457.78 82.88 457.78 89.45C457.78 90.15 457.7 91 457.66 91.59L457.67 91.58ZM452.31 87.89C452.31 84.78 451.26 82.76 448.62 82.76C446.45 82.76 445.09 84.24 444.81 88.12H452.3V87.89H452.31Z" fill="#1765AB"/>
<path d="M474.48 79.35L473.55 84.67C472.93 84.51 472.42 84.4 471.72 84.4C469.2 84.4 468.03 86.26 467.29 89.56V100.2H461.78V79.62H466.56L467.06 83.62C468.03 80.75 470.01 79.04 472.42 79.04C473.16 79.04 473.78 79.16 474.48 79.35Z" fill="#1765AB"/>
<path d="M489.5 99.24C487.99 100.29 485.97 100.83 484.14 100.83C479.87 100.79 477.69 98.34 477.69 93.76V83.51H474.62V79.63H477.69V75.13L483.2 74.47V79.63H487.94L487.4 83.51H483.21V93.65C483.21 95.67 483.87 96.45 485.27 96.45C486.01 96.45 486.75 96.22 487.6 95.75L489.5 99.25V99.24Z" fill="#1765AB"/>
<path d="M508.76 97.1L507.59 100.75C505.26 100.56 503.71 99.78 502.85 97.72C501.37 99.97 499.12 100.83 496.68 100.83C492.56 100.83 490 98.19 490 94.46C490 89.96 493.38 87.51 499.48 87.51H501.85V86.5C501.85 83.94 500.76 83.12 498.16 83.12C496.8 83.12 494.82 83.51 492.72 84.21L491.48 80.52C494.04 79.51 496.76 79.01 499.09 79.01C504.8 79.01 507.24 81.53 507.24 86.19V94.5C507.24 96.17 507.74 96.75 508.75 97.1H508.76ZM501.85 94.58V90.66H500.03C497.04 90.66 495.56 91.75 495.56 94C495.56 95.83 496.49 96.87 498.2 96.87C499.79 96.87 501 96.05 501.85 94.58Z" fill="#1765AB"/>
<path d="M530.58 71.43V100.21H525.73L525.42 97.69C524.18 99.48 522.27 100.84 519.52 100.84C514.35 100.84 511.71 96.49 511.71 89.93C511.71 83.37 514.97 79.02 520.06 79.02C522.16 79.02 523.83 79.87 525.07 81.08V70.83L530.58 71.45V71.43ZM525.07 94.23V85.03C524.06 83.83 523.01 83.09 521.5 83.09C519.09 83.09 517.46 85.11 517.46 89.92C517.46 95.09 518.94 96.72 521.15 96.72C522.82 96.72 523.98 95.87 525.07 94.23Z" fill="#1765AB"/>
<path d="M553.26 97.1L552.09 100.75C549.76 100.56 548.21 99.78 547.35 97.72C545.87 99.97 543.62 100.83 541.18 100.83C537.06 100.83 534.5 98.19 534.5 94.46C534.5 89.96 537.88 87.51 543.98 87.51H546.35V86.5C546.35 83.94 545.26 83.12 542.66 83.12C541.3 83.12 539.32 83.51 537.22 84.21L535.98 80.52C538.54 79.51 541.26 79.01 543.59 79.01C549.3 79.01 551.74 81.53 551.74 86.19V94.5C551.74 96.17 552.24 96.75 553.25 97.1H553.26ZM546.35 94.58V90.66H544.52C541.53 90.66 540.05 91.75 540.05 94C540.05 95.83 540.98 96.87 542.69 96.87C544.28 96.87 545.49 96.05 546.34 94.58H546.35Z" fill="#1765AB"/>
<path d="M571.16 81.49L569.06 84.64C567.39 83.59 565.72 83.01 563.93 83.01C562.14 83.01 561.1 83.75 561.1 84.87C561.1 86.07 561.8 86.62 565.41 87.67C569.53 88.8 571.86 90.5 571.86 94.16C571.86 98.43 567.86 100.84 562.97 100.84C559.4 100.84 556.52 99.64 554.58 97.85L557.3 94.82C558.85 96.02 560.76 96.84 562.81 96.84C564.86 96.84 566.19 95.99 566.19 94.59C566.19 93.04 565.45 92.53 561.65 91.48C557.49 90.32 555.55 88.26 555.55 85.15C555.55 81.65 558.73 79.01 563.71 79.01C566.7 79.01 569.22 79.94 571.17 81.5L571.16 81.49Z" fill="#1765AB"/>
<path d="M603.7 89.88C603.7 96.17 600.71 100.83 595.55 100.83C593.49 100.83 591.74 100.09 590.46 98.62V108.13L584.95 108.75V79.62H589.8L590.07 82.03C591.7 79.93 593.91 79 596.05 79C601.41 79 603.7 83.23 603.7 89.87V89.88ZM597.95 89.92C597.95 84.76 596.63 83.09 594.34 83.09C592.75 83.09 591.39 84.18 590.46 85.73V94.7C591.35 96.06 592.48 96.72 593.92 96.72C596.44 96.72 597.96 94.74 597.96 89.92H597.95Z" fill="#1765AB"/>
<path d="M625.36 91.58H612.51C612.9 95.54 614.76 96.71 617.4 96.71C619.15 96.71 620.62 96.17 622.41 94.92L624.7 98.03C622.68 99.66 620.12 100.83 616.89 100.83C610.29 100.83 606.83 96.48 606.83 90.03C606.83 83.58 610.17 79 616.19 79C622.21 79 625.47 82.88 625.47 89.45C625.47 90.15 625.39 91 625.35 91.59L625.36 91.58ZM620 87.89C620 84.78 618.95 82.76 616.31 82.76C614.14 82.76 612.78 84.24 612.5 88.12H620V87.89Z" fill="#1765AB"/>
<path d="M629.28 95.2401V71.4301L634.79 70.8101V95.0801C634.79 95.9701 635.14 96.4401 635.92 96.4401C636.35 96.4401 636.7 96.3601 637.01 96.2101L638.14 100.13C637.25 100.52 636 100.83 634.61 100.83C631.27 100.83 629.29 98.8101 629.29 95.2401H629.28Z" fill="#1765AB"/>
<path d="M658.02 97.1L656.85 100.75C654.52 100.56 652.97 99.78 652.11 97.72C650.63 99.97 648.38 100.83 645.94 100.83C641.82 100.83 639.26 98.19 639.26 94.46C639.26 89.96 642.64 87.51 648.74 87.51H651.11V86.5C651.11 83.94 650.02 83.12 647.42 83.12C646.06 83.12 644.08 83.51 641.98 84.21L640.74 80.52C643.3 79.51 646.02 79.01 648.35 79.01C654.06 79.01 656.51 81.53 656.51 86.19V94.5C656.51 96.17 657.02 96.75 658.03 97.1H658.02ZM651.11 94.58V90.66H649.28C646.29 90.66 644.81 91.75 644.81 94C644.81 95.83 645.74 96.87 647.45 96.87C649.04 96.87 650.25 96.05 651.1 94.58H651.11Z" fill="#1765AB"/>
<path d="M675.92 81.49L673.82 84.64C672.15 83.59 670.48 83.01 668.7 83.01C666.92 83.01 665.86 83.75 665.86 84.87C665.86 86.07 666.56 86.62 670.17 87.67C674.29 88.8 676.62 90.5 676.62 94.16C676.62 98.43 672.62 100.84 667.73 100.84C664.16 100.84 661.28 99.64 659.34 97.85L662.06 94.82C663.61 96.02 665.52 96.84 667.57 96.84C669.62 96.84 670.95 95.99 670.95 94.59C670.95 93.04 670.21 92.53 666.41 91.48C662.25 90.32 660.31 88.26 660.31 85.15C660.31 81.65 663.49 79.01 668.46 79.01C671.45 79.01 673.98 79.94 675.92 81.5V81.49Z" fill="#1765AB"/>
<path d="M695.8 72.25C695.8 74.08 694.4 75.47 692.42 75.47C690.44 75.47 689.08 74.07 689.08 72.25C689.08 70.43 690.44 69.03 692.42 69.03C694.4 69.03 695.8 70.43 695.8 72.25ZM695.22 100.21H689.71V79.63H695.22V100.21Z" fill="#1765AB"/>
<path d="M717.89 85.22V100.21H712.38V86.15C712.38 83.78 711.52 83.12 710.13 83.12C708.54 83.12 707.3 84.17 706.17 85.99V100.2H700.66V79.62H705.44L705.87 82.22C707.54 80.16 709.52 79 712.16 79C715.77 79 717.91 81.33 717.91 85.21L717.89 85.22Z" fill="#1765AB"/>
<path d="M737.42 81.49L735.32 84.64C733.65 83.59 731.98 83.01 730.19 83.01C728.4 83.01 727.36 83.75 727.36 84.87C727.36 86.07 728.06 86.62 731.67 87.67C735.79 88.8 738.12 90.5 738.12 94.16C738.12 98.43 734.12 100.84 729.23 100.84C725.66 100.84 722.78 99.64 720.84 97.85L723.56 94.82C725.11 96.02 727.02 96.84 729.08 96.84C731.14 96.84 732.46 95.99 732.46 94.59C732.46 93.04 731.72 92.53 727.92 91.48C723.77 90.32 721.82 88.26 721.82 85.15C721.82 81.65 725 79.01 729.97 79.01C732.96 79.01 735.48 79.94 737.43 81.5L737.42 81.49Z" fill="#1765AB"/>
<path d="M754.04 99.24C752.52 100.29 750.51 100.83 748.68 100.83C744.41 100.79 742.23 98.34 742.23 93.76V83.51H739.16V79.63H742.23V75.13L747.74 74.47V79.63H752.48L751.94 83.51H747.75V93.65C747.75 95.67 748.41 96.45 749.81 96.45C750.55 96.45 751.28 96.22 752.14 95.75L754.04 99.25V99.24Z" fill="#1765AB"/>
<path d="M762.58 72.25C762.58 74.08 761.18 75.47 759.2 75.47C757.22 75.47 755.86 74.07 755.86 72.25C755.86 70.43 757.22 69.03 759.2 69.03C761.18 69.03 762.58 70.43 762.58 72.25ZM762 100.21H756.49V79.63H762V100.21Z" fill="#1765AB"/>
<path d="M779.74 99.24C778.22 100.29 776.21 100.83 774.38 100.83C770.11 100.79 767.93 98.34 767.93 93.76V83.51H764.86V79.63H767.93V75.13L773.44 74.47V79.63H778.18L777.64 83.51H773.45V93.65C773.45 95.67 774.11 96.45 775.51 96.45C776.25 96.45 776.98 96.22 777.84 95.75L779.74 99.25V99.24Z" fill="#1765AB"/>
<path d="M799.04 100.21H794.26L793.99 97.4501C792.52 99.7401 790.5 100.83 787.74 100.83C783.94 100.83 781.99 98.3801 781.99 94.4201V79.6201H787.5V93.7201C787.5 95.9701 788.24 96.7101 789.75 96.7101C791.26 96.7101 792.55 95.7001 793.52 94.0301V79.6201H799.03V100.2L799.04 100.21Z" fill="#1765AB"/>
<path d="M810.57 72.25C810.57 74.08 809.17 75.47 807.19 75.47C805.21 75.47 803.85 74.07 803.85 72.25C803.85 70.43 805.21 69.03 807.19 69.03C809.17 69.03 810.57 70.43 810.57 72.25ZM809.99 100.21H804.48V79.63H809.99V100.21Z" fill="#1765AB"/>
<path d="M825.13 100.79V102.15C827.85 102.42 829.05 103.9 829.05 105.88C829.05 108.48 826.8 110.19 823.5 110.19C821.75 110.19 820.28 109.72 819.34 109.06L820.62 106.42C821.4 106.85 822.14 107.08 823.11 107.08C824.2 107.08 824.97 106.77 824.97 105.84C824.97 104.91 823.92 104.44 821.4 104.44L821.9 100.63C817.05 99.74 814.17 95.81 814.17 90.07C814.17 83.55 817.97 79 823.99 79C826.75 79 828.88 79.82 830.83 81.49L828.42 84.75C827.1 83.74 825.89 83.27 824.38 83.27C821.62 83.27 819.99 85.25 819.99 90.03C819.99 94.81 821.74 96.4 824.34 96.4C825.86 96.4 826.9 95.93 828.42 94.96L830.83 98.42C829.2 99.74 827.37 100.59 825.12 100.79H825.13Z" fill="#1765AB"/>
<path d="M851.69 89.91C851.69 96.43 848 100.82 841.83 100.82C835.66 100.82 831.96 96.74 831.96 89.91C831.96 83.08 835.65 79 841.86 79C848.07 79 851.69 83.08 851.69 89.91ZM839.61 73.56C838.72 73.56 838.17 74.18 837.55 75.31L834.72 73.91C835.65 71.58 837.32 69.6 839.53 69.6C841.86 69.6 842.72 71.39 844.04 71.39C844.89 71.39 845.44 70.81 846.1 69.68L848.93 71.08C847.92 73.6 846.25 75.35 844.08 75.35C841.91 75.35 840.93 73.56 839.61 73.56ZM837.71 89.91C837.71 94.65 839.11 96.71 841.83 96.71C844.55 96.71 845.95 94.61 845.95 89.91C845.95 85.21 844.55 83.11 841.87 83.11C839.19 83.11 837.72 85.21 837.72 89.91H837.71Z" fill="#1765AB"/>
<path d="M873.16 91.58H860.31C860.7 95.54 862.56 96.71 865.2 96.71C866.95 96.71 868.42 96.17 870.21 94.92L872.5 98.03C870.48 99.66 867.92 100.83 864.7 100.83C858.1 100.83 854.64 96.48 854.64 90.03C854.64 83.58 857.98 79 864 79C870.02 79 873.28 82.88 873.28 89.45C873.28 90.15 873.2 91 873.16 91.59V91.58ZM867.8 87.89C867.8 84.78 866.75 82.76 864.11 82.76C861.93 82.76 860.57 84.24 860.3 88.12H867.8V87.89Z" fill="#1765AB"/>
<path d="M891.56 81.49L889.46 84.64C887.79 83.59 886.12 83.01 884.33 83.01C882.54 83.01 881.5 83.75 881.5 84.87C881.5 86.07 882.2 86.62 885.81 87.67C889.93 88.8 892.26 90.5 892.26 94.16C892.26 98.43 888.26 100.84 883.37 100.84C879.8 100.84 876.92 99.64 874.98 97.85L877.7 94.82C879.25 96.02 881.16 96.84 883.22 96.84C885.28 96.84 886.6 95.99 886.6 94.59C886.6 93.04 885.86 92.53 882.06 91.48C877.91 90.32 875.96 88.26 875.96 85.15C875.96 81.65 879.14 79.01 884.11 79.01C887.1 79.01 889.62 79.94 891.57 81.5L891.56 81.49Z" fill="#1765AB"/>
<path d="M918.05 79.35L917.12 84.67C916.5 84.51 915.99 84.4 915.3 84.4C912.77 84.4 911.61 86.26 910.87 89.56V100.2H905.36V79.62H910.14L910.65 83.62C911.62 80.75 913.6 79.04 916.01 79.04C916.75 79.04 917.37 79.16 918.07 79.35H918.05Z" fill="#1765AB"/>
<path d="M936.88 91.58H924.03C924.42 95.54 926.28 96.71 928.92 96.71C930.67 96.71 932.14 96.17 933.93 94.92L936.22 98.03C934.2 99.66 931.64 100.83 928.41 100.83C921.81 100.83 918.35 96.48 918.35 90.03C918.35 83.58 921.69 79 927.71 79C933.73 79 936.99 82.88 936.99 89.45C936.99 90.15 936.91 91 936.87 91.59L936.88 91.58ZM931.52 87.89C931.52 84.78 930.47 82.76 927.83 82.76C925.66 82.76 924.3 84.24 924.03 88.12H931.52V87.89Z" fill="#1765AB"/>
<path d="M955.28 81.49L953.18 84.64C951.51 83.59 949.84 83.01 948.06 83.01C946.28 83.01 945.22 83.75 945.22 84.87C945.22 86.07 945.92 86.62 949.53 87.67C953.65 88.8 955.98 90.5 955.98 94.16C955.98 98.43 951.98 100.84 947.09 100.84C943.52 100.84 940.64 99.64 938.7 97.85L941.42 94.82C942.97 96.02 944.88 96.84 946.93 96.84C948.98 96.84 950.31 95.99 950.31 94.59C950.31 93.04 949.57 92.53 945.77 91.48C941.61 90.32 939.67 88.26 939.67 85.15C939.67 81.65 942.85 79.01 947.82 79.01C950.81 79.01 953.34 79.94 955.28 81.5V81.49Z" fill="#1765AB"/>
<path d="M978.35 89.88C978.35 96.17 975.36 100.83 970.2 100.83C968.14 100.83 966.39 100.09 965.11 98.62V108.13L959.6 108.75V79.62H964.45L964.72 82.03C966.35 79.93 968.56 79 970.7 79C976.06 79 978.35 83.23 978.35 89.87V89.88ZM972.6 89.92C972.6 84.76 971.28 83.09 968.99 83.09C967.4 83.09 966.04 84.18 965.11 85.73V94.7C966 96.06 967.13 96.72 968.57 96.72C971.1 96.72 972.61 94.74 972.61 89.92H972.6Z" fill="#1765AB"/>
<path d="M1001.22 89.91C1001.22 96.43 997.53 100.82 991.36 100.82C985.19 100.82 981.5 96.74 981.5 89.91C981.5 83.08 985.19 79 991.4 79C997.61 79 1001.22 83.08 1001.22 89.91ZM987.24 89.91C987.24 94.65 988.64 96.71 991.36 96.71C994.08 96.71 995.48 94.61 995.48 89.91C995.48 85.21 994.08 83.11 991.4 83.11C988.72 83.11 987.24 85.21 987.24 89.91Z" fill="#1765AB"/>
<path d="M1022.65 85.22V100.21H1017.14V86.15C1017.14 83.78 1016.28 83.12 1014.89 83.12C1013.3 83.12 1012.06 84.17 1010.93 85.99V100.2H1005.42V79.62H1010.2L1010.63 82.22C1012.3 80.16 1014.28 79 1016.92 79C1020.53 79 1022.67 81.33 1022.67 85.21L1022.65 85.22Z" fill="#1765AB"/>
<path d="M1045.71 71.43V100.21H1040.85L1040.54 97.69C1039.3 99.48 1037.4 100.84 1034.64 100.84C1029.48 100.84 1026.84 96.49 1026.84 89.93C1026.84 83.37 1030.1 79.02 1035.19 79.02C1037.29 79.02 1038.96 79.87 1040.2 81.08V70.83L1045.72 71.45L1045.71 71.43ZM1040.19 94.23V85.03C1039.18 83.83 1038.13 83.09 1036.62 83.09C1034.21 83.09 1032.58 85.11 1032.58 89.92C1032.58 95.09 1034.06 96.72 1036.27 96.72C1037.94 96.72 1039.11 95.87 1040.19 94.23Z" fill="#1765AB"/>
<path d="M1068.43 91.58H1055.58C1055.97 95.54 1057.83 96.71 1060.47 96.71C1062.22 96.71 1063.69 96.17 1065.48 94.92L1067.77 98.03C1065.75 99.66 1063.19 100.83 1059.97 100.83C1053.37 100.83 1049.91 96.48 1049.91 90.03C1049.91 83.58 1053.25 79 1059.27 79C1065.29 79 1068.55 82.88 1068.55 89.45C1068.55 90.15 1068.47 91 1068.43 91.59V91.58ZM1063.07 87.89C1063.07 84.78 1062.02 82.76 1059.38 82.76C1057.2 82.76 1055.84 84.24 1055.57 88.12H1063.07V87.89Z" fill="#1765AB"/>
<path d="M1089.78 85.22V100.21H1084.26V86.15C1084.26 83.78 1083.41 83.12 1082.01 83.12C1080.42 83.12 1079.18 84.17 1078.05 85.99V100.2H1072.54V79.62H1077.32L1077.75 82.22C1079.42 80.16 1081.4 79 1084.04 79C1087.65 79 1089.79 81.33 1089.79 85.21L1089.78 85.22Z" fill="#1765AB"/>
<path d="M1107.33 99.24C1105.81 100.29 1103.8 100.83 1101.97 100.83C1097.7 100.79 1095.52 98.34 1095.52 93.76V83.51H1092.45V79.63H1095.52V75.13L1101.03 74.47V79.63H1105.77L1105.23 83.51H1101.04V93.65C1101.04 95.67 1101.7 96.45 1103.1 96.45C1103.84 96.45 1104.57 96.22 1105.43 95.75L1107.33 99.25V99.24Z" fill="#1765AB"/>
<path d="M1126.4 91.58H1113.55C1113.94 95.54 1115.8 96.71 1118.44 96.71C1120.19 96.71 1121.66 96.17 1123.45 94.92L1125.74 98.03C1123.72 99.66 1121.16 100.83 1117.93 100.83C1111.33 100.83 1107.87 96.48 1107.87 90.03C1107.87 83.58 1111.21 79 1117.23 79C1123.25 79 1126.51 82.88 1126.51 89.45C1126.51 90.15 1126.43 91 1126.39 91.59L1126.4 91.58ZM1121.04 87.89C1121.04 84.78 1119.99 82.76 1117.35 82.76C1115.18 82.76 1113.82 84.24 1113.55 88.12H1121.04V87.89Z" fill="#1765AB"/>
<path d="M1144.8 81.49L1142.7 84.64C1141.03 83.59 1139.36 83.01 1137.58 83.01C1135.8 83.01 1134.74 83.75 1134.74 84.87C1134.74 86.07 1135.44 86.62 1139.05 87.67C1143.17 88.8 1145.5 90.5 1145.5 94.16C1145.5 98.43 1141.5 100.84 1136.61 100.84C1133.04 100.84 1130.16 99.64 1128.22 97.85L1130.94 94.82C1132.49 96.02 1134.4 96.84 1136.45 96.84C1138.5 96.84 1139.83 95.99 1139.83 94.59C1139.83 93.04 1139.09 92.53 1135.29 91.48C1131.13 90.32 1129.19 88.26 1129.19 85.15C1129.19 81.65 1132.37 79.01 1137.34 79.01C1140.33 79.01 1142.86 79.94 1144.8 81.5V81.49Z" fill="#1765AB"/>
<path d="M337.93 288.02H330.23V293.85H336.93V296.81H330.23V302.94H338.47V305.93H326.24V285.06H338.35L337.93 288.02Z" fill="#1765AB"/>
<path d="M352.01 301.09H345.09L343.79 305.92H339.65L346.14 285.05H351.06L357.52 305.92H353.29L351.99 301.09H352.01ZM351.19 298.07L348.53 288.1L345.87 298.07H351.18H351.19Z" fill="#1765AB"/>
<path d="M375.68 295.39C375.68 303.85 370.52 305.93 365.53 305.93H359.85V285.06H364.98C370.48 285.06 375.67 286.75 375.67 295.39H375.68ZM363.84 288.05V302.94H365.8C368.91 302.94 371.48 301.55 371.48 295.39C371.48 289.23 368.76 288.05 365.68 288.05H363.84Z" fill="#1765AB"/>
<path d="M399.87 299.13H389.84C390.11 302.39 391.65 303.45 393.77 303.45C395.19 303.45 396.37 303 397.76 302.03L399.36 304.23C397.79 305.5 395.86 306.37 393.44 306.37C388.49 306.37 385.83 303.08 385.83 298.04C385.83 293 388.4 289.49 392.93 289.49C397.46 289.49 399.97 292.51 399.97 297.55C399.97 298.06 399.91 298.7 399.88 299.12L399.87 299.13ZM396.13 296.44C396.13 293.81 395.19 292.24 393.02 292.24C391.21 292.24 390.06 293.45 389.85 296.62H396.13V296.44Z" fill="#1765AB"/>
<path d="M425.18 297.89C425.18 302.78 422.91 306.38 418.87 306.38C417.24 306.38 415.85 305.81 414.85 304.63V312.09L410.98 312.51V289.95H414.36L414.57 291.91C415.84 290.25 417.53 289.49 419.25 289.49C423.42 289.49 425.17 292.78 425.17 297.89H425.18ZM421.13 297.92C421.13 293.87 420.04 292.39 418.11 292.39C416.75 292.39 415.6 293.33 414.85 294.56V301.75C415.6 302.87 416.57 303.41 417.78 303.41C419.89 303.41 421.13 301.78 421.13 297.91V297.92Z" fill="#1765AB"/>
<path d="M438.47 289.74L437.81 293.48C437.33 293.36 436.93 293.3 436.39 293.3C434.46 293.3 433.46 294.72 432.86 297.41V305.93H428.99V289.96H432.34L432.7 293.1C433.45 290.81 434.99 289.54 436.87 289.54C437.44 289.54 437.96 289.6 438.47 289.75V289.74Z" fill="#1765AB"/>
<path d="M452.99 299.13H442.96C443.23 302.39 444.77 303.45 446.89 303.45C448.31 303.45 449.49 303 450.88 302.03L452.48 304.23C450.91 305.5 448.98 306.37 446.56 306.37C441.61 306.37 438.95 303.08 438.95 298.04C438.95 293 441.52 289.49 446.05 289.49C450.58 289.49 453.09 292.51 453.09 297.55C453.09 298.06 453.03 298.7 453 299.12L452.99 299.13ZM449.25 296.44C449.25 293.81 448.31 292.24 446.14 292.24C444.33 292.24 443.18 293.45 442.97 296.62H449.25V296.44Z" fill="#1765AB"/>
<path d="M467.28 291.4L465.77 293.66C464.44 292.81 463.17 292.36 461.75 292.36C460.21 292.36 459.33 292.99 459.33 293.96C459.33 295.02 459.96 295.5 462.68 296.25C465.94 297.13 467.78 298.45 467.78 301.29C467.78 304.61 464.7 306.36 461.05 306.36C458.3 306.36 456.16 305.42 454.68 304.09L456.61 301.92C457.85 302.86 459.33 303.49 460.96 303.49C462.68 303.49 463.8 302.77 463.8 301.56C463.8 300.23 463.17 299.81 460.18 298.96C456.89 298.05 455.44 296.48 455.44 294.13C455.44 291.47 457.89 289.48 461.6 289.48C463.89 289.48 465.77 290.2 467.28 291.38V291.4Z" fill="#1765AB"/>
<path d="M483.95 299.13H473.92C474.19 302.39 475.73 303.45 477.85 303.45C479.27 303.45 480.45 303 481.84 302.03L483.44 304.23C481.87 305.5 479.94 306.37 477.52 306.37C472.57 306.37 469.91 303.08 469.91 298.04C469.91 293 472.48 289.49 477.01 289.49C481.54 289.49 484.05 292.51 484.05 297.55C484.05 298.06 483.99 298.7 483.96 299.12L483.95 299.13ZM480.21 296.44C480.21 293.81 479.27 292.24 477.1 292.24C475.29 292.24 474.14 293.45 473.93 296.62H480.21V296.44Z" fill="#1765AB"/>
<path d="M500.56 294.36V305.93H496.69V294.97C496.69 292.98 495.94 292.4 494.73 292.4C493.34 292.4 492.31 293.34 491.38 294.82V305.93H487.51V289.96H490.86L491.16 292.04C492.4 290.44 494 289.5 496.02 289.5C498.89 289.5 500.55 291.31 500.55 294.36H500.56Z" fill="#1765AB"/>
<path d="M516.68 291.37L514.96 293.7C513.9 292.91 512.94 292.55 511.73 292.55C509.5 292.55 508.14 294.18 508.14 298.02C508.14 301.86 509.56 303.24 511.73 303.24C512.94 303.24 513.78 302.85 514.96 302.09L516.68 304.54C515.23 305.72 513.57 306.38 511.52 306.38C506.9 306.38 504.03 303.18 504.03 298.08C504.03 292.98 506.9 289.5 511.49 289.5C513.57 289.5 515.17 290.07 516.68 291.37Z" fill="#1765AB"/>
<path d="M523.84 284.21C523.84 285.51 522.84 286.54 521.39 286.54C519.94 286.54 518.97 285.51 518.97 284.21C518.97 282.91 519.97 281.86 521.39 281.86C522.81 281.86 523.84 282.89 523.84 284.21ZM523.36 305.92H519.49V289.95H523.36V305.92Z" fill="#1765AB"/>
<path d="M541.02 303.75L540.2 306.32C538.45 306.17 537.3 305.53 536.67 303.99C535.55 305.68 533.8 306.38 531.9 306.38C528.7 306.38 526.74 304.36 526.74 301.46C526.74 297.99 529.37 296.12 534.02 296.12H536.01V295.21C536.01 293.13 535.07 292.43 533.02 292.43C531.93 292.43 530.39 292.73 528.79 293.28L527.88 290.65C529.84 289.9 531.87 289.5 533.68 289.5C537.94 289.5 539.81 291.46 539.81 295V301.7C539.81 303 540.23 303.45 541.02 303.75ZM536.01 301.61V298.38H534.41C531.9 298.38 530.67 299.29 530.67 301.16C530.67 302.7 531.46 303.58 532.94 303.58C534.3 303.58 535.29 302.89 536.02 301.62L536.01 301.61Z" fill="#1765AB"/>
<path d="M544.05 302.27V283.55L547.92 283.13V302.15C547.92 302.9 548.19 303.27 548.83 303.27C549.19 303.27 549.46 303.21 549.74 303.12L550.56 305.84C549.9 306.14 548.99 306.38 547.99 306.38C545.54 306.38 544.06 304.9 544.06 302.27H544.05Z" fill="#1765AB"/>
<path d="M222.96 439.02H215.26V444.85H221.96V447.81H215.26V453.94H223.5V456.93H211.27V436.06H223.38L222.96 439.02Z" fill="#1765AB"/>
<path d="M237.04 452.09H230.12L228.82 456.92H224.68L231.17 436.05H236.09L242.55 456.92H238.32L237.02 452.09H237.04ZM236.22 449.07L233.56 439.11L230.9 449.07H236.21H236.22Z" fill="#1765AB"/>
<path d="M260.71 446.39C260.71 454.85 255.55 456.93 250.56 456.93H244.88V436.06H250.01C255.51 436.06 260.7 437.75 260.7 446.39H260.71ZM248.87 439.05V453.94H250.83C253.94 453.94 256.51 452.55 256.51 446.39C256.51 440.23 253.79 439.05 250.71 439.05H248.87Z" fill="#1765AB"/>
<path d="M267.48 454.93C267.48 455.72 267.24 456.44 266.69 457.65L264.73 462.12H262.37L263.61 456.93C262.95 456.48 262.58 455.75 262.58 454.91C262.58 453.55 263.64 452.49 265 452.49C266.36 452.49 267.48 453.55 267.48 454.94V454.93Z" fill="#1765AB"/>
<path d="M291.58 445.36V456.93H287.71V445.97C287.71 443.98 286.93 443.4 285.75 443.4C284.39 443.4 283.33 444.34 282.4 445.79V456.93H278.53V434.58L282.4 434.19V442.86C283.64 441.35 285.12 440.5 287.05 440.5C289.89 440.5 291.58 442.34 291.58 445.36Z" fill="#1765AB"/>
<path d="M301.88 435.18L295.06 437.9L293.97 435.94L300.31 432.17L301.88 435.19V435.18ZM299.95 456.92H296.08V440.95H299.95V456.92Z" fill="#1765AB"/>
<path d="M319.36 448.92C319.36 453.9 316.97 457.38 313.05 457.38C311.3 457.38 309.85 456.59 308.82 455.3L308.58 456.93H305.17V434.55L309.04 434.13V442.77C310.07 441.35 311.61 440.5 313.45 440.5C317.16 440.5 319.37 443.58 319.37 448.93L319.36 448.92ZM315.31 448.92C315.31 444.66 314.04 443.39 312.2 443.39C310.81 443.39 309.78 444.33 309.03 445.56V452.63C309.72 453.78 310.78 454.47 311.99 454.47C313.95 454.47 315.31 452.93 315.31 448.91V448.92Z" fill="#1765AB"/>
<path d="M332.65 440.74L331.99 444.48C331.51 444.36 331.11 444.3 330.57 444.3C328.64 444.3 327.64 445.72 327.04 448.41V456.93H323.17V440.96H326.52L326.88 444.1C327.63 441.81 329.17 440.54 331.05 440.54C331.62 440.54 332.14 440.6 332.65 440.75V440.74Z" fill="#1765AB"/>
<path d="M339.41 435.21C339.41 436.51 338.41 437.54 336.96 437.54C335.51 437.54 334.54 436.51 334.54 435.21C334.54 433.91 335.54 432.86 336.96 432.86C338.38 432.86 339.41 433.89 339.41 435.21ZM338.93 456.92H335.06V440.95H338.93V456.92Z" fill="#1765AB"/>
<path d="M357.02 434.55V456.93H353.61L353.34 454.91C352.37 456.36 350.83 457.39 348.78 457.39C344.79 457.39 342.71 454.04 342.71 448.97C342.71 443.9 345.19 440.51 349.14 440.51C350.83 440.51 352.16 441.24 353.16 442.23V434.14L357.03 434.56L357.02 434.55ZM353.15 452.4V445.09C352.3 444.06 351.4 443.4 350.1 443.4C348.11 443.4 346.78 445.09 346.78 448.93C346.78 453.04 347.96 454.46 349.86 454.46C351.28 454.46 352.25 453.77 353.15 452.41V452.4Z" fill="#1765AB"/>
<path d="M375.68 448.92C375.68 453.96 372.87 457.38 368.16 457.38C363.45 457.38 360.64 454.18 360.64 448.92C360.64 443.66 363.45 440.49 368.19 440.49C372.93 440.49 375.68 443.69 375.68 448.92ZM364.72 448.92C364.72 452.75 365.9 454.45 368.16 454.45C370.42 454.45 371.6 452.73 371.6 448.92C371.6 445.11 370.42 443.42 368.19 443.42C365.96 443.42 364.72 445.14 364.72 448.92Z" fill="#1765AB"/>
<path d="M399.87 450.13H389.84C390.11 453.39 391.65 454.45 393.77 454.45C395.19 454.45 396.37 454 397.76 453.03L399.36 455.23C397.79 456.5 395.86 457.37 393.44 457.37C388.49 457.37 385.83 454.08 385.83 449.04C385.83 444 388.4 440.49 392.93 440.49C397.46 440.49 399.97 443.51 399.97 448.55C399.97 449.06 399.91 449.7 399.88 450.12L399.87 450.13ZM396.13 447.44C396.13 444.81 395.19 443.24 393.02 443.24C391.21 443.24 390.06 444.45 389.85 447.62H396.13V447.44Z" fill="#1765AB"/>
<path d="M425.18 448.89C425.18 453.78 422.91 457.38 418.87 457.38C417.24 457.38 415.85 456.81 414.85 455.63V463.09L410.98 463.51V440.95H414.36L414.57 442.91C415.84 441.25 417.53 440.49 419.25 440.49C423.42 440.49 425.17 443.78 425.17 448.89H425.18ZM421.13 448.92C421.13 444.87 420.04 443.39 418.11 443.39C416.75 443.39 415.6 444.33 414.85 445.56V452.75C415.6 453.87 416.57 454.41 417.78 454.41C419.89 454.41 421.13 452.78 421.13 448.91V448.92Z" fill="#1765AB"/>
<path d="M438.47 440.74L437.81 444.48C437.33 444.36 436.93 444.3 436.39 444.3C434.46 444.3 433.46 445.72 432.86 448.41V456.93H428.99V440.96H432.34L432.7 444.1C433.45 441.81 434.99 440.54 436.87 440.54C437.44 440.54 437.96 440.6 438.47 440.75V440.74Z" fill="#1765AB"/>
<path d="M452.99 450.13H442.96C443.23 453.39 444.77 454.45 446.89 454.45C448.31 454.45 449.49 454 450.88 453.03L452.48 455.23C450.91 456.5 448.98 457.37 446.56 457.37C441.61 457.37 438.95 454.08 438.95 449.04C438.95 444 441.52 440.49 446.05 440.49C450.58 440.49 453.09 443.51 453.09 448.55C453.09 449.06 453.03 449.7 453 450.12L452.99 450.13ZM449.25 447.44C449.25 444.81 448.31 443.24 446.14 443.24C444.33 443.24 443.18 444.45 442.97 447.62H449.25V447.44Z" fill="#1765AB"/>
<path d="M467.28 442.4L465.77 444.66C464.44 443.81 463.17 443.36 461.75 443.36C460.21 443.36 459.33 443.99 459.33 444.96C459.33 446.02 459.96 446.5 462.68 447.25C465.94 448.13 467.78 449.45 467.78 452.29C467.78 455.61 464.7 457.36 461.05 457.36C458.3 457.36 456.16 456.42 454.68 455.1L456.61 452.93C457.85 453.87 459.33 454.5 460.96 454.5C462.68 454.5 463.8 453.78 463.8 452.57C463.8 451.24 463.17 450.82 460.18 449.97C456.89 449.06 455.44 447.49 455.44 445.14C455.44 442.48 457.89 440.49 461.6 440.49C463.89 440.49 465.77 441.22 467.28 442.39V442.4Z" fill="#1765AB"/>
<path d="M483.95 450.13H473.92C474.19 453.39 475.73 454.45 477.85 454.45C479.27 454.45 480.45 454 481.84 453.03L483.44 455.23C481.87 456.5 479.94 457.37 477.52 457.37C472.57 457.37 469.91 454.08 469.91 449.04C469.91 444 472.48 440.49 477.01 440.49C481.54 440.49 484.05 443.51 484.05 448.55C484.05 449.06 483.99 449.7 483.96 450.12L483.95 450.13ZM480.21 447.44C480.21 444.81 479.27 443.24 477.1 443.24C475.29 443.24 474.14 444.45 473.93 447.62H480.21V447.44Z" fill="#1765AB"/>
<path d="M500.56 445.36V456.93H496.69V445.97C496.69 443.98 495.94 443.4 494.73 443.4C493.34 443.4 492.31 444.34 491.38 445.82V456.93H487.51V440.96H490.86L491.16 443.04C492.4 441.44 494 440.5 496.02 440.5C498.89 440.5 500.55 442.31 500.55 445.36H500.56Z" fill="#1765AB"/>
<path d="M516.68 442.37L514.96 444.7C513.9 443.91 512.94 443.55 511.73 443.55C509.5 443.55 508.14 445.18 508.14 449.01C508.14 452.84 509.56 454.23 511.73 454.23C512.94 454.23 513.78 453.84 514.96 453.08L516.68 455.53C515.23 456.71 513.57 457.37 511.52 457.37C506.9 457.37 504.03 454.17 504.03 449.07C504.03 443.97 506.9 440.49 511.49 440.49C513.57 440.49 515.17 441.06 516.68 442.36V442.37Z" fill="#1765AB"/>
<path d="M523.84 435.21C523.84 436.51 522.84 437.54 521.39 437.54C519.94 437.54 518.97 436.51 518.97 435.21C518.97 433.91 519.97 432.86 521.39 432.86C522.81 432.86 523.84 433.89 523.84 435.21ZM523.36 456.92H519.49V440.95H523.36V456.92Z" fill="#1765AB"/>
<path d="M541.02 454.75L540.2 457.32C538.45 457.17 537.3 456.53 536.67 454.99C535.55 456.68 533.8 457.38 531.9 457.38C528.7 457.38 526.74 455.36 526.74 452.46C526.74 448.99 529.37 447.11 534.02 447.11H536.01V446.2C536.01 444.12 535.07 443.42 533.02 443.42C531.93 443.42 530.39 443.72 528.79 444.27L527.88 441.64C529.84 440.88 531.87 440.49 533.68 440.49C537.94 440.49 539.81 442.45 539.81 445.99V452.69C539.81 453.99 540.23 454.44 541.02 454.74V454.75ZM536.01 452.61V449.38H534.41C531.9 449.38 530.67 450.29 530.67 452.16C530.67 453.7 531.46 454.58 532.93 454.58C534.29 454.58 535.29 453.89 536.01 452.62V452.61Z" fill="#1765AB"/>
<path d="M544.05 453.27V434.55L547.92 434.13V453.15C547.92 453.9 548.19 454.27 548.83 454.27C549.19 454.27 549.46 454.21 549.74 454.12L550.56 456.84C549.9 457.14 548.99 457.38 547.99 457.38C545.54 457.38 544.06 455.9 544.06 453.27H544.05Z" fill="#1765AB"/>
<path d="M294.02 595.86C294.02 600.66 290.55 602.81 285.84 602.81H283.39V610.09H279.4V589.22H285.56C290.81 589.22 294.02 591.36 294.02 595.86ZM289.85 595.86C289.85 593.23 288.25 592.15 285.53 592.15H283.39V599.82H285.53C288.19 599.82 289.85 598.91 289.85 595.86Z" fill="#1765AB"/>
<path d="M306.01 593.89L305.35 597.63C304.87 597.51 304.47 597.45 303.93 597.45C302 597.45 301 598.87 300.4 601.56V610.08H296.53V594.11H299.88L300.24 597.25C300.99 594.96 302.53 593.69 304.41 593.69C304.98 593.69 305.5 593.75 306.01 593.9V593.89Z" fill="#1765AB"/>
<path d="M320.54 603.29H310.51C310.78 606.55 312.32 607.61 314.44 607.61C315.86 607.61 317.04 607.16 318.43 606.19L320.03 608.39C318.46 609.66 316.53 610.53 314.11 610.53C309.16 610.53 306.5 607.24 306.5 602.2C306.5 597.16 309.07 593.65 313.6 593.65C318.13 593.65 320.64 596.67 320.64 601.71C320.64 602.22 320.58 602.86 320.55 603.28L320.54 603.29ZM316.8 600.6C316.8 597.97 315.86 596.4 313.69 596.4C311.88 596.4 310.73 597.61 310.52 600.78H316.8V600.6Z" fill="#1765AB"/>
<path d="M334.82 595.56L333.31 597.82C331.98 596.97 330.71 596.52 329.29 596.52C327.75 596.52 326.87 597.15 326.87 598.12C326.87 599.18 327.5 599.66 330.22 600.41C333.48 601.29 335.32 602.61 335.32 605.45C335.32 608.77 332.24 610.52 328.59 610.52C325.84 610.52 323.7 609.58 322.22 608.26L324.15 606.09C325.39 607.03 326.87 607.66 328.5 607.66C330.22 607.66 331.34 606.94 331.34 605.73C331.34 604.4 330.71 603.98 327.72 603.13C324.43 602.22 322.98 600.65 322.98 598.3C322.98 595.64 325.43 593.65 329.14 593.65C331.43 593.65 333.31 594.38 334.82 595.55V595.56Z" fill="#1765AB"/>
<path d="M351.49 603.29H341.46C341.73 606.55 343.27 607.61 345.39 607.61C346.81 607.61 347.99 607.16 349.38 606.19L350.98 608.39C349.41 609.66 347.48 610.53 345.06 610.53C340.11 610.53 337.45 607.24 337.45 602.2C337.45 597.16 340.02 593.65 344.55 593.65C349.08 593.65 351.59 596.67 351.59 601.71C351.59 602.22 351.53 602.86 351.5 603.28L351.49 603.29ZM347.75 600.6C347.75 597.97 346.81 596.4 344.64 596.4C342.83 596.4 341.68 597.61 341.47 600.78H347.75V600.6Z" fill="#1765AB"/>
<path d="M368.1 598.51V610.08H364.23V599.12C364.23 597.13 363.48 596.55 362.27 596.55C360.88 596.55 359.85 597.49 358.92 598.97V610.08H355.05V594.11H358.4L358.7 596.19C359.94 594.59 361.54 593.65 363.56 593.65C366.43 593.65 368.09 595.46 368.09 598.51H368.1Z" fill="#1765AB"/>
<path d="M384.23 595.53L382.51 597.86C381.45 597.07 380.49 596.71 379.28 596.71C377.05 596.71 375.69 598.34 375.69 602.17C375.69 606 377.11 607.39 379.28 607.39C380.49 607.39 381.33 607 382.51 606.24L384.23 608.69C382.78 609.87 381.12 610.53 379.07 610.53C374.45 610.53 371.58 607.33 371.58 602.23C371.58 597.13 374.45 593.65 379.04 593.65C381.12 593.65 382.72 594.22 384.23 595.52V595.53Z" fill="#1765AB"/>
<path d="M391.39 588.37C391.39 589.67 390.39 590.7 388.94 590.7C387.49 590.7 386.52 589.67 386.52 588.37C386.52 587.07 387.52 586.01 388.94 586.01C390.36 586.01 391.39 587.04 391.39 588.37ZM390.91 610.08H387.04V594.11H390.91V610.08Z" fill="#1765AB"/>
<path d="M408.57 607.91L407.75 610.48C406 610.33 404.85 609.69 404.22 608.15C403.1 609.84 401.35 610.54 399.45 610.54C396.25 610.54 394.29 608.52 394.29 605.62C394.29 602.15 396.92 600.27 401.57 600.27H403.56V599.36C403.56 597.28 402.62 596.58 400.57 596.58C399.48 596.58 397.94 596.88 396.34 597.43L395.43 594.8C397.39 594.04 399.42 593.65 401.23 593.65C405.49 593.65 407.36 595.61 407.36 599.15V605.85C407.36 607.15 407.78 607.6 408.57 607.9V607.91ZM403.56 605.77V602.54H401.96C399.45 602.54 398.22 603.45 398.22 605.32C398.22 606.86 399.01 607.74 400.49 607.74C401.85 607.74 402.84 607.05 403.57 605.78L403.56 605.77Z" fill="#1765AB"/>
<path d="M411.59 606.43V587.71L415.46 587.29V606.31C415.46 607.06 415.73 607.43 416.37 607.43C416.73 607.43 417 607.37 417.28 607.28L418.1 610C417.44 610.3 416.53 610.54 415.53 610.54C413.08 610.54 411.6 609.06 411.6 606.43H411.59Z" fill="#1765AB"/>
<path d="M441.22 603.29H431.19C431.46 606.55 433 607.61 435.12 607.61C436.54 607.61 437.72 607.16 439.11 606.19L440.71 608.39C439.14 609.66 437.21 610.53 434.79 610.53C429.84 610.53 427.18 607.24 427.18 602.2C427.18 597.16 429.75 593.65 434.28 593.65C438.81 593.65 441.32 596.67 441.32 601.71C441.32 602.22 441.26 602.86 441.23 603.28L441.22 603.29ZM437.48 600.6C437.48 597.97 436.54 596.4 434.37 596.4C432.56 596.4 431.41 597.61 431.2 600.78H437.48V600.6Z" fill="#1765AB"/>
<path d="M465.37 598.51V610.08H461.5V599.12C461.5 597.13 460.72 596.55 459.54 596.55C458.18 596.55 457.12 597.49 456.19 598.94V610.08H452.32V587.73L456.19 587.34V596.01C457.43 594.5 458.91 593.65 460.84 593.65C463.68 593.65 465.37 595.49 465.37 598.51Z" fill="#1765AB"/>
<path d="M475.67 588.34L468.85 591.06L467.76 589.1L474.1 585.33L475.67 588.35V588.34ZM473.74 610.08H469.87V594.11H473.74V610.08Z" fill="#1765AB"/>
<path d="M493.16 602.08C493.16 607.06 490.77 610.54 486.85 610.54C485.1 610.54 483.65 609.75 482.62 608.46L482.38 610.09H478.97V587.71L482.84 587.29V595.93C483.87 594.51 485.41 593.66 487.25 593.66C490.96 593.66 493.17 596.74 493.17 602.09L493.16 602.08ZM489.11 602.08C489.11 597.82 487.84 596.55 486 596.55C484.61 596.55 483.58 597.49 482.83 598.72V605.79C483.52 606.94 484.58 607.63 485.79 607.63C487.75 607.63 489.11 606.09 489.11 602.07V602.08Z" fill="#1765AB"/>
<path d="M506.45 593.89L505.79 597.63C505.31 597.51 504.91 597.45 504.37 597.45C502.44 597.45 501.44 598.87 500.84 601.56V610.08H496.97V594.11H500.32L500.68 597.25C501.43 594.96 502.97 593.69 504.85 593.69C505.42 593.69 505.94 593.75 506.45 593.9V593.89Z" fill="#1765AB"/>
<path d="M513.21 588.37C513.21 589.67 512.21 590.7 510.76 590.7C509.31 590.7 508.34 589.67 508.34 588.37C508.34 587.07 509.34 586.01 510.76 586.01C512.18 586.01 513.21 587.04 513.21 588.37ZM512.73 610.08H508.86V594.11H512.73V610.08Z" fill="#1765AB"/>
<path d="M530.82 587.7V610.08H527.41L527.14 608.06C526.17 609.51 524.63 610.54 522.58 610.54C518.59 610.54 516.51 607.19 516.51 602.12C516.51 597.05 518.99 593.66 522.94 593.66C524.63 593.66 525.96 594.39 526.96 595.38V587.29L530.83 587.71L530.82 587.7ZM526.95 605.55V598.24C526.1 597.21 525.2 596.55 523.9 596.55C521.91 596.55 520.58 598.24 520.58 602.08C520.58 606.19 521.76 607.61 523.66 607.61C525.08 607.61 526.05 606.92 526.95 605.56V605.55Z" fill="#1765AB"/>
<path d="M549.48 602.08C549.48 607.12 546.67 610.54 541.96 610.54C537.25 610.54 534.44 607.34 534.44 602.08C534.44 596.82 537.25 593.65 541.99 593.65C546.73 593.65 549.48 596.85 549.48 602.08ZM538.52 602.08C538.52 605.91 539.7 607.61 541.96 607.61C544.22 607.61 545.4 605.89 545.4 602.08C545.4 598.27 544.22 596.58 541.99 596.58C539.76 596.58 538.52 598.3 538.52 602.08Z" fill="#1765AB"/>
<path d="M383.65 744.48L381.69 746.74C380.18 745.5 378.73 744.96 377.01 744.96C375.14 744.96 373.78 745.81 373.78 747.44C373.78 748.95 374.59 749.61 378.07 750.7C381.72 751.85 384.26 753.36 384.26 757.28C384.26 761.2 381.33 763.68 376.35 763.68C373.03 763.68 370.55 762.5 368.83 760.81L370.88 758.52C372.42 759.82 374.08 760.6 376.26 760.6C378.44 760.6 380.09 759.51 380.09 757.49C380.09 755.74 379.21 754.95 375.95 753.96C371.57 752.6 369.67 750.85 369.67 747.68C369.67 744.21 372.66 741.91 376.77 741.91C379.82 741.91 381.84 742.82 383.66 744.48H383.65Z" fill="#1765AB"/>
<path d="M401.56 755.23C401.56 760.27 398.75 763.69 394.04 763.69C389.33 763.69 386.52 760.49 386.52 755.23C386.52 749.97 389.33 746.81 394.07 746.81C398.81 746.81 401.56 750.01 401.56 755.23ZM390.6 755.23C390.6 759.06 391.78 760.76 394.04 760.76C396.3 760.76 397.48 759.04 397.48 755.23C397.48 751.42 396.3 749.73 394.07 749.73C391.84 749.73 390.6 751.45 390.6 755.23Z" fill="#1765AB"/>
<path d="M426.36 751.67V763.24H422.49V752.28C422.49 750.29 421.7 749.71 420.74 749.71C419.41 749.71 418.6 750.65 417.72 752.13V763.24H413.85V752.28C413.85 750.29 413.03 749.71 412.1 749.71C410.74 749.71 409.93 750.65 409.05 752.13V763.24H405.18V747.27H408.53L408.83 749.35C409.98 747.75 411.43 746.81 413.45 746.81C415.32 746.81 416.71 747.81 417.32 749.5C418.53 747.84 420.01 746.81 422.12 746.81C424.66 746.81 426.35 748.65 426.35 751.67H426.36Z" fill="#1765AB"/>
<path d="M443.87 756.44H433.84C434.11 759.7 435.65 760.76 437.77 760.76C439.19 760.76 440.37 760.31 441.76 759.34L443.36 761.54C441.79 762.81 439.86 763.68 437.44 763.68C432.49 763.68 429.83 760.39 429.83 755.35C429.83 750.31 432.4 746.81 436.93 746.81C441.46 746.81 443.97 749.83 443.97 754.87C443.97 755.38 443.91 756.02 443.88 756.44H443.87ZM440.13 753.75C440.13 751.12 439.19 749.55 437.02 749.55C435.21 749.55 434.06 750.76 433.85 753.93H440.13V753.75Z" fill="#1765AB"/>
<path d="M460.48 751.67V763.24H456.61V752.28C456.61 750.29 455.86 749.71 454.65 749.71C453.26 749.71 452.23 750.65 451.3 752.13V763.24H447.43V747.27H450.78L451.08 749.35C452.32 747.75 453.92 746.81 455.94 746.81C458.81 746.81 460.47 748.62 460.47 751.67H460.48Z" fill="#1765AB"/>
<path d="M474.13 762.48C472.98 763.3 471.53 763.69 470.11 763.69C466.97 763.66 465.31 761.88 465.31 758.47V750.05H462.8V747.27H465.31V743.74L469.18 743.29V747.28H472.89L472.5 750.06H469.18V758.39C469.18 759.96 469.69 760.59 470.87 760.59C471.47 760.59 472.08 760.41 472.77 760.02L474.13 762.5V762.48Z" fill="#1765AB"/>
<path d="M488.81 756.44H478.78C479.05 759.7 480.59 760.76 482.71 760.76C484.13 760.76 485.31 760.31 486.7 759.34L488.3 761.54C486.73 762.81 484.8 763.68 482.38 763.68C477.43 763.68 474.77 760.39 474.77 755.35C474.77 750.31 477.34 746.81 481.87 746.81C486.4 746.81 488.91 749.83 488.91 754.87C488.91 755.38 488.85 756.02 488.82 756.44H488.81ZM485.07 753.75C485.07 751.12 484.13 749.55 481.96 749.55C480.15 749.55 479 750.76 478.79 753.93H485.07V753.75Z" fill="#1765AB"/>
<path d="M511.73 745.33H504.03V751.16H510.73V754.12H504.03V760.25H512.27V763.24H500.04V742.37H512.15L511.73 745.33Z" fill="#1765AB"/>
<path d="M525.8 758.4H518.88L517.58 763.23H513.44L519.93 742.36H524.85L531.31 763.23H527.08L525.78 758.4H525.8ZM524.98 755.38L522.32 745.42L519.66 755.38H524.97H524.98Z" fill="#1765AB"/>
<path d="M549.48 752.7C549.48 761.16 544.32 763.24 539.33 763.24H533.65V742.37H538.78C544.28 742.37 549.47 744.06 549.47 752.7H549.48ZM537.64 745.36V760.25H539.6C542.71 760.25 545.28 758.86 545.28 752.7C545.28 746.54 542.56 745.36 539.48 745.36H537.64Z" fill="#1765AB"/>
</g>
<defs>
<clipPath id="clip0_11_13145">
<rect width="1311.92" height="902.09" fill="white"/>
</clipPath>
</defs>
</svg>
