<svg width="1003" height="1080" viewBox="0 0 1003 1080" fill="none" xmlns="http://www.w3.org/2000/svg">
<g clip-path="url(#clip0_11_12667)">
<path d="M1002.69 0H0V1080H1002.69V0Z" fill="white"/>
<path d="M295.87 840.18H274.43V861.62H295.87V840.18Z" fill="#FFA161"/>
<path d="M295.87 883.39H274.43V904.83H295.87V883.39Z" fill="#B24800"/>
<path d="M295.87 926.59H274.43V948.03H295.87V926.59Z" fill="#F06C00"/>
<path d="M295.87 969.8H274.43V991.24H295.87V969.8Z" fill="#FFDCC5"/>
<path d="M544.77 785.3C530.83 787.46 516.54 788.57 501.99 788.57C348.02 788.57 223.2 663.75 223.2 509.78C223.2 445.42 245.02 386.13 281.64 338.95C281.73 338.85 281.79 338.75 281.88 338.64L502 509.78L544.78 785.3H544.77Z" fill="#B24800"/>
<path d="M501.99 230.98V509.77L281.87 338.63C332.82 273.23 412.22 231.13 501.49 230.98H501.98H501.99Z" fill="#FFA161"/>
<path d="M581.9 242.62L501.99 509.77V230.98C529.78 230.98 556.58 235.05 581.9 242.62Z" fill="#FFDCC5"/>
<path d="M780.78 509.77C780.78 649.09 678.59 764.53 545.08 785.24C544.98 785.26 544.88 785.27 544.77 785.29L501.99 509.77L581.9 242.62C582.33 242.74 582.75 242.86 583.18 242.99C697.55 277.74 780.78 384.04 780.78 509.77Z" fill="#F06C00"/>
<path d="M339.66 852.74H333.8V860.1H330.66V843.64H333.8V850.24H339.66V843.64H342.83V860.1H339.66V852.74Z" fill="#1765AB"/>
<path d="M356.83 858.39L356.19 860.41C354.81 860.29 353.9 859.79 353.4 858.58C352.52 859.91 351.14 860.46 349.64 860.46C347.12 860.46 345.57 858.86 345.57 856.58C345.57 853.84 347.64 852.36 351.31 852.36H352.88V851.65C352.88 850.01 352.14 849.46 350.52 849.46C349.66 849.46 348.45 849.7 347.19 850.13L346.48 848.06C348.03 847.47 349.62 847.15 351.05 847.15C354.41 847.15 355.89 848.7 355.89 851.49V856.78C355.89 857.8 356.22 858.16 356.84 858.4L356.83 858.39ZM352.88 856.7V854.15H351.62C349.64 854.15 348.67 854.86 348.67 856.34C348.67 857.55 349.29 858.25 350.46 858.25C351.53 858.25 352.32 857.7 352.89 856.7H352.88Z" fill="#1765AB"/>
<path d="M365.24 860.1H361.6L357.43 847.5H360.74L363.43 857.65L366.19 847.5H369.33L365.23 860.1H365.24Z" fill="#1765AB"/>
<path d="M381.35 854.74H373.44C373.65 857.31 374.87 858.15 376.54 858.15C377.66 858.15 378.59 857.79 379.68 857.03L380.94 858.77C379.7 859.77 378.18 860.46 376.27 860.46C372.36 860.46 370.27 857.86 370.27 853.89C370.27 849.92 372.29 847.15 375.87 847.15C379.45 847.15 381.42 849.53 381.42 853.51C381.42 853.91 381.37 854.42 381.35 854.75V854.74ZM378.4 852.62C378.4 850.55 377.66 849.31 375.95 849.31C374.52 849.31 373.62 850.26 373.45 852.76H378.4V852.62Z" fill="#1765AB"/>
<path d="M391.64 847.33L391.12 850.28C390.74 850.18 390.43 850.14 390 850.14C388.48 850.14 387.69 851.26 387.21 853.38V860.1H384.16V847.5H386.8L387.09 849.98C387.69 848.17 388.9 847.17 390.38 847.17C390.83 847.17 391.24 847.22 391.64 847.34V847.33Z" fill="#1765AB"/>
<path d="M402.98 858.39L402.34 860.41C400.96 860.29 400.05 859.79 399.55 858.58C398.67 859.91 397.29 860.46 395.79 860.46C393.27 860.46 391.72 858.86 391.72 856.58C391.72 853.84 393.79 852.36 397.46 852.36H399.03V851.65C399.03 850.01 398.29 849.46 396.67 849.46C395.81 849.46 394.6 849.7 393.34 850.13L392.63 848.06C394.18 847.47 395.77 847.15 397.2 847.15C400.56 847.15 402.04 848.7 402.04 851.49V856.78C402.04 857.8 402.37 858.16 402.99 858.4L402.98 858.39ZM394.88 845.1L394.02 843.55L399.02 840.57L400.26 842.95L394.88 845.09V845.1ZM399.02 856.7V854.15H397.76C395.78 854.15 394.81 854.86 394.81 856.34C394.81 857.55 395.43 858.25 396.6 858.25C397.67 858.25 398.46 857.7 399.03 856.7H399.02Z" fill="#1765AB"/>
<path d="M428.38 850.98V860.1H425.33V851.45C425.33 849.88 424.71 849.43 423.95 849.43C422.9 849.43 422.26 850.17 421.57 851.34V860.11H418.52V851.46C418.52 849.89 417.88 849.44 417.14 849.44C416.07 849.44 415.43 850.18 414.73 851.35V860.12H411.68V847.52H414.32L414.56 849.16C415.46 847.9 416.61 847.16 418.2 847.16C419.68 847.16 420.77 847.95 421.25 849.28C422.2 847.97 423.37 847.16 425.04 847.16C427.04 847.16 428.37 848.61 428.37 850.99L428.38 850.98Z" fill="#1765AB"/>
<path d="M442.19 854.74H434.28C434.49 857.31 435.71 858.15 437.38 858.15C438.5 858.15 439.43 857.79 440.52 857.03L441.78 858.77C440.54 859.77 439.02 860.46 437.11 860.46C433.2 860.46 431.11 857.86 431.11 853.89C431.11 849.92 433.13 847.15 436.71 847.15C440.29 847.15 442.26 849.53 442.26 853.51C442.26 853.91 442.21 854.42 442.19 854.75V854.74ZM439.24 852.62C439.24 850.55 438.5 849.31 436.79 849.31C435.36 849.31 434.46 850.26 434.29 852.76H439.24V852.62Z" fill="#1765AB"/>
<path d="M455.3 850.98V860.1H452.25V851.45C452.25 849.88 451.65 849.43 450.7 849.43C449.6 849.43 448.79 850.17 448.06 851.34V860.11H445.01V847.51H447.65L447.89 849.15C448.87 847.89 450.13 847.15 451.72 847.15C453.98 847.15 455.29 848.58 455.29 850.98H455.3Z" fill="#1765AB"/>
<path d="M469.9 853.79C469.9 857.77 467.68 860.46 463.97 860.46C460.26 860.46 458.04 857.93 458.04 853.79C458.04 849.65 460.25 847.14 463.99 847.14C467.73 847.14 469.9 849.67 469.9 853.79ZM461.25 853.79C461.25 856.82 462.18 858.15 463.97 858.15C465.76 858.15 466.69 856.79 466.69 853.79C466.69 850.79 465.76 849.46 464 849.46C462.24 849.46 461.26 850.82 461.26 853.79H461.25Z" fill="#1765AB"/>
<path d="M481.22 848.64L480.03 850.43C478.98 849.76 477.98 849.41 476.86 849.41C475.65 849.41 474.95 849.91 474.95 850.67C474.95 851.5 475.45 851.88 477.59 852.48C480.16 853.17 481.62 854.22 481.62 856.46C481.62 859.08 479.19 860.46 476.31 860.46C474.14 860.46 472.45 859.72 471.28 858.67L472.8 856.95C473.78 857.69 474.94 858.19 476.23 858.19C477.59 858.19 478.47 857.62 478.47 856.67C478.47 855.62 477.97 855.29 475.61 854.62C473.01 853.91 471.87 852.67 471.87 850.81C471.87 848.71 473.8 847.14 476.73 847.14C478.54 847.14 480.02 847.71 481.21 848.64H481.22Z" fill="#1765AB"/>
<path d="M500.32 858.39L499.68 860.41C498.3 860.29 497.39 859.79 496.89 858.58C496.01 859.91 494.63 860.46 493.13 860.46C490.61 860.46 489.06 858.86 489.06 856.58C489.06 853.84 491.13 852.36 494.8 852.36H496.37V851.65C496.37 850.01 495.63 849.46 494.01 849.46C493.15 849.46 491.94 849.7 490.68 850.13L489.97 848.06C491.52 847.47 493.11 847.15 494.54 847.15C497.9 847.15 499.38 848.7 499.38 851.49V856.78C499.38 857.8 499.71 858.16 500.33 858.4L500.32 858.39ZM496.37 856.7V854.15H495.11C493.13 854.15 492.16 854.86 492.16 856.34C492.16 857.55 492.78 858.25 493.95 858.25C495.02 858.25 495.81 857.7 496.38 856.7H496.37Z" fill="#1765AB"/>
<path d="M513.14 860.1H510.5L510.33 858.34C509.4 859.77 508.19 860.46 506.47 860.46C504.18 860.46 502.94 858.98 502.94 856.55V847.5H505.99V856.17C505.99 857.65 506.49 858.15 507.54 858.15C508.59 858.15 509.42 857.46 510.09 856.36V847.5H513.14V860.1Z" fill="#1765AB"/>
<path d="M516.69 857.22V842.45L519.74 842.12V857.13C519.74 857.73 519.95 858.01 520.45 858.01C520.74 858.01 520.95 857.96 521.16 857.89L521.8 860.03C521.28 860.27 520.56 860.46 519.78 860.46C517.85 860.46 516.68 859.29 516.68 857.22H516.69Z" fill="#1765AB"/>
<path d="M533.99 858.39L533.35 860.41C531.97 860.29 531.06 859.79 530.56 858.58C529.68 859.91 528.3 860.46 526.8 860.46C524.28 860.46 522.73 858.86 522.73 856.58C522.73 853.84 524.8 852.36 528.47 852.36H530.04V851.65C530.04 850.01 529.3 849.46 527.68 849.46C526.82 849.46 525.61 849.7 524.35 850.13L523.64 848.06C525.19 847.47 526.78 847.15 528.21 847.15C531.57 847.15 533.04 848.7 533.04 851.49V856.78C533.04 857.8 533.37 858.16 533.99 858.4V858.39ZM530.04 856.7V854.15H528.78C526.8 854.15 525.83 854.86 525.83 856.34C525.83 857.55 526.45 858.25 527.62 858.25C528.69 858.25 529.48 857.7 530.05 856.7H530.04Z" fill="#1765AB"/>
<path d="M544.95 848.64L543.76 850.43C542.71 849.76 541.71 849.41 540.59 849.41C539.38 849.41 538.68 849.91 538.68 850.67C538.68 851.5 539.18 851.88 541.32 852.48C543.89 853.17 545.35 854.22 545.35 856.46C545.35 859.08 542.92 860.46 540.04 860.46C537.87 860.46 536.18 859.72 535.01 858.67L536.53 856.95C537.51 857.69 538.67 858.19 539.96 858.19C541.32 858.19 542.2 857.62 542.2 856.67C542.2 855.62 541.7 855.29 539.34 854.62C536.74 853.91 535.6 852.67 535.6 850.81C535.6 848.71 537.53 847.14 540.46 847.14C542.27 847.14 543.75 847.71 544.94 848.64H544.95Z" fill="#1765AB"/>
<path d="M564.98 853.76C564.98 857.62 563.19 860.45 560 860.45C558.71 860.45 557.62 860 556.83 859.07V864.95L553.78 865.28V847.49H556.45L556.62 849.04C557.62 847.73 558.95 847.13 560.31 847.13C563.6 847.13 564.98 849.73 564.98 853.75V853.76ZM561.79 853.78C561.79 850.59 560.93 849.42 559.41 849.42C558.34 849.42 557.43 850.16 556.84 851.13V856.8C557.44 857.68 558.2 858.11 559.15 858.11C560.82 858.11 561.79 856.82 561.79 853.77V853.78Z" fill="#1765AB"/>
<path d="M575.47 847.33L574.95 850.28C574.57 850.18 574.26 850.14 573.83 850.14C572.31 850.14 571.52 851.26 571.04 853.38V860.1H567.99V847.5H570.63L570.92 849.98C571.52 848.17 572.73 847.17 574.21 847.17C574.66 847.17 575.07 847.22 575.47 847.34V847.33Z" fill="#1765AB"/>
<path d="M586.92 854.74H579.01C579.22 857.31 580.44 858.15 582.11 858.15C583.23 858.15 584.16 857.79 585.25 857.03L586.51 858.77C585.27 859.77 583.75 860.46 581.84 860.46C577.93 860.46 575.84 857.86 575.84 853.89C575.84 849.92 577.86 847.15 581.44 847.15C585.02 847.15 586.99 849.53 586.99 853.51C586.99 853.91 586.94 854.42 586.92 854.75V854.74ZM583.97 852.62C583.97 850.55 583.23 849.31 581.52 849.31C580.09 849.31 579.19 850.26 579.02 852.76H583.97V852.62Z" fill="#1765AB"/>
<path d="M598.19 848.64L597 850.43C595.95 849.76 594.95 849.41 593.83 849.41C592.62 849.41 591.92 849.91 591.92 850.67C591.92 851.5 592.42 851.88 594.56 852.48C597.13 853.17 598.59 854.22 598.59 856.46C598.59 859.08 596.16 860.46 593.28 860.46C591.11 860.46 589.42 859.72 588.25 858.67L589.77 856.95C590.75 857.69 591.91 858.19 593.2 858.19C594.56 858.19 595.44 857.62 595.44 856.67C595.44 855.62 594.94 855.29 592.58 854.62C589.98 853.91 588.84 852.67 588.84 850.81C588.84 848.71 590.77 847.14 593.7 847.14C595.51 847.14 596.99 847.71 598.18 848.64H598.19Z" fill="#1765AB"/>
<path d="M611.34 854.74H603.43C603.64 857.31 604.86 858.15 606.53 858.15C607.65 858.15 608.58 857.79 609.67 857.03L610.93 858.77C609.69 859.77 608.17 860.46 606.26 860.46C602.35 860.46 600.26 857.86 600.26 853.89C600.26 849.92 602.28 847.15 605.86 847.15C609.44 847.15 611.41 849.53 611.41 853.51C611.41 853.91 611.36 854.42 611.34 854.75V854.74ZM608.39 852.62C608.39 850.55 607.65 849.31 605.94 849.31C604.51 849.31 603.61 850.26 603.44 852.76H608.39V852.62Z" fill="#1765AB"/>
<path d="M624.45 850.98V860.1H621.4V851.45C621.4 849.88 620.8 849.43 619.85 849.43C618.75 849.43 617.94 850.17 617.21 851.34V860.11H614.16V847.51H616.8L617.04 849.15C618.02 847.89 619.28 847.15 620.87 847.15C623.13 847.15 624.44 848.58 624.44 850.98H624.45Z" fill="#1765AB"/>
<path d="M637.17 848.62L635.81 850.45C634.98 849.83 634.21 849.54 633.26 849.54C631.5 849.54 630.43 850.83 630.43 853.85C630.43 856.87 631.55 857.97 633.26 857.97C634.21 857.97 634.88 857.66 635.81 857.06L637.17 858.99C636.03 859.92 634.72 860.44 633.1 860.44C629.46 860.44 627.19 857.91 627.19 853.89C627.19 849.87 629.45 847.13 633.07 847.13C634.71 847.13 635.98 847.58 637.17 848.61V848.62Z" fill="#1765AB"/>
<path d="M642.82 842.97C642.82 843.99 642.03 844.8 640.89 844.8C639.75 844.8 638.98 843.99 638.98 842.97C638.98 841.95 639.77 841.11 640.89 841.11C642.01 841.11 642.82 841.92 642.82 842.97ZM642.44 860.1H639.39V847.5H642.44V860.1Z" fill="#1765AB"/>
<path d="M656.37 858.39L655.73 860.41C654.35 860.29 653.44 859.79 652.94 858.58C652.06 859.91 650.68 860.46 649.18 860.46C646.66 860.46 645.11 858.86 645.11 856.58C645.11 853.84 647.18 852.36 650.85 852.36H652.42V851.65C652.42 850.01 651.68 849.46 650.06 849.46C649.2 849.46 647.99 849.7 646.73 850.13L646.02 848.06C647.57 847.47 649.16 847.15 650.59 847.15C653.95 847.15 655.42 848.7 655.42 851.49V856.78C655.42 857.8 655.75 858.16 656.37 858.4V858.39ZM652.42 856.7V854.15H651.16C649.18 854.15 648.21 854.86 648.21 856.34C648.21 857.55 648.83 858.25 650 858.25C651.07 858.25 651.86 857.7 652.43 856.7H652.42Z" fill="#1765AB"/>
<path d="M662.54 842.97C662.54 843.99 661.75 844.8 660.61 844.8C659.47 844.8 658.7 843.99 658.7 842.97C658.7 841.95 659.49 841.11 660.61 841.11C661.73 841.11 662.54 841.92 662.54 842.97ZM662.16 860.1H659.11V847.5H662.16V860.1Z" fill="#1765AB"/>
<path d="M674.29 848.64L673.1 850.43C672.05 849.76 671.05 849.41 669.93 849.41C668.72 849.41 668.02 849.91 668.02 850.67C668.02 851.5 668.52 851.88 670.66 852.48C673.23 853.17 674.69 854.22 674.69 856.46C674.69 859.08 672.26 860.46 669.38 860.46C667.21 860.46 665.52 859.72 664.35 858.67L665.87 856.95C666.85 857.69 668.01 858.19 669.3 858.19C670.66 858.19 671.54 857.62 671.54 856.67C671.54 855.62 671.04 855.29 668.68 854.62C666.08 853.91 664.94 852.67 664.94 850.81C664.94 848.71 666.87 847.14 669.8 847.14C671.61 847.14 673.09 847.71 674.28 848.64H674.29Z" fill="#1765AB"/>
<path d="M339.87 889.37H333.8V893.97H339.09V896.3H333.8V901.13H340.3V903.49H330.65V887.03H340.2L339.87 889.36V889.37Z" fill="#1765AB"/>
<path d="M353.24 894.37V903.49H350.19V894.84C350.19 893.27 349.59 892.82 348.64 892.82C347.54 892.82 346.73 893.56 346 894.73V903.5H342.95V890.9H345.59L345.83 892.54C346.81 891.28 348.07 890.54 349.66 890.54C351.92 890.54 353.23 891.97 353.23 894.37H353.24Z" fill="#1765AB"/>
<path d="M365.24 892.04L364.05 893.83C363 893.16 362 892.81 360.88 892.81C359.67 892.81 358.97 893.31 358.97 894.07C358.97 894.9 359.47 895.28 361.61 895.88C364.18 896.57 365.64 897.62 365.64 899.86C365.64 902.48 363.21 903.86 360.33 903.86C358.16 903.86 356.47 903.12 355.3 902.07L356.82 900.35C357.8 901.09 358.96 901.59 360.25 901.59C361.61 901.59 362.49 901.02 362.49 900.07C362.49 899.02 361.99 898.69 359.63 898.02C357.03 897.31 355.89 896.07 355.89 894.21C355.89 892.11 357.82 890.54 360.75 890.54C362.56 890.54 364.04 891.11 365.23 892.04H365.24Z" fill="#1765AB"/>
<path d="M371.56 886.37C371.56 887.39 370.77 888.2 369.63 888.2C368.49 888.2 367.72 887.39 367.72 886.37C367.72 885.35 368.51 884.51 369.63 884.51C370.75 884.51 371.56 885.32 371.56 886.37ZM371.18 903.5H368.13V890.9H371.18V903.5Z" fill="#1765AB"/>
<path d="M385.14 894.37V903.49H382.09V894.84C382.09 893.27 381.49 892.82 380.54 892.82C379.44 892.82 378.63 893.56 377.9 894.73V903.5H374.85V890.9H377.49L377.73 892.54C378.71 891.28 379.97 890.54 381.56 890.54C383.82 890.54 385.13 891.97 385.13 894.37H385.14Z" fill="#1765AB"/>
<path d="M399.74 897.18C399.74 901.16 397.52 903.85 393.81 903.85C390.1 903.85 387.88 901.32 387.88 897.18C387.88 893.04 390.09 890.54 393.83 890.54C397.57 890.54 399.74 893.06 399.74 897.18ZM391.09 897.18C391.09 900.21 392.02 901.54 393.81 901.54C395.6 901.54 396.53 900.18 396.53 897.18C396.53 894.18 395.6 892.85 393.84 892.85C392.08 892.85 391.1 894.21 391.1 897.18H391.09Z" fill="#1765AB"/>
<path d="M418.85 894.37V903.49H415.8V894.84C415.8 893.27 415.18 892.82 414.25 892.82C413.18 892.82 412.34 893.56 411.61 894.7V903.49H408.56V885.86L411.61 885.55V892.39C412.59 891.2 413.75 890.53 415.28 890.53C417.52 890.53 418.85 891.98 418.85 894.36V894.37Z" fill="#1765AB"/>
<path d="M426.97 886.34L421.59 888.48L420.73 886.93L425.73 883.95L426.97 886.33V886.34ZM425.45 903.49H422.4V890.89H425.45V903.49Z" fill="#1765AB"/>
<path d="M440.76 897.18C440.76 901.11 438.88 903.85 435.78 903.85C434.4 903.85 433.26 903.23 432.45 902.21L432.26 903.5H429.57V885.85L432.62 885.52V892.33C433.43 891.21 434.64 890.54 436.1 890.54C439.03 890.54 440.77 892.97 440.77 897.18H440.76ZM437.57 897.18C437.57 893.82 436.57 892.82 435.12 892.82C434.02 892.82 433.21 893.56 432.62 894.53V900.1C433.17 901 434 901.55 434.95 901.55C436.5 901.55 437.57 900.34 437.57 897.17V897.18Z" fill="#1765AB"/>
<path d="M451.25 890.73L450.73 893.68C450.35 893.59 450.04 893.54 449.61 893.54C448.09 893.54 447.3 894.66 446.82 896.78V903.5H443.77V890.9H446.41L446.7 893.38C447.3 891.57 448.51 890.57 449.99 890.57C450.44 890.57 450.85 890.62 451.25 890.74V890.73Z" fill="#1765AB"/>
<path d="M456.58 886.37C456.58 887.39 455.79 888.2 454.65 888.2C453.51 888.2 452.74 887.39 452.74 886.37C452.74 885.35 453.53 884.51 454.65 884.51C455.77 884.51 456.58 885.32 456.58 886.37ZM456.2 903.5H453.15V890.9H456.2V903.5Z" fill="#1765AB"/>
<path d="M470.47 885.84V903.49H467.78L467.57 901.89C466.81 903.03 465.59 903.84 463.97 903.84C460.83 903.84 459.18 901.2 459.18 897.19C459.18 893.18 461.13 890.52 464.25 890.52C465.58 890.52 466.63 891.09 467.42 891.88V885.5L470.47 885.83V885.84ZM467.42 899.92V894.16C466.75 893.35 466.04 892.83 465.01 892.83C463.44 892.83 462.39 894.16 462.39 897.19C462.39 900.43 463.32 901.55 464.82 901.55C465.94 901.55 466.7 901 467.42 899.93V899.92Z" fill="#1765AB"/>
<path d="M485.2 897.18C485.2 901.16 482.98 903.85 479.27 903.85C475.56 903.85 473.34 901.32 473.34 897.18C473.34 893.04 475.55 890.54 479.29 890.54C483.03 890.54 485.2 893.06 485.2 897.18ZM476.55 897.18C476.55 900.21 477.48 901.54 479.27 901.54C481.06 901.54 481.99 900.18 481.99 897.18C481.99 894.18 481.06 892.85 479.3 892.85C477.54 892.85 476.56 894.21 476.56 897.18H476.55Z" fill="#1765AB"/>
<path d="M505.21 897.16C505.21 901.02 503.42 903.85 500.23 903.85C498.94 903.85 497.85 903.4 497.06 902.47V908.35L494.01 908.68V890.89H496.68L496.85 892.44C497.85 891.13 499.18 890.53 500.54 890.53C503.83 890.53 505.21 893.13 505.21 897.15V897.16ZM502.02 897.18C502.02 893.99 501.16 892.82 499.64 892.82C498.57 892.82 497.66 893.56 497.07 894.53V900.2C497.67 901.08 498.43 901.51 499.38 901.51C501.05 901.51 502.02 900.22 502.02 897.17V897.18Z" fill="#1765AB"/>
<path d="M519.26 897.18C519.26 901.16 517.05 903.85 513.33 903.85C509.61 903.85 507.4 901.32 507.4 897.18C507.4 893.04 509.61 890.54 513.35 890.54C517.09 890.54 519.26 893.06 519.26 897.18ZM510.61 897.18C510.61 900.21 511.54 901.54 513.32 901.54C515.1 901.54 516.04 900.18 516.04 897.18C516.04 894.18 515.11 892.85 513.35 892.85C511.59 892.85 510.61 894.21 510.61 897.18Z" fill="#1765AB"/>
<path d="M532.72 885.84V903.49H530.03L529.82 901.89C529.06 903.03 527.84 903.84 526.22 903.84C523.08 903.84 521.43 901.2 521.43 897.19C521.43 893.18 523.38 890.52 526.5 890.52C527.83 890.52 528.88 891.09 529.67 891.88V885.5L532.72 885.83V885.84ZM529.67 899.92V894.16C529 893.35 528.29 892.83 527.26 892.83C525.69 892.83 524.64 894.16 524.64 897.19C524.64 900.43 525.57 901.55 527.07 901.55C528.19 901.55 528.95 901 529.67 899.93V899.92Z" fill="#1765AB"/>
<path d="M546.66 898.13H538.75C538.96 900.7 540.18 901.54 541.85 901.54C542.97 901.54 543.9 901.18 544.99 900.42L546.25 902.16C545.01 903.16 543.49 903.85 541.58 903.85C537.67 903.85 535.58 901.25 535.58 897.28C535.58 893.31 537.6 890.54 541.18 890.54C544.76 890.54 546.73 892.92 546.73 896.9C546.73 897.3 546.68 897.81 546.66 898.14V898.13ZM543.71 896.01C543.71 893.94 542.97 892.7 541.26 892.7C539.83 892.7 538.93 893.65 538.76 896.15H543.71V896.01Z" fill="#1765AB"/>
<path d="M556.95 890.73L556.43 893.68C556.05 893.59 555.74 893.54 555.31 893.54C553.79 893.54 553 894.66 552.52 896.78V903.5H549.47V890.9H552.11L552.4 893.38C553 891.57 554.21 890.57 555.69 890.57C556.14 890.57 556.55 890.62 556.95 890.74V890.73Z" fill="#1765AB"/>
<path d="M568.29 901.78L567.65 903.8C566.27 903.68 565.36 903.18 564.86 901.97C563.98 903.3 562.6 903.85 561.1 903.85C558.58 903.85 557.03 902.25 557.03 899.97C557.03 897.23 559.1 895.75 562.77 895.75H564.34V895.04C564.34 893.4 563.6 892.85 561.98 892.85C561.12 892.85 559.91 893.09 558.65 893.52L557.94 891.45C559.49 890.86 561.08 890.55 562.51 890.55C565.87 890.55 567.34 892.1 567.34 894.88V900.17C567.34 901.19 567.67 901.55 568.29 901.79V901.78ZM560.19 888.49L559.33 886.94L564.33 883.96L565.57 886.34L560.19 888.48V888.49ZM564.33 900.09V897.54H563.07C561.09 897.54 560.12 898.25 560.12 899.73C560.12 900.94 560.74 901.64 561.91 901.64C562.98 901.64 563.77 901.09 564.34 900.09H564.33Z" fill="#1765AB"/>
<path d="M585.45 892.04L584.26 893.83C583.21 893.16 582.21 892.81 581.09 892.81C579.88 892.81 579.18 893.31 579.18 894.07C579.18 894.9 579.68 895.28 581.82 895.88C584.39 896.57 585.85 897.62 585.85 899.86C585.85 902.48 583.42 903.86 580.54 903.86C578.37 903.86 576.68 903.12 575.51 902.07L577.03 900.35C578.01 901.09 579.17 901.59 580.46 901.59C581.82 901.59 582.7 901.02 582.7 900.07C582.7 899.02 582.2 898.69 579.84 898.02C577.24 897.31 576.1 896.07 576.1 894.21C576.1 892.11 578.03 890.54 580.96 890.54C582.77 890.54 584.25 891.11 585.44 892.04H585.45Z" fill="#1765AB"/>
<path d="M598.6 898.13H590.69C590.9 900.7 592.12 901.54 593.79 901.54C594.91 901.54 595.84 901.18 596.93 900.42L598.19 902.16C596.95 903.16 595.43 903.85 593.52 903.85C589.61 903.85 587.52 901.25 587.52 897.28C587.52 893.31 589.54 890.54 593.12 890.54C596.7 890.54 598.67 892.92 598.67 896.9C598.67 897.3 598.62 897.81 598.6 898.14V898.13ZM595.65 896.01C595.65 893.94 594.91 892.7 593.2 892.7C591.77 892.7 590.87 893.65 590.7 896.15H595.65V896.01Z" fill="#1765AB"/>
<path d="M608.89 890.73L608.37 893.68C607.99 893.59 607.68 893.54 607.25 893.54C605.73 893.54 604.94 894.66 604.46 896.78V903.5H601.41V890.9H604.05L604.34 893.38C604.94 891.57 606.15 890.57 607.63 890.57C608.08 890.57 608.49 890.62 608.89 890.74V890.73Z" fill="#1765AB"/>
<path d="M627.8 897.18C627.8 901.16 625.59 903.85 621.87 903.85C618.15 903.85 615.94 901.32 615.94 897.18C615.94 893.04 618.15 890.54 621.89 890.54C625.63 890.54 627.8 893.06 627.8 897.18ZM619.15 897.18C619.15 900.21 620.08 901.54 621.86 901.54C623.64 901.54 624.58 900.18 624.58 897.18C624.58 894.18 623.65 892.85 621.89 892.85C620.13 892.85 619.15 894.21 619.15 897.18Z" fill="#1765AB"/>
<path d="M641.86 897.16C641.86 901.02 640.07 903.85 636.88 903.85C635.59 903.85 634.5 903.4 633.71 902.47V908.35L630.66 908.68V890.89H633.33L633.5 892.44C634.5 891.13 635.83 890.53 637.19 890.53C640.48 890.53 641.86 893.13 641.86 897.15V897.16ZM638.67 897.18C638.67 893.99 637.81 892.82 636.29 892.82C635.22 892.82 634.31 893.56 633.72 894.53V900.2C634.32 901.08 635.08 901.51 636.03 901.51C637.7 901.51 638.67 900.22 638.67 897.17V897.18Z" fill="#1765AB"/>
<path d="M654.04 892.01L652.68 893.84C651.85 893.22 651.08 892.93 650.13 892.93C648.37 892.93 647.3 894.22 647.3 897.24C647.3 900.26 648.42 901.36 650.13 901.36C651.08 901.36 651.75 901.05 652.68 900.45L654.04 902.38C652.9 903.31 651.59 903.83 649.97 903.83C646.33 903.83 644.06 901.3 644.06 897.28C644.06 893.26 646.32 890.52 649.94 890.52C651.58 890.52 652.85 890.97 654.04 892V892.01Z" fill="#1765AB"/>
<path d="M659.68 886.37C659.68 887.39 658.89 888.2 657.75 888.2C656.61 888.2 655.84 887.39 655.84 886.37C655.84 885.35 656.63 884.51 657.75 884.51C658.87 884.51 659.68 885.32 659.68 886.37ZM659.3 903.5H656.25V890.9H659.3V903.5Z" fill="#1765AB"/>
<path d="M674.02 897.18C674.02 901.16 671.81 903.85 668.09 903.85C664.37 903.85 662.16 901.32 662.16 897.18C662.16 893.04 664.37 890.54 668.11 890.54C671.85 890.54 674.02 893.06 674.02 897.18ZM665.37 897.18C665.37 900.21 666.3 901.54 668.08 901.54C669.86 901.54 670.8 900.18 670.8 897.18C670.8 894.18 669.87 892.85 668.11 892.85C666.35 892.85 665.37 894.21 665.37 897.18Z" fill="#1765AB"/>
<path d="M687.17 894.37V903.49H684.12V894.84C684.12 893.27 683.52 892.82 682.57 892.82C681.47 892.82 680.66 893.56 679.93 894.73V903.5H676.88V890.9H679.52L679.76 892.54C680.74 891.28 682 890.54 683.59 890.54C685.85 890.54 687.16 891.97 687.16 894.37H687.17Z" fill="#1765AB"/>
<path d="M700.99 901.78L700.35 903.8C698.97 903.68 698.06 903.18 697.56 901.97C696.68 903.3 695.3 903.85 693.8 903.85C691.28 903.85 689.73 902.25 689.73 899.97C689.73 897.23 691.8 895.75 695.47 895.75H697.04V895.04C697.04 893.4 696.3 892.85 694.68 892.85C693.82 892.85 692.61 893.09 691.35 893.52L690.64 891.45C692.19 890.86 693.78 890.55 695.21 890.55C698.57 890.55 700.04 892.1 700.04 894.88V900.17C700.04 901.19 700.37 901.55 700.99 901.79V901.78ZM697.04 900.09V897.54H695.78C693.8 897.54 692.83 898.25 692.83 899.73C692.83 900.94 693.45 901.64 694.62 901.64C695.69 901.64 696.48 901.09 697.05 900.09H697.04Z" fill="#1765AB"/>
<path d="M703.38 900.61V885.84L706.43 885.51V900.52C706.43 901.12 706.64 901.4 707.14 901.4C707.43 901.4 707.64 901.35 707.85 901.28L708.49 903.42C707.97 903.66 707.25 903.85 706.47 903.85C704.54 903.85 703.37 902.68 703.37 900.61H703.38Z" fill="#1765AB"/>
<path d="M338.35 943.08H332.9L331.88 946.89H328.62L333.74 930.43H337.62L342.72 946.89H339.39L338.37 943.08H338.35ZM337.71 940.7L335.61 932.84L333.51 940.7H337.7H337.71Z" fill="#1765AB"/>
<path d="M361.46 940.58C361.46 944.56 359.24 947.25 355.53 947.25C351.82 947.25 349.6 944.72 349.6 940.58C349.6 936.44 351.81 933.93 355.55 933.93C359.29 933.93 361.46 936.46 361.46 940.58ZM352.81 940.58C352.81 943.61 353.74 944.94 355.53 944.94C357.32 944.94 358.25 943.58 358.25 940.58C358.25 937.58 357.32 936.25 355.56 936.25C353.8 936.25 352.82 937.61 352.82 940.58H352.81Z" fill="#1765AB"/>
<path d="M367.72 932.95V934.28H370.74L370.41 936.47H367.72V946.88H364.67V936.47H362.62V934.28H364.67V932.9C364.67 930.61 366.19 928.9 369.1 928.9C370.36 928.9 371.39 929.19 372.36 929.64L371.48 931.69C370.72 931.33 370 931.21 369.41 931.21C368.17 931.21 367.72 931.76 367.72 932.95Z" fill="#1765AB"/>
<path d="M382.61 941.53H374.7C374.91 944.1 376.13 944.94 377.8 944.94C378.92 944.94 379.85 944.58 380.94 943.82L382.2 945.56C380.96 946.56 379.44 947.25 377.53 947.25C373.62 947.25 371.53 944.65 371.53 940.68C371.53 936.71 373.55 933.94 377.13 933.94C380.71 933.94 382.68 936.32 382.68 940.3C382.68 940.7 382.63 941.21 382.61 941.54V941.53ZM379.66 939.41C379.66 937.34 378.92 936.1 377.21 936.1C375.78 936.1 374.88 937.05 374.71 939.55H379.66V939.41Z" fill="#1765AB"/>
<path d="M392.9 934.12L392.38 937.07C392 936.97 391.69 936.93 391.26 936.93C389.74 936.93 388.95 938.05 388.47 940.17V946.89H385.42V934.29H388.06L388.35 936.77C388.95 934.96 390.16 933.96 391.64 933.96C392.09 933.96 392.5 934.01 392.9 934.13V934.12Z" fill="#1765AB"/>
<path d="M402.03 946.29C401.12 946.93 399.98 947.24 398.86 947.24C396.38 947.22 395.07 945.81 395.07 943.12V936.47H393.09V934.28H395.07V931.49L398.12 931.13V934.27H401.05L400.74 936.46H398.12V943.03C398.12 944.27 398.52 944.77 399.45 944.77C399.93 944.77 400.4 944.63 400.95 944.32L402.02 946.27L402.03 946.29Z" fill="#1765AB"/>
<path d="M413.77 945.17L413.13 947.19C411.75 947.07 410.84 946.57 410.34 945.36C409.46 946.69 408.08 947.24 406.58 947.24C404.06 947.24 402.51 945.64 402.51 943.36C402.51 940.62 404.58 939.14 408.25 939.14H409.82V938.43C409.82 936.79 409.08 936.24 407.46 936.24C406.6 936.24 405.39 936.48 404.13 936.91L403.42 934.84C404.97 934.25 406.56 933.93 407.99 933.93C411.35 933.93 412.83 935.48 412.83 938.27V943.56C412.83 944.58 413.16 944.94 413.78 945.18L413.77 945.17ZM409.82 943.48V940.93H408.56C406.58 940.93 405.61 941.64 405.61 943.12C405.61 944.33 406.23 945.03 407.4 945.03C408.47 945.03 409.26 944.48 409.83 943.48H409.82Z" fill="#1765AB"/>
<path d="M433.07 929.24V946.89H430.38L430.17 945.29C429.41 946.43 428.19 947.24 426.57 947.24C423.43 947.24 421.78 944.6 421.78 940.59C421.78 936.58 423.73 933.92 426.85 933.92C428.18 933.92 429.23 934.49 430.02 935.28V928.9L433.07 929.23V929.24ZM430.02 943.32V937.56C429.35 936.75 428.64 936.23 427.61 936.23C426.04 936.23 424.99 937.56 424.99 940.59C424.99 943.83 425.92 944.95 427.42 944.95C428.54 944.95 429.3 944.4 430.02 943.33V943.32Z" fill="#1765AB"/>
<path d="M447.01 945.17L446.37 947.19C444.99 947.07 444.08 946.57 443.58 945.36C442.7 946.69 441.32 947.24 439.82 947.24C437.3 947.24 435.75 945.64 435.75 943.36C435.75 940.62 437.82 939.14 441.49 939.14H443.06V938.43C443.06 936.79 442.32 936.24 440.7 936.24C439.84 936.24 438.63 936.48 437.37 936.91L436.66 934.84C438.21 934.25 439.8 933.93 441.23 933.93C444.59 933.93 446.07 935.48 446.07 938.27V943.56C446.07 944.58 446.4 944.94 447.02 945.18L447.01 945.17ZM443.06 943.48V940.93H441.8C439.82 940.93 438.85 941.64 438.85 943.12C438.85 944.33 439.47 945.03 440.64 945.03C441.71 945.03 442.5 944.48 443.07 943.48H443.06Z" fill="#1765AB"/>
<path d="M465.02 932.76H458.95V937.36H464.24V939.69H458.95V944.52H465.45V946.88H455.8V930.42H465.35L465.02 932.75V932.76Z" fill="#1765AB"/>
<path d="M476.12 943.08H470.67L469.65 946.89H466.39L471.51 930.43H475.39L480.49 946.89H477.16L476.14 943.08H476.12ZM475.48 940.7L473.38 932.84L471.28 940.7H475.47H475.48Z" fill="#1765AB"/>
<path d="M494.8 938.58C494.8 945.25 490.73 946.89 486.8 946.89H482.32V930.43H486.37C490.7 930.43 494.8 931.76 494.8 938.58ZM485.46 932.79V944.53H487.01C489.46 944.53 491.49 943.43 491.49 938.58C491.49 933.73 489.35 932.79 486.92 932.79H485.47H485.46Z" fill="#1765AB"/>
<path d="M507.04 929.76C507.04 930.78 506.25 931.59 505.11 931.59C503.97 931.59 503.2 930.78 503.2 929.76C503.2 928.74 503.99 927.9 505.11 927.9C506.23 927.9 507.04 928.71 507.04 929.76ZM506.66 946.89H503.61V934.29H506.66V946.89Z" fill="#1765AB"/>
<path d="M517.81 934.12L517.29 937.07C516.91 936.97 516.6 936.93 516.17 936.93C514.65 936.93 513.86 938.05 513.38 940.17V946.89H510.33V934.29H512.97L513.26 936.77C513.86 934.96 515.07 933.96 516.55 933.96C517 933.96 517.41 934.01 517.81 934.13V934.12Z" fill="#1765AB"/>
<path d="M529.15 945.17L528.51 947.19C527.13 947.07 526.22 946.57 525.72 945.36C524.84 946.69 523.46 947.24 521.96 947.24C519.44 947.24 517.89 945.64 517.89 943.36C517.89 940.62 519.96 939.14 523.63 939.14H525.2V938.43C525.2 936.79 524.46 936.24 522.84 936.24C521.98 936.24 520.77 936.48 519.51 936.91L518.8 934.84C520.35 934.25 521.94 933.93 523.37 933.93C526.73 933.93 528.2 935.48 528.2 938.27V943.56C528.2 944.58 528.53 944.94 529.15 945.18V945.17ZM521.05 931.88L520.19 930.33L525.19 927.35L526.43 929.73L521.05 931.87V931.88ZM525.19 943.48V940.93H523.93C521.95 940.93 520.98 941.64 520.98 943.12C520.98 944.33 521.6 945.03 522.77 945.03C523.84 945.03 524.63 944.48 525.2 943.48H525.19Z" fill="#1765AB"/>
<path d="M548.12 945.17L547.48 947.19C546.1 947.07 545.19 946.57 544.69 945.36C543.81 946.69 542.43 947.24 540.93 947.24C538.41 947.24 536.86 945.64 536.86 943.36C536.86 940.62 538.93 939.14 542.6 939.14H544.17V938.43C544.17 936.79 543.43 936.24 541.81 936.24C540.95 936.24 539.74 936.48 538.48 936.91L537.77 934.84C539.32 934.25 540.91 933.93 542.34 933.93C545.7 933.93 547.17 935.48 547.17 938.27V943.56C547.17 944.58 547.5 944.94 548.12 945.18V945.17ZM544.17 943.48V940.93H542.91C540.93 940.93 539.96 941.64 539.96 943.12C539.96 944.33 540.58 945.03 541.75 945.03C542.82 945.03 543.61 944.48 544.18 943.48H544.17Z" fill="#1765AB"/>
<path d="M560.93 946.89H558.29L558.12 945.13C557.19 946.56 555.98 947.25 554.26 947.25C551.97 947.25 550.73 945.77 550.73 943.34V934.29H553.78V942.96C553.78 944.44 554.28 944.94 555.33 944.94C556.38 944.94 557.21 944.25 557.88 943.15V934.29H560.93V946.89Z" fill="#1765AB"/>
<path d="M581.3 937.76V946.88H578.25V938.23C578.25 936.66 577.63 936.21 576.87 936.21C575.82 936.21 575.18 936.95 574.49 938.12V946.89H571.44V938.24C571.44 936.67 570.8 936.22 570.06 936.22C568.99 936.22 568.34 936.96 567.65 938.13V946.9H564.6V934.3H567.24L567.48 935.94C568.39 934.68 569.53 933.94 571.12 933.94C572.6 933.94 573.69 934.73 574.17 936.06C575.12 934.75 576.29 933.94 577.96 933.94C579.96 933.94 581.29 935.39 581.29 937.77L581.3 937.76Z" fill="#1765AB"/>
<path d="M595.12 941.53H587.21C587.42 944.1 588.64 944.94 590.31 944.94C591.43 944.94 592.36 944.58 593.45 943.82L594.71 945.56C593.47 946.56 591.95 947.25 590.04 947.25C586.13 947.25 584.04 944.65 584.04 940.68C584.04 936.71 586.06 933.94 589.64 933.94C593.22 933.94 595.19 936.32 595.19 940.3C595.19 940.7 595.14 941.21 595.12 941.54V941.53ZM592.17 939.41C592.17 937.34 591.43 936.1 589.72 936.1C588.29 936.1 587.39 937.05 587.22 939.55H592.17V939.41Z" fill="#1765AB"/>
<path d="M608.22 937.76V946.88H605.17V938.23C605.17 936.66 604.57 936.21 603.62 936.21C602.52 936.21 601.71 936.95 600.98 938.12V946.89H597.93V934.29H600.57L600.81 935.93C601.79 934.67 603.05 933.93 604.64 933.93C606.9 933.93 608.21 935.36 608.21 937.76H608.22Z" fill="#1765AB"/>
<path d="M618.99 946.29C618.09 946.93 616.94 947.24 615.82 947.24C613.34 947.22 612.03 945.81 612.03 943.12V936.47H610.05V934.28H612.03V931.49L615.08 931.13V934.27H618.01L617.7 936.46H615.08V943.03C615.08 944.27 615.49 944.77 616.41 944.77C616.89 944.77 617.36 944.63 617.91 944.32L618.98 946.27L618.99 946.29Z" fill="#1765AB"/>
<path d="M630.74 945.17L630.1 947.19C628.72 947.07 627.81 946.57 627.31 945.36C626.43 946.69 625.05 947.24 623.55 947.24C621.03 947.24 619.48 945.64 619.48 943.36C619.48 940.62 621.55 939.14 625.22 939.14H626.79V938.43C626.79 936.79 626.05 936.24 624.43 936.24C623.57 936.24 622.36 936.48 621.1 936.91L620.39 934.84C621.94 934.25 623.53 933.93 624.96 933.93C628.32 933.93 629.79 935.48 629.79 938.27V943.56C629.79 944.58 630.12 944.94 630.74 945.18V945.17ZM626.79 943.48V940.93H625.53C623.55 940.93 622.58 941.64 622.58 943.12C622.58 944.33 623.2 945.03 624.37 945.03C625.44 945.03 626.23 944.48 626.8 943.48H626.79Z" fill="#1765AB"/>
<path d="M640.96 934.12L640.44 937.07C640.06 936.97 639.75 936.93 639.32 936.93C637.8 936.93 637.01 938.05 636.53 940.17V946.89H633.48V934.29H636.12L636.41 936.77C637.01 934.96 638.22 933.96 639.7 933.96C640.15 933.96 640.56 934.01 640.96 934.13V934.12Z" fill="#1765AB"/>
<path d="M342.8 990.28H338.73L333.08 976.97C333.25 978.42 333.51 980.52 333.51 983.57V990.29H330.65V973.83H334.63L340.37 987.17C340.23 986.26 339.94 983.88 339.94 981.55V973.83H342.8V990.29V990.28Z" fill="#1765AB"/>
<path d="M356.83 988.57L356.19 990.59C354.81 990.47 353.9 989.97 353.4 988.76C352.52 990.09 351.14 990.64 349.64 990.64C347.12 990.64 345.57 989.04 345.57 986.76C345.57 984.02 347.64 982.54 351.31 982.54H352.88V981.83C352.88 980.19 352.14 979.64 350.52 979.64C349.66 979.64 348.45 979.88 347.19 980.31L346.48 978.24C348.03 977.65 349.62 977.34 351.05 977.34C354.41 977.34 355.89 978.89 355.89 981.67V986.96C355.89 987.98 356.22 988.34 356.84 988.58L356.83 988.57ZM348.45 974.9L346.81 974.09C347.38 972.73 348.33 971.61 349.67 971.61C351.08 971.61 351.6 972.71 352.43 972.71C352.93 972.71 353.26 972.38 353.69 971.69L355.31 972.5C354.69 973.98 353.69 974.95 352.45 974.95C351.12 974.95 350.52 973.83 349.71 973.83C349.14 973.83 348.83 974.21 348.45 974.9ZM352.88 986.88V984.33H351.62C349.64 984.33 348.67 985.04 348.67 986.52C348.67 987.73 349.29 988.43 350.46 988.43C351.53 988.43 352.32 987.88 352.89 986.88H352.88Z" fill="#1765AB"/>
<path d="M370.63 983.97C370.63 987.95 368.41 990.64 364.7 990.64C360.99 990.64 358.77 988.11 358.77 983.97C358.77 979.83 360.98 977.33 364.72 977.33C368.46 977.33 370.63 979.85 370.63 983.97ZM361.98 983.97C361.98 987 362.91 988.33 364.7 988.33C366.49 988.33 367.42 986.97 367.42 983.97C367.42 980.97 366.49 979.64 364.73 979.64C362.97 979.64 361.99 981 361.99 983.97H361.98Z" fill="#1765AB"/>
<path d="M386.92 977.51L386.4 980.46C386.02 980.37 385.71 980.32 385.28 980.32C383.76 980.32 382.97 981.44 382.49 983.56V990.28H379.44V977.68H382.08L382.37 980.16C382.97 978.35 384.18 977.35 385.66 977.35C386.11 977.35 386.52 977.4 386.92 977.52V977.51Z" fill="#1765AB"/>
<path d="M398.38 984.92H390.47C390.68 987.49 391.9 988.33 393.57 988.33C394.69 988.33 395.62 987.97 396.71 987.21L397.97 988.95C396.73 989.95 395.21 990.64 393.3 990.64C389.39 990.64 387.3 988.04 387.3 984.07C387.3 980.1 389.32 977.33 392.9 977.33C396.48 977.33 398.45 979.71 398.45 983.69C398.45 984.09 398.4 984.6 398.38 984.93V984.92ZM395.43 982.8C395.43 980.73 394.69 979.49 392.98 979.49C391.55 979.49 390.65 980.44 390.48 982.94H395.43V982.8Z" fill="#1765AB"/>
<path d="M409.65 978.82L408.46 980.61C407.41 979.94 406.41 979.59 405.29 979.59C404.08 979.59 403.38 980.09 403.38 980.85C403.38 981.68 403.88 982.06 406.02 982.66C408.59 983.35 410.05 984.4 410.05 986.64C410.05 989.26 407.62 990.64 404.74 990.64C402.57 990.64 400.88 989.9 399.71 988.85L401.23 987.13C402.21 987.87 403.37 988.37 404.66 988.37C406.02 988.37 406.9 987.8 406.9 986.85C406.9 985.8 406.4 985.47 404.04 984.8C401.44 984.09 400.3 982.85 400.3 980.99C400.3 978.89 402.23 977.32 405.16 977.32C406.97 977.32 408.45 977.89 409.64 978.82H409.65Z" fill="#1765AB"/>
<path d="M423.73 983.95C423.73 987.81 421.94 990.64 418.75 990.64C417.46 990.64 416.37 990.19 415.58 989.26V995.14L412.53 995.47V977.68H415.2L415.37 979.23C416.37 977.92 417.7 977.32 419.06 977.32C422.35 977.32 423.73 979.92 423.73 983.94V983.95ZM420.54 983.97C420.54 980.78 419.68 979.61 418.16 979.61C417.09 979.61 416.18 980.35 415.59 981.32V986.99C416.19 987.87 416.95 988.3 417.9 988.3C419.57 988.3 420.54 987.01 420.54 983.96V983.97Z" fill="#1765AB"/>
<path d="M437.79 983.97C437.79 987.95 435.57 990.64 431.86 990.64C428.15 990.64 425.93 988.11 425.93 983.97C425.93 979.83 428.14 977.33 431.88 977.33C435.62 977.33 437.79 979.85 437.79 983.97ZM429.14 983.97C429.14 987 430.07 988.33 431.86 988.33C433.65 988.33 434.58 986.97 434.58 983.97C434.58 980.97 433.65 979.64 431.89 979.64C430.13 979.64 429.15 981 429.15 983.97H429.14Z" fill="#1765AB"/>
<path d="M450.94 981.16V990.28H447.89V981.63C447.89 980.06 447.29 979.61 446.34 979.61C445.24 979.61 444.43 980.35 443.7 981.52V990.29H440.65V977.69H443.29L443.53 979.33C444.51 978.07 445.77 977.33 447.36 977.33C449.62 977.33 450.93 978.76 450.93 981.16H450.94Z" fill="#1765AB"/>
<path d="M465.09 972.63V990.28H462.4L462.19 988.68C461.43 989.82 460.21 990.63 458.59 990.63C455.45 990.63 453.8 987.99 453.8 983.98C453.8 979.97 455.75 977.31 458.87 977.31C460.2 977.31 461.25 977.88 462.04 978.67V972.29L465.09 972.62V972.63ZM462.04 986.71V980.95C461.37 980.14 460.66 979.62 459.63 979.62C458.06 979.62 457.01 980.95 457.01 983.98C457.01 987.22 457.94 988.34 459.44 988.34C460.56 988.34 461.32 987.79 462.04 986.72V986.71Z" fill="#1765AB"/>
<path d="M479.03 984.92H471.12C471.33 987.49 472.55 988.33 474.22 988.33C475.34 988.33 476.27 987.97 477.36 987.21L478.62 988.95C477.38 989.95 475.86 990.64 473.95 990.64C470.04 990.64 467.95 988.04 467.95 984.07C467.95 980.1 469.97 977.33 473.55 977.33C477.13 977.33 479.1 979.71 479.1 983.69C479.1 984.09 479.05 984.6 479.03 984.93V984.92ZM476.08 982.8C476.08 980.73 475.34 979.49 473.63 979.49C472.2 979.49 471.3 980.44 471.13 982.94H476.08V982.8Z" fill="#1765AB"/>
<path d="M491.91 990.28H489.27L489.1 988.52C488.17 989.95 486.96 990.64 485.24 990.64C482.95 990.64 481.71 989.16 481.71 986.73V977.68H484.76V986.35C484.76 987.83 485.26 988.33 486.31 988.33C487.36 988.33 488.19 987.64 488.86 986.54V977.68H491.91V990.28Z" fill="#1765AB"/>
<path d="M617.59 521.93H614.9V527.03H610.2L610.17 521.93H600.47V518.66L607.07 503.59L611.15 505.12L605.47 518.25H610.23L610.74 512.64H614.89V518.25H617.58V521.92L617.59 521.93Z" fill="white"/>
<path d="M633.38 510.15C633.38 513.86 631.37 516.62 624.26 523.28H633.89L633.35 527.02H618.75V523.52C626.54 515.73 628.41 513.62 628.41 510.56C628.41 508.59 627.15 507.4 625.28 507.4C623.54 507.4 622.35 508.15 620.96 509.82L618.07 507.51C619.91 505.09 622.43 503.67 625.73 503.67C630.63 503.67 633.39 506.6 633.39 510.17L633.38 510.15Z" fill="white"/>
<path d="M642.1 524.65C642.1 525.6 641.79 526.49 641.15 527.98L638.94 532.95H636.11L637.54 527.03C636.76 526.52 636.28 525.63 636.28 524.65C636.28 523.02 637.54 521.76 639.17 521.76C640.8 521.76 642.1 523.02 642.1 524.65Z" fill="white"/>
<path d="M660.07 512.53C660.07 521.92 655.78 525.83 646.29 527.94L645.27 524.5C651.06 523.07 654.15 521 654.9 516.64C653.81 518.04 652.28 518.99 650.07 518.99C646.5 518.99 643.57 516.13 643.57 511.47C643.57 506.81 647.21 503.64 651.8 503.64C657.28 503.64 660.07 507.28 660.07 512.52V512.53ZM655.14 513.35C655.21 508.79 654.22 507.16 651.81 507.16C649.73 507.16 648.41 508.59 648.41 511.35C648.41 514.45 649.77 515.54 651.47 515.54C652.93 515.54 654.19 514.76 655.14 513.36V513.35Z" fill="white"/>
<path d="M674.26 509.68C674.26 513.39 671.71 515.7 668.34 515.7C664.97 515.7 662.42 513.39 662.42 509.68C662.42 505.97 665.01 503.66 668.34 503.66C671.67 503.66 674.26 505.97 674.26 509.68ZM665.99 509.68C665.99 511.18 666.47 512.74 668.34 512.74C670.21 512.74 670.65 511.24 670.65 509.68C670.65 508.12 670.21 506.62 668.34 506.62C666.47 506.62 665.99 508.12 665.99 509.68ZM685.22 504.54L669.43 528.32L666.4 526.38L682.15 502.59L685.21 504.53L685.22 504.54ZM689.13 521.55C689.13 525.23 686.58 527.57 683.21 527.57C679.84 527.57 677.26 525.22 677.26 521.55C677.26 517.88 679.88 515.53 683.21 515.53C686.54 515.53 689.13 517.84 689.13 521.55ZM680.86 521.55C680.86 523.05 681.34 524.61 683.21 524.61C685.08 524.61 685.52 523.08 685.52 521.55C685.52 520.02 685.08 518.49 683.21 518.49C681.34 518.49 680.86 519.99 680.86 521.55Z" fill="white"/>
<path d="M344.44 564.63C344.44 567.45 342.7 569.29 339.95 570.04C342.81 570.35 345.19 572.08 345.19 575.69C345.19 579.57 342.13 582.73 336.65 582.73C333.35 582.73 330.8 581.5 329.03 579.33L331.65 576.81C333.18 578.34 334.61 578.99 336.38 578.99C338.69 578.99 340.23 577.66 340.23 575.38C340.23 572.83 338.8 571.91 336.28 571.91H334.41L334.99 568.51H336.25C338.33 568.51 339.75 567.35 339.75 565.28C339.75 563.51 338.49 562.46 336.52 562.46C334.78 562.46 333.39 563.11 331.99 564.43L329.57 561.81C331.65 559.84 334.1 558.82 336.99 558.82C341.86 558.82 344.44 561.44 344.44 564.64V564.63Z" fill="white"/>
<path d="M364.9 575.99C364.9 579.73 361.63 582.73 356.19 582.73C350.75 582.73 347.65 579.77 347.65 576.09C347.65 573.3 349.28 571.5 351.97 570.31C349.52 568.91 348.57 567.08 348.57 564.9C348.57 561.16 351.97 558.81 356.29 558.81C360.61 558.81 364.01 560.89 364.01 564.7C364.01 566.74 362.85 568.51 360.27 569.87C363.4 571.33 364.9 573.31 364.9 575.99ZM360.03 575.96C360.03 573.95 358.98 573.03 356.15 572.01L355.06 571.64C353.36 572.52 352.51 573.99 352.51 575.89C352.51 577.93 353.97 579.19 356.32 579.19C358.67 579.19 360.03 577.83 360.03 575.96ZM353.26 564.97C353.26 566.74 354.35 567.59 356.39 568.41L357.07 568.65C358.77 567.56 359.32 566.47 359.32 564.94C359.32 563.27 358.3 562.12 356.33 562.12C354.46 562.12 353.27 563.11 353.27 564.98L353.26 564.97Z" fill="white"/>
<path d="M373.03 579.8C373.03 580.75 372.72 581.64 372.08 583.13L369.87 588.1H367.05L368.48 582.18C367.7 581.67 367.22 580.79 367.22 579.8C367.22 578.17 368.48 576.91 370.11 576.91C371.74 576.91 373.04 578.17 373.04 579.8H373.03Z" fill="white"/>
<path d="M383.31 582.18H378.58V564.01L373.54 567.11L371.43 563.84L379.05 559.25H383.3V582.18H383.31Z" fill="white"/>
<path d="M399.31 564.83C399.31 568.54 396.76 570.85 393.39 570.85C390.02 570.85 387.47 568.54 387.47 564.83C387.47 561.12 390.06 558.81 393.39 558.81C396.72 558.81 399.31 561.12 399.31 564.83ZM391.04 564.83C391.04 566.33 391.52 567.89 393.39 567.89C395.26 567.89 395.7 566.39 395.7 564.83C395.7 563.27 395.26 561.77 393.39 561.77C391.52 561.77 391.04 563.27 391.04 564.83ZM410.27 559.69L394.48 583.47L391.45 581.53L407.2 557.74L410.26 559.68L410.27 559.69ZM414.18 576.7C414.18 580.38 411.63 582.72 408.26 582.72C404.89 582.72 402.3 580.37 402.3 576.7C402.3 573.03 404.92 570.68 408.26 570.68C411.6 570.68 414.18 572.99 414.18 576.7ZM405.91 576.7C405.91 578.2 406.39 579.76 408.26 579.76C410.13 579.76 410.57 578.23 410.57 576.7C410.57 575.17 410.13 573.64 408.26 573.64C406.39 573.64 405.91 575.14 405.91 576.7Z" fill="white"/>
<path d="M381.86 338.67H377.13V320.5L372.09 323.6L369.98 320.33L377.6 315.74H381.85V338.67H381.86Z" fill="white"/>
<path d="M403.07 333.57H400.38V338.67H395.68L395.65 333.57H385.95V330.3L392.55 315.23L396.63 316.76L390.95 329.89H395.71L396.22 324.28H400.37V329.89H403.06V333.56L403.07 333.57Z" fill="white"/>
<path d="M410.83 336.29C410.83 337.24 410.52 338.13 409.88 339.62L407.67 344.59H404.85L406.28 338.67C405.5 338.16 405.02 337.27 405.02 336.29C405.02 334.66 406.28 333.4 407.91 333.4C409.54 333.4 410.84 334.66 410.84 336.29H410.83Z" fill="white"/>
<path d="M427.94 321.11C427.94 323.93 426.2 325.77 423.45 326.52C426.31 326.83 428.69 328.56 428.69 332.17C428.69 336.05 425.63 339.21 420.15 339.21C416.85 339.21 414.3 337.98 412.53 335.81L415.15 333.29C416.68 334.82 418.11 335.47 419.88 335.47C422.19 335.47 423.73 334.14 423.73 331.86C423.73 329.31 422.3 328.39 419.78 328.39H417.91L418.49 324.99H419.75C421.83 324.99 423.25 323.83 423.25 321.76C423.25 319.99 421.99 318.94 420.02 318.94C418.28 318.94 416.89 319.59 415.49 320.91L413.07 318.29C415.15 316.32 417.6 315.3 420.49 315.3C425.36 315.3 427.94 317.92 427.94 321.12V321.11Z" fill="white"/>
<path d="M442.99 321.32C442.99 325.03 440.44 327.34 437.07 327.34C433.7 327.34 431.15 325.03 431.15 321.32C431.15 317.61 433.74 315.3 437.07 315.3C440.4 315.3 442.99 317.61 442.99 321.32ZM434.72 321.32C434.72 322.82 435.2 324.38 437.07 324.38C438.94 324.38 439.38 322.88 439.38 321.32C439.38 319.76 438.94 318.26 437.07 318.26C435.2 318.26 434.72 319.76 434.72 321.32ZM453.95 316.18L438.16 339.96L435.13 338.02L450.88 314.23L453.94 316.17L453.95 316.18ZM457.86 333.19C457.86 336.87 455.31 339.21 451.94 339.21C448.57 339.21 445.98 336.86 445.98 333.19C445.98 329.52 448.6 327.17 451.94 327.17C455.28 327.17 457.86 329.48 457.86 333.19ZM449.59 333.19C449.59 334.69 450.07 336.25 451.94 336.25C453.81 336.25 454.25 334.72 454.25 333.19C454.25 331.66 453.81 330.13 451.94 330.13C450.07 330.13 449.59 331.63 449.59 333.19Z" fill="white"/>
<path d="M522.31 301.88H519.62V306.98H514.92L514.89 301.88H505.19V298.61L511.79 283.54L515.87 285.07L510.19 298.2H514.95L515.46 292.59H519.61V298.2H522.3V301.87L522.31 301.88Z" fill="#1765AB"/>
<path d="M530.07 304.6C530.07 305.55 529.76 306.44 529.12 307.93L526.91 312.9H524.09L525.52 306.98C524.74 306.47 524.26 305.58 524.26 304.6C524.26 302.97 525.52 301.71 527.15 301.71C528.78 301.71 530.08 302.97 530.08 304.6H530.07Z" fill="#1765AB"/>
<path d="M549.64 300.79C549.64 304.53 546.37 307.53 540.93 307.53C535.49 307.53 532.39 304.57 532.39 300.89C532.39 298.1 534.02 296.3 536.71 295.11C534.26 293.71 533.31 291.88 533.31 289.7C533.31 285.96 536.71 283.61 541.03 283.61C545.35 283.61 548.75 285.69 548.75 289.5C548.75 291.54 547.59 293.31 545.01 294.67C548.14 296.13 549.64 298.11 549.64 300.79ZM544.77 300.76C544.77 298.75 543.72 297.83 540.89 296.81L539.8 296.44C538.1 297.32 537.25 298.79 537.25 300.69C537.25 302.73 538.71 303.99 541.06 303.99C543.41 303.99 544.77 302.63 544.77 300.76ZM538 289.77C538 291.54 539.09 292.39 541.13 293.21L541.81 293.45C543.51 292.36 544.06 291.27 544.06 289.74C544.06 288.07 543.04 286.92 541.07 286.92C539.2 286.92 538.01 287.91 538.01 289.78L538 289.77Z" fill="#1765AB"/>
<path d="M563.76 289.63C563.76 293.34 561.21 295.65 557.84 295.65C554.47 295.65 551.92 293.34 551.92 289.63C551.92 285.92 554.51 283.61 557.84 283.61C561.17 283.61 563.76 285.92 563.76 289.63ZM555.49 289.63C555.49 291.13 555.97 292.69 557.84 292.69C559.71 292.69 560.15 291.19 560.15 289.63C560.15 288.07 559.71 286.57 557.84 286.57C555.97 286.57 555.49 288.07 555.49 289.63ZM574.72 284.49L558.93 308.27L555.9 306.33L571.65 282.54L574.71 284.48L574.72 284.49ZM578.63 301.5C578.63 305.18 576.08 307.52 572.71 307.52C569.34 307.52 566.76 305.17 566.76 301.5C566.76 297.83 569.38 295.48 572.71 295.48C576.04 295.48 578.63 297.79 578.63 301.5ZM570.36 301.5C570.36 303 570.84 304.56 572.71 304.56C574.58 304.56 575.02 303.03 575.02 301.5C575.02 299.97 574.58 298.44 572.71 298.44C570.84 298.44 570.36 299.94 570.36 301.5Z" fill="#1765AB"/>
<path d="M169.3 111.18H163.82L157.51 89.99H162.32L166.64 107.45L170.8 89.99H175.39L169.3 111.18Z" fill="#1765AB"/>
<path d="M182.1 89.13C182.1 90.57 181 91.67 179.44 91.67C177.88 91.67 176.81 90.57 176.81 89.13C176.81 87.69 177.88 86.59 179.44 86.59C181 86.59 182.1 87.69 182.1 89.13ZM181.64 111.18H177.29V94.95H181.64V111.18Z" fill="#1765AB"/>
<path d="M197.2 96.42L195.55 98.9C194.23 98.07 192.92 97.61 191.51 97.61C190.1 97.61 189.27 98.19 189.27 99.08C189.27 100.03 189.82 100.46 192.67 101.29C195.92 102.18 197.75 103.53 197.75 106.4C197.75 109.77 194.6 111.67 190.74 111.67C187.92 111.67 185.66 110.72 184.13 109.31L186.27 106.92C187.5 107.87 189 108.51 190.62 108.51C192.24 108.51 193.28 107.84 193.28 106.73C193.28 105.5 192.7 105.11 189.7 104.28C186.42 103.36 184.89 101.74 184.89 99.29C184.89 96.53 187.4 94.45 191.32 94.45C193.68 94.45 195.67 95.18 197.2 96.41V96.42Z" fill="#1765AB"/>
<path d="M215.18 103.06C215.18 108.2 212.27 111.67 207.4 111.67C202.53 111.67 199.62 108.45 199.62 103.06C199.62 97.67 202.53 94.45 207.43 94.45C212.33 94.45 215.18 97.67 215.18 103.06ZM205.66 90.17C204.96 90.17 204.53 90.66 204.04 91.55L201.8 90.45C202.54 88.61 203.85 87.05 205.6 87.05C207.44 87.05 208.11 88.46 209.15 88.46C209.82 88.46 210.25 88 210.77 87.11L213.01 88.21C212.21 90.2 210.9 91.58 209.18 91.58C207.46 91.58 206.7 90.17 205.66 90.17ZM204.16 103.06C204.16 106.8 205.26 108.42 207.41 108.42C209.56 108.42 210.66 106.77 210.66 103.06C210.66 99.35 209.56 97.7 207.44 97.7C205.32 97.7 204.16 99.35 204.16 103.06Z" fill="#1765AB"/>
<path d="M232.12 104.38H221.98C222.29 107.5 223.76 108.42 225.84 108.42C227.22 108.42 228.38 107.99 229.79 107.01L231.6 109.46C230.01 110.75 227.99 111.67 225.44 111.67C220.23 111.67 217.51 108.24 217.51 103.16C217.51 98.08 220.14 94.46 224.89 94.46C229.64 94.46 232.21 97.52 232.21 102.7C232.21 103.25 232.15 103.93 232.12 104.38ZM227.89 101.47C227.89 99.02 227.06 97.43 224.98 97.43C223.26 97.43 222.19 98.59 221.98 101.66H227.89V101.48V101.47Z" fill="#1765AB"/>
<path d="M246.64 96.42L244.99 98.9C243.67 98.07 242.36 97.61 240.95 97.61C239.54 97.61 238.71 98.19 238.71 99.08C238.71 100.03 239.26 100.46 242.11 101.29C245.36 102.18 247.19 103.53 247.19 106.4C247.19 109.77 244.04 111.67 240.18 111.67C237.36 111.67 235.1 110.72 233.57 109.31L235.71 106.92C236.94 107.87 238.44 108.51 240.06 108.51C241.68 108.51 242.72 107.84 242.72 106.73C242.72 105.5 242.14 105.11 239.14 104.28C235.86 103.36 234.33 101.74 234.33 99.29C234.33 96.53 236.84 94.45 240.76 94.45C243.12 94.45 245.11 95.18 246.64 96.41V96.42Z" fill="#1765AB"/>
<path d="M268.78 96.42L267.13 98.9C265.81 98.07 264.5 97.61 263.09 97.61C261.68 97.61 260.85 98.19 260.85 99.08C260.85 100.03 261.4 100.46 264.25 101.29C267.5 102.18 269.33 103.53 269.33 106.4C269.33 109.77 266.18 111.67 262.32 111.67C259.5 111.67 257.24 110.72 255.71 109.31L257.85 106.92C259.08 107.87 260.58 108.51 262.2 108.51C263.82 108.51 264.86 107.84 264.86 106.73C264.86 105.5 264.28 105.11 261.28 104.28C258 103.36 256.47 101.74 256.47 99.29C256.47 96.53 258.98 94.45 262.9 94.45C265.26 94.45 267.25 95.18 268.78 96.41V96.42Z" fill="#1765AB"/>
<path d="M286.76 103.06C286.76 108.2 283.85 111.67 278.98 111.67C274.11 111.67 271.2 108.45 271.2 103.06C271.2 97.67 274.11 94.45 279.01 94.45C283.91 94.45 286.76 97.67 286.76 103.06ZM275.74 103.06C275.74 106.8 276.84 108.42 278.99 108.42C281.14 108.42 282.24 106.77 282.24 103.06C282.24 99.35 281.14 97.7 279.02 97.7C276.9 97.7 275.74 99.35 275.74 103.06Z" fill="#1765AB"/>
<path d="M304.87 103.06C304.87 108.08 302.45 111.67 298.44 111.67C296.63 111.67 295.19 110.9 294.18 109.59L293.93 111.18H290.07V88.49L294.42 88V96.7C295.43 95.32 297.02 94.46 298.86 94.46C302.66 94.46 304.86 97.64 304.86 103.07L304.87 103.06ZM300.34 103.06C300.34 98.83 299.15 97.67 297.43 97.67C296.17 97.67 295.16 98.53 294.43 99.75V106.7C295.1 107.8 296.05 108.45 297.22 108.45C299.06 108.45 300.34 107.01 300.34 103.06Z" fill="#1765AB"/>
<path d="M318.34 94.73L317.61 98.93C317.12 98.81 316.72 98.72 316.17 98.72C314.18 98.72 313.26 100.19 312.68 102.79V111.18H308.33V94.95H312.1L312.5 98.1C313.27 95.83 314.83 94.49 316.73 94.49C317.31 94.49 317.8 94.58 318.35 94.74L318.34 94.73Z" fill="#1765AB"/>
<path d="M333.2 104.38H323.06C323.37 107.5 324.84 108.42 326.92 108.42C328.3 108.42 329.46 107.99 330.87 107.01L332.68 109.46C331.09 110.75 329.07 111.67 326.52 111.67C321.31 111.67 318.59 108.24 318.59 103.16C318.59 98.08 321.22 94.46 325.97 94.46C330.72 94.46 333.29 97.52 333.29 102.7C333.29 103.25 333.23 103.93 333.2 104.38ZM328.97 101.47C328.97 99.02 328.14 97.43 326.06 97.43C324.34 97.43 323.27 98.59 323.06 101.66H328.97V101.48V101.47Z" fill="#1765AB"/>
<path d="M358.5 103.06C358.5 108.2 355.59 111.67 350.72 111.67C345.85 111.67 342.94 108.45 342.94 103.06C342.94 97.67 345.85 94.45 350.75 94.45C355.65 94.45 358.5 97.67 358.5 103.06ZM347.48 103.06C347.48 106.8 348.58 108.42 350.73 108.42C352.88 108.42 353.98 106.77 353.98 103.06C353.98 99.35 352.88 97.7 350.76 97.7C348.64 97.7 347.48 99.35 347.48 103.06Z" fill="#1765AB"/>
<path d="M374.18 93.45V94.95H378.04L377.55 98.01H374.18V111.18H369.83V98.01H367.26V94.95H369.83V93.33C369.83 90.33 371.82 88 375.77 88C377.42 88 378.86 88.4 380.06 88.98L378.87 91.86C377.89 91.4 377 91.25 376.24 91.25C374.77 91.25 374.19 91.92 374.19 93.46L374.18 93.45Z" fill="#1765AB"/>
<path d="M393.33 111.18H389.56L389.35 109.01C388.19 110.82 386.59 111.67 384.42 111.67C381.42 111.67 379.89 109.74 379.89 106.62V94.95H384.24V106.07C384.24 107.85 384.82 108.43 386.02 108.43C387.22 108.43 388.23 107.63 388.99 106.32V94.96H393.34V111.19L393.33 111.18Z" fill="#1765AB"/>
<path d="M407.33 110.41C406.14 111.24 404.54 111.67 403.1 111.67C399.73 111.64 398.02 109.71 398.02 106.1V98.02H395.6V94.96H398.02V91.41L402.37 90.89V94.96H406.11L405.68 98.02H402.37V106.01C402.37 107.6 402.89 108.21 403.99 108.21C404.57 108.21 405.15 108.03 405.83 107.66L407.33 110.42V110.41Z" fill="#1765AB"/>
<path d="M422.55 111.18H418.78L418.57 109.01C417.41 110.82 415.81 111.67 413.64 111.67C410.64 111.67 409.11 109.74 409.11 106.62V94.95H413.46V106.07C413.46 107.85 414.04 108.43 415.24 108.43C416.44 108.43 417.45 107.63 418.21 106.32V94.96H422.56V111.19L422.55 111.18Z" fill="#1765AB"/>
<path d="M436.85 94.73L436.12 98.93C435.63 98.81 435.23 98.72 434.68 98.72C432.69 98.72 431.77 100.19 431.19 102.79V111.18H426.84V94.95H430.61L431.01 98.1C431.78 95.83 433.34 94.49 435.24 94.49C435.82 94.49 436.31 94.58 436.86 94.74L436.85 94.73Z" fill="#1765AB"/>
<path d="M452.66 103.06C452.66 108.2 449.75 111.67 444.88 111.67C440.01 111.67 437.1 108.45 437.1 103.06C437.1 97.67 440.01 94.45 444.91 94.45C449.81 94.45 452.66 97.67 452.66 103.06ZM441.64 103.06C441.64 106.8 442.74 108.42 444.89 108.42C447.04 108.42 448.14 106.77 448.14 103.06C448.14 99.35 447.04 97.7 444.92 97.7C442.8 97.7 441.64 99.35 441.64 103.06Z" fill="#1765AB"/>
<path d="M477.5 88.48V111.17H473.67L473.43 109.18C472.45 110.59 470.95 111.66 468.77 111.66C464.7 111.66 462.61 108.23 462.61 103.05C462.61 97.87 465.18 94.44 469.19 94.44C470.84 94.44 472.16 95.11 473.14 96.06V87.98L477.49 88.47L477.5 88.48ZM473.15 106.46V99.2C472.35 98.25 471.53 97.67 470.33 97.67C468.43 97.67 467.14 99.26 467.14 103.06C467.14 107.13 468.3 108.42 470.05 108.42C471.37 108.42 472.29 107.75 473.14 106.46H473.15Z" fill="#1765AB"/>
<path d="M495.39 108.73L494.47 111.61C492.63 111.46 491.41 110.84 490.73 109.22C489.57 111 487.79 111.67 485.86 111.67C482.61 111.67 480.59 109.59 480.59 106.65C480.59 103.1 483.25 101.17 488.06 101.17H489.93V100.37C489.93 98.35 489.07 97.71 487.02 97.71C485.95 97.71 484.39 98.02 482.73 98.57L481.75 95.66C483.77 94.86 485.91 94.47 487.75 94.47C492.25 94.47 494.18 96.46 494.18 100.14V106.69C494.18 108.01 494.58 108.47 495.37 108.74L495.39 108.73ZM489.94 106.74V103.65H488.5C486.14 103.65 484.98 104.51 484.98 106.28C484.98 107.72 485.72 108.55 487.06 108.55C488.32 108.55 489.27 107.91 489.94 106.74Z" fill="#1765AB"/>
<path d="M519.65 104.38H509.51C509.82 107.5 511.29 108.42 513.37 108.42C514.75 108.42 515.91 107.99 517.32 107.01L519.13 109.46C517.54 110.75 515.52 111.67 512.97 111.67C507.76 111.67 505.04 108.24 505.04 103.16C505.04 98.08 507.67 94.46 512.42 94.46C517.17 94.46 519.74 97.52 519.74 102.7C519.74 103.25 519.68 103.93 519.65 104.38ZM515.42 101.47C515.42 99.02 514.59 97.43 512.51 97.43C510.8 97.43 509.72 98.59 509.51 101.66H515.42V101.48V101.47Z" fill="#1765AB"/>
<path d="M536.95 88.48V111.17H533.12L532.87 109.18C531.89 110.59 530.39 111.66 528.22 111.66C524.15 111.66 522.06 108.23 522.06 103.05C522.06 97.87 524.63 94.44 528.64 94.44C530.29 94.44 531.61 95.11 532.59 96.06V87.98L536.94 88.47L536.95 88.48ZM532.6 106.46V99.2C531.8 98.25 530.98 97.67 529.78 97.67C527.88 97.67 526.6 99.26 526.6 103.06C526.6 107.13 527.76 108.42 529.51 108.42C530.83 108.42 531.75 107.75 532.6 106.46Z" fill="#1765AB"/>
<path d="M554.53 111.18H550.76L550.55 109.01C549.39 110.82 547.79 111.67 545.62 111.67C542.62 111.67 541.09 109.74 541.09 106.62V94.95H545.44V106.07C545.44 107.85 546.02 108.43 547.22 108.43C548.42 108.43 549.43 107.63 550.19 106.32V94.96H554.54V111.19L554.53 111.18Z" fill="#1765AB"/>
<path d="M570.98 96.42L569.08 98.99C568.04 98.19 567.09 97.83 565.89 97.83C563.72 97.83 562.43 99.39 562.43 103.16C562.43 106.93 563.81 108.18 565.86 108.18C567.05 108.18 567.88 107.81 569.08 107.05L570.98 109.78C569.51 110.97 567.79 111.68 565.65 111.68C560.81 111.68 557.84 108.37 557.84 103.2C557.84 98.03 560.84 94.47 565.59 94.47C567.76 94.47 569.45 95.11 570.98 96.43V96.42Z" fill="#1765AB"/>
<path d="M586.76 108.73L585.84 111.61C584 111.46 582.78 110.84 582.1 109.22C580.94 111 579.16 111.67 577.23 111.67C573.98 111.67 571.96 109.59 571.96 106.65C571.96 103.1 574.62 101.17 579.43 101.17H581.3V100.37C581.3 98.35 580.44 97.71 578.39 97.71C577.32 97.71 575.76 98.02 574.1 98.57L573.12 95.66C575.14 94.86 577.29 94.47 579.12 94.47C583.62 94.47 585.55 96.46 585.55 100.14V106.69C585.55 108.01 585.95 108.47 586.74 108.74L586.76 108.73ZM581.31 106.74V103.65H579.87C577.51 103.65 576.35 104.51 576.35 106.28C576.35 107.72 577.08 108.55 578.43 108.55C579.69 108.55 580.64 107.91 581.31 106.74Z" fill="#1765AB"/>
<path d="M597.57 111.64V112.71C599.71 112.92 600.66 114.09 600.66 115.65C600.66 117.7 598.88 119.05 596.28 119.05C594.9 119.05 593.74 118.68 593 118.16L594.01 116.08C594.62 116.42 595.2 116.6 595.97 116.6C596.83 116.6 597.44 116.35 597.44 115.62C597.44 114.89 596.61 114.52 594.62 114.52L595.02 111.52C591.19 110.82 588.93 107.72 588.93 103.19C588.93 98.05 591.93 94.46 596.68 94.46C598.85 94.46 600.54 95.1 602.07 96.42L600.17 98.99C599.13 98.19 598.18 97.83 596.98 97.83C594.81 97.83 593.52 99.39 593.52 103.16C593.52 106.93 594.9 108.18 596.95 108.18C598.14 108.18 598.97 107.81 600.17 107.05L602.07 109.78C600.78 110.82 599.34 111.49 597.57 111.65V111.64Z" fill="#1765AB"/>
<path d="M617.85 108.73L616.93 111.61C615.09 111.46 613.87 110.84 613.19 109.22C612.03 111 610.25 111.67 608.32 111.67C605.07 111.67 603.05 109.59 603.05 106.65C603.05 103.1 605.71 101.17 610.52 101.17H612.39V100.37C612.39 98.35 611.53 97.71 609.48 97.71C608.41 97.71 606.85 98.02 605.19 98.57L604.21 95.66C606.23 94.86 608.38 94.47 610.21 94.47C614.71 94.47 616.64 96.46 616.64 100.14V106.69C616.64 108.01 617.04 108.47 617.83 108.74L617.85 108.73ZM606.98 91.55L604.74 90.45C605.48 88.61 606.79 87.05 608.54 87.05C610.38 87.05 611.05 88.46 612.09 88.46C612.76 88.46 613.19 88 613.71 87.11L615.95 88.21C615.15 90.2 613.84 91.58 612.12 91.58C610.4 91.58 609.64 90.17 608.6 90.17C607.9 90.17 607.47 90.66 606.98 91.55ZM612.4 106.74V103.65H610.96C608.6 103.65 607.44 104.51 607.44 106.28C607.44 107.72 608.17 108.55 609.52 108.55C610.78 108.55 611.73 107.91 612.4 106.74Z" fill="#1765AB"/>
<path d="M635.58 103.06C635.58 108.2 632.67 111.67 627.8 111.67C622.93 111.67 620.02 108.45 620.02 103.06C620.02 97.67 622.93 94.45 627.83 94.45C632.73 94.45 635.58 97.67 635.58 103.06ZM624.56 103.06C624.56 106.8 625.66 108.42 627.81 108.42C629.96 108.42 631.06 106.77 631.06 103.06C631.06 99.35 629.96 97.7 627.84 97.7C625.72 97.7 624.56 99.35 624.56 103.06Z" fill="#1765AB"/>
<path d="M661.16 103.03C661.16 107.99 658.8 111.67 654.73 111.67C653.11 111.67 651.73 111.09 650.72 109.92V117.42L646.37 117.91V94.94H650.2L650.41 96.84C651.7 95.19 653.44 94.45 655.13 94.45C659.36 94.45 661.16 97.79 661.16 103.02V103.03ZM656.63 103.06C656.63 98.99 655.59 97.67 653.78 97.67C652.52 97.67 651.45 98.53 650.72 99.75V106.82C651.42 107.89 652.31 108.41 653.45 108.41C655.44 108.41 656.64 106.85 656.64 103.05L656.63 103.06Z" fill="#1765AB"/>
<path d="M679.2 103.06C679.2 108.2 676.29 111.67 671.42 111.67C666.55 111.67 663.64 108.45 663.64 103.06C663.64 97.67 666.55 94.45 671.45 94.45C676.35 94.45 679.2 97.67 679.2 103.06ZM675.4 89.19L668.36 92.01L667.14 89.77L673.69 85.85L675.4 89.19ZM668.17 103.06C668.17 106.8 669.27 108.42 671.42 108.42C673.57 108.42 674.67 106.77 674.67 103.06C674.67 99.35 673.57 97.7 671.45 97.7C669.33 97.7 668.17 99.35 668.17 103.06Z" fill="#1765AB"/>
<path d="M693.78 96.42L692.13 98.9C690.81 98.07 689.5 97.61 688.09 97.61C686.68 97.61 685.85 98.19 685.85 99.08C685.85 100.03 686.4 100.46 689.25 101.29C692.5 102.18 694.33 103.53 694.33 106.4C694.33 109.77 691.18 111.67 687.32 111.67C684.5 111.67 682.24 110.72 680.7 109.31L682.84 106.92C684.06 107.87 685.57 108.51 687.19 108.51C688.81 108.51 689.85 107.84 689.85 106.73C689.85 105.5 689.27 105.11 686.27 104.28C682.99 103.36 681.46 101.74 681.46 99.29C681.46 96.53 683.97 94.45 687.89 94.45C690.25 94.45 692.24 95.18 693.77 96.41L693.78 96.42Z" fill="#1765AB"/>
<path d="M696.2 99.88H705.69V103.31H696.2V99.88Z" fill="#1765AB"/>
<path d="M724.11 103.03C724.11 107.99 721.75 111.67 717.68 111.67C716.06 111.67 714.68 111.09 713.67 109.92V117.42L709.32 117.91V94.94H713.15L713.36 96.84C714.65 95.19 716.39 94.45 718.08 94.45C722.31 94.45 724.11 97.79 724.11 103.02V103.03ZM719.58 103.06C719.58 98.99 718.54 97.67 716.73 97.67C715.47 97.67 714.4 98.53 713.67 99.75V106.82C714.37 107.89 715.26 108.41 716.4 108.41C718.39 108.41 719.59 106.85 719.59 103.05L719.58 103.06Z" fill="#1765AB"/>
<path d="M740.86 108.73L739.94 111.61C738.1 111.46 736.88 110.84 736.2 109.22C735.04 111 733.26 111.67 731.33 111.67C728.08 111.67 726.06 109.59 726.06 106.65C726.06 103.1 728.72 101.17 733.53 101.17H735.4V100.37C735.4 98.35 734.54 97.71 732.49 97.71C731.42 97.71 729.86 98.02 728.2 98.57L727.22 95.66C729.24 94.86 731.39 94.47 733.22 94.47C737.72 94.47 739.65 96.46 739.65 100.14V106.69C739.65 108.01 740.05 108.47 740.84 108.74L740.86 108.73ZM735.41 106.74V103.65H733.97C731.61 103.65 730.45 104.51 730.45 106.28C730.45 107.72 731.18 108.55 732.53 108.55C733.79 108.55 734.74 107.91 735.41 106.74Z" fill="#1765AB"/>
<path d="M757.62 99.36V111.18H753.27V100.09C753.27 98.22 752.6 97.7 751.49 97.7C750.23 97.7 749.25 98.53 748.37 99.97V111.18H744.02V94.95H747.79L748.13 97C749.45 95.38 751.01 94.46 753.09 94.46C755.94 94.46 757.62 96.3 757.62 99.36Z" fill="#1765AB"/>
<path d="M775.81 88.48V111.17H771.98L771.73 109.18C770.75 110.59 769.25 111.66 767.08 111.66C763.01 111.66 760.92 108.23 760.92 103.05C760.92 97.87 763.49 94.44 767.5 94.44C769.15 94.44 770.47 95.11 771.45 96.06V87.98L775.8 88.47L775.81 88.48ZM771.46 106.46V99.2C770.66 98.25 769.84 97.67 768.64 97.67C766.74 97.67 765.46 99.26 765.46 103.06C765.46 107.13 766.62 108.42 768.37 108.42C769.69 108.42 770.61 107.75 771.46 106.46Z" fill="#1765AB"/>
<path d="M793.73 104.38H783.59C783.9 107.5 785.37 108.42 787.45 108.42C788.83 108.42 789.99 107.99 791.4 107.01L793.21 109.46C791.62 110.75 789.6 111.67 787.05 111.67C781.84 111.67 779.12 108.24 779.12 103.16C779.12 98.08 781.75 94.46 786.5 94.46C791.25 94.46 793.82 97.52 793.82 102.7C793.82 103.25 793.76 103.93 793.73 104.38ZM789.5 101.47C789.5 99.02 788.67 97.43 786.59 97.43C784.88 97.43 783.8 98.59 783.59 101.66H789.5V101.48V101.47Z" fill="#1765AB"/>
<path d="M818.81 99.36V111.18H814.46V100.09C814.46 98.22 813.73 97.7 812.87 97.7C811.68 97.7 810.88 98.53 810.05 99.97V111.18H805.7V100.09C805.7 98.22 804.99 97.7 804.11 97.7C802.92 97.7 802.12 98.53 801.32 99.97V111.18H796.97V94.95H800.74L801.08 96.97C802.27 95.38 803.75 94.46 805.8 94.46C807.64 94.46 809.05 95.41 809.66 97.09C810.95 95.41 812.45 94.46 814.53 94.46C817.07 94.46 818.82 96.3 818.82 99.36H818.81Z" fill="#1765AB"/>
<path d="M827.76 89.13C827.76 90.57 826.66 91.67 825.09 91.67C823.52 91.67 822.46 90.57 822.46 89.13C822.46 87.69 823.53 86.59 825.09 86.59C826.65 86.59 827.76 87.69 827.76 89.13ZM827.3 111.18H822.95V94.95H827.3V111.18Z" fill="#1765AB"/>
<path d="M845.19 108.73L844.27 111.61C842.43 111.46 841.21 110.84 840.53 109.22C839.37 111 837.59 111.67 835.66 111.67C832.41 111.67 830.39 109.59 830.39 106.65C830.39 103.1 833.05 101.17 837.86 101.17H839.73V100.37C839.73 98.35 838.87 97.71 836.82 97.71C835.75 97.71 834.19 98.02 832.53 98.57L831.55 95.66C833.57 94.86 835.72 94.47 837.55 94.47C842.05 94.47 843.98 96.46 843.98 100.14V106.69C843.98 108.01 844.38 108.47 845.17 108.74L845.19 108.73ZM839.74 106.74V103.65H838.3C835.94 103.65 834.78 104.51 834.78 106.28C834.78 107.72 835.51 108.55 836.86 108.55C838.12 108.55 839.07 107.91 839.74 106.74Z" fill="#1765AB"/>
</g>
<defs>
<clipPath id="clip0_11_12667">
<rect width="1002.69" height="1080" fill="white"/>
</clipPath>
</defs>
</svg>
