<svg width="501" height="494" viewBox="0 0 501 494" fill="none" xmlns="http://www.w3.org/2000/svg">
<g clip-path="url(#clip0_13_962)">
<path d="M501 0H0V498.681H501V0Z" fill="white"/>
<path d="M360.023 177.04C349.262 216.476 317.774 247.297 278.06 256.962C280.671 266.507 282.064 276.554 282.064 286.941C282.064 316.92 270.443 344.177 251.49 364.414C272.01 386.324 301.137 400.013 333.453 400.013C395.602 400.013 445.979 349.392 445.979 286.941C445.979 233.685 409.344 189.045 360.012 177.04H360.023Z" fill="#EDF9FF"/>
<path d="M224.93 256.962C185.216 247.297 153.739 216.476 142.967 177.04C93.6457 189.034 57 233.685 57 286.941C57 349.392 107.377 400.013 169.527 400.013C201.842 400.013 230.958 386.324 251.49 364.414C232.536 344.177 220.915 316.92 220.915 286.941C220.915 276.565 222.319 266.518 224.919 256.962H224.93Z" fill="#EDF9FF"/>
<path d="M278.071 256.962C269.551 259.039 260.662 260.144 251.501 260.144C242.339 260.144 233.45 259.039 224.93 256.962C222.319 266.507 220.926 276.554 220.926 286.941C220.926 316.92 232.547 344.177 251.501 364.414C270.454 344.177 282.075 316.92 282.075 286.941C282.075 276.565 280.671 266.518 278.071 256.962Z" fill="#CFEAFF"/>
<path d="M251.501 209.468C272.021 187.558 301.148 173.869 333.464 173.869C342.614 173.869 351.514 174.973 360.034 177.051C362.645 167.506 364.038 157.458 364.038 147.072C364.038 84.621 313.661 34 251.511 34C189.362 34 138.985 84.621 138.985 147.072C138.985 157.447 140.388 167.495 142.989 177.051C151.508 174.973 160.398 173.869 169.559 173.869C201.874 173.869 230.991 187.558 251.522 209.468H251.501Z" fill="#EDF9FF"/>
<path d="M251.5 209.468C263.893 222.697 273.142 238.933 278.071 256.962C317.785 247.297 349.262 216.476 360.034 177.04C351.514 174.963 342.625 173.858 333.464 173.858C301.148 173.858 272.032 187.547 251.5 209.457V209.468Z" fill="#CFEAFF"/>
<path d="M224.93 256.962C229.848 238.933 239.108 222.697 251.501 209.468C230.98 187.558 201.853 173.869 169.537 173.869C160.387 173.869 151.487 174.974 142.967 177.051C153.728 216.487 185.216 247.308 224.93 256.973V256.962Z" fill="#CFEAFF"/>
<path d="M224.93 256.962C233.45 259.039 242.339 260.144 251.5 260.144C260.662 260.144 269.551 259.039 278.071 256.962C273.153 238.933 263.893 222.697 251.5 209.468C239.108 222.697 229.859 238.933 224.93 256.962Z" fill="#1765AB"/>
<path d="M212.875 141.43H207.978V144.973H212.254V147.061H207.978V150.822H213.234V152.943H205.106V139.32H213.201L212.885 141.43H212.875Z" fill="#1765AB"/>
<path d="M222.765 143.453L221.546 145.104C220.883 144.59 220.273 144.36 219.512 144.36C218.119 144.36 217.292 145.366 217.292 147.782C217.292 150.199 218.173 151.008 219.49 151.008C220.252 151.008 220.785 150.767 221.546 150.275L222.765 152.025C221.829 152.79 220.73 153.249 219.359 153.249C216.269 153.249 214.365 151.128 214.365 147.793C214.365 144.459 216.28 142.185 219.316 142.185C220.709 142.185 221.786 142.6 222.765 143.442V143.453Z" fill="#1765AB"/>
<path d="M233.276 147.728C233.276 151.03 231.415 153.26 228.303 153.26C225.191 153.26 223.331 151.194 223.331 147.728C223.331 144.262 225.191 142.195 228.325 142.195C231.458 142.195 233.286 144.262 233.286 147.728H233.276ZM226.225 147.728C226.225 150.133 226.932 151.172 228.303 151.172C229.674 151.172 230.381 150.111 230.381 147.728C230.381 145.344 229.674 144.284 228.325 144.284C226.976 144.284 226.225 145.344 226.225 147.728Z" fill="#1765AB"/>
<path d="M244.091 145.344V152.943H241.305V145.814C241.305 144.612 240.87 144.284 240.174 144.284C239.369 144.284 238.749 144.819 238.172 145.738V152.943H235.386V142.513H237.791L238.009 143.835C238.846 142.797 239.847 142.206 241.186 142.206C243.003 142.206 244.091 143.387 244.091 145.355V145.344Z" fill="#1765AB"/>
<path d="M256.059 147.728C256.059 151.03 254.199 153.26 251.087 153.26C247.975 153.26 246.115 151.194 246.115 147.728C246.115 144.262 247.975 142.196 251.109 142.196C254.242 142.196 256.07 144.262 256.07 147.728H256.059ZM247.475 139.484L250.217 136.904H251.936L254.678 139.484L253.644 140.665L251.076 138.916L248.487 140.665L247.464 139.484H247.475ZM248.998 147.728C248.998 150.133 249.705 151.172 251.076 151.172C252.447 151.172 253.154 150.111 253.154 147.728C253.154 145.344 252.447 144.284 251.098 144.284C249.749 144.284 248.998 145.344 248.998 147.728Z" fill="#1765AB"/>
<path d="M272.141 145.344V152.943H269.355V145.814C269.355 144.612 268.888 144.284 268.333 144.284C267.571 144.284 267.06 144.819 266.526 145.738V152.943H263.741V145.814C263.741 144.612 263.295 144.284 262.718 144.284C261.957 144.284 261.445 144.819 260.934 145.738V152.943H258.148V142.512H260.553L260.771 143.814C261.532 142.786 262.479 142.195 263.785 142.195C264.96 142.195 265.863 142.808 266.254 143.89C267.081 142.808 268.039 142.195 269.366 142.195C270.998 142.195 272.108 143.376 272.108 145.344H272.141Z" fill="#1765AB"/>
<path d="M277.853 138.773C277.853 139.703 277.146 140.402 276.145 140.402C275.144 140.402 274.458 139.692 274.458 138.773C274.458 137.855 275.144 137.144 276.145 137.144C277.146 137.144 277.853 137.855 277.853 138.773ZM277.559 152.943H274.774V142.513H277.559V152.943Z" fill="#1765AB"/>
<path d="M288.081 143.453L286.862 145.104C286.198 144.59 285.589 144.36 284.828 144.36C283.435 144.36 282.608 145.366 282.608 147.782C282.608 150.199 283.489 151.008 284.806 151.008C285.567 151.008 286.101 150.767 286.862 150.275L288.081 152.025C287.145 152.79 286.046 153.249 284.675 153.249C281.585 153.249 279.681 151.128 279.681 147.793C279.681 144.459 281.596 142.185 284.632 142.185C286.024 142.185 287.102 142.6 288.081 143.442V143.453Z" fill="#1765AB"/>
<path d="M298.591 147.728C298.591 151.03 296.731 153.26 293.619 153.26C290.507 153.26 288.647 151.194 288.647 147.728C288.647 144.262 290.507 142.195 293.641 142.195C296.774 142.195 298.602 144.262 298.602 147.728H298.591ZM291.541 147.728C291.541 150.133 292.248 151.172 293.619 151.172C294.99 151.172 295.697 150.111 295.697 147.728C295.697 145.344 294.99 144.284 293.641 144.284C292.292 144.284 291.541 145.344 291.541 147.728Z" fill="#1765AB"/>
<path d="M185.456 447.944L184.085 449.54C183.127 448.753 182.181 448.403 181.093 448.403C179.917 448.403 179.112 448.917 179.112 449.879C179.112 450.841 179.624 451.213 181.832 451.902C184.281 452.689 185.847 453.717 185.847 456.232C185.847 458.746 183.889 460.485 180.592 460.485C178.34 460.485 176.697 459.675 175.576 458.571L177.045 456.942C178.046 457.784 179.123 458.298 180.516 458.298C181.909 458.298 182.844 457.631 182.844 456.428C182.844 455.346 182.311 454.876 180.255 454.242C177.317 453.312 176.142 452.132 176.142 450.065C176.142 447.747 178.144 446.228 180.886 446.228C182.899 446.228 184.281 446.84 185.456 447.944Z" fill="#F06C00"/>
<path d="M196.26 460.167H193.855L193.714 458.768C192.974 459.927 191.951 460.485 190.559 460.485C188.644 460.485 187.653 459.249 187.653 457.237V449.737H190.439V456.887C190.439 458.025 190.809 458.407 191.57 458.407C192.332 458.407 192.985 457.893 193.475 457.052V449.748H196.26V460.178V460.167Z" fill="#F06C00"/>
<path d="M206.216 450.677L205.16 452.274C204.323 451.738 203.474 451.443 202.571 451.443C201.668 451.443 201.145 451.814 201.145 452.383C201.145 452.995 201.494 453.269 203.322 453.804C205.4 454.373 206.575 455.237 206.575 457.095C206.575 459.26 204.551 460.485 202.092 460.485C200.286 460.485 198.839 459.872 197.859 458.965L199.23 457.434C200.014 458.046 200.971 458.462 202.016 458.462C203.06 458.462 203.724 458.025 203.724 457.325C203.724 456.538 203.354 456.286 201.428 455.75C199.328 455.16 198.349 454.121 198.349 452.547C198.349 450.776 199.959 449.442 202.462 449.442C203.974 449.442 205.247 449.912 206.227 450.699L206.216 450.677Z" fill="#F06C00"/>
<path d="M214.594 459.676C213.832 460.211 212.809 460.485 211.895 460.485C209.741 460.463 208.642 459.227 208.642 456.898V451.705H207.097V449.737H208.642V447.452L211.427 447.113V449.726H213.821L213.549 451.694H211.427V456.833C211.427 457.861 211.765 458.254 212.472 458.254C212.842 458.254 213.212 458.134 213.647 457.904L214.605 459.676H214.594Z" fill="#F06C00"/>
<path d="M224.212 455.794H217.727C217.923 457.806 218.859 458.396 220.197 458.396C221.079 458.396 221.818 458.123 222.721 457.489L223.875 459.063C222.852 459.894 221.568 460.485 219.936 460.485C216.607 460.485 214.866 458.276 214.866 455.007C214.866 451.738 216.552 449.42 219.588 449.42C222.624 449.42 224.267 451.388 224.267 454.712C224.267 455.062 224.223 455.499 224.212 455.794ZM221.514 453.925C221.514 452.35 220.981 451.322 219.653 451.322C218.554 451.322 217.869 452.066 217.738 454.045H221.514V453.925Z" fill="#F06C00"/>
<path d="M234.984 452.569V460.167H232.198V453.039C232.198 451.836 231.763 451.508 231.067 451.508C230.262 451.508 229.642 452.044 229.065 452.962V460.167H226.279V449.737H228.684L228.902 451.06C229.739 450.021 230.74 449.431 232.079 449.431C233.896 449.431 234.984 450.612 234.984 452.58V452.569Z" fill="#F06C00"/>
<path d="M243.841 459.676C243.079 460.211 242.056 460.485 241.142 460.485C238.988 460.463 237.889 459.227 237.889 456.898V451.705H236.344V449.737H237.889V447.452L240.674 447.113V449.726H243.068L242.796 451.694H240.674V456.833C240.674 457.861 241.012 458.254 241.719 458.254C242.089 458.254 242.459 458.134 242.894 457.904L243.852 459.676H243.841Z" fill="#F06C00"/>
<path d="M253.546 458.593L252.958 460.441C251.783 460.342 251 459.949 250.565 458.91C249.825 460.047 248.682 460.485 247.453 460.485C245.375 460.485 244.08 459.151 244.08 457.259C244.08 454.974 245.788 453.739 248.857 453.739H250.053V453.225C250.053 451.924 249.509 451.508 248.193 451.508C247.507 451.508 246.506 451.705 245.451 452.055L244.82 450.185C246.115 449.672 247.486 449.42 248.661 449.42C251.544 449.42 252.774 450.699 252.774 453.061V457.27C252.774 458.112 253.024 458.407 253.535 458.593H253.546ZM250.053 457.314V455.324H249.129C247.616 455.324 246.876 455.871 246.876 457.019C246.876 457.948 247.344 458.473 248.204 458.473C249.009 458.473 249.618 458.057 250.043 457.314H250.053Z" fill="#F06C00"/>
<path d="M265.025 454.952C265.025 458.178 263.48 460.485 260.912 460.485C259.759 460.485 258.834 459.993 258.192 459.151L258.04 460.178H255.57V445.594L258.355 445.276V450.863C258.997 449.978 260.02 449.431 261.195 449.431C263.621 449.431 265.036 451.476 265.036 454.963L265.025 454.952ZM262.12 454.952C262.12 452.23 261.358 451.487 260.259 451.487C259.454 451.487 258.812 452.033 258.344 452.82V457.292C258.78 458.003 259.378 458.418 260.129 458.418C261.304 458.418 262.131 457.489 262.131 454.952H262.12Z" fill="#F06C00"/>
<path d="M270.313 445.998C270.313 446.927 269.606 447.627 268.605 447.627C267.604 447.627 266.918 446.916 266.918 445.998C266.918 445.08 267.604 444.358 268.605 444.358C269.606 444.358 270.313 445.069 270.313 445.998ZM270.019 460.167H267.234V449.737H270.019V460.167Z" fill="#F06C00"/>
<path d="M272.663 457.653V445.583L275.449 445.265V457.565C275.449 458.014 275.623 458.254 276.014 458.254C276.232 458.254 276.406 458.21 276.558 458.134L277.124 460.124C276.678 460.321 276.047 460.474 275.34 460.474C273.653 460.474 272.652 459.446 272.652 457.642L272.663 457.653Z" fill="#F06C00"/>
<path d="M281.629 445.998C281.629 446.927 280.921 447.627 279.92 447.627C278.919 447.627 278.234 446.916 278.234 445.998C278.234 445.08 278.919 444.358 279.92 444.358C280.921 444.358 281.629 445.069 281.629 445.998ZM281.335 460.167H278.549V449.737H281.335V460.167Z" fill="#F06C00"/>
<path d="M293.075 445.583V460.167H290.627L290.475 458.888C289.844 459.796 288.886 460.485 287.493 460.485C284.893 460.485 283.555 458.276 283.555 454.952C283.555 451.629 285.198 449.42 287.765 449.42C288.821 449.42 289.669 449.857 290.29 450.459V445.265L293.075 445.583ZM290.29 457.139V452.47C289.778 451.858 289.256 451.486 288.483 451.486C287.265 451.486 286.449 452.514 286.449 454.952C286.449 457.565 287.189 458.396 288.309 458.396C289.147 458.396 289.735 457.959 290.29 457.139Z" fill="#F06C00"/>
<path d="M304.511 458.593L303.923 460.441C302.748 460.342 301.964 459.949 301.529 458.91C300.789 460.047 299.647 460.485 298.417 460.485C296.339 460.485 295.044 459.151 295.044 457.259C295.044 454.974 296.753 453.739 299.821 453.739H301.018V453.225C301.018 451.924 300.474 451.508 299.157 451.508C298.472 451.508 297.471 451.705 296.415 452.055L295.784 450.185C297.079 449.672 298.45 449.42 299.625 449.42C302.509 449.42 303.738 450.699 303.738 453.061V457.27C303.738 458.112 303.988 458.407 304.5 458.593H304.511ZM301.018 457.314V455.324H300.093C298.581 455.324 297.841 455.871 297.841 457.019C297.841 457.948 298.309 458.473 299.168 458.473C299.973 458.473 300.583 458.057 301.007 457.314H301.018Z" fill="#F06C00"/>
<path d="M315.511 445.583V460.167H313.063L312.91 458.888C312.279 459.796 311.322 460.485 309.929 460.485C307.329 460.485 305.99 458.276 305.99 454.952C305.99 451.629 307.633 449.42 310.201 449.42C311.257 449.42 312.105 449.857 312.725 450.459V445.265L315.511 445.583ZM312.725 457.139V452.47C312.214 451.858 311.692 451.486 310.919 451.486C309.701 451.486 308.885 452.514 308.885 454.952C308.885 457.565 309.624 458.396 310.745 458.396C311.583 458.396 312.171 457.959 312.725 457.139Z" fill="#F06C00"/>
<path d="M326.979 455.794H320.494C320.69 457.806 321.626 458.396 322.964 458.396C323.845 458.396 324.585 458.123 325.488 457.489L326.642 459.063C325.619 459.894 324.335 460.485 322.703 460.485C319.373 460.485 317.632 458.276 317.632 455.007C317.632 451.738 319.319 449.42 322.355 449.42C325.39 449.42 327.033 451.388 327.033 454.712C327.033 455.062 326.99 455.499 326.979 455.794ZM324.28 453.925C324.28 452.35 323.747 451.322 322.42 451.322C321.321 451.322 320.635 452.066 320.505 454.045H324.28V453.925Z" fill="#F06C00"/>
<path d="M152.814 280.589L151.443 282.185C150.486 281.398 149.539 281.048 148.451 281.048C147.276 281.048 146.471 281.562 146.471 282.524C146.471 283.486 146.982 283.858 149.191 284.547C151.639 285.334 153.206 286.361 153.206 288.876C153.206 291.391 151.247 293.129 147.95 293.129C145.698 293.129 144.055 292.32 142.935 291.216L144.403 289.587C145.404 290.429 146.482 290.943 147.874 290.943C149.267 290.943 150.203 290.276 150.203 289.073C150.203 287.991 149.67 287.52 147.613 286.886C144.675 285.957 143.5 284.776 143.5 282.71C143.5 280.392 145.502 278.872 148.244 278.872C150.257 278.872 151.639 279.484 152.814 280.589Z" fill="#1765AB"/>
<path d="M164.456 287.597C164.456 290.899 162.596 293.129 159.484 293.129C156.372 293.129 154.511 291.063 154.511 287.597C154.511 284.131 156.372 282.065 159.506 282.065C162.639 282.065 164.467 284.131 164.467 287.597H164.456ZM157.406 287.597C157.406 290.002 158.113 291.041 159.484 291.041C160.855 291.041 161.562 289.98 161.562 287.597C161.562 285.214 160.855 284.153 159.506 284.153C158.156 284.153 157.406 285.214 157.406 287.597Z" fill="#1765AB"/>
<path d="M174.347 283.333L173.128 284.984C172.464 284.47 171.855 284.24 171.093 284.24C169.701 284.24 168.874 285.246 168.874 287.663C168.874 290.079 169.755 290.888 171.072 290.888C171.833 290.888 172.366 290.647 173.128 290.155L174.347 291.905C173.411 292.67 172.312 293.129 170.941 293.129C167.851 293.129 165.947 291.008 165.947 287.673C165.947 284.339 167.862 282.065 170.897 282.065C172.29 282.065 173.367 282.48 174.347 283.322V283.333Z" fill="#1765AB"/>
<path d="M179.003 278.643C179.003 279.572 178.296 280.272 177.295 280.272C176.294 280.272 175.609 279.561 175.609 278.643C175.609 277.724 176.294 277.003 177.295 277.003C178.296 277.003 179.003 277.713 179.003 278.643ZM178.71 292.812H175.924V282.382H178.71V292.812Z" fill="#1765AB"/>
<path d="M190.145 291.249L189.558 293.096C188.383 292.998 187.599 292.604 187.164 291.566C186.424 292.703 185.282 293.14 184.052 293.14C181.974 293.14 180.679 291.806 180.679 289.915C180.679 287.63 182.387 286.394 185.456 286.394H186.652V285.88C186.652 284.579 186.108 284.164 184.792 284.164C184.106 284.164 183.105 284.361 182.05 284.711L181.419 282.841C182.714 282.327 184.085 282.076 185.26 282.076C188.143 282.076 189.373 283.355 189.373 285.716V289.926C189.373 290.768 189.623 291.063 190.134 291.249H190.145ZM186.652 289.969V287.98H185.728C184.215 287.98 183.475 288.526 183.475 289.674C183.475 290.604 183.943 291.128 184.803 291.128C185.608 291.128 186.217 290.713 186.642 289.969H186.652Z" fill="#1765AB"/>
<path d="M191.864 290.297V278.227L194.65 277.91V290.21C194.65 290.658 194.824 290.899 195.215 290.899C195.433 290.899 195.607 290.855 195.76 290.779L196.325 292.768C195.879 292.965 195.248 293.118 194.541 293.118C192.854 293.118 191.853 292.091 191.853 290.287L191.864 290.297Z" fill="#1765AB"/>
<path d="M295.817 289.773H291.563L290.801 292.823H287.809L291.976 279.2H295.48L299.636 292.823H296.579L295.817 289.773ZM295.273 287.63L293.684 281.354L292.118 287.63H295.273Z" fill="#1765AB"/>
<path d="M314.804 285.224V292.823H312.018V285.695C312.018 284.492 311.55 284.164 310.995 284.164C310.234 284.164 309.722 284.7 309.189 285.618V292.823H306.404V285.695C306.404 284.492 305.958 284.164 305.381 284.164C304.619 284.164 304.108 284.7 303.597 285.618V292.823H300.811V282.393H303.216L303.433 283.694C304.195 282.666 305.142 282.076 306.447 282.076C307.622 282.076 308.526 282.688 308.917 283.77C309.744 282.688 310.702 282.076 312.029 282.076C313.661 282.076 314.771 283.256 314.771 285.224H314.804Z" fill="#1765AB"/>
<path d="M326.903 287.597C326.903 290.822 325.358 293.129 322.79 293.129C321.637 293.129 320.712 292.637 320.07 291.795L319.917 292.823H317.448V278.238L320.233 277.921V283.508C320.875 282.622 321.898 282.076 323.073 282.076C325.499 282.076 326.914 284.12 326.914 287.608L326.903 287.597ZM323.998 287.597C323.998 284.875 323.236 284.131 322.137 284.131C321.332 284.131 320.69 284.678 320.222 285.465V289.937C320.657 290.647 321.256 291.063 322.006 291.063C323.182 291.063 324.009 290.133 324.009 287.597H323.998Z" fill="#1765AB"/>
<path d="M332.191 278.643C332.191 279.572 331.483 280.272 330.482 280.272C329.481 280.272 328.796 279.561 328.796 278.643C328.796 277.724 329.481 277.003 330.482 277.003C331.483 277.003 332.191 277.713 332.191 278.643ZM331.897 292.812H329.111V282.382H331.897V292.812Z" fill="#1765AB"/>
<path d="M343.354 288.45H336.869C337.065 290.461 338.001 291.052 339.339 291.052C340.221 291.052 340.96 290.779 341.863 290.144L343.017 291.719C341.994 292.55 340.71 293.14 339.078 293.14C335.749 293.14 334.008 290.932 334.008 287.663C334.008 284.393 335.694 282.076 338.73 282.076C341.766 282.076 343.408 284.044 343.408 287.367C343.408 287.717 343.365 288.155 343.354 288.45ZM340.656 286.58C340.656 285.006 340.123 283.978 338.795 283.978C337.696 283.978 337.011 284.722 336.88 286.7H340.656V286.58Z" fill="#1765AB"/>
<path d="M354.126 285.224V292.823H351.34V285.695C351.34 284.492 350.905 284.164 350.209 284.164C349.404 284.164 348.783 284.7 348.207 285.618V292.823H345.421V282.393H347.826L348.044 283.716C348.881 282.677 349.882 282.087 351.221 282.087C353.038 282.087 354.126 283.267 354.126 285.235V285.224Z" fill="#1765AB"/>
<path d="M362.972 292.331C362.21 292.867 361.187 293.14 360.273 293.14C358.119 293.118 357.02 291.883 357.02 289.554V284.361H355.475V282.393H357.02V280.108L359.806 279.769V282.382H362.199L361.927 284.35H359.806V289.488C359.806 290.516 360.143 290.91 360.85 290.91C361.22 290.91 361.59 290.789 362.025 290.56L362.983 292.331H362.972Z" fill="#1765AB"/>
<path d="M372.688 291.249L372.101 293.096C370.925 292.998 370.142 292.604 369.707 291.566C368.967 292.703 367.825 293.14 366.595 293.14C364.517 293.14 363.222 291.806 363.222 289.915C363.222 287.63 364.93 286.394 367.999 286.394H369.195V285.88C369.195 284.579 368.651 284.164 367.335 284.164C366.649 284.164 365.648 284.361 364.593 284.711L363.962 282.841C365.257 282.327 366.628 282.076 367.803 282.076C370.686 282.076 371.916 283.355 371.916 285.716V289.926C371.916 290.768 372.166 291.063 372.677 291.249H372.688ZM369.195 289.969V287.98H368.271C366.758 287.98 366.018 288.526 366.018 289.674C366.018 290.604 366.486 291.128 367.346 291.128C368.151 291.128 368.76 290.713 369.185 289.969H369.195Z" fill="#1765AB"/>
<path d="M374.407 290.297V278.227L377.193 277.91V290.21C377.193 290.658 377.367 290.899 377.758 290.899C377.976 290.899 378.15 290.855 378.302 290.779L378.868 292.768C378.422 292.965 377.791 293.118 377.084 293.118C375.397 293.118 374.396 292.091 374.396 290.287L374.407 290.297Z" fill="#1765AB"/>
<path d="M252.589 254.294H250.412V256.481H252.589V254.294Z" fill="#05427B"/>
<path d="M252.589 409.044H250.412V404.561H252.589V409.044ZM252.589 400.067H250.412V395.585H252.589V400.067ZM252.589 391.091H250.412V386.608H252.589V391.091ZM252.589 382.115H250.412V377.632H252.589V382.115ZM252.589 373.139H250.412V368.656H252.589V373.139ZM252.589 364.163H250.412V359.68H252.589V364.163ZM252.589 355.186H250.412V350.704H252.589V355.186ZM252.589 346.21H250.412V341.727H252.589V346.21ZM252.589 337.234H250.412V332.751H252.589V337.234ZM252.589 328.258H250.412V323.775H252.589V328.258ZM252.589 319.282H250.412V314.799H252.589V319.282ZM252.589 310.305H250.412V305.823H252.589V310.305ZM252.589 301.329H250.412V296.846H252.589V301.329ZM252.589 292.353H250.412V287.87H252.589V292.353ZM252.589 283.377H250.412V278.894H252.589V283.377ZM252.589 274.4H250.412V269.918H252.589V274.4ZM252.589 265.424H250.412V260.942H252.589V265.424Z" fill="#05427B"/>
<path d="M252.589 413.537H250.412V415.724H252.589V413.537Z" fill="#05427B"/>
<path d="M240.653 412.531L251.5 431.413L262.348 412.531H240.653Z" fill="#05427B"/>
<path d="M251.501 254.294C259.913 254.294 266.733 247.441 266.733 238.988C266.733 230.534 259.913 223.681 251.501 223.681C243.088 223.681 236.268 230.534 236.268 238.988C236.268 247.441 243.088 254.294 251.501 254.294Z" fill="#05427B"/>
</g>
<defs>
<clipPath id="clip0_13_962">
<rect width="501" height="494" fill="white"/>
</clipPath>
</defs>
</svg>
