<svg width="1740" height="700" viewBox="0 0 1740 700" fill="none" xmlns="http://www.w3.org/2000/svg">
<g clip-path="url(#clip0_14_15)">
<path d="M1740 0H0V700H1740V0Z" fill="url(#paint0_linear_14_15)"/>
<path opacity="0.55" d="M1740 161.81V347.73C1732.87 385.75 1721.6 423.46 1706.32 459.07C1705.91 460.03 1705.5 460.99 1705.08 461.95C1661 562.91 1584.55 646.38 1479.06 670.54C1412.95 685.68 1328.98 681.82 1254.73 660.47C1149.42 630.2 1063.66 564.75 1076.09 468.41C1092.03 344.87 1059 304.69 1015.93 277.77C971.15 249.79 824.13 274.61 689.73 235.08C660.74 226.56 632.34 215.04 605.68 199.35C539.49 160.41 493.45 80.6 479.64 0H1661.09C1697.28 44.51 1724.31 95.48 1738.16 153.67C1738.81 156.37 1739.42 159.08 1740 161.81Z" fill="url(#paint1_linear_14_15)"/>
<path opacity="0.75" d="M1563.63 141.26C1563.32 188.13 1556.06 233.39 1543.03 276.93C1542.69 278.1 1542.33 279.27 1541.97 280.44C1496.64 428.26 1385.08 556.25 1254.73 660.47C1237.73 674.06 1220.42 687.24 1202.89 700H63.46C75.5 620.4 109.96 542.19 164.59 488.82C327.15 330 579.7 411.87 666.87 274.53C675.88 260.33 683.5 247.39 689.73 235.08C722.73 169.92 717.1 122.48 675.32 1.07C675.2 0.71 675.08 0.36 674.96 0H1545.18C1557.54 47.38 1563.93 95.31 1563.63 141.26Z" fill="url(#paint2_linear_14_15)"/>
<path opacity="0.85" d="M1429.24 503.8C1440.44 523.19 1461.99 527.27 1468.99 528.6C1498.26 534.15 1537.73 522.12 1555.9 491.97C1583.34 446.44 1544.83 388.41 1507.82 379.46C1497.42 376.94 1477.79 376.04 1469.52 386.26C1462.47 394.97 1469.62 404.41 1462.16 418.01C1455.15 430.79 1445.3 428.93 1435.16 440.44C1421.35 456.11 1417.9 484.17 1429.25 503.8H1429.24Z" fill="url(#paint3_linear_14_15)"/>
<path d="M1738.16 153.67C1716.24 118.05 1680.64 67.06 1633.26 21.74C1625.18 14.02 1617.07 6.76 1608.94 0H1604.28C1613.24 7.35 1622.21 15.32 1631.19 23.91C1681.66 72.18 1718.69 126.92 1740 162.45V156.68C1739.4 155.69 1738.79 154.69 1738.16 153.67ZM1706.32 459.07C1676.38 458.63 1645.82 449.77 1623.68 432.4C1590.25 406.18 1578.18 367.88 1567.52 334.09C1560.8 312.77 1554.32 292.22 1543.03 276.93C1536.95 268.7 1529.48 262 1519.82 257.53C1504.28 250.34 1492.6 246.52 1480.27 246.52C1463.9 246.52 1446.4 253.27 1417.29 267.81C1398.58 277.16 1377.9 276.32 1355.82 265.32C1305.95 240.47 1265.35 172.51 1256.34 123.79C1249.84 88.7 1258.91 53.04 1282.57 20.68C1287.84 13.47 1293.75 6.55 1300.19 0H1296.02C1290.27 6.03 1284.95 12.35 1280.15 18.91C1255.99 51.96 1246.74 88.41 1253.39 124.34C1262.53 173.76 1303.79 242.74 1354.48 268C1377.45 279.45 1399.03 280.28 1418.63 270.49C1469.1 245.28 1483.11 243.84 1518.56 260.25C1528.46 264.83 1535.93 271.78 1541.97 280.44C1552.01 294.86 1558.06 314.03 1564.66 334.99C1575.45 369.2 1587.67 407.97 1621.83 434.76C1644.15 452.26 1674.84 461.3 1705.08 461.95C1706.26 461.99 1707.45 462 1708.63 462C1719.32 462 1729.91 460.95 1740 458.84V455.86C1729.2 458.17 1717.81 459.24 1706.32 459.07Z" fill="#DB5800"/>
<path d="M913.31 306.16C901.8 297.14 886.47 291.62 869.62 291.59C852.77 291.57 838.23 297.73 826.7 306.73L830.75 310.2C841.13 301.83 855.13 296.71 870.54 296.73C885.47 296.76 899.08 301.61 909.33 309.57L913.32 306.17L913.31 306.16Z" fill="white"/>
<path d="M841.83 319.7C849.33 313.87 859.31 310.32 870.26 310.34C880.87 310.36 890.55 313.72 897.95 319.25L902.05 315.75C893.43 309.18 882.06 305.18 869.6 305.16C857.13 305.14 845.75 309.11 837.11 315.65" fill="white"/>
<path d="M852.45 328.8C857.18 325.41 863.28 323.37 869.95 323.38C876.42 323.38 882.35 325.32 887.01 328.55L891.28 324.92C885.52 320.77 878.08 318.26 869.96 318.25C861.64 318.24 854.03 320.84 848.21 325.15L852.46 328.79L852.45 328.8Z" fill="white"/>
<path d="M848.39 389.36C849.27 390.14 850.37 390.93 851.69 391.71C853 392.5 854.46 393.2 856.08 393.83C857.69 394.46 859.44 394.97 861.31 395.36C863.18 395.75 865.12 395.94 867.13 395.94C871.25 395.94 874.45 395.22 876.73 393.77C879.01 392.33 880.15 390.32 880.15 387.77C880.15 386.24 879.77 384.93 879 383.86C878.23 382.79 877.18 381.83 875.83 380.98C874.48 380.13 872.9 379.35 871.08 378.65C869.26 377.95 867.29 377.23 865.18 376.48C860.96 374.95 857.46 373.43 854.69 371.91C851.92 370.4 849.71 368.74 848.08 366.96C846.45 365.17 845.3 363.16 844.64 360.94C843.98 358.71 843.64 356.13 843.64 353.21C843.64 350.11 844.27 347.26 845.53 344.66C846.79 342.06 848.56 339.81 850.84 337.92C853.12 336.03 855.83 334.56 858.98 333.5C862.13 332.45 865.58 331.92 869.32 331.92C873.06 331.92 876.16 332.27 878.92 332.99C881.68 333.7 884.06 334.55 886.07 335.53C888.08 336.51 889.74 337.52 891.04 338.55C892.35 339.58 893.4 340.42 894.18 341.07L887.75 350.91C887.17 350.33 886.29 349.66 885.12 348.92C883.95 348.17 882.58 347.46 881.01 346.78C879.44 346.1 877.76 345.53 875.96 345.07C874.16 344.61 872.37 344.38 870.59 344.38C868.81 344.38 867.14 344.58 865.74 344.99C864.34 345.4 863.18 345.95 862.24 346.65C861.3 347.35 860.59 348.18 860.12 349.13C859.64 350.09 859.4 351.11 859.4 352.2C859.4 353.53 859.7 354.67 860.3 355.62C860.89 356.58 861.8 357.44 863.01 358.23C864.21 359.01 865.76 359.78 867.63 360.53C869.5 361.28 871.71 362.11 874.27 363.04C878.08 364.4 881.35 365.82 884.07 367.3C886.79 368.78 889.03 370.47 890.78 372.36C892.54 374.25 893.83 376.4 894.66 378.8C895.49 381.2 895.91 383.99 895.91 387.16C895.91 390.02 895.28 392.74 894.02 395.31C892.76 397.88 890.96 400.14 888.61 402.08C886.26 404.02 883.4 405.56 880.03 406.7C876.66 407.84 872.86 408.41 868.64 408.41C865.34 408.41 862.28 408.11 859.48 407.51C856.67 406.92 854.15 406.17 851.9 405.27C849.65 404.37 847.69 403.38 846.01 402.31C844.32 401.24 842.93 400.22 841.85 399.27L848.38 389.37L848.39 389.36Z" fill="white"/>
<path opacity="0.85" d="M189.03 201.46C159.99 183.58 115.36 214.88 102.37 223.99C73.29 244.39 17.08 298.59 40.67 349.26C54.43 378.8 95.97 408.57 130.27 397.8C157.02 389.4 187.38 356.66 167.45 335.5C152.46 319.59 150.35 314.68 152.75 301.8C156.45 281.99 194.92 283.21 207.44 258.16C216.29 240.46 206.88 212.45 189.02 201.46H189.03Z" fill="url(#paint4_linear_14_15)"/>
<path d="M321.63 527.44C318.3 491.82 293.52 440.84 259.31 420.58C243.71 411.34 227.77 409.79 213.21 416.08C174.25 432.93 159.08 424.05 147.93 414.4C141.9 409.18 137 395.89 130.8 379.06C120.95 352.3 107.45 315.65 80.16 290.8C60.16 272.58 28.22 264.95 0 268.62V271.57C4.6 270.94 9.3 270.63 14.04 270.63C37.56 270.63 61.9 278.23 78.14 293.02C104.89 317.37 118.24 353.62 127.99 380.09C134.33 397.33 139.35 410.95 145.96 416.67C160.66 429.38 177.92 434.61 214.4 418.84C228.24 412.85 242.83 414.31 257.78 423.16C291.18 442.94 315.38 492.83 318.64 527.71C321.01 553.04 312.32 578.19 293.5 600.43C267.8 630.81 225.86 652.3 186.68 655.16C183.64 655.38 180.62 655.49 177.6 655.49C133.31 655.49 89.59 631.75 47.53 584.8C28.22 563.24 12.37 540.24 0 519.61V525.4C12.06 545.05 27.16 566.55 45.3 586.8C66.05 609.96 87.65 627.81 109.5 639.83C132.04 652.23 154.96 658.49 177.79 658.49C180.83 658.49 183.86 658.38 186.9 658.15C226.85 655.23 269.59 633.33 295.79 602.36C315.14 579.49 324.08 553.58 321.63 527.44Z" fill="url(#paint5_linear_14_15)"/>
</g>
<defs>
<linearGradient id="paint0_linear_14_15" x1="616.59" y1="1031.79" x2="1151.89" y2="-408.42" gradientUnits="userSpaceOnUse">
<stop offset="0.06" stop-color="#0E65AD"/>
<stop offset="0.25" stop-color="#094F8F"/>
<stop offset="0.45" stop-color="#063E78"/>
<stop offset="0.63" stop-color="#04346A"/>
<stop offset="0.79" stop-color="#043166"/>
</linearGradient>
<linearGradient id="paint1_linear_14_15" x1="1462.47" y1="694.05" x2="916.23" y2="-252.07" gradientUnits="userSpaceOnUse">
<stop offset="0.06" stop-color="#0E65AD"/>
<stop offset="0.25" stop-color="#094F8F"/>
<stop offset="0.45" stop-color="#063E78"/>
<stop offset="0.63" stop-color="#04346A"/>
<stop offset="0.79" stop-color="#043166"/>
</linearGradient>
<linearGradient id="paint2_linear_14_15" x1="1194.12" y1="-202.69" x2="520.58" y2="963.92" gradientUnits="userSpaceOnUse">
<stop offset="0.06" stop-color="#0E65AD"/>
<stop offset="0.25" stop-color="#094F8F"/>
<stop offset="0.45" stop-color="#063E78"/>
<stop offset="0.63" stop-color="#04346A"/>
<stop offset="0.79" stop-color="#043166"/>
</linearGradient>
<linearGradient id="paint3_linear_14_15" x1="1425.02" y1="447.021" x2="1565.2" y2="460.933" gradientUnits="userSpaceOnUse">
<stop offset="0.06" stop-color="#0E65AD"/>
<stop offset="0.25" stop-color="#094F8F"/>
<stop offset="0.45" stop-color="#063E78"/>
<stop offset="0.63" stop-color="#04346A"/>
<stop offset="0.79" stop-color="#043166"/>
</linearGradient>
<linearGradient id="paint4_linear_14_15" x1="99.9007" y1="266.985" x2="220.065" y2="357.52" gradientUnits="userSpaceOnUse">
<stop offset="0.06" stop-color="#0E65AD"/>
<stop offset="0.25" stop-color="#094F8F"/>
<stop offset="0.45" stop-color="#063E78"/>
<stop offset="0.63" stop-color="#04346A"/>
<stop offset="0.79" stop-color="#043166"/>
</linearGradient>
<linearGradient id="paint5_linear_14_15" x1="0" y1="463.11" x2="322.03" y2="463.11" gradientUnits="userSpaceOnUse">
<stop offset="0.41" stop-color="#C75000"/>
<stop offset="0.69" stop-color="#DC5E00"/>
<stop offset="1" stop-color="#F06C00"/>
</linearGradient>
<clipPath id="clip0_14_15">
<rect width="1740" height="700" fill="white"/>
</clipPath>
</defs>
</svg>
