<svg width="1741" height="701" viewBox="0 0 1741 701" fill="none" xmlns="http://www.w3.org/2000/svg">
<g clip-path="url(#clip0_22_1664)">
<path d="M1740.34 0.790039H0.339966V700.79H1740.34V0.790039Z" fill="url(#paint0_linear_22_1664)"/>
<mask id="mask0_22_1664" style="mask-type:luminance" maskUnits="userSpaceOnUse" x="0" y="0" width="1741" height="701">
<path d="M1740.34 0.790039H0.339966V700.79H1740.34V0.790039Z" fill="white"/>
</mask>
<g mask="url(#mask0_22_1664)">
<path opacity="0.47" d="M492.93 -137.33C570.08 -311.99 898.49 -286.64 994.07 -279.26C1208.09 -262.74 1674.53 -157 1740.96 165.57C1779.68 353.6 1684.34 624.41 1479.39 671.34C1319.55 707.94 1055.23 633.49 1076.42 469.21C1092.36 345.67 1059.33 305.48 1016.26 278.57C961.83 244.55 756.29 288.58 606.01 200.15C499.85 137.68 445.49 -29.93 492.92 -137.32L492.93 -137.33Z" fill="url(#paint1_linear_22_1664)"/>
<path opacity="0.47" d="M108.7 937.69C245.83 1123.04 642.05 979.59 757.36 937.84C1015.56 844.36 1561.28 556.04 1563.98 142.05C1565.55 -99.27 1382.66 -394.98 1120.09 -381.56C915.32 -371.09 609.61 -190.1 675.66 1.85999C725.33 146.22 723.9 186 667.21 275.32C580.04 412.66 327.49 330.79 164.93 489.6C50.09 601.79 24.38 823.72 108.7 937.68V937.69Z" fill="url(#paint2_linear_22_1664)"/>
<path opacity="0.44" d="M191.79 206.84C164.35 187.98 119.29 216.37 106.17 224.63C76.8 243.13 19.3 293.31 39.8 343.92C51.75 373.42 90.78 404.5 124.76 395.65C151.26 388.75 182.49 358.26 164.1 336.64C150.27 320.38 148.46 315.49 151.44 303.03C156.03 283.87 193.48 286.93 206.94 263.08C216.45 246.23 208.66 218.43 191.79 206.84Z" fill="url(#paint3_linear_22_1664)"/>
<path d="M178.13 659.28C155.3 659.28 132.37 653.02 109.84 640.62C87.9899 628.6 66.3899 610.75 45.6299 587.59C-0.210064 536.42 -26.6401 477.21 -33.6501 460.28C-39.6101 445.89 -53.5601 412.2 -59.7901 377.69C-67.6101 334.43 -61.1201 303.6 -40.5201 286.06C-10.5401 260.54 49.3999 263.29 80.4999 291.61C107.79 316.46 121.28 353.11 131.14 379.87C137.34 396.7 142.24 409.99 148.26 415.21C159.42 424.86 174.58 433.74 213.54 416.9C228.1 410.6 244.04 412.16 259.64 421.39C293.85 441.65 318.63 492.63 321.96 528.25C324.41 554.4 315.47 580.31 296.12 603.18C269.92 634.15 227.17 656.05 187.22 658.97C184.19 659.19 181.15 659.3 178.11 659.3L178.13 659.28ZM-39.5501 287.19L-38.5801 288.33C-58.3101 305.13 -64.4601 335.01 -56.8501 377.15C-50.6701 411.35 -36.8101 444.83 -30.8901 459.13C-23.9301 475.95 2.32994 534.78 47.8599 585.59C92.7999 635.75 139.61 659.42 187.01 655.96C226.2 653.09 268.13 631.61 293.84 601.23C312.66 578.99 321.35 553.85 318.98 528.52C315.71 493.64 291.52 443.74 258.11 423.96C243.16 415.11 228.57 413.66 214.73 419.64C178.25 435.41 160.99 430.18 146.3 417.47C139.69 411.75 134.67 398.13 128.32 380.9C118.57 354.43 105.22 318.18 78.4799 293.83C48.3699 266.41 -9.61006 263.69 -38.5801 288.35L-39.5501 287.21V287.19Z" fill="#DB5800"/>
<path opacity="0.85" d="M1429.58 459.59C1440.78 478.98 1462.33 483.06 1469.33 484.39C1498.6 489.94 1538.07 477.91 1556.24 447.76C1583.68 402.23 1545.17 344.2 1508.16 335.25C1497.76 332.73 1478.13 331.83 1469.86 342.05C1462.81 350.76 1469.96 360.2 1462.5 373.8C1455.49 386.58 1445.64 384.72 1435.5 396.23C1421.69 411.9 1418.24 439.96 1429.59 459.59H1429.58Z" fill="url(#paint4_linear_22_1664)"/>
<path d="M1708.97 462.79C1677.6 462.79 1645.36 453.74 1622.17 435.55C1588.01 408.76 1575.79 369.99 1565 335.78C1554.42 302.23 1545.29 273.26 1518.89 261.04C1483.45 244.63 1469.44 246.07 1418.96 271.28C1399.37 281.07 1377.79 280.23 1354.82 268.79C1304.12 243.53 1262.87 174.55 1253.72 125.13C1247.07 89.2 1256.32 52.75 1280.48 19.7C1313.35 -25.27 1370.6 -58.86 1426.33 -65.89C1462.25 -70.42 1499.48 -63.81 1536.98 -46.25C1569.11 -31.2 1601.61 -8.06001 1633.6 22.53C1704.29 90.14 1748.75 170.37 1760.69 193.34C1770.84 212.87 1794.6 258.6 1807.64 306.02C1823.94 365.34 1818.71 408.48 1792.08 434.25C1772.45 453.25 1741.17 462.79 1708.97 462.79ZM1480.61 247.3C1492.93 247.3 1504.62 251.12 1520.15 258.31C1547.75 271.09 1557.52 302.07 1567.86 334.87C1578.51 368.66 1590.59 406.96 1624.02 433.18C1669.97 469.22 1752.18 468.68 1789.99 432.09C1815.77 407.14 1820.74 364.99 1804.74 306.81C1791.79 259.69 1768.13 214.16 1758.02 194.72C1746.13 171.84 1701.87 91.98 1631.52 24.69C1561.98 -41.81 1493.08 -71.29 1426.7 -62.92C1371.75 -55.99 1315.31 -22.87 1282.9 21.46C1259.24 53.83 1250.17 89.48 1256.67 124.58C1265.69 173.3 1306.29 241.26 1356.16 266.11C1378.24 277.11 1398.92 277.95 1417.62 268.6C1446.74 254.05 1464.23 247.31 1480.61 247.31V247.3Z" fill="#DB5800"/>
</g>
<path d="M797.74 377.19C798.34 377.71 799.07 378.25 799.96 378.77C800.83 379.29 801.81 379.77 802.9 380.19C803.98 380.62 805.15 380.96 806.4 381.22C807.67 381.47 808.97 381.61 810.31 381.61C813.07 381.61 815.22 381.12 816.75 380.16C818.27 379.19 819.04 377.85 819.04 376.13C819.04 375.1 818.79 374.23 818.27 373.51C817.76 372.8 817.05 372.15 816.15 371.58C815.25 371.01 814.18 370.5 812.97 370.02C811.74 369.55 810.42 369.07 809.01 368.57C806.17 367.53 803.83 366.52 801.97 365.5C800.11 364.48 798.63 363.38 797.53 362.17C796.44 360.97 795.66 359.63 795.21 358.14C794.77 356.64 794.55 354.91 794.55 352.94C794.55 350.87 794.97 348.95 795.82 347.2C796.67 345.46 797.85 343.95 799.39 342.69C800.91 341.41 802.73 340.43 804.85 339.73C806.95 339.02 809.26 338.67 811.78 338.67C814.3 338.67 816.37 338.9 818.21 339.38C820.07 339.85 821.66 340.42 823.01 341.08C824.35 341.74 825.47 342.41 826.35 343.11C827.23 343.81 827.93 344.36 828.46 344.8L824.15 351.4C823.76 351.01 823.18 350.57 822.39 350.06C821.6 349.56 820.68 349.08 819.63 348.62C818.58 348.17 817.45 347.79 816.23 347.48C815.02 347.17 813.82 347.02 812.64 347.02C811.46 347.02 810.32 347.15 809.38 347.43C808.44 347.7 807.66 348.08 807.04 348.55C806.42 349.01 805.95 349.58 805.62 350.21C805.3 350.85 805.13 351.53 805.13 352.26C805.13 353.16 805.33 353.92 805.73 354.55C806.13 355.18 806.74 355.77 807.55 356.3C808.36 356.82 809.39 357.34 810.64 357.84C811.92 358.34 813.39 358.91 815.1 359.52C817.65 360.43 819.84 361.39 821.67 362.38C823.5 363.38 825 364.51 826.17 365.78C827.35 367.04 828.23 368.49 828.77 370.1C829.32 371.71 829.61 373.58 829.61 375.7C829.61 377.62 829.19 379.44 828.34 381.17C827.5 382.9 826.29 384.41 824.71 385.71C823.13 387.02 821.22 388.05 818.96 388.82C816.7 389.58 814.14 389.97 811.32 389.97C809.11 389.97 807.06 389.77 805.17 389.37C803.28 388.97 801.59 388.47 800.09 387.87C798.58 387.27 797.26 386.6 796.13 385.88C795 385.16 794.07 384.49 793.34 383.84L797.72 377.2L797.74 377.19Z" fill="white"/>
<path d="M865.98 367.64H848.18V380.89H869.55V389.24H837.53V339.39H869.21V347.73H848.18V359.27H865.98V367.63V367.64Z" fill="white"/>
<path d="M901.09 379.11H886.67L883.94 389.24H873.18L888.25 339.39H899.54L914.61 389.24H903.86L901.09 379.11ZM888.93 370.75H898.83L893.97 352.33H893.77L888.94 370.75H888.93Z" fill="white"/>
<path d="M920.77 389.24V339.39H936.63C940.03 339.39 943.04 339.97 945.64 341.12C948.24 342.27 950.43 343.88 952.18 345.94C953.94 348.01 955.26 350.47 956.15 353.34C957.04 356.21 957.5 359.34 957.5 362.74V365.93C957.5 369.48 957.01 372.71 956.08 375.58C955.12 378.46 953.75 380.91 951.97 382.92C950.18 384.95 948 386.5 945.41 387.6C942.84 388.69 939.92 389.24 936.64 389.24H920.78H920.77ZM931.42 347.73V380.89H935.24C936.78 380.89 938.16 380.71 939.33 380.34C940.51 379.98 941.54 379.46 942.39 378.81C943.24 378.14 943.96 377.35 944.54 376.43C945.11 375.51 945.56 374.49 945.91 373.38C946.25 372.28 946.49 371.08 946.63 369.82C946.76 368.56 946.83 367.25 946.83 365.91V362.66C946.83 360.47 946.65 358.46 946.29 356.64C945.92 354.82 945.29 353.25 944.39 351.94C943.5 350.63 942.31 349.6 940.83 348.86C939.34 348.12 937.47 347.74 935.24 347.74H931.42V347.73Z" fill="white"/>
<path d="M841.28 321.39C833.56 315.34 823.27 311.63 811.98 311.62C800.67 311.6 790.92 315.74 783.19 321.77L785.91 324.1C792.86 318.48 802.26 315.05 812.59 315.06C822.61 315.08 831.73 318.34 838.61 323.67L841.28 321.39Z" fill="white"/>
<path d="M793.34 330.47C798.36 326.56 805.06 324.18 812.4 324.19C819.52 324.19 826.02 326.46 830.97 330.16L833.73 327.81C827.94 323.4 820.32 320.73 811.97 320.72C803.61 320.7 795.97 323.36 790.18 327.76" fill="white"/>
<path d="M800.46 336.57C803.64 334.29 807.73 332.93 812.2 332.94C816.54 332.94 820.52 334.24 823.63 336.41L826.5 333.98C822.65 331.2 817.64 329.51 812.21 329.5C806.62 329.5 801.53 331.24 797.62 334.13L800.45 336.57H800.46Z" fill="white"/>
</g>
<defs>
<linearGradient id="paint0_linear_22_1664" x1="616.93" y1="1032.58" x2="1152.23" y2="-407.63" gradientUnits="userSpaceOnUse">
<stop offset="0.06" stop-color="#0E65AD"/>
<stop offset="0.25" stop-color="#094F8F"/>
<stop offset="0.45" stop-color="#063E78"/>
<stop offset="0.63" stop-color="#04346A"/>
<stop offset="0.79" stop-color="#043166"/>
</linearGradient>
<linearGradient id="paint1_linear_22_1664" x1="887.626" y1="461.017" x2="1354.61" y2="-214.898" gradientUnits="userSpaceOnUse">
<stop offset="0.06" stop-color="#0E65AD"/>
<stop offset="0.25" stop-color="#094F8F"/>
<stop offset="0.45" stop-color="#063E78"/>
<stop offset="0.63" stop-color="#04346A"/>
<stop offset="0.79" stop-color="#043166"/>
</linearGradient>
<linearGradient id="paint2_linear_22_1664" x1="232.428" y1="179.075" x2="1423.1" y2="604.47" gradientUnits="userSpaceOnUse">
<stop offset="0.06" stop-color="#0E65AD"/>
<stop offset="0.25" stop-color="#094F8F"/>
<stop offset="0.45" stop-color="#063E78"/>
<stop offset="0.63" stop-color="#04346A"/>
<stop offset="0.79" stop-color="#043166"/>
</linearGradient>
<linearGradient id="paint3_linear_22_1664" x1="44.6226" y1="234.052" x2="164.727" y2="316.351" gradientUnits="userSpaceOnUse">
<stop offset="0.06" stop-color="#0E65AD"/>
<stop offset="0.25" stop-color="#094F8F"/>
<stop offset="0.45" stop-color="#063E78"/>
<stop offset="0.63" stop-color="#04346A"/>
<stop offset="0.79" stop-color="#043166"/>
</linearGradient>
<linearGradient id="paint4_linear_22_1664" x1="1425.49" y1="403.375" x2="1565.66" y2="417.28" gradientUnits="userSpaceOnUse">
<stop offset="0.06" stop-color="#0E65AD"/>
<stop offset="0.25" stop-color="#094F8F"/>
<stop offset="0.45" stop-color="#063E78"/>
<stop offset="0.63" stop-color="#04346A"/>
<stop offset="0.79" stop-color="#043166"/>
</linearGradient>
<clipPath id="clip0_22_1664">
<rect width="1741" height="701" fill="white"/>
</clipPath>
</defs>
</svg>
