<svg width="1740" height="700" viewBox="0 0 1740 700" fill="none" xmlns="http://www.w3.org/2000/svg">
<g clip-path="url(#clip0_4_1844)">
<path d="M1740 0H0V700H1740V0Z" fill="url(#paint0_linear_4_1844)"/>
<path opacity="0.25" d="M849.35 367.02L837.96 357.29C726.66 447.38 576.38 502.57 410.97 502.6C253.38 502.56 109.49 452.43 0 369.78V436.61C116.84 512.6 262.7 557.74 420.93 557.75C601.8 557.7 757.84 491.27 881.53 394.53L849.35 367.02Z" fill="url(#paint1_linear_4_1844)"/>
<path opacity="0.25" d="M718.72 255.5C638.29 318.24 531.21 356.52 413.66 356.51C299.76 356.51 195.74 320.6 116.23 261.31L72.28 298.91C164.96 369.31 287.12 412.1 420.88 412.09C554.72 412.09 676.84 369.32 769.52 298.87L718.71 255.5H718.72Z" fill="url(#paint2_linear_4_1844)"/>
<path opacity="0.25" d="M604.54 157.94C553.82 194.44 488.3 216.43 416.75 216.41C347.33 216.45 283.58 195.74 233.52 161.13L187.75 200.19C249.67 244.65 329.55 271.48 416.72 271.46C506.08 271.45 587.68 243.4 650.18 196.97L604.54 157.93V157.94Z" fill="url(#paint3_linear_4_1844)"/>
<path opacity="0.25" d="M1342.13 112.64C1161.26 112.69 1005.22 179.11 881.53 275.86L913.71 303.37L925.09 313.09C1036.39 223.01 1186.67 167.82 1352.09 167.79C1498.84 167.83 1633.72 211.31 1740 284.04V219.42C1627.28 152.13 1490.12 112.65 1342.13 112.64Z" fill="url(#paint4_linear_4_1844)"/>
<path opacity="0.25" d="M1044.33 414.89C1124.76 352.15 1231.84 313.87 1349.39 313.88C1463.29 313.88 1567.31 349.79 1646.82 409.08L1690.77 371.48C1598.09 301.08 1475.93 258.29 1342.17 258.3C1208.33 258.3 1086.21 301.07 993.53 371.52" fill="url(#paint5_linear_4_1844)"/>
<path opacity="0.25" d="M1158.52 512.44C1209.24 475.94 1274.76 453.95 1346.31 453.97C1415.73 453.93 1479.48 474.64 1529.54 509.25L1575.31 470.19C1513.39 425.73 1433.51 398.9 1346.34 398.92C1256.98 398.93 1175.38 426.98 1112.88 473.41L1158.52 512.45V512.44Z" fill="url(#paint6_linear_4_1844)"/>
<path d="M825.57 314.79C714.27 404.88 563.99 460.07 398.57 460.09C246.86 460.05 107.85 413.6 0 336.38V401.98C114.69 473.2 255.85 515.23 408.53 515.24C579.89 515.19 728.96 455.57 849.35 367.02C856.03 362.12 862.63 357.12 869.13 352.03L825.57 314.79Z" fill="url(#paint7_linear_4_1844)"/>
<path d="M706.33 213C625.9 275.74 518.82 314.02 401.27 314.01C287.37 314.01 183.35 278.1 103.84 218.81L59.89 256.41C152.57 326.81 274.73 369.6 408.49 369.59C542.33 369.59 664.45 326.82 757.13 256.37L706.32 213H706.33Z" fill="url(#paint8_linear_4_1844)"/>
<path d="M592.14 115.44C541.42 151.94 475.9 173.93 404.35 173.91C334.93 173.95 271.18 153.24 221.12 118.63L175.35 157.69C237.27 202.15 317.15 228.98 404.32 228.96C493.68 228.95 575.28 200.9 637.78 154.47L592.14 115.43V115.44Z" fill="url(#paint9_linear_4_1844)"/>
<path d="M1354.53 155.14C1183.17 155.19 1034.09 214.82 913.71 303.37C907.03 308.27 900.43 313.27 893.93 318.36L937.49 355.6C1048.79 265.51 1199.07 210.32 1364.48 210.3C1505.59 210.34 1635.72 250.53 1740 318.27V254.69C1629.68 191.81 1497.12 155.15 1354.53 155.14Z" fill="url(#paint10_linear_4_1844)"/>
<path d="M1056.73 457.39C1137.16 394.65 1244.24 356.37 1361.79 356.38C1475.69 356.38 1579.71 392.29 1659.22 451.58L1703.17 413.98C1610.49 343.58 1488.33 300.79 1354.57 300.8C1220.73 300.8 1098.61 343.57 1005.93 414.02" fill="url(#paint11_linear_4_1844)"/>
<path d="M1170.92 554.95C1221.64 518.45 1287.16 496.46 1358.71 496.48C1428.13 496.44 1491.88 517.15 1541.94 551.76L1587.71 512.7C1525.79 468.24 1445.91 441.41 1358.74 441.43C1269.38 441.44 1187.78 469.49 1125.28 515.92L1170.92 554.96V554.95Z" fill="url(#paint12_linear_4_1844)"/>
</g>
<defs>
<linearGradient id="paint0_linear_4_1844" x1="616.59" y1="1031.79" x2="1151.89" y2="-408.42" gradientUnits="userSpaceOnUse">
<stop offset="0.06" stop-color="#0E65AD"/>
<stop offset="0.25" stop-color="#094F8F"/>
<stop offset="0.45" stop-color="#063E78"/>
<stop offset="0.63" stop-color="#04346A"/>
<stop offset="0.79" stop-color="#043166"/>
</linearGradient>
<linearGradient id="paint1_linear_4_1844" x1="881.53" y1="457.52" x2="0" y2="457.52" gradientUnits="userSpaceOnUse">
<stop stop-color="#0E65AD"/>
<stop offset="0.25" stop-color="#0A5091"/>
<stop offset="0.51" stop-color="#07407C"/>
<stop offset="0.76" stop-color="#05376F"/>
<stop offset="1" stop-color="#05346B"/>
</linearGradient>
<linearGradient id="paint2_linear_4_1844" x1="769.52" y1="333.79" x2="72.28" y2="333.79" gradientUnits="userSpaceOnUse">
<stop stop-color="#0E65AD"/>
<stop offset="0.25" stop-color="#0A5091"/>
<stop offset="0.51" stop-color="#07407C"/>
<stop offset="0.76" stop-color="#05376F"/>
<stop offset="1" stop-color="#05346B"/>
</linearGradient>
<linearGradient id="paint3_linear_4_1844" x1="650.18" y1="214.7" x2="187.75" y2="214.7" gradientUnits="userSpaceOnUse">
<stop stop-color="#0E65AD"/>
<stop offset="0.25" stop-color="#0A5091"/>
<stop offset="0.51" stop-color="#07407C"/>
<stop offset="0.76" stop-color="#05376F"/>
<stop offset="1" stop-color="#05346B"/>
</linearGradient>
<linearGradient id="paint4_linear_4_1844" x1="881.53" y1="212.86" x2="1740" y2="212.86" gradientUnits="userSpaceOnUse">
<stop stop-color="#0E65AD"/>
<stop offset="0.25" stop-color="#0A5091"/>
<stop offset="0.51" stop-color="#07407C"/>
<stop offset="0.76" stop-color="#05376F"/>
<stop offset="1" stop-color="#05346B"/>
</linearGradient>
<linearGradient id="paint5_linear_4_1844" x1="993.53" y1="336.59" x2="1690.77" y2="336.59" gradientUnits="userSpaceOnUse">
<stop stop-color="#0E65AD"/>
<stop offset="0.25" stop-color="#0A5091"/>
<stop offset="0.51" stop-color="#07407C"/>
<stop offset="0.76" stop-color="#05376F"/>
<stop offset="1" stop-color="#05346B"/>
</linearGradient>
<linearGradient id="paint6_linear_4_1844" x1="1112.88" y1="455.68" x2="1575.31" y2="455.68" gradientUnits="userSpaceOnUse">
<stop stop-color="#0E65AD"/>
<stop offset="0.25" stop-color="#0A5091"/>
<stop offset="0.51" stop-color="#07407C"/>
<stop offset="0.76" stop-color="#05376F"/>
<stop offset="1" stop-color="#05346B"/>
</linearGradient>
<linearGradient id="paint7_linear_4_1844" x1="869.13" y1="415.01" x2="5786.28" y2="415.01" gradientUnits="userSpaceOnUse">
<stop stop-color="#0E65AD"/>
<stop offset="0.25" stop-color="#0A5091"/>
<stop offset="0.51" stop-color="#07407C"/>
<stop offset="0.76" stop-color="#05376F"/>
<stop offset="1" stop-color="#05346B"/>
</linearGradient>
<linearGradient id="paint8_linear_4_1844" x1="757.13" y1="291.29" x2="59.88" y2="291.29" gradientUnits="userSpaceOnUse">
<stop stop-color="#0E65AD"/>
<stop offset="0.25" stop-color="#0A5091"/>
<stop offset="0.51" stop-color="#07407C"/>
<stop offset="0.76" stop-color="#05376F"/>
<stop offset="1" stop-color="#05346B"/>
</linearGradient>
<linearGradient id="paint9_linear_4_1844" x1="637.78" y1="172.2" x2="175.35" y2="172.2" gradientUnits="userSpaceOnUse">
<stop stop-color="#0E65AD"/>
<stop offset="0.25" stop-color="#0A5091"/>
<stop offset="0.51" stop-color="#07407C"/>
<stop offset="0.76" stop-color="#05376F"/>
<stop offset="1" stop-color="#05346B"/>
</linearGradient>
<linearGradient id="paint10_linear_4_1844" x1="893.93" y1="255.37" x2="1740" y2="255.37" gradientUnits="userSpaceOnUse">
<stop stop-color="#0E65AD"/>
<stop offset="0.25" stop-color="#0A5091"/>
<stop offset="0.51" stop-color="#07407C"/>
<stop offset="0.76" stop-color="#05376F"/>
<stop offset="1" stop-color="#05346B"/>
</linearGradient>
<linearGradient id="paint11_linear_4_1844" x1="1005.93" y1="379.09" x2="1703.17" y2="379.09" gradientUnits="userSpaceOnUse">
<stop stop-color="#0E65AD"/>
<stop offset="0.25" stop-color="#0A5091"/>
<stop offset="0.51" stop-color="#07407C"/>
<stop offset="0.76" stop-color="#05376F"/>
<stop offset="1" stop-color="#05346B"/>
</linearGradient>
<linearGradient id="paint12_linear_4_1844" x1="1125.27" y1="498.18" x2="1587.71" y2="498.18" gradientUnits="userSpaceOnUse">
<stop stop-color="#0E65AD"/>
<stop offset="0.25" stop-color="#0A5091"/>
<stop offset="0.51" stop-color="#07407C"/>
<stop offset="0.76" stop-color="#05376F"/>
<stop offset="1" stop-color="#05346B"/>
</linearGradient>
<clipPath id="clip0_4_1844">
<rect width="1740" height="700" fill="white"/>
</clipPath>
</defs>
</svg>
