<svg width="1740" height="700" viewBox="0 0 1740 700" fill="none" xmlns="http://www.w3.org/2000/svg">
<g clip-path="url(#clip0_101_177)">
<path d="M0 700L1740 700V0L0 0V700Z" fill="url(#paint0_linear_101_177)"/>
<path d="M463.18 47.54C293.86 47.59 138.61 85.23 0 148.12V241.79C140.9 172.5 304.32 132.9 478.59 132.87C726.65 132.93 952.77 213.22 1123.23 345.09L1189.33 288.44C997.98 138.87 743.09 47.56 463.18 47.54Z" fill="url(#paint1_linear_101_177)"/>
<path d="M179.12 666.07C257.59 609.61 358.95 575.59 469.64 575.61C577.04 575.55 675.66 607.59 753.11 661.13L823.92 600.71C728.12 531.93 604.54 490.41 469.69 490.44C331.45 490.46 205.2 533.85 108.51 605.68L179.12 666.08V666.07Z" fill="url(#paint2_linear_101_177)"/>
<path d="M1479.82 462.6C1342.58 462.57 1217.48 418.15 1123.18 345.19L1086.6 376.54C1192.47 459.28 1333.49 509.8 1488.34 509.81C1580.15 509.79 1664.48 489.78 1740 456.22V404.57C1663.09 441.53 1574.34 462.59 1479.82 462.6Z" fill="url(#paint3_linear_101_177)"/>
<path d="M463.25 273C291.04 273 131.36 318.77 0 396.9V513.14L2.47 515.25C126.89 418.18 292.57 358.97 474.42 358.98C650.63 358.98 811.56 414.54 934.56 506.26L1002.56 448.09C859.17 339.17 670.18 272.97 463.25 273Z" fill="url(#paint4_linear_101_177)"/>
<path d="M1481.18 337.97C1383.7 337.97 1294.66 307.24 1226.61 256.49L1189 288.67C1268.33 348.93 1372.88 385.55 1487.36 385.54C1580.64 385.54 1667.27 361.26 1739.06 319.69V254C1670.59 306.23 1580.23 337.98 1481.18 337.97Z" fill="url(#paint5_linear_101_177)"/>
<path d="M1645.49 167.62C1602.08 198.86 1546 217.68 1484.76 217.67C1425.34 217.7 1370.78 199.98 1327.93 170.36L1288.76 203.79C1341.76 241.84 1410.13 264.81 1484.74 264.79C1561.22 264.78 1631.06 240.77 1684.56 201.04L1645.49 167.63V167.62Z" fill="url(#paint6_linear_101_177)"/>
</g>
<defs>
<linearGradient id="paint0_linear_101_177" x1="1123.41" y1="-331.79" x2="588.12" y2="1108.42" gradientUnits="userSpaceOnUse">
<stop offset="0.06" stop-color="#0E65AD"/>
<stop offset="0.25" stop-color="#094F8F"/>
<stop offset="0.45" stop-color="#063E78"/>
<stop offset="0.63" stop-color="#04346A"/>
<stop offset="0.79" stop-color="#043166"/>
</linearGradient>
<linearGradient id="paint1_linear_101_177" x1="1189.33" y1="196.32" x2="0" y2="196.32" gradientUnits="userSpaceOnUse">
<stop stop-color="#043166"/>
<stop offset="0.9" stop-color="#0E65AD"/>
</linearGradient>
<linearGradient id="paint2_linear_101_177" x1="823.93" y1="578.26" x2="108.51" y2="578.26" gradientUnits="userSpaceOnUse">
<stop stop-color="#043166"/>
<stop offset="0.9" stop-color="#0E65AD"/>
</linearGradient>
<linearGradient id="paint3_linear_101_177" x1="1740" y1="427.5" x2="1086.6" y2="427.5" gradientUnits="userSpaceOnUse">
<stop stop-color="#0E65AD"/>
<stop offset="0.25" stop-color="#0A5091"/>
<stop offset="0.51" stop-color="#07407C"/>
<stop offset="0.76" stop-color="#05376F"/>
<stop offset="1" stop-color="#05346B"/>
</linearGradient>
<linearGradient id="paint4_linear_101_177" x1="1002.56" y1="394.12" x2="0" y2="394.12" gradientUnits="userSpaceOnUse">
<stop stop-color="#043166"/>
<stop offset="0.9" stop-color="#0E65AD"/>
</linearGradient>
<linearGradient id="paint5_linear_101_177" x1="1739.06" y1="319.77" x2="1189" y2="319.77" gradientUnits="userSpaceOnUse">
<stop stop-color="#0E65AD"/>
<stop offset="0.25" stop-color="#0A5091"/>
<stop offset="0.51" stop-color="#07407C"/>
<stop offset="0.76" stop-color="#05376F"/>
<stop offset="1" stop-color="#05346B"/>
</linearGradient>
<linearGradient id="paint6_linear_101_177" x1="1684.56" y1="216.21" x2="1288.77" y2="216.21" gradientUnits="userSpaceOnUse">
<stop stop-color="#0E65AD"/>
<stop offset="0.25" stop-color="#0A5091"/>
<stop offset="0.51" stop-color="#07407C"/>
<stop offset="0.76" stop-color="#05376F"/>
<stop offset="1" stop-color="#05346B"/>
</linearGradient>
<clipPath id="clip0_101_177">
<rect width="1740" height="700" fill="white"/>
</clipPath>
</defs>
</svg>
