<svg width="1741" height="701" viewBox="0 0 1741 701" fill="none" xmlns="http://www.w3.org/2000/svg">
<g clip-path="url(#clip0_22_1633)">
<path d="M1740.82 0.469971H0.820068V700.47H1740.82V0.469971Z" fill="url(#paint0_linear_22_1633)"/>
<mask id="mask0_22_1633" style="mask-type:luminance" maskUnits="userSpaceOnUse" x="0" y="0" width="1741" height="701">
<path d="M1740.82 0.469971H0.820068V700.47H1740.82V0.469971Z" fill="white"/>
</mask>
<g mask="url(#mask0_22_1633)">
<path opacity="0.51" d="M254.928 -13.1758L-10.4927 -103.068L-276.039 681.006L-10.6183 770.897L254.928 -13.1758Z" fill="url(#paint1_linear_22_1633)"/>
<path opacity="0.51" d="M361.865 582.259L96.4441 492.367L-169.103 1276.44L96.3184 1366.33L361.865 582.259Z" fill="url(#paint2_linear_22_1633)"/>
<path opacity="0.51" d="M888.483 734.237L978.375 468.816L194.301 203.27L104.41 468.691L888.483 734.237Z" fill="url(#paint3_linear_22_1633)"/>
<path opacity="0.51" d="M275.972 1134.52L541.393 1224.41L806.94 440.341L541.519 350.449L275.972 1134.52Z" fill="url(#paint4_linear_22_1633)"/>
<path opacity="0.51" d="M753.585 817.604L843.476 552.182L59.4032 286.636L-30.4885 552.057L753.585 817.604Z" fill="url(#paint5_linear_22_1633)"/>
<path opacity="0.51" d="M1423.53 449.273L1513.43 183.852L729.353 -81.6943L639.461 183.727L1423.53 449.273Z" fill="url(#paint6_linear_22_1633)"/>
<path opacity="0.51" d="M576.328 10.8483L486.436 276.269L1270.51 541.816L1360.4 276.395L576.328 10.8483Z" fill="url(#paint7_linear_22_1633)"/>
<path opacity="0.51" d="M1907.97 50.2701L1642.55 -39.6216L1377 744.452L1642.42 834.343L1907.97 50.2701Z" fill="url(#paint8_linear_22_1633)"/>
<path opacity="0.51" d="M872.505 1302.31L1137.93 1392.2L1403.47 608.128L1138.05 518.237L872.505 1302.31Z" fill="url(#paint9_linear_22_1633)"/>
<path opacity="0.51" d="M1634.12 539.345L1368.7 449.453L1103.15 1233.53L1368.57 1323.42L1634.12 539.345Z" fill="url(#paint10_linear_22_1633)"/>
<path opacity="0.51" d="M811.058 1134.5L1076.48 1224.4L1342.03 440.322L1076.6 350.43L811.058 1134.5Z" fill="url(#paint11_linear_22_1633)"/>
<path opacity="0.51" d="M1212.69 297.632L1478.12 387.523L1743.66 -396.55L1478.24 -486.442L1212.69 297.632Z" fill="url(#paint12_linear_22_1633)"/>
<path opacity="0.51" d="M731.805 -510.095L466.384 -599.987L200.838 184.086L466.259 273.978L731.805 -510.095Z" fill="url(#paint13_linear_22_1633)"/>
<path opacity="0.51" d="M546.27 -441.887L280.849 -531.779L15.3024 252.295L280.723 342.186L546.27 -441.887Z" fill="url(#paint14_linear_22_1633)"/>
</g>
<path d="M798.22 376.86C798.82 377.38 799.55 377.92 800.44 378.44C801.31 378.96 802.29 379.44 803.38 379.86C804.46 380.29 805.63 380.63 806.88 380.89C808.15 381.14 809.45 381.28 810.79 381.28C813.55 381.28 815.7 380.79 817.23 379.83C818.75 378.86 819.52 377.52 819.52 375.8C819.52 374.77 819.27 373.9 818.75 373.18C818.24 372.47 817.53 371.82 816.63 371.25C815.73 370.68 814.66 370.17 813.45 369.69C812.22 369.22 810.9 368.74 809.49 368.24C806.65 367.2 804.31 366.19 802.45 365.17C800.59 364.15 799.11 363.05 798.01 361.84C796.92 360.64 796.14 359.3 795.69 357.81C795.25 356.31 795.03 354.58 795.03 352.61C795.03 350.54 795.45 348.62 796.3 346.87C797.15 345.13 798.33 343.62 799.87 342.36C801.39 341.08 803.21 340.1 805.33 339.4C807.43 338.69 809.74 338.34 812.26 338.34C814.78 338.34 816.85 338.57 818.69 339.05C820.55 339.52 822.14 340.09 823.49 340.75C824.83 341.41 825.95 342.08 826.83 342.78C827.71 343.48 828.41 344.03 828.94 344.47L824.63 351.07C824.24 350.68 823.66 350.24 822.87 349.73C822.08 349.23 821.16 348.75 820.11 348.29C819.06 347.84 817.93 347.46 816.71 347.15C815.5 346.84 814.3 346.69 813.12 346.69C811.94 346.69 810.8 346.82 809.86 347.1C808.92 347.37 808.14 347.75 807.52 348.22C806.9 348.68 806.43 349.25 806.1 349.88C805.78 350.52 805.61 351.2 805.61 351.93C805.61 352.83 805.81 353.59 806.21 354.22C806.61 354.85 807.22 355.44 808.03 355.97C808.84 356.49 809.87 357.01 811.12 357.51C812.4 358.01 813.87 358.58 815.58 359.19C818.13 360.1 820.32 361.06 822.15 362.05C823.98 363.05 825.48 364.18 826.65 365.45C827.83 366.71 828.71 368.16 829.25 369.77C829.8 371.38 830.09 373.25 830.09 375.37C830.09 377.29 829.67 379.11 828.82 380.84C827.98 382.57 826.77 384.08 825.19 385.38C823.61 386.69 821.7 387.72 819.44 388.49C817.18 389.25 814.62 389.64 811.8 389.64C809.59 389.64 807.54 389.44 805.65 389.04C803.76 388.64 802.07 388.14 800.57 387.54C799.06 386.94 797.74 386.27 796.61 385.55C795.48 384.83 794.55 384.16 793.82 383.51L798.2 376.87L798.22 376.86Z" fill="white"/>
<path d="M866.46 367.32H848.66V380.57H870.03V388.92H838.01V339.07H869.69V347.41H848.66V358.95H866.46V367.31V367.32Z" fill="white"/>
<path d="M901.57 378.79H887.15L884.42 388.92H873.66L888.73 339.07H900.02L915.09 388.92H904.34L901.57 378.79ZM889.41 370.43H899.31L894.45 352.01H894.25L889.42 370.43H889.41Z" fill="white"/>
<path d="M921.25 388.92V339.07H937.11C940.51 339.07 943.52 339.65 946.12 340.8C948.72 341.95 950.91 343.56 952.66 345.62C954.42 347.69 955.74 350.15 956.63 353.02C957.52 355.89 957.98 359.02 957.98 362.42V365.61C957.98 369.16 957.49 372.39 956.56 375.26C955.6 378.14 954.23 380.59 952.45 382.6C950.66 384.63 948.48 386.18 945.89 387.28C943.32 388.37 940.4 388.92 937.12 388.92H921.26H921.25ZM931.9 347.41V380.57H935.72C937.26 380.57 938.64 380.39 939.81 380.02C940.99 379.66 942.02 379.14 942.87 378.49C943.72 377.82 944.44 377.03 945.02 376.11C945.59 375.19 946.04 374.17 946.39 373.06C946.73 371.96 946.97 370.76 947.11 369.5C947.24 368.24 947.31 366.93 947.31 365.59V362.34C947.31 360.15 947.13 358.14 946.77 356.32C946.4 354.5 945.77 352.93 944.87 351.62C943.98 350.31 942.79 349.28 941.31 348.54C939.82 347.8 937.95 347.42 935.72 347.42H931.9V347.41Z" fill="white"/>
<path d="M841.76 321.06C834.04 315.01 823.75 311.3 812.46 311.29C801.15 311.27 791.4 315.41 783.67 321.44L786.39 323.77C793.34 318.15 802.74 314.72 813.07 314.73C823.09 314.75 832.21 318.01 839.09 323.34L841.76 321.06Z" fill="white"/>
<path d="M793.82 330.14C798.84 326.23 805.54 323.85 812.88 323.86C820 323.86 826.5 326.13 831.45 329.83L834.21 327.48C828.42 323.07 820.8 320.4 812.45 320.39C804.09 320.37 796.45 323.03 790.66 327.43" fill="white"/>
<path d="M800.94 336.25C804.12 333.97 808.21 332.61 812.68 332.62C817.02 332.62 821 333.92 824.11 336.09L826.98 333.66C823.13 330.88 818.12 329.19 812.69 329.18C807.1 329.18 802.01 330.92 798.1 333.81L800.93 336.25H800.94Z" fill="white"/>
</g>
<defs>
<linearGradient id="paint0_linear_22_1633" x1="617.41" y1="1032.26" x2="1152.7" y2="-407.95" gradientUnits="userSpaceOnUse">
<stop offset="0.06" stop-color="#0E65AD"/>
<stop offset="0.25" stop-color="#094F8F"/>
<stop offset="0.45" stop-color="#063E78"/>
<stop offset="0.63" stop-color="#04346A"/>
<stop offset="0.79" stop-color="#043166"/>
</linearGradient>
<linearGradient id="paint1_linear_22_1633" x1="-261.439" y1="813.537" x2="587.151" y2="316.549" gradientUnits="userSpaceOnUse">
<stop offset="0.06" stop-color="#0E65AD"/>
<stop offset="0.25" stop-color="#094F8F"/>
<stop offset="0.45" stop-color="#063E78"/>
<stop offset="0.63" stop-color="#04346A"/>
<stop offset="0.79" stop-color="#043166"/>
</linearGradient>
<linearGradient id="paint2_linear_22_1633" x1="-149.79" y1="1407.43" x2="698.798" y2="910.432" gradientUnits="userSpaceOnUse">
<stop offset="0.06" stop-color="#0E65AD"/>
<stop offset="0.25" stop-color="#094F8F"/>
<stop offset="0.45" stop-color="#063E78"/>
<stop offset="0.63" stop-color="#04346A"/>
<stop offset="0.79" stop-color="#043166"/>
</linearGradient>
<linearGradient id="paint3_linear_22_1633" x1="61.761" y1="224.424" x2="558.767" y2="1073.02" gradientUnits="userSpaceOnUse">
<stop offset="0.06" stop-color="#0E65AD"/>
<stop offset="0.25" stop-color="#094F8F"/>
<stop offset="0.45" stop-color="#063E78"/>
<stop offset="0.63" stop-color="#04346A"/>
<stop offset="0.79" stop-color="#043166"/>
</linearGradient>
<linearGradient id="paint4_linear_22_1633" x1="788.693" y1="305.052" x2="-59.8949" y2="802.051" gradientUnits="userSpaceOnUse">
<stop offset="0.06" stop-color="#0E65AD"/>
<stop offset="0.25" stop-color="#094F8F"/>
<stop offset="0.45" stop-color="#063E78"/>
<stop offset="0.63" stop-color="#04346A"/>
<stop offset="0.79" stop-color="#043166"/>
</linearGradient>
<linearGradient id="paint5_linear_22_1633" x1="-73.1242" y1="309.547" x2="423.864" y2="1158.14" gradientUnits="userSpaceOnUse">
<stop offset="0.06" stop-color="#0E65AD"/>
<stop offset="0.25" stop-color="#094F8F"/>
<stop offset="0.45" stop-color="#063E78"/>
<stop offset="0.63" stop-color="#04346A"/>
<stop offset="0.79" stop-color="#043166"/>
</linearGradient>
<linearGradient id="paint6_linear_22_1633" x1="596.526" y1="-66.958" x2="1093.52" y2="781.63" gradientUnits="userSpaceOnUse">
<stop offset="0.06" stop-color="#0E65AD"/>
<stop offset="0.25" stop-color="#094F8F"/>
<stop offset="0.45" stop-color="#063E78"/>
<stop offset="0.63" stop-color="#04346A"/>
<stop offset="0.79" stop-color="#043166"/>
</linearGradient>
<linearGradient id="paint7_linear_22_1633" x1="1403.32" y1="525.111" x2="906.32" y2="-323.477" gradientUnits="userSpaceOnUse">
<stop offset="0.06" stop-color="#0E65AD"/>
<stop offset="0.25" stop-color="#094F8F"/>
<stop offset="0.45" stop-color="#063E78"/>
<stop offset="0.63" stop-color="#04346A"/>
<stop offset="0.79" stop-color="#043166"/>
</linearGradient>
<linearGradient id="paint8_linear_22_1633" x1="1411.14" y1="886.402" x2="2259.73" y2="389.404" gradientUnits="userSpaceOnUse">
<stop offset="0.06" stop-color="#0E65AD"/>
<stop offset="0.25" stop-color="#094F8F"/>
<stop offset="0.45" stop-color="#063E78"/>
<stop offset="0.63" stop-color="#04346A"/>
<stop offset="0.79" stop-color="#043166"/>
</linearGradient>
<linearGradient id="paint9_linear_22_1633" x1="1372.73" y1="468.823" x2="524.136" y2="965.812" gradientUnits="userSpaceOnUse">
<stop offset="0.06" stop-color="#0E65AD"/>
<stop offset="0.25" stop-color="#094F8F"/>
<stop offset="0.45" stop-color="#063E78"/>
<stop offset="0.63" stop-color="#04346A"/>
<stop offset="0.79" stop-color="#043166"/>
</linearGradient>
<linearGradient id="paint10_linear_22_1633" x1="1131.29" y1="1371.23" x2="1979.88" y2="874.231" gradientUnits="userSpaceOnUse">
<stop offset="0.06" stop-color="#0E65AD"/>
<stop offset="0.25" stop-color="#094F8F"/>
<stop offset="0.45" stop-color="#063E78"/>
<stop offset="0.63" stop-color="#04346A"/>
<stop offset="0.79" stop-color="#043166"/>
</linearGradient>
<linearGradient id="paint11_linear_22_1633" x1="1309.59" y1="301.27" x2="461.003" y2="798.269" gradientUnits="userSpaceOnUse">
<stop offset="0.06" stop-color="#0E65AD"/>
<stop offset="0.25" stop-color="#094F8F"/>
<stop offset="0.45" stop-color="#063E78"/>
<stop offset="0.63" stop-color="#04346A"/>
<stop offset="0.79" stop-color="#043166"/>
</linearGradient>
<linearGradient id="paint12_linear_22_1633" x1="1718.21" y1="-526.278" x2="869.619" y2="-29.2719" gradientUnits="userSpaceOnUse">
<stop offset="0.06" stop-color="#0E65AD"/>
<stop offset="0.25" stop-color="#094F8F"/>
<stop offset="0.45" stop-color="#063E78"/>
<stop offset="0.63" stop-color="#04346A"/>
<stop offset="0.79" stop-color="#043166"/>
</linearGradient>
<linearGradient id="paint13_linear_22_1633" x1="218.081" y1="321.219" x2="1066.67" y2="-175.78" gradientUnits="userSpaceOnUse">
<stop offset="0.06" stop-color="#0E65AD"/>
<stop offset="0.25" stop-color="#094F8F"/>
<stop offset="0.45" stop-color="#063E78"/>
<stop offset="0.63" stop-color="#04346A"/>
<stop offset="0.79" stop-color="#043166"/>
</linearGradient>
<linearGradient id="paint14_linear_22_1633" x1="30.7788" y1="388.102" x2="879.367" y2="-108.897" gradientUnits="userSpaceOnUse">
<stop offset="0.06" stop-color="#0E65AD"/>
<stop offset="0.25" stop-color="#094F8F"/>
<stop offset="0.45" stop-color="#063E78"/>
<stop offset="0.63" stop-color="#04346A"/>
<stop offset="0.79" stop-color="#043166"/>
</linearGradient>
<clipPath id="clip0_22_1633">
<rect width="1741" height="701" fill="white"/>
</clipPath>
</defs>
</svg>
